<svg xmlns="http://www.w3.org/2000/svg" xmlns:xlink="http://www.w3.org/1999/xlink" width="240" height="240" viewBox="0 0 240 240">
  <defs>
    <linearGradient id="linear-gradient" x1="-0.144" y1="0.867" x2="1" gradientUnits="objectBoundingBox">
      <stop offset="0" stop-color="#0044c1"/>
      <stop offset="1" stop-color="#0165fa"/>
    </linearGradient>
    <filter id="Rectangle_228" x="0" y="0" width="240" height="240" filterUnits="userSpaceOnUse">
      <feOffset dy="3" input="SourceAlpha"/>
      <feGaussianBlur stdDeviation="3" result="blur"/>
      <feFlood flood-opacity="0.161"/>
      <feComposite operator="in" in2="blur"/>
      <feComposite in="SourceGraphic"/>
    </filter>
  </defs>
  <g id="Group_379" data-name="Group 379" transform="translate(-1029 -2010)">
    <g transform="matrix(1, 0, 0, 1, 1029, 2010)" filter="url(#Rectangle_228)">
      <rect id="Rectangle_228-2" data-name="Rectangle 228" width="222" height="222" rx="30" transform="translate(9 6)" fill="url(#linear-gradient)"/>
    </g>
    <g id="Group_378" data-name="Group 378" transform="translate(1083.324 2062.154)">
      <g id="Group_359" data-name="Group 359" transform="translate(30.02 35.568)">
        <path id="Path_3763" data-name="Path 3763" d="M61.362,26.4,58.425,39.779,20.9,90.356,52.878,31.621Z" transform="translate(-20.9 -26.4)" fill="#fff"/>
        <g id="Group_358" data-name="Group 358" transform="translate(26.757)">
          <path id="Path_3764" data-name="Path 3764" d="M29.1,26.4l2.937,13.379L69.889,90.356,37.91,31.621Z" transform="translate(-29.1 -26.4)" fill="#fff"/>
        </g>
      </g>
      <path id="Path_3765" data-name="Path 3765" d="M132.108,108.824l-.326.979c-8.158,20.557-28.715,33.936-52.536,33.936-34.262,0-60.367-26.1-60.367-60.693s26.1-60.693,60.367-60.693c23.494,0,44.378,13.7,52.536,33.936l.326.979h7.179l-.979-2.284C129.5,31.489,105.677,15.5,78.92,15.5c-38.5,0-67.22,29.041-67.22,67.22,0,38.5,29.041,67.219,67.22,67.219,26.757,0,50.578-15.663,59.388-39.483l.979-2.284h-7.179Z" transform="translate(-11.7 -15.5)" fill="#fff"/>
    </g>
  </g>
</svg>
