<svg id="Group_1518" data-name="Group 1518" xmlns="http://www.w3.org/2000/svg" width="100.862" height="100.862" viewBox="0 0 100.862 100.862">
  <g id="Group_1961" data-name="Group 1961" transform="translate(24.437 32.578)">
    <g id="Group_1960" data-name="Group 1960">
      <path id="Path_616" data-name="Path 616" d="M174.392,166.636a4.1,4.1,0,0,0-5.781-.151l-26.1,24.755-12.45-12.784a4.1,4.1,0,0,0-5.859,5.7l15.265,15.675a4.1,4.1,0,0,0,5.743.113l29.026-27.538A4.1,4.1,0,0,0,174.392,166.636Z" transform="translate(-123.214 -165.365)" fill="#08be20"/>
    </g>
  </g>
  <g id="Group_1963" data-name="Group 1963">
    <g id="Group_1962" data-name="Group 1962">
      <path id="Path_617" data-name="Path 617" d="M50.431,0a50.431,50.431,0,1,0,50.431,50.431A50.431,50.431,0,0,0,50.431,0Zm0,92.682A42.252,42.252,0,1,1,92.682,50.431,42.252,42.252,0,0,1,50.431,92.682Z" fill="#08be20"/>
    </g>
  </g>
</svg>
