<svg xmlns="http://www.w3.org/2000/svg" width="703" height="462.81" viewBox="0 0 703 462.81">
  <g id="Group_1485" data-name="Group 1485" transform="translate(-1326.5 -258.19)">
    <g id="Group_1482" data-name="Group 1482" transform="translate(302.5 -258.81)">
      <g id="undraw_Profile_data_re_v81r" transform="translate(1024 517)">
        <path id="Path_5232" data-name="Path 5232" d="M572.817,332.135q-1.215,6.39-2.915,12.65c-.123.485-.26.962-.4,1.447h-15.76a5.068,5.068,0,0,0-5.063,5.063v44.929c-.477.89-.962,1.772-1.447,2.654-2.5,4.557-5.106,9.062-7.768,13.51A513.617,513.617,0,0,1,363.217,588.537l4.282-9.663-4.716-.325c-34.174-2.336-68.464-4.925-101.835-12.606-34.912-8.035-69.064-21.973-96.425-45.081s-47.431-56.125-50.216-91.839a104.788,104.788,0,0,1,3.667-36.459c6.415-22.8,20.432-43.309,40.654-55.445,31.765-19.058,73.2-15.174,106.688.68s60.732,42.079,87.341,67.856A337.343,337.343,0,0,0,243.511,291.726c-14.87-9.518-30.652-17.995-43.294-30.326s-21.958-29.6-19.723-47.113c2.538-19.861,18.8-34.933,35.1-46.556,6.509-4.643,13.228-9.048,20.157-13.1,19.549-11.456,40.7-20.1,63.032-23.3,30.254-4.347,62.931,2.249,86.126,22.153,26.131,22.428,36.85,58.6,35.83,93.2,16.1-23.4,40.929-41.32,68.97-42.079,29.111-.781,56.783,17.611,71.364,42.824S578.263,303.53,572.817,332.135Z" transform="translate(-114.009 -130.052)" fill="#e6e6e6" opacity="0.5"/>
        <path id="Path_5233" data-name="Path 5233" d="M493.255,461.858c17.05-1.5,32.8-3.256,49.323-7.931,16.015-4.532,31.426-12.118,42.827-24.506,12.263-13.323,18.882-30.627,23.552-47.851,2.6-9.6,4.744-19.341,6.762-29.082q3.286-15.854,5.839-31.848,5.082-31.836,7.256-64.047.263-3.91.482-7.823c.09-1.609-2.412-1.6-2.5,0q-1.786,31.751-6.426,63.254c-3.053,20.635-6.958,41.18-11.914,61.444-4.2,17.167-9.633,34.6-20.4,48.894-10.1,13.4-24.679,22.159-40.424,27.4-16.022,5.328-32.916,7.455-49.658,9.037-2.054.194-2.662.379-4.717.56-1.592.14-1.607,2.644,0,2.5Z" transform="translate(-218.63 -162.573)" fill="#fff"/>
        <path id="Path_5234" data-name="Path 5234" d="M121.028,494.6a271.23,271.23,0,0,1,63.43,11.177,274.121,274.121,0,0,1,59.073,25.713,267.434,267.434,0,0,1,49.746,37.455,274.017,274.017,0,0,1,38.859,46.333,271.3,271.3,0,0,1,27.807,53.906q1.321,3.479,2.546,6.994c.527,1.511,2.946.861,2.413-.665a273.86,273.86,0,0,0-26.564-55.248,277.422,277.422,0,0,0-38.116-48.018,270.473,270.473,0,0,0-48.661-38.833,276.224,276.224,0,0,0-122.646-40.774q-3.939-.33-7.886-.543c-1.609-.088-1.6,2.415,0,2.5Z" transform="translate(-115.618 -230.245)" fill="#fff"/>
        <path id="Path_5235" data-name="Path 5235" d="M282.933,167.146a147.4,147.4,0,0,1,38.7,18.909,181.717,181.717,0,0,1,33.033,29.335,243.2,243.2,0,0,1,27.353,37.7A321.6,321.6,0,0,1,403.763,297.3,400.087,400.087,0,0,1,419.6,345.4a449.51,449.51,0,0,1,10.127,50.248,448.586,448.586,0,0,1,4.359,50.534,400.314,400.314,0,0,1-1.432,48.476,308.775,308.775,0,0,1-7.278,44.629,210.875,210.875,0,0,1-13.131,38.591q-1.95,4.225-4.139,8.332c-.757,1.421,1.4,2.687,2.161,1.263a192.9,192.9,0,0,0,14.779-37.2,288.063,288.063,0,0,0,8.813-43.757,380.7,380.7,0,0,0,2.912-48.378,443.882,443.882,0,0,0-3.029-50.836,457.9,457.9,0,0,0-8.817-50.8,414.506,414.506,0,0,0-14.741-49.47,344.207,344.207,0,0,0-20.5-45.526,263.91,263.91,0,0,0-26.284-39.671,195.7,195.7,0,0,0-32.11-31.82A155.274,155.274,0,0,0,293.639,168.3q-4.952-1.971-10.04-3.565c-1.54-.484-2.2,1.931-.665,2.413Z" transform="translate(-160.516 -139.632)" fill="#fff"/>
        <ellipse id="Ellipse_298" data-name="Ellipse 298" cx="179.006" cy="7.233" rx="179.006" ry="7.233" transform="translate(91.848 448.345)" fill="#e6e6e6"/>
        <path id="Path_5248" data-name="Path 5248" d="M976.266,426.948H719.509A6.519,6.519,0,0,0,713,433.457v164.9a6.519,6.519,0,0,0,6.509,6.509H976.266a6.519,6.519,0,0,0,6.509-6.509v-164.9A6.519,6.519,0,0,0,976.266,426.948Zm5.063,171.412a5.068,5.068,0,0,1-5.063,5.063H719.509a5.068,5.068,0,0,1-5.063-5.063v-164.9a5.068,5.068,0,0,1,5.063-5.063H976.266a5.068,5.068,0,0,1,5.063,5.063Z" transform="translate(-279.775 -212.216)" fill="#ccc"/>
        <path id="Path_5249" data-name="Path 5249" d="M779.927,520.241h-40.5a6.155,6.155,0,0,1-6.148-6.148v-40.5a6.155,6.155,0,0,1,6.148-6.148h40.5a6.155,6.155,0,0,1,6.148,6.148v40.5A6.155,6.155,0,0,1,779.927,520.241Z" transform="translate(-285.387 -223.422)" fill="#bed1f9"/>
        <path id="Path_5250" data-name="Path 5250" d="M968.708,596.355H738.714a4.7,4.7,0,1,1,0-9.4h230a4.7,4.7,0,0,1,0,9.4Z" transform="translate(-285.59 -256.496)" fill="#ccc"/>
        <path id="Path_5251" data-name="Path 5251" d="M968.927,564.855h-230a4.7,4.7,0,1,1,0-9.4h230a4.7,4.7,0,1,1,0,9.4Z" transform="translate(-285.65 -247.779)" fill="#ccc"/>
        <path id="Path_5252" data-name="Path 5252" d="M886.921,521.845H852.928a4.7,4.7,0,0,1,0-9.4h33.993a4.7,4.7,0,1,1,0,9.4Z" transform="translate(-317.198 -235.876)" fill="#ccc"/>
        <path id="Path_5253" data-name="Path 5253" d="M1000.476,489.855H852.931a4.7,4.7,0,1,1,0-9.4h147.544a4.7,4.7,0,1,1,0,9.4Z" transform="translate(-317.199 -227.023)" fill="#ccc"/>
        <path id="Path_5254" data-name="Path 5254" d="M849.527,628.355H738.714a4.7,4.7,0,0,1,0-9.4H849.527a4.7,4.7,0,0,1,0,9.4Z" transform="translate(-285.59 -265.352)" fill="#ccc"/>
      </g>
      <g id="Group_1474" data-name="Group 1474" transform="translate(1501.487 579.847)">
        <rect id="Rectangle_260" data-name="Rectangle 260" width="163.241" height="84.915" rx="42.458" transform="translate(20.832 0)" fill="#bed1f9"/>
        <path id="Path_5227" data-name="Path 5227" d="M803.663,704.715l-40.2,18.02,26.917-37.677Z" transform="translate(-763.459 -651.859)" fill="#bed1f9"/>
        <g id="Group_1462" data-name="Group 1462" transform="translate(64.192 33.452)">
          <path id="Path_5228" data-name="Path 5228" d="M601.861,691.711c0,3.457,3.153,6.259,7.042,6.259s7.042-2.8,7.042-6.259-3.153-6.259-7.042-6.259S601.861,688.254,601.861,691.711Z" transform="translate(-536.337 -685.452)" fill="#fff"/>
          <path id="Path_5229" data-name="Path 5229" d="M652.966,691.711c0,3.457,3.153,6.259,7.042,6.259s7.041-2.8,7.041-6.259-3.153-6.259-7.041-6.259S652.966,688.254,652.966,691.711Z" transform="translate(-620.204 -685.452)" fill="#fff"/>
          <path id="Path_5230" data-name="Path 5230" d="M704.072,691.711c0,3.457,3.152,6.259,7.042,6.259s7.041-2.8,7.041-6.259-3.153-6.259-7.041-6.259S704.072,688.254,704.072,691.711Z" transform="translate(-704.072 -685.452)" fill="#fff"/>
        </g>
      </g>
      <g id="Group_1486" data-name="Group 1486" transform="translate(1483.859 773.456)">
        <g id="Group_359" data-name="Group 359" transform="translate(7.048 7.806)">
          <path id="Path_3763" data-name="Path 3763" d="M29.781,26.4l-.645,2.936L20.9,40.437l7.019-12.891Z" transform="translate(-20.9 -26.4)" fill="#f7f8f8"/>
          <g id="Group_358" data-name="Group 358" transform="translate(5.873)">
            <path id="Path_3764" data-name="Path 3764" d="M29.1,26.4l.645,2.936,8.308,11.1L31.034,27.546Z" transform="translate(-29.1 -26.4)" fill="#f7f8f8"/>
          </g>
        </g>
        <path id="Path_3765" data-name="Path 3765" d="M38.127,35.983l-.072.215a12.162,12.162,0,0,1-11.531,7.448A13.015,13.015,0,0,1,13.276,30.325,13.015,13.015,0,0,1,26.525,17a12.341,12.341,0,0,1,11.531,7.448l.072.215H39.7l-.215-.5A13.822,13.822,0,0,0,26.453,15.5,14.425,14.425,0,0,0,11.7,30.253,14.425,14.425,0,0,0,26.453,45.007a13.719,13.719,0,0,0,13.035-8.666l.215-.5H38.127Z" transform="translate(-11.7 -15.5)" fill="#f7f8f8"/>
      </g>
    </g>
    <g id="Group_1484" data-name="Group 1484" transform="translate(1502.105 368.124)">
      <path id="Path_5198" data-name="Path 5198" d="M271.853,530.482a14.382,14.382,0,0,0,4.795-17.993c-.3-.622-1.28-.187-.981.435a13.314,13.314,0,0,1-4.493,16.728C270.6,530.043,271.287,530.869,271.853,530.482Z" transform="translate(-182.457 -249.647)" fill="#fff"/>
      <path id="Path_5199" data-name="Path 5199" d="M288.627,563.066a27.717,27.717,0,0,1-17.291-10.441c-.42-.549-1.249.132-.829.68a28.829,28.829,0,0,0,18.015,10.829c.682.115.783-.953.105-1.067Z" transform="translate(-192.989 -253.456)" fill="#fff"/>
      <path id="Path_5202" data-name="Path 5202" d="M257.047,611.857h-.226v.018l-.054-.018H242.4c4.282-.733,8.555-1.3,12.838-.48.1.018.19.036.29.063.435.081.869.19,1.3.308l.091.027a.315.315,0,0,1,.109.054.142.142,0,0,1,.063.027Z" transform="translate(-135.651 -258.999)" fill="#fff"/>
      <path id="Path_5203" data-name="Path 5203" d="M281.5,564.873c.335-.054.661-.118,1-.163h.009a95.413,95.413,0,0,1,21.139-1.068c.353.018.715.045,1.077.063a95.363,95.363,0,0,1,28.581,6.509c.009,0,.009,0,.009.009.1.036.2.072.29.109,2.128.86,4.228,1.8,6.283,2.816a41.385,41.385,0,0,1,10.728,7.224,23.078,23.078,0,0,1,5.622,8.954c.118.344.235.679.344,1.023.081.272.163.552.244.824,1.068,3.793,1.729,7.795,3.7,11.262a13.264,13.264,0,0,0,1.992,2.662,13.676,13.676,0,0,0,2.68,2.164h2.281a13.14,13.14,0,0,1-3.431-2.164,11.339,11.339,0,0,1-2.073-2.363c-2.245-3.386-2.933-7.514-3.983-11.362-.172-.625-.353-1.231-.552-1.838a24.136,24.136,0,0,0-5.133-8.954,38.2,38.2,0,0,0-10.4-7.614q-3.667-1.928-7.532-3.495c-.335-.145-.67-.272-1-.4a97.848,97.848,0,0,0-51.178-5.4c-.335.045-.661.109-1,.163C280.511,563.958,280.818,564.99,281.5,564.873Z" transform="translate(-280.809 -254.402)" fill="#fff"/>
      <path id="Path_5204" data-name="Path 5204" d="M324.545,568.936a14.379,14.379,0,0,0-7.005-17.252c-.613-.318-1.134.62-.521.938a13.316,13.316,0,0,1,6.484,16.061c-.22.655.824.9,1.042.253Z" transform="translate(-271.135 -253.38)" fill="#fff"/>
      <path id="Path_5205" data-name="Path 5205" d="M312.729,591.967a27.719,27.719,0,0,1-20.093,2.074c-.665-.185-.917.858-.253,1.043a28.83,28.83,0,0,0,20.9-2.2c.614-.319.052-1.233-.559-.916Z" transform="translate(-237.011 -257.194)" fill="#fff"/>
      <path id="Path_5206" data-name="Path 5206" d="M354.776,563.36a8.139,8.139,0,0,1-4.408,6.342c-.617.31-.055,1.225.559.916a9.126,9.126,0,0,0,4.892-7.005.556.556,0,0,0-.4-.648.54.54,0,0,0-.647.4Z" transform="translate(-331.894 -254.453)" fill="#fff"/>
      <path id="Path_5210" data-name="Path 5210" d="M258.211,583.585l8.9,2.933,15.552-32.945-13.141-4.329Z" transform="translate(-175.541 -253.155)" fill="#ffd0a6"/>
      <path id="Path_5211" data-name="Path 5211" d="M256.309,594.4l.607-1.838,1.593-4.844,1.086-3.3,2.969.978.616-.045,8.157-.552,1.086-.072,1.611-.109,1.666-.118,4.653,6.763h.009a13.815,13.815,0,0,1,8.076,6.953c.1.2.19.4.281.6a11.708,11.708,0,0,1,.57,1.5,13.784,13.784,0,0,1,.38,6.862,15.94,15.94,0,0,1-.444,1.675l-.027.091-.109.335-.652-.217-5.722-1.883-20.044-6.6-3.974-1.313-1.222-.407h-.009l-2.372-.779Z" transform="translate(-179.989 -256.486)" fill="#2f2e41"/>
      <path id="Path_5212" data-name="Path 5212" d="M176.726,591.95H186.1l4.46-36.157H176.724Z" transform="translate(-9.661 -253.775)" fill="#ffd0a6"/>
      <path id="Path_5213" data-name="Path 5213" d="M262.227,419.491l4.155,7.188s4.566,1.247,3.074,16.131c-1.054,10.511-1.4,57.57-4.049,88.142-1.1,12.724-2.609,22.592-4.732,25.781L259.37,557.9l-13.641,1.3-.344-.12-5.009-35.377a59.44,59.44,0,0,1,.4-19.112h0l.905-9.959-12.56-50.424s-12.79,32.318-20.937,63.1c-1.962,7.41-9.412,12.122-12.236,18.48-.946,2.13-1.877,4.194-2.784,6.175-5.974,13.042-8.968,22.537-11.234,23.327h-1.811l-10.864-3.621-2.137-5.373,16.623-48.947,12.447-79.03C219.9,405.572,242.152,404.153,262.227,419.491Z" transform="translate(-80.161 -239.819)" fill="#c7c8c8"/>
      <path id="Path_5214" data-name="Path 5214" d="M171,300.249a36.9,36.9,0,0,1,2.879-5.188,26.667,26.667,0,0,1,10.113-9.243l3.567-.788,6.392-1.412,3.368-3.775,5.522-6.183h19.012l2.544,6.183,2.137,5.188.914,2.209,16.278,8.139c.009,0,.009,0,.018.009q-.326,2.444-.643,4.862-.693,5.255-1.3,10.384-.312,2.607-.6,5.188-.91,8.094-1.566,15.907-.584,6.98-.932,13.761a302.34,302.34,0,0,0-.127,30.826c.127,2.417-2.272,5.169-2.082,7.532.317,3.857,3.3,7.279,3.82,10.964.326,2.263.181,4.672.751,6.808a7.6,7.6,0,0,0,.706,1.793c0,.009.009.009.009.018,6.518,11.643,1.4,6.084,2.01,8.7l-.29.072c-.136.036-.552.145-1.222.3-3.83.914-19.618-13.906-30.22-13.906-6.364,0-23.213,10.466-28.853,11.226-4.463.6-8.447,1.141-10.819-.951a5.541,5.541,0,0,1-1.53-2.245l-.027-.081.009-.081.226-3.033.136-1.811,1.937-25.983a9.212,9.212,0,0,0,1.177-9.678l-.4-.842,1.467-19.628.272-3.667.1-1.24v-.009l.706-9.479-1.7-5.178v-.009l-3.313-10.085-1.7-5.188-1.068-3.259-.072-.217A37.016,37.016,0,0,1,171,300.249Z" transform="translate(-56.873 -227.065)" fill="#1c417f"/>
      <path id="Path_5215" data-name="Path 5215" d="M254.37,398.765,272.621,351.6l8.477-17.224-16.3-9.005L251.67,348.5l-8.8,48.327a8.411,8.411,0,1,0,11.688,2.2c-.061-.089-.123-.177-.187-.263Z" transform="translate(-156.761 -231.961)" fill="#ffd0a6"/>
      <path id="Path_5216" data-name="Path 5216" d="M232.854,331.26l4.672-3.024,5.369-10.04,2.77-5.188,1.747-3.259.742-1.394,8.392-5.731,5.667-3.875,4.617,3.875,2.2,1.847-2.155,8.537-1.3,5.188L262.73,329.45,254.391,344.2l-2.073,3.667-1.186,2.109-.009.018-.163.281-21.067-.878-.661-.027-.036-1.5-.018-.543c-.009-.272-.009-.543-.009-.815A33.454,33.454,0,0,1,232.854,331.26Z" transform="translate(-135.612 -229.441)" fill="#1c417f"/>
      <path id="Path_5217" data-name="Path 5217" d="M145.884,380.672l-37.337-34.117L95.571,332.407l-14.3,11.924L98.06,364.955l41.844,25.73a8.41,8.41,0,1,0,6.294-10.093c-.105.024-.21.051-.314.079Z" transform="translate(110.809 -232.627)" fill="#ffd0a6"/>
      <path id="Path_5218" data-name="Path 5218" d="M133.5,318.048l.072-5.188.136-10.384.054-4.029.154-.109a6.8,6.8,0,0,1,2.8-1.05,8.1,8.1,0,0,1,2.653,0,9.445,9.445,0,0,1,1.367.317c.009,0,.009,0,.018.009a15.667,15.667,0,0,1,6.853,4.853l.009.009a67.636,67.636,0,0,1,7.188,10.384c1.023,1.738,2,3.495,2.915,5.188,3.458,6.437,5.948,12.014,5.993,12.113l10.339,13.426-.145.244-2.272,3.884-8.329,14.241-1.322,2.263-3.377-1.8a19.629,19.629,0,0,1-8.8-9.578l-1.2-4.6-.444-.525-11.516-13.761-3.3-3.947Z" transform="translate(46.114 -229.292)" fill="#1c417f"/>
      <ellipse id="Ellipse_295" data-name="Ellipse 295" cx="17.428" cy="17.428" rx="17.428" ry="17.428" transform="translate(139.933 8.657)" fill="#ffd0a6"/>
      <path id="Path_5219" data-name="Path 5219" d="M222.185,236.854c.775-2.711,2.324-5.035,1.549-5.035s-1.162-1.936-1.162-1.936-.775-.387-1.162,0-.774-2.711-.774-2.711-.387-1.162-.775-.387-.387.387-.774-.775-2.324-1.937-2.324-1.937-7.358.387-8.521-1.162-14.329-.387-17.041,1.549-13.392,5.4-7.054,16.262c-3.621,6.337,1.784,17.64,3.181,18.981,2.209,2.121,3.738,2.885,14.191,4.966,2.045.407,7.072-16.7,7.072-16.7S221.41,239.564,222.185,236.854Z" transform="translate(-47.976 -222.193)" fill="#05264f"/>
      <path id="Path_5220" data-name="Path 5220" d="M159.672,593.651l.561-.226,10.085-4.11,1.548-.625,6.536,4.961h.009a13.941,13.941,0,0,1,13.924,13.933v.453H156.549V593.651Z" transform="translate(6.827 -256.89)" fill="#2f2e41"/>
    </g>
  </g>
</svg>
