<svg xmlns="http://www.w3.org/2000/svg" xmlns:xlink="http://www.w3.org/1999/xlink" width="314" height="305.815" viewBox="0 0 314 305.815">
  <defs>
    <linearGradient id="linear-gradient" x1="0.574" y1="-0.345" x2="0.574" y2="0.655" gradientUnits="objectBoundingBox">
      <stop offset="0" stop-color="gray" stop-opacity="0.251"/>
      <stop offset="0.54" stop-color="gray" stop-opacity="0.122"/>
      <stop offset="1" stop-color="gray" stop-opacity="0.102"/>
    </linearGradient>
  </defs>
  <g id="Group_419" data-name="Group 419" transform="translate(-114.533 -72.519)">
    <g id="Group_416" data-name="Group 416" transform="translate(213.729 91.848)">
      <path id="Path_3819" data-name="Path 3819" d="M435,254.185a7.819,7.819,0,0,0-3.468-1.528c-1.329-.306-2.686-.5-4.036-.711L410,249.425a20.612,20.612,0,0,0-5.358-.284,6.8,6.8,0,0,0-4.654,2.4,3.641,3.641,0,0,0-.81,2.281,6,6,0,0,0,.8,2.352,8.407,8.407,0,0,1,.433,1.052c.249.782.3,1.62.625,2.38a2.122,2.122,0,0,0,.3.462.771.771,0,0,1,0,.128c-.192.973.426,2,.149,2.949-.242.8-1.03,1.293-1.528,1.968a2.977,2.977,0,0,0-.071,3.283c.533.824,1.5,1.378,1.776,2.324.362,1.251-.618,2.444-1.492,3.4a53.476,53.476,0,0,0-4.448,5.606,3.555,3.555,0,0,0-.711,1.67c-.078,1.236,1.108,2.331.9,3.553-.163.966-1.108,1.563-1.926,2.132-3.02,2-5.443,5.194-5.685,8.8a30.786,30.786,0,0,0-6.878-15.632,11.205,11.205,0,0,1-2.551-4.008c-.156-.618-.185-1.272-.4-1.869-.711-1.89-2.97-2.693-3.958-4.434-.711-1.215-.711-2.793-1.592-3.858s-2.267-1.322-3.027-2.359a14.726,14.726,0,0,1-.966-2.189,4.761,4.761,0,0,0-1.315-1.57,4.039,4.039,0,0,0-.327-.242,1.128,1.128,0,0,0,.377-.838c0-.831-.824-1.378-1.542-1.784q-1.386-.8-2.707-1.684a6.344,6.344,0,0,0,2.423-1.99,6.5,6.5,0,0,0,.924-4.3,5.378,5.378,0,0,0-1.272-3.261c-.448-.469-1.009-.817-1.478-1.265-1.215-1.18-1.627-2.942-2.132-4.562-.668-2.132-1.712-4.363-3.659-5.5-.938-.54-2.032-.8-2.949-1.371a2.583,2.583,0,0,1-1.364-2.714c.213-.711.874-1.194,1.322-1.8a3.6,3.6,0,0,0-.9-4.974c-.526-.334-1.172-.625-1.279-1.243A2.245,2.245,0,0,1,351.4,220.7a6.73,6.73,0,0,1,0-2.53c.185-1.315.369-2.636.547-3.951a2.541,2.541,0,0,0,1.975,0A18.063,18.063,0,0,0,356.058,217a27.8,27.8,0,0,1,4.974,8.626c.4,1.144.817,2.416,1.869,3.013.362.206.775.313,1.13.533a4.22,4.22,0,0,1,1.108,1.137l2.551,3.382.043.178a1.026,1.026,0,0,0,.114.277.943.943,0,0,0,.611.313c2.615.6,5.549,1.158,7.816-.263,2.046-1.286,2.942-3.809,4.676-5.507,1.229-1.2,2.97-2.132,3.318-3.816a12.493,12.493,0,0,1-1.222-.455c.355-.355.711-.76,1.194-1.236a14.945,14.945,0,0,0,1.89-2.245,14.792,14.792,0,0,0,1.421-3.183q2.054-5.862,4.121-11.717c.654-1.855,1.307-3.709,2.132-5.507.853-1.947,1.862-3.823,2.793-5.734a75.944,75.944,0,0,0,5.521-15.49,5.763,5.763,0,0,0,.22-2.274,6.005,6.005,0,0,0-2.018-3.07,14.8,14.8,0,0,0-3.027-2.508,4.977,4.977,0,0,0-3.794-.611c-1.819.54-2.963,2.4-3.382,4.263a44.628,44.628,0,0,0-.441,5.684c-.256,2.736-1.194,5.372-1.421,8.115-.121,1.592,0,3.2-.192,4.775a17.4,17.4,0,0,1-2.132,5.891,38.054,38.054,0,0,1-9.188,11.319c-.433.369-.881.711-1.307,1.108a6.669,6.669,0,0,1,.092-.924,5.559,5.559,0,0,0-.9.313,2.657,2.657,0,0,0-.107-1.059c-.568-1.7-3.1-2.132-3.553-3.865a7.81,7.81,0,0,1-.121-1.293c-.149-1.513-1.18-2.793-1.535-4.263s-.078-2.842-.711-4.107a11.679,11.679,0,0,0-1.89-2.132,8.353,8.353,0,0,1-1.8-3.389c-.092-.348-.178-.711-.277-1.059a4.811,4.811,0,0,0-.256-2.331c-.647-1.613-2.316-2.643-2.92-4.263-.469-1.258-.263-2.842-1.151-3.823a4.075,4.075,0,0,0-1.684-1.009,36.955,36.955,0,0,0-10.14-2.373c-1.947-.178-4.093-.284-5.486-1.649-1.627-1.592-1.705-4.455-3.61-5.685-1.677-1.087-4.05-.277-5.351,1.243a6.8,6.8,0,0,0-.54.711,7.57,7.57,0,0,1-.149-2.906,6.871,6.871,0,0,1,.071-.711,14.209,14.209,0,0,0,7.7-6.054v.036l.085.22c.206.519.533,1.023,1.016,1.073h0a1.363,1.363,0,0,0,.881-.32,6.947,6.947,0,0,0,1.18-1.023c.178-.192.348-.4.512-.611a8.571,8.571,0,0,0,1.577-3.773c.128-.824.142-1.677.284-2.494a15.556,15.556,0,0,1,.519-1.89c.071-.206.142-.412.206-.618s.156-.483.227-.711a16.411,16.411,0,0,0,.711-4.5v-.767a7.511,7.511,0,0,0-2.387-5.294c-1.222-.995-2.842-1.421-3.738-2.771a13.439,13.439,0,0,1-1.052-3.148,7.106,7.106,0,0,0-5.585-5.031,6.192,6.192,0,0,0-4.42,1.222h0l-.1.071h0A7.1,7.1,0,0,0,329.277,133a5.861,5.861,0,0,1-2.5-1.421c-.711-.661-1.258-1.492-1.975-2.132a5.082,5.082,0,0,0-5.059-1.066,6.048,6.048,0,0,0-3.617,4.143c-.391,1.471-.32,3.148-1.137,4.377-.632.945-1.67,1.421-2.395,2.288a4.262,4.262,0,0,0-.9,1.9h0a5.029,5.029,0,0,0-.121,1.18h0a2.22,2.22,0,0,0,.043.526v.078a3.981,3.981,0,0,0,.121.583h0A4.971,4.971,0,0,0,312.8,145.4a4.728,4.728,0,0,0,1.712,1.229,6.859,6.859,0,0,0,.824.263l.846.192.3.071a14.21,14.21,0,0,0-.4,12.52,5.8,5.8,0,0,1-.071.59,49.212,49.212,0,0,0,.369,8.385,4.477,4.477,0,0,1-.519,3.183,6.09,6.09,0,0,1-1.03.924c.384-.5.775-.995,1.172-1.485a5.037,5.037,0,0,0-4.008-1.03,18.368,18.368,0,0,0-7.816,2.387c-1.592.91-3.226,2.132-5.045,1.911-1.073-.114-2.132-.711-3.176-.426a6.451,6.451,0,0,0-1.627.966A2.25,2.25,0,0,1,293,175.5c-1.116-1.378-2.842-2.309-4.178-3.425a32.465,32.465,0,0,1-4.157-4.455c-2.3-2.771-4.6-5.557-6.857-8.363-1.9-2.359-3.858-4.917-4.192-7.937a7.545,7.545,0,0,1-.05-.9,23.034,23.034,0,0,1,.54-4.263,2.078,2.078,0,0,0,0-1.023c-.213-.711-1.03-.981-1.734-1.137h0a16.31,16.31,0,0,0,.192-1.641c.4-6.111-.036-12.321,1.258-18.3a12.47,12.47,0,0,1,2.949-6.3c2.594-2.615,6.935-3.247,8.925-6.4,1.663-2.586,1-6.246-1.087-8.527a10.762,10.762,0,0,0-8.37-3.1,4.388,4.388,0,0,0-2.437.661,5.155,5.155,0,0,0-1.478,2.238L269.242,110a44.824,44.824,0,0,0-2.231,5.955c-.853,3.119-1.045,6.4-1.72,9.536,0,2.416-1.556,5.429-2.409,7.653-.952,2.508-1.982,4.974-2.842,7.525-.213.647-.959,2.544-1.421,4.263a2.573,2.573,0,0,0-.483.355,12.838,12.838,0,0,0-1.009,1.5c-.647.86-1.7,1.315-2.409,2.132s-.86,2.338.128,2.75a2.876,2.876,0,0,0,.618.135,2.5,2.5,0,0,1,.384.064c1.066.3,1.485,1.648,1.329,2.75s-.711,2.132-.8,3.24c-.192,1.968.959,3.787,2.068,5.436a46.932,46.932,0,0,0,3.794,5.116c1,1.116,2.132,2.132,3.141,3.212,3.844,3.944,6.9,8.569,10.353,12.854a28.523,28.523,0,0,0,4.214,4.427,32.776,32.776,0,0,0,3.19,2.189c1.975,1.265,3.958,2.515,5.94,3.773a6.493,6.493,0,0,0,2.245,1.052,2.715,2.715,0,0,0,.8,0c.036.171.064.348.107.519.462,1.862,1.478,3.553,1.592,5.45s-.057,3.844.078,5.756c.128,1.776.519,3.553.618,5.3.2,3.347-.625,6.665-1.421,9.948-1.2,4.8-1.926,9.706-4.263,14.055a8.3,8.3,0,0,0-1.421,3.794,1.936,1.936,0,0,0,.043.5h0l-1.066.6c-.313.185-.625.362-.91.547-1.35.874-2.792,1.847-3.347,3.368-.448,1.229-.242,2.643-.782,3.83a1.075,1.075,0,0,1-.085.156c-.568,1.108-1.7,1.933-1.954,3.148h0c-.192.938.178,1.919,0,2.842v.036a10.574,10.574,0,0,0-.384,1.421,1.679,1.679,0,0,0,.043.469,2.68,2.68,0,0,0,.853,1.386,5.691,5.691,0,0,0,.831.661c.306.2.618.384.938.561l.185.1c.27.142.54.27.817.4l.185.085c.32.135.647.263.973.377l.227.071c.256.085.519.163.782.234l.178.05.163.036.711.149.263.05q.469.085.959.128h.284c.242,0,.476.036.711.043h1.3a7.957,7.957,0,0,0,1-.092h.107c.3-.043.6-.092.9-.156l.227-.05c.277-.057.554-.128.831-.206l.149-.043c.334-.1.668-.213.995-.334a27.061,27.061,0,0,0,3.283-1.627c.711-.4,1.421-.8,2.132-1.158a16.481,16.481,0,0,1,1.62-.711,9.062,9.062,0,0,1,4.263-.711,16.764,16.764,0,0,1,2.132.441,2.033,2.033,0,0,1,0,.227q.867,5.13,1.712,10.239a20.208,20.208,0,0,1,2.942-1.769,6.518,6.518,0,0,0-.377,1.592,6.411,6.411,0,0,0,0,1.279,2.742,2.742,0,0,1-.2,1.947c-.249.334-.711.519-.846.888a2.966,2.966,0,0,0-.071,1.151,1.854,1.854,0,0,1-1.691,1.727,2.707,2.707,0,0,1-1.073,3.169,3.969,3.969,0,0,0-.824.533,2.458,2.458,0,0,0-.476,1.073,18.948,18.948,0,0,1-5.564,9.145,18.2,18.2,0,0,0-2.75,2.686,12.639,12.639,0,0,0-1.243,2.451q-2.843,6.957-5.77,13.913a30.857,30.857,0,0,0-2.473,8.022c-.853,7.653-7.674,14.147-6.4,21.75a10.7,10.7,0,0,0,2.217,5.2,13.142,13.142,0,0,0,5.684,3.489c5.478,2.132,11.255,3.29,17.011,4.462l9.038,1.855a39.527,39.527,0,0,0,5.386.853c2.181.149,4.42-.057,6.544.5a19.84,19.84,0,0,0,3.929,1.052c1.165.064,2.6-.185,3.29.76s.156,2.217.81,3.055c1.052,1.35,3.617,0,4.761,1.272a5.842,5.842,0,0,1,.711,1.563,2.844,2.844,0,0,0,.711.9,6.069,6.069,0,0,1,.085,1.222,20.976,20.976,0,0,1-1.023,4.839q-1.279,4.327-2.551,8.662a19.388,19.388,0,0,0-.711,3.126,7.525,7.525,0,0,0,0,1.549,4.254,4.254,0,0,0,2.551,3.7,4.674,4.674,0,0,0,3.453-.426,14.894,14.894,0,0,0,2.842-1.919,19.4,19.4,0,0,0,4.1-4.221c3.553-5.315,2.4-12.5,4.9-18.375,1.656-3.929,4.882-7.106,5.954-11.248a4.49,4.49,0,0,0,.085-2.43c-.448-1.421-1.961-2.231-3.375-2.743H358.2a27.874,27.874,0,0,0-3.553-1.009c-.3-.064-.6-.121-.91-.163a5.687,5.687,0,0,1-1.57-2.054,4.712,4.712,0,0,0-.334-1.222,1.286,1.286,0,0,0-1.023-.576c-.711-.071-1.663.192-2.437.135-1.585-.121-2.636-1.677-4.057-2.387a8.354,8.354,0,0,0-4.477-.433,4.138,4.138,0,0,1-1.62-.1,6.253,6.253,0,0,1-1.705-1.18,7.149,7.149,0,0,0-6.26-1.251,6.8,6.8,0,0,1-2.132.476c-1.386-.071-2.366-1.315-3.389-2.253-2.8-2.565-6.786-3.24-10.182-4.924a2.32,2.32,0,0,1-1.222-1.052c-.391-.959.49-1.933,1.286-2.594l5.841-4.846c6.4-5.315,14.389-9.323,17.359-17.11a9.74,9.74,0,0,1,1.421-2.92,3.97,3.97,0,0,1,.789-.711,5.941,5.941,0,0,1,4.37-.86,14.926,14.926,0,0,1,5.144,2.245c2.544,1.549,5.017,3.19,7.425,4.974a63.861,63.861,0,0,1,6.786,5.564c3.73,3.553,6.836,7.759,10.31,11.589s7.447,7.4,12.271,9.237,10.658,1.748,14.8-1.329c4.782-3.553,6.317-9.9,7.525-15.725,2.665-2.579,3.468-6.487,4.768-9.948.817-2.189,1.862-4.263,2.743-6.452,1.052-2.572,1.876-5.223,2.7-7.873a37.853,37.853,0,0,0,1.89-8.221c.341-4.434-.846-9.138.4-13.3,1.641-.362,3.134-1.286,4.747-1.819,2.4-.8,4.974-.668,7.518-.647h.163a3.881,3.881,0,0,0,2.5-.6,3.973,3.973,0,0,0,1.03-3.027C437.212,259,437.041,255.94,435,254.185ZM332.048,132.97a5.262,5.262,0,0,1-1.8.128Z" transform="translate(-254.138 -99.721)" fill="url(#linear-gradient)"/>
      <path id="Path_3820" data-name="Path 3820" d="M357,201.366a7.8,7.8,0,0,1-2.956,1.57l-5.038,1.8c-2.736.981-5.592,1.968-8.477,1.613-1.613-.2-8.527-1.215-9.571-2.473-1.592-1.947,3.986-4.811,5.891-6.452a8,8,0,0,0,1.194-1.052,4.284,4.284,0,0,0,.519-3.176,49.106,49.106,0,0,1-.37-8.363,16.937,16.937,0,0,1,.284-1.982c.711-3.269,3.752-2.075,6.153-1.208a48.126,48.126,0,0,1,8.349,3.617,6,6,0,0,1,2.061,1.748c1.052,1.592.632,3.681.462,5.685-.149,1.556-.142,3.048.831,4.178a10.767,10.767,0,0,1,1.343,1.421A2.664,2.664,0,0,1,357,201.366Z" transform="translate(-276.288 -123.16)" fill="#feb8b8"/>
      <path id="Path_3821" data-name="Path 3821" d="M266.924,127.256c.711-3.155.867-6.4,1.72-9.514a44.61,44.61,0,0,1,2.267-5.94l3.1-7.319a5.145,5.145,0,0,1,1.478-2.231,4.389,4.389,0,0,1,2.437-.661,10.884,10.884,0,0,1,8.37,3.091c2.089,2.245,2.75,5.9,1.087,8.484-1.99,3.1-6.331,3.73-8.925,6.345a12.374,12.374,0,0,0-2.949,6.281c-1.293,5.969-.86,12.165-1.258,18.261-.128,1.89-.5,4.057-2.132,5.045a6.282,6.282,0,0,1-3.183.618l-4.661.071c-.782,0-3.617.49-4.135-.092-.91-1.037,1.165-6.161,1.542-7.3.838-2.544,1.869-5.009,2.842-7.511C265.368,132.67,266.924,129.665,266.924,127.256Z" transform="translate(-255.806 -100.259)" fill="#feb8b8"/>
      <path id="Path_3822" data-name="Path 3822" d="M395.521,449.258c-1.073,4.107-4.3,7.3-5.955,11.22-2.494,5.862-1.371,13.032-4.9,18.333a19.348,19.348,0,0,1-4.1,4.214,15.232,15.232,0,0,1-2.842,1.911,4.673,4.673,0,0,1-3.453.426,4.253,4.253,0,0,1-2.551-3.695,7.457,7.457,0,0,1,0-1.542,19.14,19.14,0,0,1,.711-3.119q1.279-4.32,2.551-8.64a20.914,20.914,0,0,0,1.023-4.832c.092-1.791-1.044-4.121-.561-5.791.22-.753,1.045-1.421,1.421-2.054a11.859,11.859,0,0,0,1.222-2.906c.583-1.982.981-4.1,2.2-5.77a13.541,13.541,0,0,1,2.771-2.594,7.348,7.348,0,0,1,2.643-1.485,6.477,6.477,0,0,1,2.842.135,27.989,27.989,0,0,1,3.553,1.009h.064c1.421.512,2.928,1.3,3.375,2.736A4.464,4.464,0,0,1,395.521,449.258Z" transform="translate(-288.158 -199.031)" fill="#3f3d56"/>
      <path id="Path_3823" data-name="Path 3823" d="M496.172,323.818a3.938,3.938,0,0,1-1.03,3.02,3.878,3.878,0,0,1-2.5.59h-.192c-2.537,0-5.116-.142-7.518.647-1.826.6-3.5,1.712-5.407,1.933-2.622.3-5.088-1.137-7.411-2.387a73.92,73.92,0,0,0-6.729-3.2c-1.506-.618-4.583-1.016-5.308-2.665a24.383,24.383,0,0,1-.625-2.373,7.928,7.928,0,0,0-.433-1.045,6,6,0,0,1-.8-2.352,3.632,3.632,0,0,1,.81-2.274,6.817,6.817,0,0,1,4.654-2.395,20.611,20.611,0,0,1,5.358.284l17.494,2.515c1.35.192,2.707.384,4.036.711a7.917,7.917,0,0,1,3.468,1.521C496.108,318.083,496.279,321.132,496.172,323.818Z" transform="translate(-313.205 -160.947)" fill="#3f3d56"/>
      <path id="Path_3824" data-name="Path 3824" d="M432.927,330.863c-2.132,4.5-.6,9.82-.981,14.794a37.7,37.7,0,0,1-1.89,8.179c-.824,2.643-1.648,5.294-2.7,7.859-.881,2.132-1.926,4.263-2.743,6.438-1.3,3.468-2.132,7.369-4.768,9.948-1.208,5.812-2.743,12.165-7.525,15.689-4.157,3.07-9.948,3.176-14.8,1.322s-8.8-5.407-12.271-9.237-6.58-7.987-10.3-11.554a64.66,64.66,0,0,0-6.8-5.564q-3.616-2.622-7.411-4.953a14.871,14.871,0,0,0-5.144-2.238,5.971,5.971,0,0,0-4.37.853,3.991,3.991,0,0,0-.789.711,9.786,9.786,0,0,0-1.421,2.913c-2.97,7.774-10.95,11.767-17.359,17.053l-5.876,4.867c-.8.661-1.677,1.627-1.286,2.586a2.32,2.32,0,0,0,1.222,1.052c3.4,1.677,7.383,2.352,10.182,4.91,1.023.938,2,2.174,3.389,2.245a6.783,6.783,0,0,0,2.132-.476,7.17,7.17,0,0,1,6.26,1.251,6.1,6.1,0,0,0,1.691,1.222,4.138,4.138,0,0,0,1.62.1,8.649,8.649,0,0,1,4.477.433c1.357.675,2.473,2.267,4.057,2.38.775.057,1.7-.2,2.437-.128a1.28,1.28,0,0,1,1.023.568,4.682,4.682,0,0,1,.334,1.222c.291,1,1.272,1.613,1.911,2.437a6.733,6.733,0,0,1,1.023,4.583,19.553,19.553,0,0,1-6.225,13.053,7.7,7.7,0,0,1-3.83,2.132,3.553,3.553,0,0,1-3.794-1.684,5.842,5.842,0,0,0-.711-1.563c-1.144-1.258-3.709.078-4.761-1.265-.654-.838-.185-2.181-.81-3.048s-2.132-.711-3.29-.76a20.843,20.843,0,0,1-3.929-1.045c-2.132-.554-4.363-.348-6.544-.5a39.531,39.531,0,0,1-5.386-.853l-9.06-1.855a107.123,107.123,0,0,1-17.011-4.455,13.689,13.689,0,0,1-5.685-3.482A10.658,10.658,0,0,1,293,401.82c-1.286-7.582,5.535-14.062,6.4-21.7a30.442,30.442,0,0,1,2.473-8q2.892-6.934,5.77-13.877a12.362,12.362,0,0,1,1.243-2.444,17.858,17.858,0,0,1,2.75-2.679,18.923,18.923,0,0,0,5.564-9.124,2.458,2.458,0,0,1,.476-1.073,4,4,0,0,1,.824-.533,2.7,2.7,0,0,0,1.073-3.162,1.847,1.847,0,0,0,1.691-1.72,2.966,2.966,0,0,1,.071-1.151c.171-.369.6-.554.846-.881a2.746,2.746,0,0,0,.2-1.947,6.345,6.345,0,0,1,0-1.272,6.531,6.531,0,0,1,1.9-3.972c1.7-1.67,4.114-1.236,6.459-1.634a36.931,36.931,0,0,0,6.821-2.181,67.012,67.012,0,0,1,19.263-4.455,42.066,42.066,0,0,1,19.42,3.105,11.053,11.053,0,0,1,2.508,1.421,4.761,4.761,0,0,1,1.315,1.57,14.612,14.612,0,0,0,.966,2.181c.76,1.037,2.2,1.371,3.027,2.352s.9,2.636,1.592,3.851c.988,1.734,3.276,2.537,3.958,4.42.213.6.242,1.251.4,1.869a10.69,10.69,0,0,0,2.551,3.993,30.707,30.707,0,0,1,6.878,15.632c.227-3.6,2.65-6.793,5.685-8.783.817-.533,1.762-1.123,1.926-2.089.206-1.222-.981-2.309-.9-3.553a3.493,3.493,0,0,1,.711-1.663,52.636,52.636,0,0,1,4.448-5.592c.874-.959,1.855-2.132,1.492-3.4-.277-.945-1.243-1.5-1.776-2.324a2.956,2.956,0,0,1,.071-3.269c.5-.675,1.286-1.165,1.528-1.968.277-.945-.341-1.968-.149-2.942a3.642,3.642,0,0,1,1.464-1.9,8.952,8.952,0,0,1,9.131-2.26c3.325.462,7.056,1.172,8.932,3.958C433.211,326.358,433.822,329,432.927,330.863Z" transform="translate(-265.336 -163.445)" fill="#65617d"/>
      <path id="Path_3825" data-name="Path 3825" d="M496.164,323.818a3.937,3.937,0,0,1-1.03,3.02,3.878,3.878,0,0,1-2.5.59h-.192c.291-1.478,2.089-2.324,2.4-3.823a3.382,3.382,0,0,0-.782-2.579c-1.521-2.054-3.965-3.19-6.4-4.022a42.37,42.37,0,0,0-21.36-1.6,21.523,21.523,0,0,0-5.613,1.727,18.342,18.342,0,0,0-1.705,1.208,6.007,6.007,0,0,1-.8-2.352,3.632,3.632,0,0,1,.81-2.274,6.817,6.817,0,0,1,4.654-2.395,20.611,20.611,0,0,1,5.358.284l17.494,2.515c1.35.192,2.707.384,4.036.711a7.921,7.921,0,0,1,3.468,1.521C496.1,318.083,496.27,321.132,496.164,323.818Z" transform="translate(-313.196 -160.947)" opacity="0.1" style="isolation: isolate"/>
      <path id="Path_3826" data-name="Path 3826" d="M395.521,449.773c-1.073,4.107-4.3,7.3-5.955,11.22-2.494,5.862-1.371,13.032-4.9,18.333a19.348,19.348,0,0,1-4.1,4.214,15.232,15.232,0,0,1-2.842,1.911,4.673,4.673,0,0,1-3.453.426,4.253,4.253,0,0,1-2.551-3.695,7.457,7.457,0,0,1,0-1.542l.043.114c.618,1.492,1.627,3.055,3.219,3.318a4.353,4.353,0,0,0,3.283-1.158c2.345-1.883,3.709-4.69,5.01-7.4a30.787,30.787,0,0,0,2.4-6.132c.284-1.208.419-2.444.711-3.652,1.35-5.869,5.947-10.658,6.964-16.606a4.081,4.081,0,0,0,.057-1.243,6.3,6.3,0,0,0-.611-1.549,7.71,7.71,0,0,1-.54-1.72c1.421.512,2.927,1.3,3.375,2.736A4.467,4.467,0,0,1,395.521,449.773Z" transform="translate(-288.158 -199.546)" opacity="0.1" style="isolation: isolate"/>
      <path id="Path_3827" data-name="Path 3827" d="M371.89,420.617a10.3,10.3,0,0,1-3.2,4.377,15.631,15.631,0,0,1-6.9,2.984,6.862,6.862,0,0,1-3.553-.043c-1.577-.547-2.714-2.025-4.327-2.451-1.151-.313-2.387-.036-3.553-.206-2.1-.291-3.723-1.89-5.415-3.169-5.18-3.894-11.98-5.152-17.16-9.045a1.588,1.588,0,0,1-.554-.576,1.71,1.71,0,0,1-.107-.8,16.343,16.343,0,0,1,1.556-6.828,23.866,23.866,0,0,1,2.928-4.171c4.64-5.685,9.3-11.412,14.858-16.208a22.513,22.513,0,0,1,7.816-4.8c1.634-.5,4.86-.981,6.85-.128a3.97,3.97,0,0,0-.789.711,9.786,9.786,0,0,0-1.421,2.913c-2.97,7.774-10.95,11.767-17.359,17.054l-5.862,4.846c-.8.661-1.677,1.627-1.286,2.586a2.321,2.321,0,0,0,1.222,1.052c3.4,1.677,7.383,2.352,10.182,4.91,1.023.938,2,2.174,3.389,2.245a6.781,6.781,0,0,0,2.132-.476,7.17,7.17,0,0,1,6.26,1.251,6.1,6.1,0,0,0,1.691,1.222,4.139,4.139,0,0,0,1.62.1,8.649,8.649,0,0,1,4.477.433c1.357.675,2.473,2.267,4.057,2.38C370.227,420.8,371.151,420.546,371.89,420.617Z" transform="translate(-275.256 -180.579)" opacity="0.1" style="isolation: isolate"/>
      <path id="Path_3828" data-name="Path 3828" d="M295.485,291.2c-1.35.874-2.785,1.847-3.34,3.361-.455,1.222-.242,2.636-.789,3.823s-1.776,2.025-2.046,3.3c-.192.931.185,1.911,0,2.842a11.835,11.835,0,0,0-.391,1.471,3.1,3.1,0,0,0,1.727,2.508,14.424,14.424,0,0,0,12.911,1.386,56.634,56.634,0,0,0,5.429-2.778,10.805,10.805,0,0,1,5.848-1.421c1.172.128,2.3.561,3.468.711a3.609,3.609,0,0,0,3.247-.959,4.114,4.114,0,0,0,.711-1.691,25.134,25.134,0,0,0-.4-11.952c-.938-3.915-2.359-7.7-3.361-11.6a53.406,53.406,0,0,0-2.444-8.591c-1.187-2.736-3.183-5.28-5.976-6.324a1.068,1.068,0,0,0-.711-.085,1.139,1.139,0,0,0-.462.341,21.779,21.779,0,0,0-4.874,8.193c-1.116,3.4-1.421,7.013-2.444,10.438-.441,1.421-1.009,3.325-2.132,4.406A24.612,24.612,0,0,1,295.485,291.2Z" transform="translate(-264.202 -147.61)" fill="#3f3d56"/>
      <path id="Path_3829" data-name="Path 3829" d="M322.286,303.8a4.138,4.138,0,0,1-.746,1.684,3.6,3.6,0,0,1-3.247.959c-1.165-.142-2.288-.576-3.46-.711a10.718,10.718,0,0,0-5.848,1.421c-1.819.91-3.553,2.039-5.436,2.771a14.346,14.346,0,0,1-8.619.49,13.9,13.9,0,0,1-4.263-1.876,3.057,3.057,0,0,1-1.727-2.508,12.218,12.218,0,0,1,.391-1.471c.185-.931-.185-1.911,0-2.842.27-1.279,1.506-2.132,2.046-3.311s.334-2.594.782-3.823c.554-1.513,2-2.487,3.347-3.361a25.528,25.528,0,0,0,4.036-2.6,3.994,3.994,0,0,0,.419-.49,12.781,12.781,0,0,0,1.691-3.915c1.045-3.425,1.329-7.027,2.437-10.438a21.9,21.9,0,0,1,4.882-8.193,1.076,1.076,0,0,1,.455-.341,1.138,1.138,0,0,1,.711.085c2.785,1.052,4.782,3.6,5.976,6.331a55.945,55.945,0,0,1,2.444,8.584c.995,3.9,2.423,7.688,3.361,11.6A25.126,25.126,0,0,1,322.286,303.8Z" transform="translate(-264.207 -147.623)" opacity="0.1" style="isolation: isolate"/>
      <path id="Path_3830" data-name="Path 3830" d="M358.56,192.685a14.211,14.211,0,0,1-17.309-7.816,16.944,16.944,0,0,1,.284-1.982c.711-3.269,3.752-2.075,6.153-1.208a48.125,48.125,0,0,1,8.349,3.617,5.994,5.994,0,0,1,2.061,1.748C359.15,188.613,358.731,190.7,358.56,192.685Z" transform="translate(-279.349 -123.168)" opacity="0.1" style="isolation: isolate"/>
      <circle id="Ellipse_281" data-name="Ellipse 281" cx="14.211" cy="14.211" r="14.211" transform="translate(60.708 41.044)" fill="#feb8b8"/>
      <path id="Path_3831" data-name="Path 3831" d="M390.857,324.914c0,1.18-1.6,1.556-2.785,1.492-4.263-.249-8.434-1.421-12.655-1.066-5.336.483-10.239,3.432-15.59,3.7-2.061.107-4.157-.2-6.189.178-2.629.49-4.974,2.089-7.653,2.316-2.324.2-4.619-.675-6.942-.583a11.158,11.158,0,0,0-4.612,1.322,6.531,6.531,0,0,1,1.9-3.972c1.7-1.67,4.114-1.236,6.459-1.634a36.93,36.93,0,0,0,6.821-2.181,67.01,67.01,0,0,1,19.263-4.455,42.065,42.065,0,0,1,19.42,3.105,11.054,11.054,0,0,1,2.508,1.421A1.116,1.116,0,0,1,390.857,324.914Z" transform="translate(-277.375 -163.451)" opacity="0.1" style="isolation: isolate"/>
      <path id="Path_3832" data-name="Path 3832" d="M340.909,211.235l-5.756-2.132-2.43-.888a11.767,11.767,0,0,0-3.1-.831c-2.785-.213-5.407,1.641-6.892,4.008a21.644,21.644,0,0,0-2.522,7.944q-.981,5.643-1.663,11.326a73.927,73.927,0,0,0-.746,10.324c.163,8.8,2.025,17.48,4.072,26.042a91.432,91.432,0,0,1,2.267,11.54c.171,1.606.249,3.226.419,4.832.185,1.812.483,3.61.782,5.4l1.712,10.211a13.5,13.5,0,0,1,7.177-2.92c2.324-.085,4.626.782,6.942.59,2.665-.227,5.024-1.826,7.653-2.316,2.032-.377,4.128-.078,6.2-.178,5.343-.27,10.253-3.219,15.583-3.7,4.228-.377,8.427.817,12.662,1.059,1.18.071,2.778-.306,2.778-1.492,0-.824-.824-1.371-1.542-1.776a77.494,77.494,0,0,1-9.628-6.871c-2.8-2.217-5.642-4.491-7.567-7.489-4.64-7.212-3.048-16.975-7.006-24.578-3.219-6.189,0-14.289,0-21.253a44.075,44.075,0,0,0-.817-10.374,43.97,43.97,0,0,0-1.9-5.542l-2.764-7a1.147,1.147,0,0,0-.327-.533,1.089,1.089,0,0,0-.632-.185,6.665,6.665,0,0,0-4.59,1.464c-1.3,1.059-2.132,2.579-3.411,3.688C344.454,210.837,342.649,211.874,340.909,211.235Z" transform="translate(-272.562 -130.03)" fill="#e3e8f4"/>
      <path id="Path_3833" data-name="Path 3833" d="M360.5,205.386a12.637,12.637,0,0,1,2.245-5.5c1.3-1.521,3.674-2.324,5.351-1.236,1.9,1.236,1.982,4.093,3.61,5.685,1.421,1.364,3.553,1.464,5.486,1.641a37.183,37.183,0,0,1,10.14,2.388,4.151,4.151,0,0,1,1.684,1.009c.888,1.009.711,2.558,1.151,3.816.6,1.62,2.274,2.65,2.92,4.263.711,1.791,0,3.794-.6,5.635-1.073,3.311-1.748,6.743-2.792,10.062a22.313,22.313,0,0,1-4.974,9.081c-1.08,1.116-2.686,2.132-4.107,1.478l-.547,3.936a6.694,6.694,0,0,0,0,2.523,2.245,2.245,0,0,0,1.649,1.748c.107.611.753.9,1.279,1.236a3.553,3.553,0,0,1,.927,4.938l-.025.036c-.448.6-1.108,1.08-1.322,1.8a2.564,2.564,0,0,0,1.364,2.707c.924.576,2.011.824,2.949,1.371,1.947,1.13,2.992,3.333,3.659,5.486.5,1.62.91,3.368,2.132,4.548.469.455,1.03.8,1.478,1.265a5.356,5.356,0,0,1,1.272,3.254,6.47,6.47,0,0,1-.924,4.263c-1.421,2.039-4.072,2.636-6.4,3.553-3.773,1.549-6.878,4.32-10.2,6.679a10.888,10.888,0,0,1-4.654,2.189c-2.3.313-4.569-.711-6.885-.8a16.758,16.758,0,0,0-4.107.533L358,295.9c.227-3.3-1.592-6.608-2.608-9.756a48.533,48.533,0,0,1-1.819-18.475,145.221,145.221,0,0,1,2.97-18.439c.874-4.263.789-8.719,2.132-12.861,1.258-3.986,3.055-7.816,3.716-11.959C363.467,217.7,358.976,212.015,360.5,205.386Z" transform="translate(-282.863 -128.209)" fill="#3f3d56"/>
      <path id="Path_3834" data-name="Path 3834" d="M404.479,226.4a7.809,7.809,0,0,1,.817,2.309,8.342,8.342,0,0,0,1.8,3.382,11.881,11.881,0,0,1,1.89,2.132c.654,1.236.405,2.743.711,4.1.355,1.471,1.386,2.75,1.535,4.263a7.81,7.81,0,0,0,.121,1.293c.462,1.727,2.991,2.132,3.553,3.851.377,1.123-.27,2.331-.149,3.5a3.08,3.08,0,0,1,.064,1.108,2.214,2.214,0,0,1-.81,1.037,16.425,16.425,0,0,0-4.676,8.328,47.272,47.272,0,0,0-1.073,9.607l-2.778-3.674a4.336,4.336,0,0,0-1.108-1.137c-.355-.213-.767-.32-1.13-.526-1.052-.6-1.464-1.869-1.869-3.006a27.8,27.8,0,0,0-4.974-8.612c-1.13-1.322-2.444-2.665-2.693-4.391a8.039,8.039,0,0,1,.128-2.366c.711-4.661,1.471-9.422,3.738-13.558,1.059-1.933,2.43-3.681,3.446-5.642C401.7,227.1,402.66,223.717,404.479,226.4Z" transform="translate(-294.522 -136.096)" fill="#3f3d56"/>
      <path id="Path_3835" data-name="Path 3835" d="M293.995,212.772a3.241,3.241,0,0,1-.441,1.705,2.244,2.244,0,0,1-2.245.746,6.5,6.5,0,0,1-2.245-1.052q-2.969-1.876-5.94-3.759a32.781,32.781,0,0,1-3.19-2.189,28.463,28.463,0,0,1-4.214-4.413c-3.453-4.263-6.509-8.889-10.353-12.826-1.045-1.066-2.132-2.089-3.141-3.2a46.7,46.7,0,0,1-3.794-5.1c-1.108-1.641-2.26-3.46-2.068-5.422.114-1.108.647-2.132.8-3.233s-.263-2.444-1.329-2.743a2.5,2.5,0,0,0-.384-.064,2.885,2.885,0,0,1-.618-.135c-.988-.412-.838-1.94-.128-2.743s1.762-1.251,2.409-2.132a12.921,12.921,0,0,1,1.009-1.5,3.846,3.846,0,0,1,1.656-.831,25.624,25.624,0,0,1,12.612-.476c.711.156,1.521.441,1.734,1.13a2.078,2.078,0,0,1,0,1.023,22.916,22.916,0,0,0-.54,4.263,7.7,7.7,0,0,0,.05.9c.334,3.013,2.288,5.564,4.192,7.916,2.26,2.8,4.555,5.578,6.857,8.349a32.831,32.831,0,0,0,4.157,4.441c1.421,1.18,3.262,2.132,4.37,3.645.9,1.222.611,2.892.711,4.363A96.807,96.807,0,0,1,293.995,212.772Z" transform="translate(-254.135 -117.988)" fill="#3f3d56"/>
      <path id="Path_3836" data-name="Path 3836" d="M432.423,253.52a15.355,15.355,0,0,0,1.89-2.252,14.6,14.6,0,0,0,1.421-3.176l4.121-11.689c.654-1.847,1.307-3.7,2.132-5.493.853-1.947,1.862-3.809,2.793-5.72a75.644,75.644,0,0,0,5.521-15.419,5.676,5.676,0,0,0,.22-2.267,5.969,5.969,0,0,0-2.018-3.055,14.8,14.8,0,0,0-3.027-2.508,5.038,5.038,0,0,0-3.794-.611c-1.819.54-2.963,2.395-3.382,4.263a44.517,44.517,0,0,0-.441,5.685c-.256,2.729-1.194,5.358-1.421,8.093-.121,1.585,0,3.19-.192,4.768a17.351,17.351,0,0,1-2.132,5.869,37.977,37.977,0,0,1-9.159,11.312,14.783,14.783,0,0,0-2.757,2.65,8.689,8.689,0,0,0-1.329,3.311,7.638,7.638,0,0,0,.576,5.386c1.158,1.968,3.382,2.842,5.507,3.283C429.794,256.54,430.455,255.531,432.423,253.52Z" transform="translate(-302.322 -129.091)" fill="#feb8b8"/>
      <path id="Path_3837" data-name="Path 3837" d="M352.54,146.421a6.644,6.644,0,0,1,6.438-3.489,7.1,7.1,0,0,1,5.585,5.017,12.961,12.961,0,0,0,1.052,3.141c.881,1.371,2.515,1.769,3.738,2.764a7.5,7.5,0,0,1,2.387,5.287,16.047,16.047,0,0,1-.945,5.983,19.07,19.07,0,0,0-.711,2.5c-.142.817-.156,1.663-.284,2.487a8.088,8.088,0,0,1-3.269,5.393,1.363,1.363,0,0,1-.881.32c-.554-.057-.9-.711-1.1-1.286-1.13-3.261-.86-7.255-2.942-9.848a10.544,10.544,0,0,0-3.382-2.523,4.272,4.272,0,0,0-1.72-.647,4.477,4.477,0,0,0-2.487.91A15.791,15.791,0,0,1,349.1,164.6a6.082,6.082,0,0,1-5.081-1.094c-.981-.817-1.7-2.032-2.785-2.665s-2.224-.59-3.3-1.03a4.874,4.874,0,0,1-1.933-7.461c.711-.86,1.762-1.336,2.395-2.281.817-1.229.746-2.906,1.137-4.37a6.042,6.042,0,0,1,3.617-4.128,5.1,5.1,0,0,1,5.059,1.059c.711.64,1.279,1.471,1.975,2.132a5.684,5.684,0,0,0,5.258,1.421" transform="translate(-277.536 -111.758)" fill="#3f3d56"/>
      <path id="Path_3838" data-name="Path 3838" d="M375.755,294.625a2.757,2.757,0,0,0-.753,3.013c.156.334,7.489-1.073,8.264-1.187,1.933-.277,5.322-.142,6.622-1.9,2.316-3.134-4.86-2.444-6.175-2.331C381.212,292.493,377.659,292.8,375.755,294.625Z" transform="translate(-289.069 -155.395)" opacity="0.1" style="isolation: isolate"/>
      <path id="Path_3839" data-name="Path 3839" d="M274.133,165.544a22.911,22.911,0,0,0-.54,4.263c-2.132.433-4.349-.277-6.4-.988l-5.876-2a1.67,1.67,0,0,0-2.245.419,49.775,49.775,0,0,1-3.553,3.944,2.876,2.876,0,0,1-.618-.135c-.988-.412-.838-1.94-.128-2.743s1.762-1.251,2.409-2.132a12.833,12.833,0,0,1,1.009-1.5,3.846,3.846,0,0,1,1.656-.831,25.623,25.623,0,0,1,12.612-.476c.711.156,1.521.441,1.734,1.13A2.08,2.08,0,0,1,274.133,165.544Z" transform="translate(-254.155 -117.976)" fill="#3f3d56"/>
      <path id="Path_3840" data-name="Path 3840" d="M274.133,165.544a22.911,22.911,0,0,0-.54,4.263c-2.132.433-4.349-.277-6.4-.988l-5.876-2a1.67,1.67,0,0,0-2.245.419,49.775,49.775,0,0,1-3.553,3.944,2.876,2.876,0,0,1-.618-.135c-.988-.412-.838-1.94-.128-2.743s1.762-1.251,2.409-2.132a12.833,12.833,0,0,1,1.009-1.5,3.846,3.846,0,0,1,1.656-.831,25.623,25.623,0,0,1,12.612-.476c.711.156,1.521.441,1.734,1.13A2.08,2.08,0,0,1,274.133,165.544Z" transform="translate(-254.155 -117.976)" opacity="0.1" style="isolation: isolate"/>
      <path id="Path_3841" data-name="Path 3841" d="M352.163,355.419a3.509,3.509,0,0,1,2.48,1.862l-8.228-2.1-4.263-1.08c-.753-.192-3.453-.419-3.951-1.009-.711-.867,1.812-.263,2.267-.2,1.378.2,2.757.412,4.128.661C347.181,354.026,349.668,354.787,352.163,355.419Z" transform="translate(-278.43 -172.923)" opacity="0.1" style="isolation: isolate"/>
      <path id="Path_3842" data-name="Path 3842" d="M355.394,364.46c-.711-.476-2.75-.412-3.624-.625-1.279-.306-2.537-.711-3.794-1.1-2.551-.831-5.081-1.776-7.7-2.38-.483-.114-2.132-.135-2.053-.753s1.648-.824,2.039-.853c2.324-.171,5.223.924,7.383,1.7A32.8,32.8,0,0,1,355.394,364.46Z" transform="translate(-278.471 -174.687)" opacity="0.1" style="isolation: isolate"/>
      <path id="Path_3843" data-name="Path 3843" d="M350.877,345.588c-2.608-.711-4.974-2.324-7.66-2.636a3.2,3.2,0,0,1-1.954-.6,2.322,2.322,0,0,1-.632-1.144,13.349,13.349,0,0,1,5.521,1.386,18.837,18.837,0,0,1,2.586,1.379C349.335,344.373,350.231,345.41,350.877,345.588Z" transform="translate(-279.17 -169.615)" opacity="0.1" style="isolation: isolate"/>
      <path id="Path_3844" data-name="Path 3844" d="M421.423,257.864a12.428,12.428,0,0,0,8.712,13.735c-.348,1.684-2.089,2.615-3.318,3.816-1.734,1.691-2.629,4.207-4.676,5.486-2.281,1.421-5.216.867-7.816.27a.944.944,0,0,1-.611-.313,1.027,1.027,0,0,1-.114-.277c-.86-3.155-1.421-6.516-.54-9.664.711-2.693,2.416-4.974,3.78-7.354S418.332,258.646,421.423,257.864Z" transform="translate(-300.005 -145.493)" fill="#3f3d56"/>
      <path id="Path_3845" data-name="Path 3845" d="M322.109,200.512a18.561,18.561,0,0,0-7.816,2.38c-1.592.917-3.226,2.132-5.045,1.911-1.073-.114-2.132-.711-3.176-.426a6.45,6.45,0,0,0-1.627.966,1.838,1.838,0,0,1-1.791.284l-.711,9.834c-.27,3.745-.533,7.56.362,11.206.462,1.855,1.478,3.553,1.592,5.436s-.057,3.83.078,5.741c.128,1.769.519,3.51.618,5.287.2,3.34-.625,6.644-1.421,9.891-1.2,4.789-1.926,9.685-4.263,14.026a8.242,8.242,0,0,0-1.421,3.787,1.964,1.964,0,0,0,.043.5c-.711.391-1.371.753-1.975,1.144-1.35.874-2.792,1.847-3.347,3.361-.448,1.229-.242,2.636-.782,3.823s-1.776,2.032-2.046,3.311c-.192.931.178,1.911,0,2.842a12.219,12.219,0,0,0-.391,1.471,3.086,3.086,0,0,0,1.727,2.508,13.9,13.9,0,0,0,4.263,1.876l4.306-16.84h0a136.086,136.086,0,0,0,9.586-22.347,47.776,47.776,0,0,1,2.778-7.354,35.207,35.207,0,0,0,2.132-4.185,31.512,31.512,0,0,0,1.023-5.613,39.678,39.678,0,0,1,1.67-6.495,27.766,27.766,0,0,0,1.812-6.949c.234-3.425-1.009-7.035.313-10.211a13.6,13.6,0,0,1,2.167-3.261c1.833-2.245,3.5-4.59,5.336-6.843A4.926,4.926,0,0,0,322.109,200.512Z" transform="translate(-264.222 -128.886)" fill="#3f3d56"/>
      <g id="Group_415" data-name="Group 415" transform="translate(57.454 32.326)" opacity="0.1">
        <path id="Path_3846" data-name="Path 3846" d="M363.376,145.214l-.888.064-.107.078A4.744,4.744,0,0,0,363.376,145.214Z" transform="translate(-342.919 -145.214)"/>
        <path id="Path_3847" data-name="Path 3847" d="M371.706,164.111a19.242,19.242,0,0,1-.91,4.15,19.071,19.071,0,0,0-.711,2.5c-.142.817-.156,1.663-.284,2.487a8.087,8.087,0,0,1-3.269,5.393,1.363,1.363,0,0,1-.881.32c-.554-.057-.9-.711-1.1-1.286-1.13-3.262-.86-7.255-2.942-9.848a10.543,10.543,0,0,0-3.382-2.523,4.272,4.272,0,0,0-1.72-.647,4.477,4.477,0,0,0-2.487.91,15.791,15.791,0,0,1-4.917,2.174,6.082,6.082,0,0,1-5.081-1.094c-.981-.817-1.7-2.032-2.785-2.665s-2.224-.59-3.3-1.03a4.838,4.838,0,0,1-2.771-3.169,1.658,1.658,0,0,1-.057-.27,4.976,4.976,0,0,0,.057,2.4,4.838,4.838,0,0,0,2.771,3.169c1.073.441,2.281.441,3.3,1.03s1.8,1.847,2.785,2.665a6.082,6.082,0,0,0,5.081,1.094,15.792,15.792,0,0,0,4.917-2.174,4.477,4.477,0,0,1,2.487-.91,4.273,4.273,0,0,1,1.72.647,10.546,10.546,0,0,1,3.368,2.508c2.082,2.594,1.812,6.587,2.942,9.848.206.583.547,1.229,1.1,1.286a1.363,1.363,0,0,0,.881-.32,8.088,8.088,0,0,0,3.269-5.393c.128-.824.142-1.67.284-2.487a19.075,19.075,0,0,1,.711-2.5,16.048,16.048,0,0,0,.945-5.983A1.346,1.346,0,0,0,371.706,164.111Z" transform="translate(-334.992 -149.353)"/>
      </g>
    </g>
    <path id="Path_3848" data-name="Path 3848" d="M144.377,167.291a29.844,29.844,0,1,1,29.844-29.844A29.844,29.844,0,0,1,144.377,167.291Zm0-58.266A28.423,28.423,0,1,0,172.8,137.448a28.422,28.422,0,0,0-28.423-28.423Z" transform="translate(0 -10.155)" fill="#ccc"/>
    <path id="Path_3849" data-name="Path 3849" d="M496.738,132.206a29.844,29.844,0,1,1,29.844-29.844A29.844,29.844,0,0,1,496.738,132.206Zm0-58.266a28.423,28.423,0,1,0,28.423,28.423A28.422,28.422,0,0,0,496.738,73.94Z" transform="translate(-101.986)" fill="#ccc"/>
    <path id="Path_3850" data-name="Path 3850" d="M187.851,334.851a29.844,29.844,0,1,1,29.844-29.844A29.844,29.844,0,0,1,187.851,334.851Zm0-58.266a28.423,28.423,0,1,0,28.423,28.423A28.423,28.423,0,0,0,187.851,276.585Z" transform="translate(-12.583 -58.653)" fill="#ccc"/>
    <ellipse id="Ellipse_282" data-name="Ellipse 282" cx="11.899" cy="12.029" rx="11.899" ry="12.029" transform="translate(154.774 140.063)" fill="#3f3d56"/>
    <path id="Path_3851" data-name="Path 3851" d="M189,188.308h-2.422v-9.231a8.35,8.35,0,0,1-3.131,1.856v-2.223a7,7,0,0,0,2.061-1.19,4.512,4.512,0,0,0,1.526-2.044H189Z" transform="translate(-19.946 -29.8)" fill="#3f3d56"/>
    <ellipse id="Ellipse_283" data-name="Ellipse 283" cx="11.899" cy="12.029" rx="11.899" ry="12.029" transform="translate(154.774 140.063)" fill="#6c63ff"/>
    <path id="Path_3852" data-name="Path 3852" d="M189,188.308h-2.422v-9.231a8.35,8.35,0,0,1-3.131,1.856v-2.223a7,7,0,0,0,2.061-1.19,4.512,4.512,0,0,0,1.526-2.044H189Z" transform="translate(-19.946 -29.8)" fill="#fff"/>
    <circle id="Ellipse_284" data-name="Ellipse 284" cx="12.029" cy="12.029" r="12.029" transform="translate(404.474 117.51)" fill="#3f3d56"/>
    <path id="Path_3853" data-name="Path 3853" d="M536.444,152.119a2.817,2.817,0,0,0,.517,1.813,1.494,1.494,0,0,0,1.179.639,1.319,1.319,0,0,0,1.065-.523,2.727,2.727,0,0,0,.426-1.714,2.857,2.857,0,0,0-.459-1.8,1.437,1.437,0,0,0-2.27-.026A2.444,2.444,0,0,0,536.444,152.119Zm5.218-5.254-2.229.257a1.727,1.727,0,0,0-.426-1.062,1.206,1.206,0,0,0-.892-.342,1.489,1.489,0,0,0-1.233.685,6,6,0,0,0-.635,2.855,2.646,2.646,0,0,1,2.139-1.064,3.2,3.2,0,0,1,2.469,1.15,4.278,4.278,0,0,1,1.027,2.965A4.365,4.365,0,0,1,540.8,155.4a3.82,3.82,0,0,1-5.4.092,3.873,3.873,0,0,1-.364-.406q-1.171-1.477-1.172-4.847,0-3.454,1.221-4.98a3.871,3.871,0,0,1,3.171-1.526,3.277,3.277,0,0,1,2.265.8,3.822,3.822,0,0,1,1.143,2.327Z" transform="translate(-121.37 -20.612)" fill="#3f3d56"/>
    <circle id="Ellipse_285" data-name="Ellipse 285" cx="12.029" cy="12.029" r="12.029" transform="translate(404.474 117.51)" fill="#6c63ff"/>
    <path id="Path_3854" data-name="Path 3854" d="M536.444,152.119a2.817,2.817,0,0,0,.517,1.813,1.494,1.494,0,0,0,1.179.639,1.319,1.319,0,0,0,1.065-.523,2.727,2.727,0,0,0,.426-1.714,2.857,2.857,0,0,0-.459-1.8,1.437,1.437,0,0,0-2.27-.026A2.444,2.444,0,0,0,536.444,152.119Zm5.218-5.254-2.229.257a1.727,1.727,0,0,0-.426-1.062,1.206,1.206,0,0,0-.892-.342,1.489,1.489,0,0,0-1.233.685,6,6,0,0,0-.635,2.855,2.646,2.646,0,0,1,2.139-1.064,3.2,3.2,0,0,1,2.469,1.15,4.278,4.278,0,0,1,1.027,2.965A4.365,4.365,0,0,1,540.8,155.4a3.82,3.82,0,0,1-5.4.092,3.873,3.873,0,0,1-.364-.406q-1.171-1.477-1.172-4.847,0-3.454,1.221-4.98a3.871,3.871,0,0,1,3.171-1.526,3.277,3.277,0,0,1,2.265.8,3.822,3.822,0,0,1,1.143,2.327Z" transform="translate(-121.37 -20.612)" fill="#fff"/>
    <circle id="Ellipse_286" data-name="Ellipse 286" cx="12.029" cy="12.029" r="12.029" transform="translate(187.66 259.937)" fill="#3f3d56"/>
    <path id="Path_3855" data-name="Path 3855" d="M231.252,347.588a1.528,1.528,0,0,0,.4,1.121,1.4,1.4,0,0,0,1.052.4,1.424,1.424,0,0,0,1.064-.406,1.539,1.539,0,0,0,.4-1.126,1.493,1.493,0,0,0-.394-1.084,1.391,1.391,0,0,0-1.045-.406,1.43,1.43,0,0,0-1.073.411A1.5,1.5,0,0,0,231.252,347.588Zm-.216,5.38a2.251,2.251,0,0,0,.5,1.55,1.588,1.588,0,0,0,1.235.557,1.534,1.534,0,0,0,1.2-.536,2.262,2.262,0,0,0,.474-1.546,2.033,2.033,0,0,0-.482-1.416,1.57,1.57,0,0,0-1.223-.536,1.446,1.446,0,0,0-1.277.608,2.281,2.281,0,0,0-.42,1.32Zm-.266-2.956a2.74,2.74,0,0,1-1.319-1.084,2.886,2.886,0,0,1-.411-1.511,3.083,3.083,0,0,1,.952-2.322,4.446,4.446,0,0,1,5.407,0,3.07,3.07,0,0,1,.961,2.322,2.754,2.754,0,0,1-1.681,2.594,3.184,3.184,0,0,1,2.072,3.083,3.717,3.717,0,0,1-3.507,3.917,3.564,3.564,0,0,1-.436,0,4.248,4.248,0,0,1-2.77-.9,3.554,3.554,0,0,1-1.306-2.913,3.675,3.675,0,0,1,.491-1.87,3.181,3.181,0,0,1,1.548-1.316Z" transform="translate(-33.052 -78.628)" fill="#3f3d56"/>
    <circle id="Ellipse_287" data-name="Ellipse 287" cx="12.029" cy="12.029" r="12.029" transform="translate(187.66 259.937)" fill="#6c63ff"/>
    <path id="Path_3856" data-name="Path 3856" d="M231.252,347.588a1.528,1.528,0,0,0,.4,1.121,1.4,1.4,0,0,0,1.052.4,1.424,1.424,0,0,0,1.064-.406,1.539,1.539,0,0,0,.4-1.126,1.493,1.493,0,0,0-.394-1.084,1.391,1.391,0,0,0-1.045-.406,1.43,1.43,0,0,0-1.073.411A1.5,1.5,0,0,0,231.252,347.588Zm-.216,5.38a2.251,2.251,0,0,0,.5,1.55,1.588,1.588,0,0,0,1.235.557,1.534,1.534,0,0,0,1.2-.536,2.262,2.262,0,0,0,.474-1.546,2.033,2.033,0,0,0-.482-1.416,1.57,1.57,0,0,0-1.223-.536,1.446,1.446,0,0,0-1.277.608,2.281,2.281,0,0,0-.42,1.32Zm-.266-2.956a2.74,2.74,0,0,1-1.319-1.084,2.886,2.886,0,0,1-.411-1.511,3.083,3.083,0,0,1,.952-2.322,4.446,4.446,0,0,1,5.407,0,3.07,3.07,0,0,1,.961,2.322,2.754,2.754,0,0,1-1.681,2.594,3.184,3.184,0,0,1,2.072,3.083,3.717,3.717,0,0,1-3.507,3.917,3.564,3.564,0,0,1-.436,0,4.248,4.248,0,0,1-2.77-.9,3.554,3.554,0,0,1-1.306-2.913,3.675,3.675,0,0,1,.491-1.87,3.181,3.181,0,0,1,1.548-1.316Z" transform="translate(-33.052 -78.628)" fill="#fff"/>
    <g id="Group_417" data-name="Group 417" transform="translate(233.056 73.696)">
      <path id="Path_3857" data-name="Path 3857" d="M282.391,107.293a1.747,1.747,0,0,1-.914-2.3h0l2.373-5.511-.269-.137,1.618-3.741.259.144,8.5-19.744a3.03,3.03,0,0,1,3.611-1.716l13.217,3.755a2.292,2.292,0,0,1,1.439,3.2L298.9,108.874a2.838,2.838,0,0,1-3.2,1.532L282.7,107.394h0A1.761,1.761,0,0,1,282.391,107.293Z" transform="translate(-281.334 -74.176)" fill="#3f3d56"/>
      <path id="Path_3858" data-name="Path 3858" d="M293.943,108.818l-6.837-1.584a.575.575,0,0,0-.636.289h0a.651.651,0,0,1-.72.328l-1.44-.334a1.379,1.379,0,0,1-.956-1.887L295.656,77a1.574,1.574,0,0,1,1.9-.885l13.123,3.96a1.215,1.215,0,0,1,.813,1.514,1.317,1.317,0,0,1-.065.169l-13,27.448a1.961,1.961,0,0,1-2.215,1.071l-1.518-.352A.981.981,0,0,0,293.943,108.818Z" transform="translate(-281.886 -74.716)" fill="#6c63ff"/>
    </g>
    <g id="Group_418" data-name="Group 418" transform="translate(159.539 233.771)">
      <path id="Path_3859" data-name="Path 3859" d="M209.329,302.6,193.6,313.61,177.872,302.6a3.152,3.152,0,0,1,3.143-3.143h25.172A3.152,3.152,0,0,1,209.329,302.6Z" transform="translate(-177.872 -299.455)" fill="#2c3e50" stroke="#fff" stroke-linecap="round" stroke-linejoin="round" stroke-width="2"/>
      <path id="Path_3860" data-name="Path 3860" d="M209.329,303.878v18.876a3.153,3.153,0,0,1-3.142,3.148H181.015a3.153,3.153,0,0,1-3.143-3.148V303.878L193.6,314.89Z" transform="translate(-177.872 -300.735)" fill="#2c3e50" stroke="#fff" stroke-linecap="round" stroke-linejoin="round" stroke-width="2"/>
    </g>
    <path id="telegram" d="M140.006,148.462l-.509,7.143a1.776,1.776,0,0,0,1.42-.682l3.411-3.256,7.056,5.165c1.294.721,2.207.341,2.556-1.191l4.632-21.711h0c.41-1.914-.693-2.662-1.954-2.193l-27.234,10.425c-1.86.721-1.831,1.759-.316,2.228l6.963,2.161L152.2,136.431c.76-.5,1.453-.227.883.279Z" transform="translate(-3.886 -17.101)" fill="#2c3e50"/>
    <path id="Path_3861" data-name="Path 3861" d="M505.837,93.446a14.645,14.645,0,0,0-14.7,14.589,14.437,14.437,0,0,0,2.11,7.533l-2.653,7.827,8.14-2.586a14.624,14.624,0,1,0,7.106-27.362Zm7.311,20.129a3.8,3.8,0,0,1-2.6,1.676c-.689.037-.709.535-4.468-1.1s-6.02-5.6-6.2-5.861a7.207,7.207,0,0,1-1.387-3.907,4.167,4.167,0,0,1,1.431-3.057,1.442,1.442,0,0,1,1.018-.428c.3,0,.487-.009.706,0s.548-.045.833.711.965,2.617,1.052,2.807a.683.683,0,0,1,.007.653,2.579,2.579,0,0,1-.4.608c-.2.21-.413.47-.588.632-.2.178-.4.372-.194.753a11.229,11.229,0,0,0,1.99,2.656,10.262,10.262,0,0,0,2.948,1.96c.369.2.588.179.817-.062s.978-1.052,1.243-1.415.512-.293.851-.156,2.15,1.107,2.519,1.307.615.3.7.461a3.088,3.088,0,0,1-.285,1.762Z" transform="translate(-108.845 -6.057)" fill="#2c3e50"/>
  </g>
</svg>
