<?xml version="1.0" encoding="utf-8"?>
<!-- Generator: Adobe Illustrator 25.0.1, SVG Export Plug-In . SVG Version: 6.00 Build 0)  -->
<svg version="1.1" id="Layer_1" xmlns="http://www.w3.org/2000/svg" xmlns:xlink="http://www.w3.org/1999/xlink" x="0px" y="0px"
	 viewBox="0 0 500 500" style="enable-background:new 0 0 500 500;" xml:space="preserve">
<style type="text/css">
	.st0{fill:#D7F0E9;}
	.st1{fill:#E3F8F2;}
	.st2{fill:#FFFFFF;}
</style>
<g>
	<g>
		<g>
			<path class="st0" d="M267.7,58c-21.1-0.2-149.1-2.2-152.8,33.5c-3.6,34.1,46,21.6,46.5,36.8c0.5,15.9-8.9,20.5-35.3,19.5
				c-11.4-0.4-47.5,3.6-48.1,26.4c-0.6,22.7,39.7,19.8,37.7,38.6c-1.2,21.4-31.8,26-43.8,31.7c-13.1,6.9-37.2,18.1-31.7,42.4
				c7.3,28.1,53.6,23.1,71,26.5c11.6,1.9,48.7,5.2,43.4,30.1c-2.8,15-33.2,15.8-27.4,35.1c5.9,18,58.9,21.5,69.6,22.1
				c44.6,2.4,142.5,6.4,186.1-12c16-6.7,30.2-14.8,28.5-38.8c-0.8-21.5-12.4-24.6,7.1-41.2c12.3-10.7,35.9-9.8,34.5-41
				c-0.8-16.8-43.8-23.8-42.8-41.4c1.5-27.6,54.3-4.2,54.5-53.1c0.1-30.5-95.9-13.4-94.9-43.6c-1.3-12.3,19.8-17.5,18.9-31
				C389.3,76.7,364.4,60.6,267.7,58z"/>
		</g>
		<path class="st1" d="M183.9,279.4c-0.1,0.1-0.2,0.1-0.4,0.1c-24.5,0-49,0-73.5,0c-0.3,0-0.7-0.2-0.7-0.6c-0.8-3.5,3.2-6.2,6-4.9
			c0.4-1.8,2.1-3,4-2.8c-1-3.2,0.4-6.4,3.7-8c3.1-1.4,6-0.3,7.8,2.1c1.1-5.4,5.7-10.1,11.4-10.5c3.1-0.2,6.4,0.7,8.8,2.7
			c2.4,2,3.2,4.2,3.8,6.9c1.8-2.6,4.7-3.8,8-2.8c3.3,1,3.7,4.4,3.6,7.4c2.7-2.2,5.9-3.3,9.3-1.2c2.9,1.7,3.5,4.5,3.6,7.5
			c2.4-1.4,4.8,0,5,3.2C184.3,279.1,184.1,279.3,183.9,279.4z"/>
		<path class="st0" d="M389,127c0,14.1,38.2,16.7,40.2,0C431.2,110.3,389,105.8,389,127z"/>
		<path class="st0" d="M80.3,343.8c0,14.1,47.3,16.8,49,0C131.4,323.1,80.3,319.1,80.3,343.8z"/>
		<path class="st0" d="M356.1,423.3c0,16.7,56.1,19.9,58.2,0C416.7,398.7,356.1,394,356.1,423.3z"/>
		<path class="st0" d="M76.3,128c0,9.2,26.1,11,27,0C104.5,114.5,76.3,111.9,76.3,128z"/>
		<path class="st2" d="M203,300.9c0.8-3.9-5-7.5-9.5-6.1c0.7-2.7-0.1-5.1-4.1-6.3c-1.6-0.5-3.6-0.5-5.4,0c3.1-6.2,0.2-13.3-9.4-14.8
			c-10.5-1.6-22.1,3.6-24.2,11.8c-8.5-8.4-26.6,1.7-21.3,11.3c-3.3-0.5-6.7,1.3-6.9,4.1c-3.3-1.1-6,2.3-3.9,5.2
			c0.1,0.2,0.5,0.3,0.8,0.3c29.7,0,59.3,0,89,0c0.2,0,0.4-0.1,0.5-0.1c0.1-0.1,0.3-0.2,0.3-0.4C210,303.1,206.3,300.4,203,300.9z"/>
		<path class="st2" d="M226.7,358.2c0.3-1.7-2.2-3.3-4.2-2.7c0.3-1.2,0-2.3-1.8-2.8c-0.7-0.2-1.6-0.2-2.4,0c1.4-2.7,0.1-5.9-4.2-6.5
			c-4.6-0.7-9.8,1.6-10.7,5.2c-3.8-3.7-11.8,0.7-9.4,5c-1.5-0.2-3,0.6-3,1.8c-1.5-0.5-2.6,1-1.7,2.3c0.1,0.1,0.2,0.2,0.3,0.2
			c13.1,0,26.2,0,39.3,0c0.1,0,0.2,0,0.2-0.1c0.1,0,0.1-0.1,0.1-0.2C229.8,359.2,228.1,358,226.7,358.2z"/>
		<path class="st2" d="M385.5,197.9c0.1,0,0.2,0.1,0.3,0.1c18.2,0,36.5,0,54.7,0c0.2,0,0.5-0.2,0.5-0.4c0.6-2.6-2.4-4.6-4.4-3.6
			c-0.3-1.3-1.6-2.2-3-2.1c0.8-2.4-0.3-4.8-2.8-5.9c-2.3-1.1-4.4-0.2-5.8,1.5c-0.8-4-4.3-7.5-8.5-7.8c-2.3-0.2-4.7,0.5-6.5,2
			c-1.8,1.5-2.4,3.1-2.8,5.2c-1.3-1.9-3.5-2.8-6-2.1c-2.5,0.8-2.8,3.3-2.7,5.5c-2-1.6-4.4-2.4-6.9-0.9c-2.1,1.3-2.6,3.4-2.7,5.6
			c-1.8-1-3.6,0-3.7,2.4C385.2,197.6,385.3,197.8,385.5,197.9z"/>
		<path class="st2" d="M242.9,99.6c0.1,0,0.1,0.1,0.2,0.1c12.3,0,24.6,0,37,0c0.2,0,0.3-0.1,0.4-0.3c0.4-1.8-1.6-3.1-3-2.5
			c-0.2-0.9-1.1-1.5-2-1.4c0.5-1.6-0.2-3.2-1.9-4c-1.5-0.7-3-0.1-3.9,1c-0.5-2.7-2.9-5.1-5.7-5.3c-1.6-0.1-3.2,0.3-4.4,1.3
			c-1.2,1-1.6,2.1-1.9,3.5c-0.9-1.3-2.4-1.9-4-1.4c-1.7,0.5-1.9,2.2-1.8,3.7c-1.3-1.1-2.9-1.6-4.7-0.6c-1.4,0.9-1.8,2.3-1.8,3.8
			c-1.2-0.7-2.4,0-2.5,1.6C242.7,99.5,242.8,99.6,242.9,99.6z"/>
	</g>
	<g>
		<g>
			<polygon class="st2" points="336.3,301.7 333.9,312.3 304.2,352.3 329.5,305.8 			"/>
			<g>
				<polygon class="st2" points="325.4,301.7 327.7,312.3 357.7,352.3 332.4,305.8 				"/>
			</g>
		</g>
		<path class="st2" d="M375.8,347.4l-0.3,0.8c-6.5,16.3-22.7,26.9-41.6,26.9c-27.1,0-47.8-20.7-47.8-48s20.7-48,47.8-48
			c18.6,0,35.1,10.8,41.6,26.9l0.3,0.8h5.7l-0.8-1.8c-7-18.6-25.8-31.2-47-31.2c-30.5,0-53.2,23-53.2,53.2c0,30.5,23,53.2,53.2,53.2
			c21.2,0,40-12.4,47-31.2l0.8-1.8h-5.7V347.4z"/>
	</g>
</g>
</svg>
