<svg xmlns="http://www.w3.org/2000/svg" width="279.719" height="114.409" viewBox="0 0 279.719 114.409">
  <g id="Group_1476" data-name="Group 1476" transform="translate(-95.295 -217.849)" opacity="0.53">
    <g id="Group_1473" data-name="Group 1473" transform="translate(252.176 230.133)" opacity="0.32">
      <path id="Path_5224" data-name="Path 5224" d="M1581.856,839.314a1.407,1.407,0,0,0-1.423-.427c-2.533.685-7.121-.337-9.389-1.13l-2.47-12.231c1.783-1.611,5.615-4.333,8.215-4.685a1.406,1.406,0,0,0,1.145-.945l3.126-9.3a1.409,1.409,0,0,0-.341-1.445c-1.86-1.852-3.269-6.336-3.716-8.7l9.357-8.254c2.287.739,6.56,2.7,8.165,4.773a1.408,1.408,0,0,0,1.392.518l9.614-1.941a1.407,1.407,0,0,0,1.081-1.018c.674-2.536,3.853-6,5.674-7.567l11.827,3.977c.5,2.35.945,7.029-.051,9.457a1.409,1.409,0,0,0,.247,1.465l6.488,7.355a1.408,1.408,0,0,0,1.422.427c2.534-.685,7.122.337,9.39,1.13l2.47,12.231c-1.782,1.61-5.615,4.333-8.216,4.685a1.409,1.409,0,0,0-1.145.945l-3.126,9.3a1.41,1.41,0,0,0,.342,1.446c1.86,1.851,3.269,6.335,3.717,8.7l-9.358,8.254c-2.286-.739-6.559-2.7-8.165-4.773a1.406,1.406,0,0,0-1.39-.518l-9.614,1.942a1.409,1.409,0,0,0-1.082,1.018c-.673,2.536-3.852,6-5.672,7.567l-11.827-3.977c-.5-2.349-.946-7.029.05-9.457a1.407,1.407,0,0,0-.246-1.465Zm26.9-3a12.288,12.288,0,1,0-14.478-9.613A12.288,12.288,0,0,0,1608.758,836.313Zm1.559,7.725a20.17,20.17,0,1,0-23.763-15.778A20.169,20.169,0,0,0,1610.318,844.038Z" transform="translate(-1568.574 -786.968)" fill="#0052d9"/>
      <path id="Path_5225" data-name="Path 5225" d="M1719.17,922.623a1.117,1.117,0,0,1,.857-.807l7.611-1.537a1.116,1.116,0,0,1,1.1.411c1.271,1.645,4.654,3.194,6.465,3.779l7.409-6.536c-.354-1.869-1.469-5.42-2.943-6.886a1.116,1.116,0,0,1-.27-1.145l2.475-7.361a1.116,1.116,0,0,1,.906-.749c2.059-.279,5.094-2.433,6.506-3.709l-1.955-9.684c-1.8-.628-5.429-1.437-7.435-.895a1.114,1.114,0,0,1-1.126-.338l-5.138-5.824a1.119,1.119,0,0,1-.2-1.159c.79-1.923.439-5.628.041-7.489l-9.365-3.149c-1.442,1.241-3.959,3.983-4.492,5.991a1.115,1.115,0,0,1-.856.807l-7.613,1.537a1.114,1.114,0,0,1-1.1-.411c-1.271-1.644-4.655-3.194-6.466-3.779l-7.409,6.536c.354,1.869,1.47,5.42,2.942,6.886a1.115,1.115,0,0,1,.271,1.144l-2.475,7.361a1.118,1.118,0,0,1-.908.749c-2.059.278-5.093,2.434-6.505,3.709l1.956,9.685c1.8.628,5.429,1.437,7.434.895a1.117,1.117,0,0,1,1.127.338l5.138,5.825a1.114,1.114,0,0,1,.195,1.16c-.789,1.923-.439,5.628-.04,7.488l9.365,3.15C1716.119,927.373,1718.636,924.631,1719.17,922.623Zm2.622-11.678a12.105,12.105,0,1,1,9.469-14.261A12.105,12.105,0,0,1,1721.792,910.945Z" transform="translate(-1626.451 -826.489)" fill="#0052d9"/>
    </g>
    <g id="Group_1474" data-name="Group 1474" transform="translate(95.295 217.849)">
      <rect id="Rectangle_260" data-name="Rectangle 260" width="90.6" height="47.129" rx="23.564" transform="translate(0 0)" fill="#bed1f9"/>
      <path id="Path_5227" data-name="Path 5227" d="M763.459,695.968l22.314,10-14.939-20.911Z" transform="translate(-683.61 -666.632)" fill="#bed1f9"/>
      <g id="Group_1462" data-name="Group 1462" transform="translate(22.352 18.566)">
        <path id="Path_5228" data-name="Path 5228" d="M609.677,688.926a3.935,3.935,0,1,1-3.908-3.474A3.71,3.71,0,0,1,609.677,688.926Z" transform="translate(-601.861 -685.452)" fill="#fff"/>
        <path id="Path_5229" data-name="Path 5229" d="M660.782,688.926a3.935,3.935,0,1,1-3.908-3.474A3.71,3.71,0,0,1,660.782,688.926Z" transform="translate(-634.783 -685.452)" fill="#fff"/>
        <path id="Path_5230" data-name="Path 5230" d="M711.888,688.926a3.935,3.935,0,1,1-3.908-3.474A3.71,3.71,0,0,1,711.888,688.926Z" transform="translate(-667.705 -685.452)" fill="#fff"/>
      </g>
    </g>
  </g>
</svg>
