<svg id="instagram" xmlns="http://www.w3.org/2000/svg" width="25.821" height="25.821" viewBox="0 0 25.821 25.821">
  <path id="Path_3775" data-name="Path 3775" d="M211.942,209.471A2.471,2.471,0,1,1,209.471,207,2.471,2.471,0,0,1,211.942,209.471Zm0,0" transform="translate(-196.561 -196.561)" fill="#e6e7ea"/>
  <path id="Path_3776" data-name="Path 3776" d="M147.342,137.194a2.455,2.455,0,0,0-1.407-1.407,4.1,4.1,0,0,0-1.376-.255c-.782-.036-1.016-.043-3-.043s-2.214.007-3,.043a4.1,4.1,0,0,0-1.376.255,2.456,2.456,0,0,0-1.407,1.407,4.1,4.1,0,0,0-.255,1.377c-.036.782-.043,1.016-.043,3s.008,2.214.043,3a4.1,4.1,0,0,0,.255,1.376,2.455,2.455,0,0,0,1.407,1.407,4.1,4.1,0,0,0,1.377.255c.782.036,1.016.043,3,.043s2.214-.007,3-.043a4.1,4.1,0,0,0,1.377-.255,2.455,2.455,0,0,0,1.407-1.407,4.1,4.1,0,0,0,.255-1.376c.036-.782.043-1.016.043-3s-.007-2.214-.043-3A4.1,4.1,0,0,0,147.342,137.194Zm-5.779,8.179a3.807,3.807,0,1,1,3.807-3.807A3.807,3.807,0,0,1,141.562,145.373Zm3.957-6.874a.89.89,0,1,1,.89-.89A.89.89,0,0,1,145.52,138.5Zm0,0" transform="translate(-128.652 -128.656)" fill="#e6e7ea"/>
  <path id="Path_3777" data-name="Path 3777" d="M12.91,0a12.91,12.91,0,1,0,12.91,12.91A12.912,12.912,0,0,0,12.91,0Zm7.369,15.967a5.439,5.439,0,0,1-.345,1.8,3.791,3.791,0,0,1-2.168,2.168,5.443,5.443,0,0,1-1.8.345c-.791.036-1.043.045-3.056.045s-2.266-.009-3.057-.045a5.443,5.443,0,0,1-1.8-.345,3.791,3.791,0,0,1-2.168-2.168,5.438,5.438,0,0,1-.345-1.8c-.036-.791-.045-1.043-.045-3.057s.008-2.266.045-3.056a5.44,5.44,0,0,1,.344-1.8A3.793,3.793,0,0,1,8.054,5.886a5.444,5.444,0,0,1,1.8-.345C10.645,5.506,10.9,5.5,12.91,5.5s2.266.009,3.056.045a5.445,5.445,0,0,1,1.8.344,3.792,3.792,0,0,1,2.168,2.168,5.438,5.438,0,0,1,.345,1.8c.036.791.045,1.043.045,3.056S20.315,15.176,20.279,15.967Zm0,0" transform="translate(0)" fill="#e6e7ea"/>
</svg>
