<svg xmlns="http://www.w3.org/2000/svg" width="25.821" height="25.821" viewBox="0 0 25.821 25.821">
  <path id="linkedin" d="M12.91,0a12.91,12.91,0,1,0,12.91,12.91A12.912,12.912,0,0,0,12.91,0ZM9.159,19.517H6.015v-9.46H9.159ZM7.587,8.766h-.02A1.639,1.639,0,1,1,7.608,5.5a1.639,1.639,0,1,1-.021,3.269ZM20.5,19.517H17.352V14.456c0-1.272-.455-2.139-1.593-2.139a1.721,1.721,0,0,0-1.613,1.15,2.153,2.153,0,0,0-.1.767v5.283H10.9s.041-8.572,0-9.46h3.144V11.4a3.122,3.122,0,0,1,2.834-1.561c2.069,0,3.62,1.352,3.62,4.258Zm0,0" fill="#e6e7ea"/>
</svg>
