<svg xmlns="http://www.w3.org/2000/svg" xmlns:xlink="http://www.w3.org/1999/xlink" width="778.402" height="504.36" viewBox="0 0 778.402 504.36">
  <defs>
    <clipPath id="clip-path">
      <path id="SVGID" d="M137.744,400.431l.041-15.07a18.168,18.168,0,0,0,4.662,11.775L142.4,412.21A18.189,18.189,0,0,1,137.744,400.431Z" transform="translate(-137.744 -385.361)" fill="#376cac"/>
    </clipPath>
  </defs>
  <g id="Group_1439" data-name="Group 1439" transform="translate(-1118.568 -299.14)">
    <path id="Path_5065" data-name="Path 5065" d="M-18270,572c-24,16-214,112-80,154s100,48,218,94,214,42,328-20,244-60,156-112-100-94-226-86-210-40-250-68S-18246,556-18270,572Z" transform="translate(19516 -47.501)" fill="#03162e" opacity="0.05"/>
    <g id="Group_1412" data-name="Group 1412" transform="translate(1162.449 -17.433)">
      <g id="Group_1399" data-name="Group 1399" transform="translate(99.801 316.574)">
        <g id="Group_1394" data-name="Group 1394" transform="translate(0 106.885)">
          <g id="Group_1393" data-name="Group 1393" style="isolation: isolate">
            <path id="Path_5046" data-name="Path 5046" d="M224.429,342.286l-.163-.095a14.334,14.334,0,0,0-1.521-.74c-.095-.041-.2-.068-.3-.108-.167-.063-.338-.117-.515-.181-.262-.09-.515-.2-.781-.275-.284-.081-.587-.135-.88-.2-.176-.041-.352-.086-.533-.122-.095-.018-.19-.05-.284-.068a18.389,18.389,0,0,0-1.828-.212,1.075,1.075,0,0,0-.122,0c-.144-.009-.3,0-.447,0-.474-.014-.948-.032-1.435-.014-.162.009-.334.041-.5.05-.3.023-.6.059-.907.095-.284.032-.56.041-.844.081-.248.04-.51.117-.763.162-.406.081-.817.162-1.232.266-.226.054-.442.081-.668.14s-.46.172-.682.239c-.7.208-1.408.456-2.13.731-.253.1-.5.154-.754.262-.144.059-.293.153-.438.217a36.723,36.723,0,0,0-3.8,1.891l-72.979,42.136a46.315,46.315,0,0,0-4.707,3.182c-.262.2-.524.384-.781.587a55.417,55.417,0,0,0-4.247,3.737c-.113.108-.239.2-.357.311-.221.217-.429.465-.645.69-.682.7-1.35,1.4-2.008,2.139-.208.235-.438.447-.645.686-.176.2-.339.42-.515.627-.4.465-.781.943-1.169,1.422-.253.316-.519.614-.767.934-.2.266-.4.546-.6.812-.284.379-.56.758-.839,1.137-.19.262-.388.514-.573.781-.316.451-.618.921-.925,1.381-.194.289-.393.578-.582.871-.081.122-.162.239-.239.356-.537.844-1.061,1.7-1.562,2.559l-.1.18c-.1.176-.194.357-.3.533-.343.609-.691,1.214-1.02,1.833-.153.293-.3.591-.447.884s-.311.6-.46.912c-.131.257-.271.514-.4.776-.343.718-.668,1.435-.988,2.162-.054.122-.113.244-.167.366l-.045.1c-.388.9-.758,1.805-1.11,2.712-.063.171-.117.343-.181.51-.126.334-.239.663-.357.993-.162.451-.334.9-.487,1.354-.117.357-.212.713-.325,1.074-.131.415-.262.83-.384,1.246-.072.253-.162.51-.23.763-.131.465-.226.93-.343,1.395-.131.515-.262,1.029-.379,1.544-.041.176-.095.357-.131.537-.081.37-.122.74-.19,1.115-.158.808-.3,1.616-.415,2.419-.032.221-.086.442-.117.663s-.014.406-.041.614a45.409,45.409,0,0,0-.343,5.317l.239,85.634c.027,9.04,3.218,15.4,8.368,18.391L155.079,569.9c-5.15-2.992-8.34-9.352-8.368-18.4l-.239-85.634a44.583,44.583,0,0,1,.348-5.317c.05-.424.09-.849.153-1.273.113-.8.262-1.611.415-2.424.1-.546.2-1.1.32-1.647.117-.514.248-1.029.379-1.548.181-.718.366-1.435.578-2.157q.183-.623.379-1.246.379-1.211.812-2.423c.117-.329.23-.664.357-.993.415-1.11.857-2.221,1.336-3.322.054-.122.113-.244.167-.365q.657-1.483,1.39-2.947c.149-.3.3-.6.456-.9q.711-1.374,1.476-2.731c.1-.171.19-.343.289-.514q.914-1.577,1.9-3.1c.19-.289.388-.573.582-.867.487-.731.988-1.449,1.5-2.162q.413-.576.839-1.137c.442-.591.9-1.169,1.363-1.742.388-.483.776-.966,1.173-1.435.379-.442.767-.871,1.155-1.3.654-.731,1.327-1.449,2.008-2.139.334-.339.663-.677,1-1.006,1.377-1.331,2.794-2.582,4.247-3.732.262-.2.524-.393.781-.587a45.635,45.635,0,0,1,4.707-3.182l72.979-42.135a37.332,37.332,0,0,1,3.809-1.9c.4-.171.794-.321,1.187-.474.722-.28,1.431-.523,2.13-.736.456-.135.907-.271,1.349-.375.415-.1.826-.19,1.232-.266.542-.1,1.079-.185,1.607-.248.3-.032.609-.068.912-.09a18.535,18.535,0,0,1,1.932-.036c.149,0,.3,0,.447,0a16.994,16.994,0,0,1,2.234.284c.181.032.357.081.533.122a14.669,14.669,0,0,1,1.665.478c.172.059.343.113.514.181a14.459,14.459,0,0,1,1.981.943Z" transform="translate(-99.801 -340.256)" fill="#376cac"/>
            <g id="Group_1392" data-name="Group 1392" transform="translate(46.671 27.113)">
              <path id="Path_5047" data-name="Path 5047" d="M213.242,350.417c16.717-9.649,30.3-1.914,30.352,17.295l.244,85.634c.05,18.2-12.745,40.366-28.614,49.528l-76.07,43.918c-15.837,9.144-28.718,1.805-28.772-16.4l-.239-85.634c-.054-19.208,13.436-42.573,30.121-52.209Z" transform="translate(-110.142 -346.264)" fill="#e0f2ff"/>
            </g>
          </g>
        </g>
        <g id="Group_1397" data-name="Group 1397" transform="translate(27.436)">
          <g id="Group_1396" data-name="Group 1396" style="isolation: isolate">
            <path id="Path_5048" data-name="Path 5048" d="M125.927,369.939,107.9,359.464c-1.214-.7-1.968-2.2-1.972-4.337L123.95,365.6C123.959,367.733,124.713,369.231,125.927,369.939Z" transform="translate(-105.708 -181.127)" fill="none"/>
            <path id="Path_5049" data-name="Path 5049" d="M152.741,433.709l-.217-77.768c-.036-12.077-4.306-20.522-11.233-24.466L123.265,321c6.928,3.945,11.2,12.389,11.233,24.466l.221,77.767c0,2.144.758,3.651,1.972,4.36l18.026,10.471C153.5,437.36,152.75,435.853,152.741,433.709Z" transform="translate(-44.802 -301.023)" fill="#1c417f"/>
            <path id="Path_5050" data-name="Path 5050" d="M194.114,320.041l-.28-.162a24.963,24.963,0,0,0-2.591-1.264c-.167-.072-.343-.117-.51-.181-.289-.113-.587-.208-.876-.311-.447-.158-.885-.338-1.34-.469-.487-.144-1-.235-1.5-.347-.3-.068-.6-.149-.912-.208-.167-.032-.32-.086-.487-.113a29.11,29.11,0,0,0-3.119-.366c-.068,0-.14,0-.208,0-.248-.014-.505,0-.758,0-.808-.027-1.616-.059-2.451-.018-.28.014-.573.063-.853.086-.515.036-1.038.095-1.557.154-.483.054-.952.072-1.44.144-.42.068-.862.2-1.291.275-.7.131-1.4.28-2.117.456-.384.09-.749.135-1.137.239s-.776.284-1.155.4c-1.2.357-2.41.781-3.642,1.255-.433.167-.844.262-1.282.442s-.853.4-1.282.582c-.406.185-.812.366-1.223.56-1.562.74-3.137,1.534-4.734,2.46-1.661.957-3.3,2.013-4.924,3.128-.528.361-1.047.763-1.571,1.142-1.088.785-2.171,1.589-3.24,2.437-.591.474-1.178.97-1.765,1.462-.984.826-1.954,1.67-2.916,2.55q-.887.8-1.751,1.629c-.361.347-.736.668-1.1,1.02-.375.375-.727.794-1.1,1.174-1.169,1.187-2.311,2.41-3.439,3.665-.361.4-.745.763-1.1,1.174-.293.339-.569.709-.862,1.052-.682.8-1.345,1.62-2.008,2.442-.433.542-.894,1.056-1.318,1.611-.348.447-.672.916-1.011,1.372q-.724.961-1.431,1.936c-.33.456-.673.889-1,1.349-.533.763-1.043,1.557-1.562,2.333-.334.5-.677.993-1,1.5-.14.212-.284.415-.424.632-.916,1.435-1.81,2.893-2.667,4.369-.054.095-.1.19-.162.289-.167.289-.325.591-.492.885-.6,1.052-1.2,2.1-1.769,3.173-.262.492-.5.988-.749,1.48-.266.519-.533,1.034-.79,1.557-.226.456-.469.9-.686,1.358-.578,1.2-1.119,2.4-1.656,3.611-.1.23-.212.451-.311.681l-.086.19q-1,2.309-1.9,4.635c-.108.28-.2.56-.3.839-.212.569-.406,1.137-.609,1.706-.28.781-.578,1.557-.839,2.333-.2.6-.361,1.2-.551,1.8-.221.708-.442,1.422-.65,2.13-.131.447-.284.894-.406,1.34-.217.781-.379,1.562-.578,2.347-.221.88-.451,1.76-.645,2.645-.072.311-.167.627-.235.939-.131.636-.2,1.259-.325,1.9-.262,1.377-.51,2.749-.7,4.116-.059.388-.149.776-.2,1.16-.113.849-.167,1.693-.253,2.537-.059.609-.131,1.223-.181,1.828-.144,1.923-.235,3.827-.23,5.7l.221,77.772c0,2.135.758,3.633,1.972,4.337L126.1,505.386c-1.214-.708-1.968-2.207-1.977-4.337l-.217-77.772c0-1.882.086-3.787.23-5.709.045-.6.122-1.209.18-1.81q.183-1.848.447-3.714c.2-1.363.447-2.735.709-4.111.181-.943.343-1.887.555-2.839.2-.88.429-1.76.65-2.64.311-1.227.627-2.459.984-3.687.208-.709.429-1.422.65-2.13q.65-2.071,1.39-4.143c.2-.564.4-1.128.6-1.688.718-1.9,1.471-3.8,2.288-5.673.1-.226.208-.451.307-.677q1.117-2.5,2.351-4.983c.257-.515.519-1.034.781-1.548q1.212-2.349,2.523-4.653c.167-.3.325-.6.492-.889,1.038-1.792,2.13-3.552,3.254-5.285.325-.505.668-1,1-1.5q1.246-1.868,2.555-3.678.711-.982,1.435-1.945c.758-1.011,1.544-2,2.329-2.979.664-.821,1.327-1.638,2-2.442.645-.758,1.309-1.489,1.968-2.225q1.686-1.882,3.439-3.665c.727-.74,1.453-1.485,2.2-2.2.573-.55,1.155-1.088,1.738-1.625q1.449-1.313,2.929-2.555c.582-.492,1.164-.984,1.756-1.453,1.074-.853,2.162-1.661,3.254-2.451.519-.375,1.034-.772,1.562-1.133,1.62-1.115,3.259-2.171,4.924-3.128,1.6-.925,3.173-1.72,4.734-2.46.411-.194.817-.379,1.223-.56.867-.384,1.711-.7,2.564-1.025,1.228-.474,2.442-.9,3.638-1.255.772-.23,1.539-.46,2.3-.645.713-.172,1.417-.32,2.112-.451.925-.172,1.837-.316,2.731-.42.523-.059,1.047-.122,1.557-.158a32.574,32.574,0,0,1,3.308-.063c.253.009.51-.009.758,0a28.98,28.98,0,0,1,3.814.483c.307.059.609.14.912.208a26.606,26.606,0,0,1,2.839.817c.289.1.587.2.871.307a24.73,24.73,0,0,1,3.385,1.611Z" transform="translate(-105.88 -316.574)" fill="#376cac"/>
            <g id="Group_1395" data-name="Group 1395" transform="translate(18.026 10.459)">
              <path id="Path_5051" data-name="Path 5051" d="M161.365,325.981c28.524-16.473,51.708-3.263,51.8,29.517l.221,77.772A14.883,14.883,0,0,1,206.592,445c-3.755,2.166-6.792.433-6.806-3.881l-.217-77.767c-.036-12.077-4.306-20.522-11.233-24.466s-16.419-3.349-26.926,2.717c-10.538,6.088-19.976,16.41-26.854,28.334s-11.094,25.256-11.057,37.329l.221,77.772a14.944,14.944,0,0,1-6.792,11.73c-3.755,2.166-6.824.456-6.838-3.859l-.217-77.772C109.811,382.337,132.837,342.449,161.365,325.981Z" transform="translate(-109.874 -318.891)" fill="#e0f2ff"/>
            </g>
          </g>
        </g>
        <g id="Group_1398" data-name="Group 1398" transform="translate(96.276 198.569)">
          <path id="Path_5052" data-name="Path 5052" d="M141.262,363.334c11.148-6.436,20.2-1.241,20.237,11.567.027,9.568-5.01,20.734-12.235,28.424l.1,34.937c.014,5.185-3.611,11.459-8.088,14.045-4.513,2.609-8.16.528-8.173-4.658l-.1-35.176c-6.977.33-11.847-4.91-11.87-14.271C121.1,385.4,130.087,369.783,141.262,363.334Z" transform="translate(-121.133 -360.571)" fill="#05264f"/>
        </g>
      </g>
      <g id="Group_1411" data-name="Group 1411" transform="translate(197.033 600.474)">
        <g id="Group_1410" data-name="Group 1410" style="isolation: isolate">
          <path id="Path_5053" data-name="Path 5053" d="M173.764,384.7a17.891,17.891,0,0,0-2.383-1.147l-.131-.04c-.126-.05-.262-.086-.388-.131-.487-.18-.975-.356-1.485-.505-.266-.072-.542-.131-.812-.2-.153-.036-.311-.077-.469-.113s-.289-.077-.438-.108c-.537-.113-1.083-.208-1.634-.284-.19-.027-.384-.041-.573-.063-.135-.018-.271-.032-.411-.045-.2-.023-.406-.054-.618-.072-.537-.041-1.074-.072-1.616-.086-.167,0-.329,0-.5,0-.149,0-.293,0-.442,0-.248,0-.5,0-.745,0-.609.022-1.219.063-1.823.122-.068,0-.135.018-.2.027-.158.018-.316.045-.478.068-.474.059-.948.113-1.413.2-.208.036-.393.1-.6.144-.564.117-1.106.262-1.647.411-.289.081-.6.126-.876.217-.131.045-.239.117-.37.162a18.793,18.793,0,0,0-3.254,1.435l-.2.117c-.316.19-.537.406-.821.6a13.277,13.277,0,0,0-1.155.857c-.032.027-.077.05-.108.081a9.569,9.569,0,0,0-1.02,1.1c-.068.086-.113.176-.176.262s-.126.181-.185.275c-.1.149-.217.293-.3.447a6.5,6.5,0,0,0-.438.939c-.018.049-.027.095-.045.144s-.032.122-.05.185a5.688,5.688,0,0,0-.172.6,5.544,5.544,0,0,0-.108.943l0,.149-.041,15.07a5.782,5.782,0,0,1,.28-1.693c.023-.063.032-.122.054-.18a6.77,6.77,0,0,1,.785-1.535c.059-.09.117-.18.181-.271a9.406,9.406,0,0,1,1.309-1.444,12.662,12.662,0,0,1,1.16-.857c.338-.239.627-.5,1.015-.722a18.3,18.3,0,0,1,3.254-1.431c.406-.14.821-.262,1.246-.379.537-.154,1.083-.3,1.643-.411.663-.135,1.327-.262,2.013-.347.158-.018.316-.05.478-.068.916-.095,1.841-.144,2.771-.153h.442c.912.009,1.828.059,2.731.153.135.014.275.032.411.045a26.71,26.71,0,0,1,2.645.456c.158.036.311.077.469.117a21.844,21.844,0,0,1,2.293.7c.131.045.266.081.393.131a18.392,18.392,0,0,1,2.514,1.187c3.25,1.877,4.879,4.337,4.87,6.8l.045-15.07C178.643,389.041,177.014,386.577,173.764,384.7Z" transform="translate(-35.997 -370.937)" fill="#376cac"/>
          <g id="Group_1402" data-name="Group 1402" transform="translate(74.014 26.552)" style="isolation: isolate">
            <g id="Group_1401" data-name="Group 1401" clip-path="url(#clip-path)">
              <g id="Group_1400" data-name="Group 1400">
                <path id="Path_5054" data-name="Path 5054" d="M142.447,397.136,142.4,412.21a18.189,18.189,0,0,1-4.658-11.779l.041-15.07a18.168,18.168,0,0,0,4.662,11.775" transform="translate(-137.744 -385.361)" fill="#376cac"/>
              </g>
            </g>
          </g>
          <g id="Group_1403" data-name="Group 1403" transform="translate(98.919 51.267)">
            <path id="Path_5055" data-name="Path 5055" d="M146.494,390.837l-.043,15.071-3.189,1.853.043-15.07Z" transform="translate(-143.262 -390.837)" fill="#fff"/>
          </g>
          <path id="Path_5056" data-name="Path 5056" d="M208.016,386.774a14.394,14.394,0,0,1-.167,1.458c-.072.393-.19.785-.293,1.178-.122.46-.235.921-.4,1.381-.131.375-.311.749-.474,1.119-.208.483-.415.966-.672,1.44-.185.343-.406.682-.618,1.025-.334.542-.686,1.079-1.083,1.607-.23.311-.487.623-.745.93a27.936,27.936,0,0,1-1.95,2.1c-.257.248-.492.5-.763.745-.438.4-.93.781-1.408,1.164-.429.343-.835.69-1.291,1.02-.524.379-1.1.74-1.656,1.106-.578.375-1.128.763-1.751,1.124a49.512,49.512,0,0,1-5.181,2.582c-.6.257-1.25.465-1.868.7-1.191.465-2.388.916-3.633,1.309a67.445,67.445,0,0,1-7.691,1.909c-1.395.262-2.807.456-4.233.641-.614.077-1.214.19-1.837.253-1.995.207-4.012.329-6.034.384-.451.009-.9,0-1.349,0-1.643.013-3.286-.018-4.924-.1-.465-.027-.939-.045-1.4-.077-1.959-.14-3.909-.343-5.827-.627-.37-.054-.731-.131-1.1-.189-1.909-.311-3.809-.664-5.655-1.124l-.041,15.07c.871.221,1.756.42,2.645.6.993.2,2,.357,3.01.519.37.063.727.14,1.1.194.149.018.289.054.438.077q2.221.312,4.477.5c.3.027.609.031.912.049.469.036.939.05,1.408.077.736.041,1.471.1,2.207.117.9.023,1.81,0,2.712-.013.451,0,.9.009,1.354,0,.217,0,.433,0,.645,0,1.71-.059,3.417-.172,5.1-.339.095-.009.19-.027.284-.036.618-.068,1.223-.18,1.837-.257,1.259-.162,2.523-.3,3.755-.523.167-.027.311-.086.478-.117a65.78,65.78,0,0,0,7.691-1.909c.158-.05.334-.072.492-.122,1.079-.348,2.1-.781,3.137-1.182.623-.244,1.268-.451,1.873-.709a48.152,48.152,0,0,0,5.181-2.582c.19-.108.375-.221.56-.329.424-.257.785-.533,1.187-.79.56-.37,1.137-.731,1.656-1.11.456-.33.862-.673,1.286-1.011.483-.388.975-.772,1.417-1.173.09-.077.194-.153.28-.23.18-.167.3-.343.474-.51a25.622,25.622,0,0,0,1.959-2.107c.131-.154.3-.3.424-.456s.2-.316.32-.469c.4-.532.749-1.069,1.083-1.611.14-.226.325-.447.451-.673.068-.117.1-.235.167-.352.257-.474.465-.957.673-1.44.122-.28.284-.551.388-.83.036-.095.05-.19.086-.289.162-.456.275-.92.4-1.381.081-.312.2-.614.266-.925.013-.086.013-.171.027-.253.09-.483.122-.966.167-1.453.027-.311.1-.627.108-.943,0-.135,0-.271,0-.406l.041-15.07C208.129,385.876,208.057,386.327,208.016,386.774Z" transform="translate(-41.86 -358.57)" fill="#e0f2ff"/>
          <g id="Group_1404" data-name="Group 1404" transform="translate(85.354 61.495)">
            <path id="Path_5057" data-name="Path 5057" d="M157.607,395.254l-.043,15.071-17.307-2.15L140.3,393.1Z" transform="translate(-140.257 -393.103)" fill="#d8e4eb"/>
          </g>
          <g id="Group_1405" data-name="Group 1405" transform="translate(70.97 69.363)">
            <path id="Path_5058" data-name="Path 5058" d="M155.085,397.1l-.042,15.071-17.973-2.255.043-15.071Z" transform="translate(-137.07 -394.847)" fill="#e0f2ff"/>
          </g>
          <g id="Group_1406" data-name="Group 1406" transform="translate(51.504 69.363)">
            <path id="Path_5059" data-name="Path 5059" d="M152.265,394.847l-.043,15.071L132.757,421.23l.043-15.071Z" transform="translate(-132.757 -394.847)" fill="#d8e4eb"/>
          </g>
          <g id="Group_1407" data-name="Group 1407" transform="translate(37.245 88.962)">
            <path id="Path_5060" data-name="Path 5060" d="M147.642,401.427,147.6,416.5l-18-2.238.042-15.071Z" transform="translate(-129.597 -399.189)" fill="#d8e4eb"/>
          </g>
          <g id="Group_1408" data-name="Group 1408" transform="translate(0 84.05)">
            <path id="Path_5061" data-name="Path 5061" d="M123.839,409.937l-.043,15.071-2.451-11.836.043-15.07Z" transform="translate(-121.345 -398.101)" fill="#d8e4eb"/>
          </g>
          <g id="Group_1409" data-name="Group 1409" transform="translate(0.042)">
            <path id="Path_5062" data-name="Path 5062" d="M274.2,425.081c-13.689,7.957-33.9,9.843-50.738,5.664l-3.186,1.855,3.741,10.525-17.308-2.153,3.588,10.123-17.972-2.252-19.465,11.31,3.741,10.525-18-2.239,3.656,10.579-17.976-2.257-20.472-1.4-2.451-11.833,78.675-45.724c-8.358-9.947-5.5-22.237,8.733-30.5,17.931-10.421,47.118-10.439,65.2,0S292.13,414.659,274.2,425.081Zm-38.344-18.342c6.449,3.723,16.893,3.723,23.3,0,6.44-3.742,6.373-9.771-.077-13.495s-16.861-3.742-23.3,0c-6.409,3.723-6.373,9.771.077,13.495" transform="translate(-121.354 -379.478)" fill="#05264f"/>
          </g>
          <path id="Path_5063" data-name="Path 5063" d="M142.4,402.122l-20.472-1.4-.043,15.071,20.472,1.4,17.973,2.256.043-15.071Z" transform="translate(-119.437 -304.838)" fill="#e0f2ff"/>
        </g>
      </g>
    </g>
    <g id="Group_1413" data-name="Group 1413" transform="translate(-4658.445 -1287.324)">
      <path id="Path_5066" data-name="Path 5066" d="M6152.43,1752.561l-6.158-5.249a4.8,4.8,0,0,1-1.191-1.527l-.332-.671a2.929,2.929,0,0,1,.308-3.091l2-2.59a.516.516,0,0,1,.2-.158l3.374-1.47a.518.518,0,0,0,.271-.677l-4.282-10.115a.518.518,0,0,1,.235-.66h0a1.349,1.349,0,0,1,1.791.506l5.276,8.919a.521.521,0,0,0,.07.093l3.125,3.289a.518.518,0,0,0,.894-.374l-.15-4.609a2.28,2.28,0,0,1,1.6-2.252l.1-.03a.518.518,0,0,1,.671.5l-.051,2.856a7.724,7.724,0,0,0,.361,2.473l.861,2.711a3.3,3.3,0,0,1-.258,2.6l-1.4,2.528a.516.516,0,0,0-.047.384l.776,2.915a.519.519,0,0,1-.292.608l-7.211,3.17A.518.518,0,0,1,6152.43,1752.561Z" transform="translate(0 -22.42)" fill="#ffd0a6"/>
      <path id="Path_5067" data-name="Path 5067" d="M6518.442,1889.724l6.032,38.4a10.875,10.875,0,0,1-1.943,8.076l-15.027,20.7-7.089-14.734,11.024-18.266-11.024-34.181Z" transform="translate(-243.818 -134.426)" fill="#1c417f"/>
      <path id="Path_5068" data-name="Path 5068" d="M6419.884,2527.687a2.976,2.976,0,0,0,0-.4l-4-14.1h-12.585l.184,1.658.584,5.167a11.83,11.83,0,0,0-10.2,1.488l-1.24.994a2.846,2.846,0,0,0-.958,3.143,2.888,2.888,0,0,0,1.977,1.891l17.2,6.028a6.387,6.387,0,0,0,9.049-5.66v-.05S6419.89,2527.783,6419.884,2527.687Z" transform="translate(-169.235 -561.468)" fill="#05264f"/>
      <path id="Path_5069" data-name="Path 5069" d="M6488.725,2482.5v.049a6.377,6.377,0,0,1-9.049,5.66l-16.759-5.869a2.846,2.846,0,0,1,.958-3.143l1.24-.994a11.832,11.832,0,0,1,10.718-1.314l12.745,4.7a3.168,3.168,0,0,1,.086.332A3.642,3.642,0,0,1,6488.725,2482.5Z" transform="translate(-218.037 -536.105)" fill="#281a10"/>
      <path id="Path_5070" data-name="Path 5070" d="M6491.135,2470.745a2.9,2.9,0,0,0,0-.4l-4-14.1h-12.585l.185,1.658.584,5.167a11.829,11.829,0,0,0-10.2,1.488l-1.24.994a2.846,2.846,0,0,0-.958,3.143,2.886,2.886,0,0,0,1.977,1.891l17.2,6.029a6.387,6.387,0,0,0,9.049-5.66v-.049S6491.141,2470.841,6491.135,2470.745Z" transform="translate(-218.037 -522.466)" fill="#05264f"/>
      <path id="Path_5071" data-name="Path 5071" d="M6486.474,2239.126v.086l-17.423-.307-10.043-45.994-3.045-55.841,28.362-3.413-.049.577L6479.3,2190.9a167.552,167.552,0,0,1,7.035,43.4Z" transform="translate(-213.372 -301.505)" fill="#c7c8c8"/>
      <path id="Path_5072" data-name="Path 5072" d="M6407.12,2265.168v.122l-19.547-.344-11.271-51.605-3.426-62.656,31.825-3.819-.074.81-5.55,63.4a187.752,187.752,0,0,1,7.883,48.708Z" transform="translate(-156.462 -310.554)" fill="#c7c8c8"/>
      <path id="Path_5073" data-name="Path 5073" d="M6379.792,1854.546c-11.972,2.054-20.828,13.845-21.045,25.991-.369,20.594-2.764,52.117.113,71.9a5.977,5.977,0,0,0,5.5,5.122l10.08.69c14.84,1.016,23.19-7.572,37.176-12.638h0a13.1,13.1,0,0,0,8.609-13.228l-5.677-35.289,5.982-38.993a14.366,14.366,0,0,0-17.955-14.081Z" transform="translate(-145.905 -102.807)" fill="#03162e"/>
      <path id="Path_5074" data-name="Path 5074" d="M6427.275,1749.882l-2.82-6.865,4.073-11.721a17.7,17.7,0,0,0-1.371-19.875h0a17.832,17.832,0,0,0-17.664-6.427l-7.984,1.669a6.062,6.062,0,0,0-4.656,7.336l.021.09a11.909,11.909,0,0,1,.223,4.342l-.9,6.748h0a14.522,14.522,0,0,0-.389,7.288l.575,2.825a8.808,8.808,0,0,0,11.049,5.681h0l1.457,17.525Z" transform="translate(-171.97 -7.638)" fill="#ffd0a6"/>
      <path id="Path_5075" data-name="Path 5075" d="M6397.607,1709.941l5.548,4.708a20.362,20.362,0,0,1,.321,7.342c-.583,3.891,6.944,9,6.944,9l4.328,5.536a4.46,4.46,0,0,0,3.862,1.7l5.067-.4a7.241,7.241,0,0,0,6.187-4.591,37.1,37.1,0,0,0,2.059-6.47,31.257,31.257,0,0,1,2.611-6.766,15.525,15.525,0,0,0,1.137-10.306,16.6,16.6,0,0,0-2.278-5.653c-2.648-3.619-3.2-7.43-10.176-9.067s-18.106-2.146-20.948-.527-2.427,2.637-5.048,6.715S6397.607,1709.941,6397.607,1709.941Z" transform="translate(-172.404)" fill="#05264f"/>
      <path id="Path_5076" data-name="Path 5076" d="M6455.677,1840.021l-2.8-3.391-17.313,7.034-.466,5.743,9.36-4.27Z" transform="translate(-199.081 -98.06)" fill="#1c417f"/>
      <path id="Path_5077" data-name="Path 5077" d="M6417.019,1787.966l1.721-2.5a2.534,2.534,0,0,1,3.412-.461h0a1.569,1.569,0,0,1,.655,1.793l-2.279,6.688-5.045-2.153Z" transform="translate(-185.645 -62.389)" fill="#ffd0a6"/>
      <path id="Path_5078" data-name="Path 5078" d="M6236.056,1853.156l-42.74-6.9-1.564-.253a6.733,6.733,0,0,1-5.208-4.243l-17.177-40.96,8.077-3.912,19.341,32.24,40.594-1.235a12.724,12.724,0,1,1,1.415,25.408A13.424,13.424,0,0,1,6236.056,1853.156Z" transform="translate(-17.069 -70.838)" fill="#1c417f"/>
    </g>
  </g>
</svg>
