<?xml version="1.0" encoding="utf-8"?>
<!-- Generator: Adobe Illustrator 25.0.1, SVG Export Plug-In . SVG Version: 6.00 Build 0)  -->
<svg version="1.1" id="Layer_1" xmlns="http://www.w3.org/2000/svg" xmlns:xlink="http://www.w3.org/1999/xlink" x="0px" y="0px"
	 viewBox="0 0 500 500" style="enable-background:new 0 0 500 500;" xml:space="preserve">
<style type="text/css">
	.st0{fill:#D0E9F6;}
	.st1{fill:#8FC9F4;}
	.st2{fill:#F3F8FB;}
	.st3{fill:none;}
	.st4{fill:#FFFFFF;}
	.st5{fill:#609EFD;}
	.st6{enable-background:new    ;}
	.st7{clip-path:url(#SVGID_1_);}
	.st8{clip-path:url(#SVGID_3_);}
</style>
<g>
	<g>
		<g>
			<path class="st0" d="M390.2,314.2c0,0.1,0,0.1,0,0.2c0,0,0,0.1,0,0.1c0,0.1,0,0.1,0,0.2c0,0,0,0.1-0.1,0.1c0,0.1-0.1,0.1-0.1,0.2
				c0,0,0,0.1-0.1,0.1c0,0.1-0.1,0.1-0.1,0.2c0,0-0.1,0.1-0.1,0.1c-0.1,0.1-0.2,0.2-0.2,0.3c0,0-0.1,0.1-0.1,0.1
				c-0.1,0-0.1,0.1-0.2,0.1c-0.1,0-0.1,0.1-0.2,0.1c-0.1,0-0.1,0.1-0.2,0.1c-0.1,0-0.1,0.1-0.2,0.1l-113.6,66
				c-0.2,0.1-0.5,0.3-0.8,0.4c-0.1,0-0.1,0.1-0.2,0.1c-0.2,0.1-0.4,0.1-0.5,0.2c-0.2,0.1-0.4,0.1-0.6,0.1c-0.2,0-0.5,0.1-0.7,0.1
				c-0.1,0-0.1,0-0.2,0c-0.3,0-0.6,0.1-1,0.1c-0.1,0-0.1,0-0.2,0c-1.4,0-2.8-0.3-3.9-1l0,5c1,0.6,2.4,0.9,3.8,0.9l0,0
				c0.1,0,0.1,0,0.2,0c0.1,0,0.1,0,0.2,0c0.1,0,0.2,0,0.3,0c0.2,0,0.4,0,0.6,0c0,0,0,0,0.1,0c0.1,0,0.1,0,0.2,0c0.2,0,0.3,0,0.5-0.1
				c0.1,0,0.1,0,0.2-0.1c0.2,0,0.4-0.1,0.6-0.1c0.1,0,0.2,0,0.3-0.1c0.1,0,0.2-0.1,0.2-0.1c0.1,0,0.1-0.1,0.2-0.1
				c0.3-0.1,0.5-0.2,0.8-0.4l113.6-66c0,0,0,0,0.1,0c0.1,0,0.1-0.1,0.1-0.1c0.1,0,0.1-0.1,0.2-0.1c0.1,0,0.1-0.1,0.2-0.1
				c0.1,0,0.1-0.1,0.2-0.1c0,0,0,0,0,0c0,0,0,0,0.1-0.1c0.1-0.1,0.2-0.2,0.2-0.3c0,0,0,0,0.1-0.1c0,0,0,0,0-0.1
				c0-0.1,0.1-0.1,0.1-0.2c0,0,0-0.1,0.1-0.1c0,0,0,0,0,0c0-0.1,0.1-0.1,0.1-0.2c0,0,0-0.1,0-0.1c0,0,0,0,0,0c0-0.1,0-0.1,0-0.2
				c0,0,0-0.1,0-0.1c0,0,0,0,0,0c0-0.1,0-0.1,0-0.2c0,0,0-0.1,0-0.1c0,0,0,0,0,0l0-5C390.2,314.1,390.2,314.2,390.2,314.2z"/>
			<g>
				<path class="st1" d="M270.7,383.4l0,5c-0.2,0-0.4,0-0.6,0c-0.2,0-0.4,0-0.5-0.1c-0.2,0-0.4-0.1-0.6-0.1c-0.2,0-0.4-0.1-0.6-0.1
					c-0.2-0.1-0.5-0.1-0.7-0.2c-0.3-0.1-0.6-0.2-0.8-0.4L97.3,289.4c-1.1-0.6-1.7-1.5-1.7-2.3l0-5c0,0.8,0.6,1.7,1.7,2.3l169.6,97.9
					c0.3,0.1,0.5,0.3,0.8,0.4c0.2,0.1,0.4,0.2,0.7,0.2c0.2,0.1,0.4,0.1,0.6,0.1c0.2,0,0.4,0.1,0.6,0.1c0.2,0,0.4,0,0.5,0.1
					C270.3,383.3,270.5,383.3,270.7,383.4z"/>
			</g>
			<g>
				<path class="st2" d="M388.5,311.7c2.2,1.3,2.2,3.3,0,4.6l-113.6,66c-2.2,1.3-5.8,1.3-8,0L97.3,284.5c-2.2-1.3-2.2-3.4,0-4.6
					l113.6-66c2.2-1.3,5.8-1.3,8,0L388.5,311.7z"/>
			</g>
			<path class="st3" d="M388,170.7l4.3-2.5c2.2,1.3,4,4.4,4,6.9l-4.3,2.5C392,175,390.2,171.9,388,170.7z"/>
			<path class="st0" d="M394.3,170c-0.1-0.1-0.1-0.1-0.2-0.2c-0.1-0.1-0.1-0.1-0.2-0.2c-0.1-0.1-0.1-0.1-0.2-0.2
				c-0.1-0.1-0.1-0.1-0.2-0.2c-0.1-0.1-0.1-0.1-0.2-0.2c-0.1-0.1-0.1-0.1-0.2-0.2c-0.1-0.1-0.1-0.1-0.2-0.2c-0.1,0-0.1-0.1-0.2-0.1
				c-0.1,0-0.1-0.1-0.2-0.1c-0.1,0-0.1-0.1-0.2-0.1c-0.1,0-0.1-0.1-0.2-0.1c-0.1,0-0.1-0.1-0.2-0.1c0,0,0,0,0,0L222.6,70.3
				c0,0-0.1,0-0.1-0.1c-0.1,0-0.1-0.1-0.2-0.1c0,0-0.1,0-0.1-0.1c0,0,0,0,0,0c0,0,0,0,0,0c-0.1,0-0.1,0-0.2-0.1
				c-0.1,0-0.1,0-0.2-0.1c0,0,0,0,0,0c0,0,0,0,0,0c0,0-0.1,0-0.1,0c-0.1,0-0.1,0-0.2,0c0,0-0.1,0-0.1,0c0,0,0,0,0,0c0,0,0,0,0,0
				c-0.1,0-0.1,0-0.2,0c0,0-0.1,0-0.1,0c0,0,0,0,0,0c0,0,0,0,0,0c-0.1,0-0.1,0-0.2,0c0,0-0.1,0-0.1,0c0,0,0,0-0.1,0c0,0,0,0-0.1,0
				c-0.1,0-0.2,0-0.2,0c0,0,0,0,0,0c0,0,0,0-0.1,0c-0.1,0-0.2,0-0.2,0.1c0,0,0,0,0,0c-0.1,0-0.2,0.1-0.3,0.1l-4.3,2.5
				c0.1-0.1,0.2-0.1,0.3-0.1c0.1,0,0.2-0.1,0.2-0.1c0,0,0,0,0.1,0c0.1,0,0.2,0,0.3,0c0,0,0,0,0.1,0c0.1,0,0.2,0,0.3,0c0,0,0,0,0,0
				c0.1,0,0.2,0,0.3,0.1c0,0,0,0,0,0c0.1,0,0.2,0.1,0.4,0.1c0,0,0,0,0,0c0.1,0,0.3,0.1,0.4,0.2c0,0,0,0,0,0c0.1,0.1,0.3,0.1,0.4,0.2
				L388,170.7c0,0,0,0,0,0c0.1,0,0.1,0.1,0.2,0.1c0.1,0,0.1,0.1,0.2,0.1c0.1,0,0.1,0.1,0.2,0.1c0.1,0,0.1,0.1,0.2,0.1
				c0.1,0,0.1,0.1,0.2,0.1c0.1,0.1,0.1,0.1,0.2,0.2c0.1,0.1,0.1,0.1,0.2,0.2c0.1,0.1,0.1,0.1,0.2,0.2c0.1,0.1,0.1,0.1,0.2,0.2
				c0.1,0.1,0.1,0.1,0.2,0.2c0.1,0.1,0.1,0.1,0.2,0.2c0.1,0.1,0.1,0.1,0.2,0.2c0.1,0.1,0.1,0.2,0.2,0.2l4.3-2.5
				C394.4,170.2,394.4,170.1,394.3,170z"/>
			<path class="st1" d="M396.2,174.9c0-0.1,0-0.1,0-0.2c0-0.1,0-0.1,0-0.2l0,0c0-0.1,0-0.1,0-0.2c0-0.1,0-0.1,0-0.2
				c0-0.1,0-0.1,0-0.2c0-0.1,0-0.1,0-0.2c0-0.1,0-0.1,0-0.2c0-0.1,0-0.1-0.1-0.2c0-0.1,0-0.1-0.1-0.2c0-0.1,0-0.1-0.1-0.2
				c0-0.1,0-0.1-0.1-0.2c0-0.1,0-0.1-0.1-0.2c0-0.1-0.1-0.1-0.1-0.2c0-0.1-0.1-0.1-0.1-0.2c0-0.1-0.1-0.1-0.1-0.2
				c0-0.1-0.1-0.1-0.1-0.2c0-0.1-0.1-0.2-0.1-0.2c-0.1-0.1-0.1-0.2-0.2-0.4c-0.1-0.2-0.2-0.3-0.3-0.5c-0.1-0.1-0.2-0.2-0.3-0.4
				l-4.3,2.5c0.1,0.1,0.2,0.2,0.3,0.4c0.1,0.2,0.2,0.3,0.3,0.5c0.1,0.1,0.1,0.2,0.2,0.4c0,0.1,0.1,0.2,0.1,0.2
				c0,0.1,0.1,0.1,0.1,0.2c0,0.1,0.1,0.1,0.1,0.2c0,0.1,0.1,0.1,0.1,0.2c0,0.1,0.1,0.1,0.1,0.2c0,0.1,0,0.1,0.1,0.2
				c0,0.1,0,0.1,0.1,0.2c0,0.1,0,0.1,0.1,0.2c0,0.1,0,0.1,0.1,0.2c0,0.1,0,0.1,0.1,0.2c0,0.1,0,0.1,0,0.2c0,0.1,0,0.1,0,0.2
				c0,0.1,0,0.1,0,0.2c0,0.1,0,0.1,0,0.2c0,0.1,0,0.1,0,0.2c0,0.1,0,0.1,0,0.2c0,0.1,0,0.1,0,0.2c0,0.1,0,0.1,0,0.2L391.6,309
				c0,0.2,0,0.3,0,0.4c0,0,0,0,0,0c0,0.1,0,0.3-0.1,0.4c0,0,0,0,0,0c0,0.1-0.1,0.2-0.1,0.3c0,0,0,0,0,0.1c0,0.1-0.1,0.2-0.1,0.3
				c0,0,0,0,0,0c0,0.1-0.1,0.2-0.2,0.3c-0.1,0.1-0.2,0.2-0.3,0.3c0,0,0,0-0.1,0.1c-0.1,0.1-0.2,0.2-0.3,0.3l4.3-2.5
				c0.1-0.1,0.2-0.2,0.3-0.3c0,0,0.1,0,0.1-0.1c0.1-0.1,0.2-0.2,0.3-0.3c0,0,0,0,0,0c0.1-0.1,0.1-0.2,0.2-0.3c0,0,0,0,0,0
				c0,0,0,0,0,0c0-0.1,0.1-0.1,0.1-0.2c0,0,0-0.1,0-0.1c0,0,0,0,0-0.1c0,0,0,0,0-0.1c0-0.1,0-0.1,0.1-0.2c0,0,0-0.1,0-0.1
				c0,0,0,0,0,0c0,0,0,0,0-0.1c0-0.1,0-0.1,0-0.2c0,0,0-0.1,0-0.1c0,0,0,0,0,0c0,0,0,0,0,0c0-0.1,0-0.1,0-0.2c0-0.1,0-0.1,0-0.2
				c0,0,0,0,0,0l0.4-131.4C396.2,175,396.2,175,396.2,174.9z"/>
			<g>
				<path class="st4" d="M388,170.7c2.2,1.3,4,4.4,4,6.9L391.6,309c0,2.5-1.8,3.6-4,2.3L218,213.4c-2.2-1.3-4-4.4-4-6.9L214.3,75
					c0-2.5,1.8-3.6,4-2.3L388,170.7z"/>
				<path class="st5" d="M221.5,207.5c-0.2-0.2-0.6-0.8-0.6-1.1l0.4-124.1l163.3,94.3c0.2,0.2,0.6,0.8,0.6,1.1l-0.4,124.1
					L221.5,207.5z"/>
			</g>
			<g>
				<g class="st6">
					<defs>
						<polygon id="SVGID_11_" class="st6" points="116.3,283.1 218.1,223.9 359.5,305.5 257.7,364.7 						"/>
					</defs>
					<clipPath id="SVGID_1_">
						<use xlink:href="#SVGID_11_"  style="overflow:visible;"/>
					</clipPath>
					<g class="st7">
						<path class="st5" d="M286.4,325.5l4.3-2.5l8.6,4.9l-4.3,2.5L286.4,325.5 M165.6,255.8l8.5-4.9l8.6,4.9l-8.5,4.9L165.6,255.8
							 M175.1,261.3l8.5-4.9l8.6,4.9l-8.5,4.9L175.1,261.3 M184.7,266.8l8.5-4.9l8.6,4.9l-8.5,4.9L184.7,266.8 M194.5,272.5l8.5-4.9
							l11.2,6.5l-8.5,4.9L194.5,272.5 M206.5,279.4l8.5-4.9l47.4,27.4l-8.5,4.9L206.5,279.4 M255,307.4l8.5-4.9l10.8,6.2l-8.5,4.9
							L255,307.4 M266.7,314.1l8.5-4.9l8.6,4.9l-8.5,4.9L266.7,314.1 M276.6,319.9l8.5-4.9l8.6,4.9l-8.5,4.9L276.6,319.9
							 M291.1,322.8l3.8-2.2l8.6,4.9l-3.8,2.2L291.1,322.8 M296.1,331.2l8.5-4.9l8.6,4.9l-8.5,4.9L296.1,331.2 M175.2,250.2l8.5-4.9
							l10.4,6l-8.5,4.9L175.2,250.2 M187.2,257.1l8.5-4.9l8.6,4.9l-8.5,4.9L187.2,257.1 M206.5,268.3l8.5-4.9l8.6,4.9l-8.5,4.9
							L206.5,268.3 M216.2,273.9l8.5-4.9l8.6,4.9l-8.5,4.9L216.2,273.9 M225.9,279.5l8.5-4.9l8.6,4.9l-8.5,4.9L225.9,279.5
							 M235.5,285.1l8.5-4.9l8.6,4.9l-8.5,4.9L235.5,285.1 M245.2,290.7l8.5-4.9l8.6,4.9l-8.5,4.9L245.2,290.7 M254.9,296.2l8.5-4.9
							l8.6,4.9l-8.5,4.9L254.9,296.2 M264.6,301.8l8.5-4.9l8.6,4.9l-8.5,4.9L264.6,301.8 M274.3,307.4l8.5-4.9l8.6,4.9l-8.5,4.9
							L274.3,307.4 M283.9,313l8.5-4.9l8.6,4.9l-8.5,4.9L283.9,313 M293.8,318.7l8.5-4.9l20.5,11.9l-8.5,4.9L293.8,318.7
							 M196.8,262.7l8.5-4.9l8.6,4.9l-8.5,4.9L196.8,262.7 M184.5,244.9l8.5-4.9l15.8,9.1l-8.5,4.9L184.5,244.9 M201.4,254.5
							l8.5-4.9l8.6,4.9l-8.5,4.9L201.4,254.5 M211.1,260.1l8.5-4.9l8.6,4.9l-8.5,4.9L211.1,260.1 M220.7,265.7l8.5-4.9l8.6,4.9
							l-8.5,4.9L220.7,265.7 M230.4,271.2l8.5-4.9l8.6,4.9l-8.5,4.9L230.4,271.2 M240.1,276.8l8.5-4.9l8.6,4.9l-8.5,4.9L240.1,276.8
							 M249.8,282.4l8.5-4.9l8.6,4.9l-8.5,4.9L249.8,282.4 M259.4,288l8.5-4.9l8.6,4.9L268,293L259.4,288 M269.1,293.6l8.5-4.9
							l8.6,4.9l-8.5,4.9L269.1,293.6 M278.8,299.2l8.5-4.9l8.6,4.9l-8.5,4.9L278.8,299.2 M288.5,304.8l8.5-4.9l8.6,4.9l-8.5,4.9
							L288.5,304.8 M298.2,310.4l8.5-4.9l8.6,4.9l-8.5,4.9L298.2,310.4 M307.8,315.9l8.5-4.9l8.6,4.9l-8.5,4.9L307.8,315.9
							 M194,239.4l8.5-4.9l13.4,7.8l-8.5,4.9L194,239.4 M208.5,247.8l8.5-4.9l8.6,4.9l-8.5,4.9L208.5,247.8 M218.2,253.4l8.5-4.9
							l8.6,4.9l-8.5,4.9L218.2,253.4 M227.9,259l8.5-4.9l8.6,4.9l-8.5,4.9L227.9,259 M237.6,264.5l8.5-4.9l8.6,4.9l-8.5,4.9
							L237.6,264.5 M247.2,270.1l8.5-4.9l8.6,4.9l-8.5,4.9L247.2,270.1 M256.9,275.7l8.5-4.9l8.6,4.9l-8.5,4.9L256.9,275.7
							 M266.6,281.3l8.5-4.9l8.6,4.9l-8.5,4.9L266.6,281.3 M276.3,286.9l8.5-4.9l8.6,4.9l-8.5,4.9L276.3,286.9 M285.9,292.5l8.5-4.9
							l8.6,4.9l-8.5,4.9L285.9,292.5 M295.6,298.1l8.5-4.9l8.6,4.9l-8.5,4.9L295.6,298.1 M305.3,303.7l8.5-4.9l8.6,4.9l-8.5,4.9
							L305.3,303.7 M314.9,309.2l8.5-4.9l8.6,4.9l-8.5,4.9L314.9,309.2 M324.5,314.7l8.5-4.9l8.6,4.9l-17.9,10.4l-6.3-3.7l9.3-5.4
							L324.5,314.7 M203.3,233.9l8.5-4.9l8.6,4.9l-8.5,4.9L203.3,233.9 M213,239.5l8.5-4.9l8.6,4.9l-8.5,4.9L213,239.5 M222.6,245.1
							l8.5-4.9l8.6,4.9l-8.5,4.9L222.6,245.1 M232.3,250.7l8.5-4.9l8.6,4.9l-8.5,4.9L232.3,250.7 M242,256.3l8.5-4.9l8.6,4.9
							l-8.5,4.9L242,256.3 M251.7,261.9l8.5-4.9l8.6,4.9l-8.5,4.9L251.7,261.9 M261.4,267.5l8.5-4.9l8.6,4.9l-8.5,4.9L261.4,267.5
							 M271,273.1l8.5-4.9l8.6,4.9l-8.5,4.9L271,273.1 M280.7,278.6l8.5-4.9l8.6,4.9l-8.5,4.9L280.7,278.6 M290.4,284.2l8.5-4.9
							l8.6,4.9l-8.5,4.9L290.4,284.2 M300.1,289.8l8.5-4.9l8.6,4.9l-8.5,4.9L300.1,289.8 M309.8,295.4l8.5-4.9l8.6,4.9l-8.5,4.9
							L309.8,295.4 M319.2,300.9l8.5-4.9l8.6,4.9l-8.5,4.9L319.2,300.9 M329.1,306.5l8.5-4.9l13.3,7.7l-8.5,4.9L329.1,306.5
							 M219.3,231.4l3.4-2l7.6,4.4l-3.4,2L219.3,231.4 M228.9,236.9l3.4-2l7.6,4.4l-3.4,2L228.9,236.9 M238.4,242.4l3.4-2l7.6,4.4
							l-3.4,2L238.4,242.4 M247.9,247.9l3.4-2l7.6,4.4l-3.4,2L247.9,247.9 M311.1,284.4l3.4-2l7.6,4.4l-3.4,2L311.1,284.4
							 M320.6,289.9l3.4-2l7.6,4.4l-3.4,2L320.6,289.9 M330.1,295.4l3.4-2l7.6,4.4l-3.4,2L330.1,295.4 M339.6,300.9l3.4-2l7.6,4.4
							l-3.4,2L339.6,300.9 M358.8,305.1l-139.9-80.8c-0.4-0.2-1.1-0.2-1.5,0l-53.8,31.3c-0.4,0.2-0.4,0.6,0,0.9l139.9,80.8
							c0.4,0.2,1.1,0.2,1.5,0l53.8-31.3C359.2,305.7,359.2,305.3,358.8,305.1"/>
						<polyline class="st4" points="223.6,268.3 215,263.4 206.5,268.3 215.1,273.2 223.6,268.3 						"/>
						<polyline class="st4" points="213.9,262.7 205.4,257.8 196.8,262.7 205.4,267.6 213.9,262.7 						"/>
						<polyline class="st4" points="204.2,257.1 195.7,252.2 187.2,257.1 195.7,262.1 204.2,257.1 						"/>
						<polyline class="st4" points="252.6,285.1 244.1,280.1 235.5,285.1 244.1,290 252.6,285.1 						"/>
						<polyline class="st4" points="242.9,279.5 234.4,274.5 225.9,279.5 234.4,284.4 242.9,279.5 						"/>
						<polyline class="st4" points="233.3,273.9 224.7,268.9 216.2,273.9 224.8,278.8 233.3,273.9 						"/>
						<polyline class="st4" points="281.7,301.8 273.1,296.9 264.6,301.8 273.2,306.8 281.7,301.8 						"/>
						<polyline class="st4" points="272,296.2 263.4,291.3 254.9,296.2 263.5,301.2 272,296.2 						"/>
						<polyline class="st4" points="262.3,290.7 253.7,285.7 245.2,290.7 253.8,295.6 262.3,290.7 						"/>
						<polyline class="st4" points="301,313 292.5,308.1 283.9,313 292.5,318 301,313 						"/>
						<polyline class="st4" points="303.5,325.5 294.9,320.6 291.1,322.8 299.7,327.8 303.5,325.5 						"/>
						<polyline class="st4" points="299.2,328 290.7,323.1 286.4,325.5 295,330.5 299.2,328 						"/>
						<polyline class="st4" points="262.5,301.9 215,274.5 206.5,279.4 254,306.8 262.5,301.9 						"/>
						<polyline class="st4" points="214.2,274 203,267.5 194.5,272.5 205.7,278.9 214.2,274 						"/>
						<polyline class="st4" points="201.8,266.8 193.2,261.9 184.7,266.8 193.3,271.8 201.8,266.8 						"/>
						<polyline class="st4" points="192.2,261.3 183.6,256.3 175.1,261.3 183.7,266.2 192.2,261.3 						"/>
						<polyline class="st4" points="182.7,255.8 174.2,250.9 165.6,255.8 174.2,260.8 182.7,255.8 						"/>
						<polyline class="st4" points="293.7,319.9 285.1,314.9 276.6,319.9 285.2,324.8 293.7,319.9 						"/>
						<polyline class="st4" points="283.7,314.1 275.2,309.2 266.7,314.1 275.2,319.1 283.7,314.1 						"/>
						<polyline class="st4" points="274.3,308.7 263.5,302.4 255,307.4 265.8,313.6 274.3,308.7 						"/>
						<polyline class="st4" points="313.2,331.2 304.6,326.2 296.1,331.2 304.7,336.1 313.2,331.2 						"/>
						<polyline class="st4" points="322.8,325.6 302.3,313.7 293.8,318.7 314.3,330.5 322.8,325.6 						"/>
						<polyline class="st4" points="291.3,307.4 282.8,302.5 274.3,307.4 282.8,312.4 291.3,307.4 						"/>
						<polyline class="st4" points="237.8,265.7 229.2,260.7 220.7,265.7 229.3,270.6 237.8,265.7 						"/>
						<polyline class="st4" points="228.1,260.1 219.6,255.1 211.1,260.1 219.6,265 228.1,260.1 						"/>
						<polyline class="st4" points="218.4,254.5 209.9,249.5 201.4,254.5 209.9,259.4 218.4,254.5 						"/>
						<polyline class="st4" points="266.8,282.4 258.3,277.5 249.8,282.4 258.3,287.4 266.8,282.4 						"/>
						<polyline class="st4" points="257.2,276.8 248.6,271.9 240.1,276.8 248.7,281.8 257.2,276.8 						"/>
						<polyline class="st4" points="247.5,271.2 238.9,266.3 230.4,271.2 239,276.2 247.5,271.2 						"/>
						<polyline class="st4" points="295.9,299.2 287.3,294.2 278.8,299.2 287.4,304.1 295.9,299.2 						"/>
						<polyline class="st4" points="286.2,293.6 277.6,288.7 269.1,293.6 277.7,298.5 286.2,293.6 						"/>
						<polyline class="st4" points="276.5,288 268,283.1 259.4,288 268,293 276.5,288 						"/>
						<polyline class="st4" points="315.2,310.4 306.7,305.4 298.2,310.4 306.7,315.3 315.2,310.4 						"/>
						<polyline class="st4" points="324.8,315.9 316.3,311 307.8,315.9 316.3,320.9 324.8,315.9 						"/>
						<polyline class="st4" points="332,309.2 323.4,304.3 314.9,309.2 323.5,314.1 332,309.2 						"/>
						<polyline class="st4" points="341.6,314.7 333,309.8 324.5,314.7 326.7,316 317.4,321.5 323.7,325.1 341.6,314.7 						"/>
						<polyline class="st4" points="336.3,300.9 327.7,295.9 319.2,300.9 327.8,305.8 336.3,300.9 						"/>
						<polyline class="st4" points="350.9,309.3 337.6,301.6 329.1,306.5 342.4,314.2 350.9,309.3 						"/>
						<polyline class="st4" points="305.6,304.8 297,299.8 288.5,304.8 297,309.7 305.6,304.8 						"/>
						<polyline class="st4" points="244.9,259 236.4,254 227.9,259 236.4,263.9 244.9,259 						"/>
						<polyline class="st4" points="235.3,253.4 226.7,248.4 218.2,253.4 226.8,258.3 235.3,253.4 						"/>
						<polyline class="st4" points="225.6,247.8 217,242.8 208.5,247.8 217.1,252.7 225.6,247.8 						"/>
						<polyline class="st4" points="274,275.7 265.4,270.8 256.9,275.7 265.5,280.7 274,275.7 						"/>
						<polyline class="st4" points="264.3,270.1 255.7,265.2 247.2,270.1 255.8,275.1 264.3,270.1 						"/>
						<polyline class="st4" points="254.6,264.5 246.1,259.6 237.6,264.5 246.1,269.5 254.6,264.5 						"/>
						<polyline class="st4" points="303,292.5 294.5,287.5 285.9,292.5 294.5,297.4 303,292.5 						"/>
						<polyline class="st4" points="293.3,286.9 284.8,282 276.3,286.9 284.8,291.8 293.3,286.9 						"/>
						<polyline class="st4" points="283.7,281.3 275.1,276.4 266.6,281.3 275.2,286.3 283.7,281.3 						"/>
						<polyline class="st4" points="322.4,303.7 313.8,298.7 305.3,303.7 313.9,308.6 322.4,303.7 						"/>
						<polyline class="st4" points="312.7,298.1 304.1,293.1 295.6,298.1 304.2,303 312.7,298.1 						"/>
						<polyline class="st4" points="249.4,250.7 240.8,245.8 232.3,250.7 240.9,255.6 249.4,250.7 						"/>
						<polyline class="st4" points="239.7,245.1 231.2,240.2 222.6,245.1 231.2,250.1 239.7,245.1 						"/>
						<polyline class="st4" points="230,239.5 221.5,234.6 213,239.5 221.5,244.5 230,239.5 						"/>
						<polyline class="st4" points="220.4,233.9 211.8,229 203.3,233.9 211.9,238.9 220.4,233.9 						"/>
						<polyline class="st4" points="215.9,242.2 202.5,234.4 194,239.4 207.4,247.1 215.9,242.2 						"/>
						<polyline class="st4" points="208.8,249 193,239.9 184.5,244.9 200.3,254 208.8,249 						"/>
						<polyline class="st4" points="194.1,251.3 183.7,245.3 175.2,250.2 185.6,256.2 194.1,251.3 						"/>
						<polyline class="st4" points="278.4,267.5 269.9,262.5 261.4,267.5 269.9,272.4 278.4,267.5 						"/>
						<polyline class="st4" points="268.8,261.9 260.2,256.9 251.7,261.9 260.2,266.8 268.8,261.9 						"/>
						<polyline class="st4" points="259.1,256.3 250.5,251.3 242,256.3 250.6,261.2 259.1,256.3 						"/>
						<polyline class="st4" points="307.5,284.2 298.9,279.3 290.4,284.2 299,289.2 307.5,284.2 						"/>
						<polyline class="st4" points="297.8,278.6 289.2,273.7 280.7,278.6 289.3,283.6 297.8,278.6 						"/>
						<polyline class="st4" points="288.1,273.1 279.5,268.1 271,273.1 279.6,278 288.1,273.1 						"/>
						<polyline class="st4" points="326.8,295.4 318.3,290.5 309.8,295.4 318.3,300.3 326.8,295.4 						"/>
						<polyline class="st4" points="317.2,289.8 308.6,284.9 300.1,289.8 308.6,294.8 317.2,289.8 						"/>
						<path class="st1" d="M256.8,319.7l-62.4-36c-0.9-0.5-2.4-0.5-3.3,0L156,304c-0.9,0.5-0.9,1.4,0,1.9l62.4,36
							c0.9,0.5,2.4,0.5,3.3,0l35.1-20.4C257.7,321.1,257.7,320.2,256.8,319.7"/>
						<polyline class="st4" points="230.3,233.8 222.7,229.4 219.3,231.4 226.9,235.8 230.3,233.8 						"/>
						<polyline class="st4" points="239.8,239.3 232.2,234.9 228.9,236.9 236.4,241.3 239.8,239.3 						"/>
						<polyline class="st4" points="249.4,244.8 241.8,240.4 238.4,242.4 246,246.8 249.4,244.8 						"/>
						<polyline class="st4" points="258.9,250.3 251.3,245.9 247.9,247.9 255.5,252.3 258.9,250.3 						"/>
						<polyline class="st4" points="322,286.8 314.4,282.4 311.1,284.4 318.6,288.7 322,286.8 						"/>
						<polyline class="st4" points="331.6,292.3 324,287.9 320.6,289.9 328.2,294.2 331.6,292.3 						"/>
						<polyline class="st4" points="341.1,297.8 333.5,293.4 330.1,295.4 337.7,299.7 341.1,297.8 						"/>
						<polyline class="st4" points="350.6,303.3 343,298.9 339.6,300.9 347.2,305.2 350.6,303.3 						"/>
					</g>
				</g>
			</g>
		</g>
		<g>
			<g>
				<g class="st6">
					<defs>
						<polygon id="SVGID_2_" class="st6" points="246.1,199.1 246.3,125.8 340.3,180.1 340.1,253.4 						"/>
					</defs>
					<clipPath id="SVGID_3_">
						<use xlink:href="#SVGID_2_"  style="overflow:visible;"/>
					</clipPath>
					<g class="st8">
						<g>
							<g>
								<g>
									<path class="st4" d="M293.3,152.9c-19.7-11.4-37.1-9.6-47.1,2.4l5.9,8.5c8.6-10.8,23.9-12.4,41.2-2.5
										c17.3,10,32.5,29.3,41,49.9l6-1.6C330.4,186.1,313,164.3,293.3,152.9"/>
									<path class="st4" d="M293.2,171.3c-14.5-8.4-27.2-6.8-34.2,2.5l5.9,8.5c5.6-8,16.2-9.5,28.3-2.6
										c12.1,7,22.6,20.7,28.2,35.2l6-1.6C320.4,195.9,307.7,179.6,293.2,171.3"/>
									<path class="st4" d="M293.2,189.6c-9.2-5.3-17.3-3.9-21.3,2.7l6,8.6c2.5-5.4,8.4-6.8,15.3-2.8c6.8,4,12.7,12.1,15.2,20.4
										l6-1.7C310.5,205.7,302.5,195,293.2,189.6"/>
									<path class="st4" d="M293.1,208c-3.4-2-6.3-1.2-7.5,1.7c-0.3,0.8-0.5,1.8-0.5,2.9c0,5,3.5,11.2,7.9,13.7s8,0.5,8-4.5
										c0-1.1-0.2-2.3-0.5-3.4C299.5,214.1,296.6,209.9,293.1,208"/>
								</g>
							</g>
						</g>
					</g>
				</g>
			</g>
		</g>
	</g>
	<g>
		<path class="st4" d="M252.9,214.3c-1.1,0-2.2-0.4-3.1-1.2l-1-0.9c-0.9-0.8-1.4-1.9-1.4-3.1c0-1.2,0.4-2.3,1.2-3.2l59.3-63.6
			c0.8-0.9,2-1.4,3.3-1.4c1.1,0,2.2,0.4,3.1,1.2l1,0.9c0.9,0.8,1.4,1.9,1.4,3.1c0,1.2-0.4,2.3-1.2,3.2l-59.3,63.6
			C255.3,213.8,254.1,214.3,252.9,214.3z"/>
		<g>
			<path class="st5" d="M311.1,142.8c0.6,0,1.2,0.2,1.7,0.7l1,0.9c1,0.9,1.1,2.5,0.1,3.5l-59.3,63.6c-0.5,0.5-1.2,0.8-1.8,0.8
				c-0.6,0-1.2-0.2-1.7-0.7l-1-0.9c-1-0.9-1.1-2.5-0.1-3.5l59.3-63.6C309.8,143.1,310.5,142.8,311.1,142.8 M311.1,138.8L311.1,138.8
				c-1.8,0-3.5,0.8-4.8,2.1l-59.3,63.6c-2.4,2.6-2.3,6.7,0.3,9.2l1,0.9c1.2,1.1,2.8,1.7,4.4,1.7c1.8,0,3.5-0.8,4.8-2.1l59.3-63.6
				c2.4-2.6,2.3-6.7-0.3-9.2l-1-0.9C314.4,139.5,312.8,138.8,311.1,138.8L311.1,138.8z"/>
		</g>
	</g>
</g>
</svg>
