<svg xmlns="http://www.w3.org/2000/svg" xmlns:xlink="http://www.w3.org/1999/xlink" width="752" height="444" viewBox="0 0 752 444">
  <defs>
    <clipPath id="clip-path">
      <ellipse id="Ellipse_274" data-name="Ellipse 274" cx="376" cy="222" rx="376" ry="222" transform="translate(1060 2332)" fill="#fff" stroke="#707070" stroke-width="1"/>
    </clipPath>
  </defs>
  <g id="Mask_Group_3" data-name="Mask Group 3" transform="translate(-1060 -2332)" clip-path="url(#clip-path)">
    <g id="Group_410" data-name="Group 410" transform="translate(476)">
      <g id="Group_409" data-name="Group 409" transform="translate(678.258 2284.484)">
        <path id="Rectangle_229" data-name="Rectangle 229" d="M18.69,0H329.311A18.689,18.689,0,0,1,348,18.689V204.882a18.69,18.69,0,0,1-18.69,18.69H18.69A18.69,18.69,0,0,1,0,204.882V18.69A18.69,18.69,0,0,1,18.69,0Z" transform="translate(69 158.429)" fill="#2f2d4f" opacity="0.22" style="mix-blend-mode: multiply;isolation: isolate"/>
        <g id="Group_408" data-name="Group 408">
          <g id="Group_389" data-name="Group 389">
            <path id="Path_3780" data-name="Path 3780" d="M459.323,359.384l-7.4-57.251a23.043,23.043,0,0,0-8.874-15.365l-36.114-27.561-19.574,62.179,44.906,50.088Z" fill="#f6b381"/>
            <path id="Path_3781" data-name="Path 3781" d="M407.794,278.454l25.339,21.029a2.908,2.908,0,0,1,.972,2.973l-9.01,35.091a2.91,2.91,0,0,1-5.11,1.072l-18.079-23.051a2.91,2.91,0,0,1-.124-3.423l1.751-33.069A2.91,2.91,0,0,1,407.794,278.454Z" fill="#f6906b"/>
          </g>
          <path id="Rectangle_230" data-name="Rectangle 230" d="M13.128,0H315.207a13.129,13.129,0,0,1,13.129,13.129V207.972A13.128,13.128,0,0,1,315.207,221.1H13.128A13.128,13.128,0,0,1,0,207.972V13.128A13.128,13.128,0,0,1,13.128,0Z" transform="translate(78.307 145.516)" fill="#2f2d4f"/>
          <rect id="Rectangle_231" data-name="Rectangle 231" width="294.369" height="190.131" transform="translate(96.442 160.617)" fill="#bdc3c7"/>
          <path id="Path_3782" data-name="Path 3782" d="M287.123,225.757c10.468,13.19,26.8,20.173,42.791,25.442s32.707,9.506,46.571,19.065c5,3.448,9.557,7.539,14.326,11.3V160.617H279.546C273.048,182.714,272.712,207.6,287.123,225.757Z" fill="#2c3e50"/>
          <g id="Group_391" data-name="Group 391">
            <rect id="Rectangle_232" data-name="Rectangle 232" width="294.369" height="18.948" transform="translate(96.442 160.617)" fill="#cfe3ff"/>
            <g id="Group_390" data-name="Group 390">
              <path id="Path_3783" data-name="Path 3783" d="M336.04,170.641a4.318,4.318,0,1,1-4.318-4.318A4.318,4.318,0,0,1,336.04,170.641Z" fill="#7498ff"/>
              <path id="Path_3784" data-name="Path 3784" d="M354.847,170.641a4.318,4.318,0,1,1-4.318-4.318A4.318,4.318,0,0,1,354.847,170.641Z" fill="#7498ff"/>
              <path id="Path_3785" data-name="Path 3785" d="M373.654,170.641a4.318,4.318,0,1,1-4.318-4.318A4.318,4.318,0,0,1,373.654,170.641Z" fill="#7498ff"/>
            </g>
            <path id="Path_3786" data-name="Path 3786" d="M223.965,174.959H115.537a4.318,4.318,0,0,1-4.318-4.318h0a4.318,4.318,0,0,1,4.318-4.318H223.965a4.318,4.318,0,0,1,4.318,4.318h0A4.318,4.318,0,0,1,223.965,174.959Z" fill="#fff"/>
          </g>
          <path id="Path_3787" data-name="Path 3787" d="M252.777,344.338c-8.938-10.414-23.074-14.4-36.354-17.859l-21.829-5.694c-6.916-1.8-13.9-3.634-20.223-6.967-13.248-6.984-22.3-19.825-29.993-32.673s-14.77-26.441-25.82-36.55c-5.874-5.4-13.834-10.134-22.116-11.967v118.12h160.7A37.393,37.393,0,0,0,252.777,344.338Z" fill="#2c3e50"/>
          <g id="Group_401" data-name="Group 401">
            <rect id="Rectangle_233" data-name="Rectangle 233" width="205.727" height="122.054" rx="8.06" transform="translate(146.914 201.882)" fill="#fff"/>
            <g id="Group_399" data-name="Group 399">
              <g id="Group_394" data-name="Group 394">
                <g id="Group_392" data-name="Group 392">
                  <rect id="Rectangle_234" data-name="Rectangle 234" width="111.115" height="15.545" rx="2.748" transform="translate(218.844 231.244)" fill="#cfe3ff"/>
                  <text id="NAME" transform="translate(226.345 243.012)" fill="#606565" font-size="10.765" font-family="Montserrat-Regular, Montserrat" letter-spacing="0.04em"><tspan x="0" y="0">NAME</tspan></text>
                </g>
                <g id="Group_393" data-name="Group 393">
                  <rect id="Rectangle_235" data-name="Rectangle 235" width="111.115" height="15.545" rx="2.748" transform="translate(218.844 253.122)" fill="#cfe3ff"/>
                  <text id="_" data-name="**********" transform="translate(226.345 266.905)" fill="#606565" font-size="10.765" font-family="Montserrat-Regular, Montserrat" letter-spacing="0.04em"><tspan x="0" y="0">**********</tspan></text>
                </g>
              </g>
              <g id="Group_398" data-name="Group 398">
                <g id="Group_397" data-name="Group 397">
                  <g id="Group_396" data-name="Group 396">
                    <path id="Path_3788" data-name="Path 3788" d="M190.856,240.3l-1,4.1-11.5,15.6,9.8-18.1Z" fill="#bdc3c7"/>
                    <g id="Group_395" data-name="Group 395">
                      <path id="Path_3789" data-name="Path 3789" d="M186.556,240.3l1,4.1,11.5,15.6-9.8-18.1Z" fill="#bdc3c7"/>
                    </g>
                  </g>
                  <path id="Path_3790" data-name="Path 3790" d="M206.056,258l-.1.3c-2.5,6.3-8.8,10.4-16.1,10.4a18.6,18.6,0,0,1,0-37.2,17.232,17.232,0,0,1,16.1,10.4l.1.3h2.2l-.3-.7c-2.7-7.2-10-12.1-18.2-12.1a20.6,20.6,0,0,0,0,41.2c8.2,0,15.5-4.8,18.2-12.1l.3-.7h-2.2Z" fill="#bdc3c7"/>
                </g>
              </g>
            </g>
            <g id="Group_400" data-name="Group 400">
              <rect id="Rectangle_236" data-name="Rectangle 236" width="47.21" height="15.353" rx="6.525" transform="translate(176.084 289.392)" fill="#bdc3c7"/>
              <rect id="Rectangle_237" data-name="Rectangle 237" width="47.21" height="15.353" rx="6.525" transform="translate(276.26 289.392)" fill="#2c3e50"/>
            </g>
          </g>
          <path id="Path_3791" data-name="Path 3791" d="M354.559,306.628s-5.181,12.666,2.591,21.878,19.863,12.378,19.863,12.378-2.3,19.863,6.333,25.332h19l1.727-41.74Z" fill="#2f2d4f" opacity="0.22" style="mix-blend-mode: multiply;isolation: isolate"/>
          <g id="Group_404" data-name="Group 404">
            <g id="Group_402" data-name="Group 402">
              <path id="Path_3792" data-name="Path 3792" d="M418.792,396.015l-4.41-13.966a2.377,2.377,0,0,0-1.384-1.49l-16.533-6.614c-15.186-6.074-14.629-29.858-14.2-36.22a2.359,2.359,0,0,0-1.33-2.285l-17.351-8.453c-5.92-2.884-10.763-10.632-10.763-17.217v-.034c0-6.893,5.306-10.62,11.79-8.281l44.233,15.953a2.372,2.372,0,0,1,1.236,1.019l23.2,38.938a2.376,2.376,0,0,0,2.788,1.04l19.607-6.49a2.376,2.376,0,0,1,3.066,1.739l9.149,41.13a2.376,2.376,0,0,1-2.319,2.892H421.058A2.376,2.376,0,0,1,418.792,396.015Z" fill="#f6b381"/>
              <path id="Path_3793" data-name="Path 3793" d="M417.87,370.088c-32.24-5.758-24.18-39.15-24.18-39.15L353.234,313.19c1.274,5.653,5.438,11.4,10.354,13.8l17.351,8.453h0l1.463.713s-.075.678-.149,1.833c-.006.1-.012.189-.018.292-.01.167-.02.349-.029.533-.005.089-.009.172-.014.265q-.02.42-.035.89c0,.08-.005.169-.007.251-.008.242-.014.489-.019.749,0,.124,0,.256-.006.384,0,.232-.006.466-.007.709,0,.147,0,.3,0,.45,0,.237,0,.478.005.725,0,.163,0,.328.007.495.005.255.011.516.019.78.005.164.009.327.015.495.01.291.024.59.038.89.008.15.013.3.022.449q.036.68.088,1.381l.006.069q.051.67.119,1.36c.015.152.033.307.049.461.035.332.071.666.112,1,.023.187.049.375.073.563q.061.465.13.934.045.3.093.6c.05.312.1.625.159.94.035.2.07.393.108.59.063.332.132.665.2,1,.038.179.074.358.114.537.092.413.192.826.3,1.238.024.1.046.2.071.293q.2.76.427,1.515c.042.139.089.277.132.415.115.363.231.725.357,1.084.063.182.132.363.2.544.115.314.233.627.357.937.077.191.157.382.238.572q.189.445.392.884c.086.188.174.376.265.562.145.3.3.589.451.879.091.171.18.343.275.512.183.326.377.646.574.962.077.124.149.25.227.372q.422.649.882,1.267c.061.083.129.16.192.241.251.325.508.645.777.954.118.135.243.264.364.4.227.246.458.49.7.725.142.14.29.274.437.409q.352.324.723.631c.158.13.319.259.483.385.256.2.521.386.791.57.166.114.331.229.5.338.3.191.613.368.929.542.154.085.3.175.46.256.48.246.974.476,1.49.682l5.4,2.161.583.233,3.14,1.256,2.041.817,6.413,2.565,4.749,15.038a2.376,2.376,0,0,0,2.266,1.661h10.573l-6.276-26.437Z" fill="#f6906b"/>
              <path id="Path_3794" data-name="Path 3794" d="M355.879,311.152l1.682-3.27a3.713,3.713,0,0,1,4.566-1.793l8.386,3.036a3.713,3.713,0,0,1,2.042,5.181l-2.409,4.714a3.713,3.713,0,0,1-5.18,1.515l-7.66-4.48A3.713,3.713,0,0,1,355.879,311.152Z" fill="#e3e3e6"/>
            </g>
            <g id="Group_403" data-name="Group 403">
              <rect id="Rectangle_238" data-name="Rectangle 238" width="65.633" height="18.999" rx="5.469" transform="translate(407.757 394.293) rotate(-9.034)" fill="#f1e8e1"/>
              <rect id="Rectangle_239" data-name="Rectangle 239" width="39.341" height="18.999" rx="6.525" transform="translate(407.757 394.293) rotate(-9.035)" fill="#ddd3d2"/>
              <path id="Path_3795" data-name="Path 3795" d="M496.023,500.333,479.014,396.371,404.34,408.244l15.146,92.089Z" fill="#393c63"/>
              <path id="Path_3796" data-name="Path 3796" d="M465.136,500.333l-14.147-85.9a13.433,13.433,0,0,0-15.377-11.158l-31.272,4.972,15.147,92.089Z" fill="#2f2d4f"/>
            </g>
          </g>
          <path id="Path_3797" data-name="Path 3797" d="M182.609,290.544l-41.582,76.072H167.4c6.384-19.464,17.264-52.578,20.194-61.1C191.821,293.231,182.609,290.544,182.609,290.544Z" fill="#2f2d4f" opacity="0.22" style="mix-blend-mode: multiply;isolation: isolate"/>
          <g id="Group_407" data-name="Group 407">
            <g id="Group_405" data-name="Group 405">
              <path id="Path_3798" data-name="Path 3798" d="M94.334,406.309,96.365,392.1a9.4,9.4,0,0,0-1.207-6.068c-1.96-3.36-4.869-9.413-4.456-15.19.615-8.611,13.6-36.723,13.6-36.723s3.075-6.766,10.457-6.766c4.685,0,15.569,2.975,22.892,5.147a9.32,9.32,0,0,0,10.873-4.539l20.034-39.011a9.325,9.325,0,0,1,12.92-3.655h0a9.325,9.325,0,0,1,4.207,10.821L164.355,364.8a9.326,9.326,0,0,0,1.745,8.736c2.243,2.7,4.64,6.9,3.951,12.066-.908,6.814-12.886,13.963-19.089,17.236a9.3,9.3,0,0,0-4.692,6.033l-2.263,9.3a9.325,9.325,0,0,1-11.456,6.808L101.17,416.64A9.326,9.326,0,0,1,94.334,406.309Z" fill="#f6b381"/>
              <path id="Path_3799" data-name="Path 3799" d="M169.641,298.05l8.612,2.666s4.716-8,.615-11.482S171.076,293.95,169.641,298.05Z" fill="#e3e3e6"/>
              <path id="Path_3800" data-name="Path 3800" d="M170.051,385.6a14.282,14.282,0,0,0-1.615-8.577c-10.453,18.148-37.752,19.649-37.752,19.649l-5.536,23.374-.739,2.77,8.142,2.165a9.325,9.325,0,0,0,11.456-6.808l2.263-9.3a9.294,9.294,0,0,1,4.692-6.033C157.165,399.564,169.143,392.415,170.051,385.6Z" fill="#f6906b"/>
            </g>
            <g id="Group_406" data-name="Group 406">
              <rect id="Rectangle_240" data-name="Rectangle 240" width="65.633" height="18.999" rx="5.469" transform="translate(149.383 435.318) rotate(-170.966)" fill="#f1e8e1"/>
              <rect id="Rectangle_241" data-name="Rectangle 241" width="39.341" height="18.999" rx="6.525" transform="translate(149.383 435.318) rotate(-170.966)" fill="#ddd3d2"/>
              <path id="Path_3801" data-name="Path 3801" d="M144.3,500.333l11.485-69.828L81.109,418.632l-13.366,81.7Z" fill="#393c63"/>
              <path id="Path_3802" data-name="Path 3802" d="M144.3,500.333l11.485-69.827-31.272-4.973a13.435,13.435,0,0,0-15.377,11.158l-10.48,63.642Z" fill="#2f2d4f"/>
            </g>
          </g>
        </g>
      </g>
    </g>
  </g>
</svg>
