<svg xmlns="http://www.w3.org/2000/svg" width="381.069" height="298" viewBox="0 0 381.069 298">
  <g id="Group_412" data-name="Group 412" transform="translate(0 -3.024)">
    <path id="Path_3803" data-name="Path 3803" d="M407.169,481.718,397,491.081l8.082-13.561c-6.367-11.548-16.782-21.527-16.782-21.527s-21.606,20.7-21.606,36.972,9.673,21.953,21.606,21.953,21.606-5.681,21.606-21.953A28.544,28.544,0,0,0,407.169,481.718Z" transform="translate(-173.154 -213.893)" fill="#f2f2f2"/>
    <path id="Path_3804" data-name="Path 3804" d="M413.6,490.78v.8c-.047,9.323-1.62,16.6-4.7,21.719-.044.076-.091.147-.135.222l-.346-.21-.329-.207c3.423-5.531,4.634-13.349,4.677-21.481,0-.262.008-.528,0-.794-.012-3.442-.223-6.925-.56-10.307-.024-.262-.052-.528-.08-.794-.468-4.463-1.143-8.727-1.834-12.432-.048-.262-.1-.524-.151-.782-1.195-6.266-2.414-10.8-2.692-11.809-.032-.123-.052-.191-.055-.206l.377-.107,0,0,.381-.107c0,.016.072.242.183.663.425,1.572,1.529,5.841,2.613,11.471.048.254.1.516.147.778.564,3.006,1.116,6.365,1.552,9.891q.167,1.328.3,2.62c.032.266.059.532.083.794Q413.585,485.985,413.6,490.78Z" transform="translate(-192.375 -213.085)" fill="#fff"/>
    <path id="Path_3805" data-name="Path 3805" d="M402.719,475.6c-.266.036-.536.072-.81.1a22.029,22.029,0,0,1-2.239.115,21.3,21.3,0,0,1-9.212-2.081l-.5.635a22.092,22.092,0,0,0,9.716,2.239,22.576,22.576,0,0,0,2.39-.127c.27-.028.54-.064.806-.1a21.9,21.9,0,0,0,6.333-1.918q-.256-.327-.5-.643A21.227,21.227,0,0,1,402.719,475.6Z" transform="translate(-184.137 -222.272)" fill="#fff"/>
    <path id="Path_3806" data-name="Path 3806" d="M400.809,494.26q-.411.024-.822.024c-.084,0-.171,0-.254,0A21.422,21.422,0,0,1,382.15,485.1c-.159.234-.318.469-.472.707a22.215,22.215,0,0,0,18.054,9.271c.111,0,.222,0,.334,0,.278,0,.552-.012.826-.024a22.1,22.1,0,0,0,11.773-4.13c-.127-.234-.254-.469-.385-.7A21.272,21.272,0,0,1,400.809,494.26Z" transform="translate(-180.23 -227.64)" fill="#fff"/>
    <path id="Path_3807" data-name="Path 3807" d="M398.717,509.672c-.278.024-.556.04-.833.051-.3.012-.6.02-.894.02A21.478,21.478,0,0,1,376.4,494.289c-.179.322-.357.64-.528.961a22.266,22.266,0,0,0,21.12,15.287c.3,0,.6,0,.889-.02s.56-.024.838-.044a22.2,22.2,0,0,0,14.652-7.151c-.083-.293-.178-.584-.274-.877A21.41,21.41,0,0,1,398.717,509.672Z" transform="translate(-177.487 -231.977)" fill="#fff"/>
    <circle id="Ellipse_275" data-name="Ellipse 275" cx="52.122" cy="52.122" r="52.122" transform="translate(0 3.024)" fill="#2f2e41"/>
    <circle id="Ellipse_276" data-name="Ellipse 276" cx="43.435" cy="43.435" r="43.435" transform="translate(8.687 11.711)" fill="#2c3e50"/>
    <circle id="Ellipse_277" data-name="Ellipse 277" cx="52.122" cy="52.122" r="52.122" transform="translate(138.413 3.024)" fill="#2f2e41"/>
    <circle id="Ellipse_278" data-name="Ellipse 278" cx="43.435" cy="43.435" r="43.435" transform="translate(147.1 11.711)" fill="#fff"/>
    <circle id="Ellipse_279" data-name="Ellipse 279" cx="52.122" cy="52.122" r="52.122" transform="translate(276.825 3.024)" fill="#2f2e41"/>
    <circle id="Ellipse_280" data-name="Ellipse 280" cx="43.435" cy="43.435" r="43.435" transform="translate(285.512 11.711)" fill="#fff"/>
    <path id="Path_3808" data-name="Path 3808" d="M81.53,102.985c-.078,0-.156,0-.233-.006a4.769,4.769,0,0,1-3.536-1.837L71.1,92.576a4.779,4.779,0,0,1,.837-6.7l.24-.186a4.78,4.78,0,0,1,6.7.837,4.245,4.245,0,0,0,5.958.745,4.184,4.184,0,0,0,.476-.431L98.836,72.561a4.773,4.773,0,0,1,6.748-.182h0l.221.21a4.773,4.773,0,0,1,.182,6.747L84.994,101.494A4.767,4.767,0,0,1,81.53,102.985Z" transform="translate(-33.099 -32.132)" fill="#fff"/>
    <path id="Path_3809" data-name="Path 3809" d="M326.756,208.831a7.972,7.972,0,0,1-5.106-11.1l-17.176-56,12.633-2.5,15.709,54.888a8.013,8.013,0,0,1-6.06,14.715Z" transform="translate(-143.774 -64.316)" fill="#ffb6b6"/>
    <path id="Path_3810" data-name="Path 3810" d="M125.009,103.516a7.771,7.771,0,0,1,.411,1.159l34.836,11.837,6.732-5.881,10.2,9-10.9,11.568a5.934,5.934,0,0,1-7.019,1.214L121.99,113.373a7.79,7.79,0,1,1,3.02-9.857Z" transform="translate(-52.003 -45.295)" fill="#ffb6b6"/>
    <path id="Path_3811" data-name="Path 3811" d="M205.24,113.836a3.333,3.333,0,0,1,1.173-2.52l12.755-10.865a9.272,9.272,0,0,1,14,12.157l-9.083,14.144a3.339,3.339,0,0,1-4.613,1,3.273,3.273,0,0,1-.392-.294l-12.7-11.092A3.334,3.334,0,0,1,205.24,113.836Z" transform="translate(-96.915 -44.506)" fill="#e4e4e4"/>
    <path id="Path_3812" data-name="Path 3812" d="M297.546,142.938a3.335,3.335,0,0,1-1.7-2.2l-3.772-16.326a9.272,9.272,0,0,1,17.239-6.831l8.373,14.576a3.339,3.339,0,0,1-1.232,4.558,3.43,3.43,0,0,1-.442.212l-15.694,6.165A3.336,3.336,0,0,1,297.546,142.938Z" transform="translate(-137.615 -51.337)" fill="#e4e4e4"/>
    <g id="Group_411" data-name="Group 411" transform="translate(57.069 10.725)">
      <path id="b35682e1-9f03-403a-b8b0-c3d37d0d1380" d="M244.16,549.673H108.127v-1.112H244.362Z" transform="translate(-108.127 -268.33)" fill="#3f3d56"/>
      <path id="eba1f826-879a-4c25-b118-6bb025be95d0" d="M289.888,514.348h-6.47l-3.078-24.958h9.549Z" transform="translate(-189.447 -240.388)" fill="#feb8b8"/>
      <path id="f6694a1b-3521-46e6-aa9c-51f4297aac52" d="M282.89,541.06H262.026V540.8a8.121,8.121,0,0,1,8.12-8.121H282.89Z" transform="translate(-180.799 -260.828)" fill="#2f2e41"/>
      <path id="fae71c2d-33fb-45f7-8331-19b4de5eddc8" d="M199.7,512.494l-6.251-1.672,3.473-24.907,9.226,2.467Z" transform="translate(-148.416 -238.748)" fill="#feb8b8"/>
      <path id="b3b10fd6-5fa4-49f3-8270-96ad6a3a1e0e" d="M187.211,538.12l-20.156-5.39.068-.255a8.121,8.121,0,0,1,9.943-5.748h0l12.311,3.292Z" transform="translate(-135.953 -257.889)" fill="#2f2e41"/>
      <path id="f6267da0-acb1-421a-9dac-5a6151c1f955" d="M249.045,271.665l5.42,6.3-7.009,127.96H232.483l-7.547-98.461-23.407,101.1-15.566-3.818,14.153-128.413Z" transform="translate(-144.881 -137.578)" fill="#2f2e41"/>
      <path id="ea0dabd6-18d7-4484-8048-4cddc34702bd" d="M214.139,108.448l14.908-7.48,22.926.4,19.729,10.1-11.225,56.062,4.849,29.229h0a119.567,119.567,0,0,1-57.179.471l-.15-.036s11.144-39.54,6.4-51.607Z" transform="translate(-155.286 -56.975)" fill="#e6e6e6"/>
      <path id="a75b604a-8411-40e9-b5d3-81fba8b6e00c" d="M271.135,43.48a16.886,16.886,0,1,0,0,.125Z" transform="translate(-169.152 -21.885)" fill="#feb8b8"/>
      <path id="ba7ab43e-494b-455d-a87f-0e0f24cb0a47" d="M259.383,47.5a20.87,20.87,0,0,0-3.929-.7,10.008,10.008,0,0,1-7.868-10.4,5.728,5.728,0,0,0,.03-1.865c-.325-1.356-1.832-2.084-3.216-2.246a28.953,28.953,0,0,1-4.162-.315,6.209,6.209,0,0,1-4.16-4.541,10.283,10.283,0,0,1,.669-6.314l.646,1.347a5.23,5.23,0,0,0,1.323-2.561,3.3,3.3,0,0,1,2.727,1.727c.834.373.733-1.534,1.564-1.911a1.564,1.564,0,0,1,1.109.144c1.833.615,3.777-.308,5.593-.969a21.337,21.337,0,0,1,9.839-1.124A11.872,11.872,0,0,1,265.7,20.1a14.045,14.045,0,0,1,3.249,4.367c2.12,3.963,3.717,8.334,3.674,12.83a18.632,18.632,0,0,1-3.254,10.3c-1.083,1.575-4.581,7.042-6.906,6.44C259.544,53.288,262.88,48.874,259.383,47.5Z" transform="translate(-168.441 -17.615)" fill="#2f2e41"/>
    </g>
  </g>
</svg>
