<svg xmlns="http://www.w3.org/2000/svg" xmlns:xlink="http://www.w3.org/1999/xlink" width="778.402" height="561.718" viewBox="0 0 778.402 561.718">
  <defs>
    <linearGradient id="linear-gradient" x1="0.965" y1="0.004" x2="-0.012" y2="1.023" gradientUnits="objectBoundingBox">
      <stop offset="0" stop-color="#171fff"/>
      <stop offset="1" stop-color="#0164f8"/>
    </linearGradient>
    <linearGradient id="linear-gradient-2" x1="0.396" y1="0.335" x2="0.344" y2="0.378" gradientUnits="objectBoundingBox">
      <stop offset="0" stop-color="#f6f4f7"/>
      <stop offset="1" stop-color="#c0b9c8"/>
    </linearGradient>
  </defs>
  <g id="Group_1438" data-name="Group 1438" transform="translate(-1004.799 -306.121)">
    <path id="Path_5099" data-name="Path 5099" d="M-18270,572c-24,16-214,112-80,154s100,48,218,94,214,42,328-20,244-60,156-112-100-94-226-86-210-40-250-68S-18246,556-18270,572Z" transform="translate(19402.23 16.838)" fill="#03162e" opacity="0.05"/>
    <g id="Group_1415" data-name="Group 1415" transform="translate(1415.462 453.952)">
      <path id="Path_5079" data-name="Path 5079" d="M7749.762,1722.608s-4.383,2.5-5.323,4.384-1.408,8.844-1.877,12.523c-.444,3.472-.548,2.74.626,3.444,1.633.98,4.383-9.079,4.383-9.079s-.626,4.07.939,5.635,2.817-4.383,2.817-4.383a13.085,13.085,0,0,0,5.636-7.827C7758.527,1721.669,7749.762,1722.608,7749.762,1722.608Z" transform="translate(-7742.252 -1573.835)" fill="#ffd0a6"/>
      <path id="Path_5080" data-name="Path 5080" d="M7614.519,1368.06s-8.454,25.986-12.836,46.023c-3.758,11.271-16.908,29.43-17.534,32.561,0,2.5,3.758,8.14,9.394,6.262s19.411-27.551,24.42-36.318,14.4-26.3,10.645-38.2S7614.519,1368.06,7614.519,1368.06Z" transform="translate(-7578.831 -1299.436)" fill="#1c417f"/>
      <path id="Path_5082" data-name="Path 5082" d="M7406.356,2239.946s.347,5.21-4.516,10.42-7.988,11.115-5.557,15.631,13.2,3.126,17.367-.347,3.473-6.947,7.294-11.81,4.516-7.642,3.126-12.852S7412.608,2237.167,7406.356,2239.946Z" transform="translate(-7331.426 -1972.342)" fill="#6d6d6d"/>
      <path id="Path_5083" data-name="Path 5083" d="M7579.719,2193.187a14.676,14.676,0,0,1-5.9,9.031c-5.211,3.821-7.99,7.642-7.3,13.547s10.421,5.21,15.284,2.778,3.82-4.863,7.294-8.683,5.9-4.168,6.6-8.336-.348-8.683-2.432-9.379S7586.666,2188.324,7579.719,2193.187Z" transform="translate(-7541.259 -1936.003)" fill="#6d6d6d"/>
      <path id="Path_5084" data-name="Path 5084" d="M7543.8,1706.057s1.157,96.561,2.546,113.7c.464,4.168,10.652,8.336,14.821,2.315,4.167-7.873,1.621-88.688,6.715-103.508C7566.5,1707.91,7548.9,1704.205,7543.8,1706.057Z" transform="translate(-7508.125 -1560.718)" fill="#c7c8c8"/>
      <path id="Path_5085" data-name="Path 5085" d="M7392.754,1692.649c.439,1.611,6.021,15.746,20.84,24.083,12.5,6.484,14.356,17.6,15.282,27.324s.926,67.616,1.853,69.468,8.8,9.262,18.524,0c.927-26.861,1.39-113.928-.462-125.043S7391.365,1687.556,7392.754,1692.649Z" transform="translate(-7356.148 -1543.605)" fill="#c7c8c8"/>
      <path id="Path_5086" data-name="Path 5086" d="M7405.854,1314.874s22.23,14.82,24.545,19.915,3.242,19.451-.925,29.177-1.39,44.922-2.779,51.869-19.915,9.726-31.493,7.873-27.272-3.777-27.272-17.207.412-44.388-.514-50.408-.493-19.681,2.068-29.927C7370.643,1321.534,7384.411,1314.037,7405.854,1314.874Z" transform="translate(-7332.628 -1258.277)" fill="#1c417f"/>
      <path id="Path_5087" data-name="Path 5087" d="M7201.319,1338.268s14.6,13.833,21.972,17.962,10.385-28.167,13.551-31.267c3.373-1.034,7.643-.072,9.023,6.744s-4.116,35.188-10.929,43.522-31.263-6.6-38.979-14.167S7193.745,1339.029,7201.319,1338.268Z" transform="translate(-7106.835 -1265.862)" fill="#1c417f"/>
      <path id="Path_5088" data-name="Path 5088" d="M7178.236,1257.038a4.245,4.245,0,0,1-2.191-4.07c0-3.131-1.252-9.705-.314-10.645s3.444,3.131,4.07,5.948c.313-1.565.626-11.9,2.818-12.836s4.383,3.757,5.949,8.453S7185.75,1265.178,7178.236,1257.038Z" transform="translate(-7045.828 -1196.753)" fill="#ffd0a6"/>
      <path id="Path_5089" data-name="Path 5089" d="M7480.207,1268.86a2.17,2.17,0,0,1,.015.7c-.187,1.6-.848,5.7-.941,7.4-.09,1.635,1.852,4.4,6.253,4.169s11.809-2.316,14.125-7.642a122,122,0,0,1,.231-15.515Z" transform="translate(-7425.538 -1214.293)" fill="#e4b496"/>
      <path id="Path_5090" data-name="Path 5090" d="M7452.316,1311.373l4.1,7.783,15.905-10.68-4-6.882Z" transform="translate(-7391.877 -1248.05)" fill="#dedede"/>
      <path id="Path_5091" data-name="Path 5091" d="M7530.783,1348.78l3.053.382-2.265-4.316Z" transform="translate(-7471.129 -1281.522)" fill="#bfbfbf"/>
      <path id="Path_5092" data-name="Path 5092" d="M7562.376,1342.763c.176-.059,3.41.049,3.41.049l-.588-4.646Z" transform="translate(-7510.223 -1276.353)" fill="#bfbfbf"/>
      <path id="Path_5093" data-name="Path 5093" d="M7569.217,1327.341l7.814,43.44-.986,62.885s-20.4-.788-22.472-13.109v-13.109l-.592-52.438,2.957-20.107S7563.413,1327.758,7569.217,1327.341Z" transform="translate(-7519.343 -1267.975)" fill="#03162e"/>
      <path id="Path_5094" data-name="Path 5094" d="M7571.924,1314.185l-5.4,8.867-1.247-11.985,5.2-3.879Z" transform="translate(-7517.016 -1252.378)" fill="#dedede"/>
      <path id="Path_5095" data-name="Path 5095" d="M7475.554,1120.926c-3.4,10.333-12.851,13.894-18.062,15.63s-11.462,1.042-14.936-2.432-6.6-19.1-4.515-32.65,12.5-21.535,24.662-19.1S7484.932,1092.444,7475.554,1120.926Z" transform="translate(-7395.415 -1078.052)" fill="#ffd0a6"/>
      <path id="Path_5096" data-name="Path 5096" d="M7419.622,1067.307s.055.2.175.57c1.249,3.816,9.5,25.321,35.2,18.947,0,0-.222,15.968,12.2,21.4,0,0,17.52-23.73.776-36.926,0,0-11.754-12.752-29.828-2.661C7438.14,1068.638,7427.827,1072.075,7419.622,1067.307Z" transform="translate(-7387.376 -1064.753)" fill="#05264f"/>
      <path id="Path_5097" data-name="Path 5097" d="M7385.269,1373.615l17.017-40.46,4.7-2.153s10.893,7.627,14.633,11.973c0,0-13.067,17.381-6.217,38.321,0,0,4.488,7.342,8.01,7.929l-.966,39.038s-5.476,15.694-38.159,8.238Z" transform="translate(-7327.581 -1270.809)" fill="#03162e"/>
      <path id="Path_5098" data-name="Path 5098" d="M7458.736,1195.488v14.778a8.718,8.718,0,0,0,5.2-8.347C7463.936,1195.488,7458.736,1195.488,7458.736,1195.488Z" transform="translate(-7384.941 -1165.931)" fill="#f1ceb9"/>
    </g>
    <g id="_8" data-name="8" transform="translate(645.045 176.735)">
      <g id="Group_1422" data-name="Group 1422" transform="translate(526.004 129.386)">
        <g id="Group_1416" data-name="Group 1416" transform="translate(0.89)">
          <path id="Path_5101" data-name="Path 5101" d="M369.483,531.371l-.544-294.2,181.11-104.559c6.054-4.8,11.816-1.919,11.821,3.453l.1,285.685c.006,2.161-6.807,13.234-8.676,14.312L376.823,537.853C371.886,539.228,369.483,534.126,369.483,531.371Z" transform="translate(-363.056 -125.83)" opacity="0.37" fill="url(#linear-gradient)"/>
          <path id="Path_5102" data-name="Path 5102" d="M563.945,133.131c-2.194-1.27-5.223-1.089-8.572.847l-170.46,98.643c-6.647,3.843-12.014,13.163-11.986,20.805l.313,288.148c.016,3.794,1.358,6.466,3.524,7.719l-5.058-2.936c-2.166-1.254-3.508-3.926-3.524-7.719l-.314-288.148c-.027-7.642,5.339-16.962,11.986-20.805l170.46-98.643c3.348-1.935,6.378-2.117,8.572-.847Z" transform="translate(-367.869 -129.386)" fill="url(#linear-gradient-2)"/>
          <path id="Path_5103" data-name="Path 5103" d="M551.235,131.578,380.775,230.22c-6.647,3.843-12.014,13.163-11.986,20.805l.314,288.148c.033,7.642,5.449,10.721,12.1,6.873L551.658,447.4c6.647-3.843,12.013-13.163,11.986-20.805l-.319-288.148C563.3,130.808,557.882,127.729,551.235,131.578ZM382.842,231.969l170.432-98.626a5.173,5.173,0,0,1,7.763,4.475l.269,282.353a7.808,7.808,0,0,1-3.893,6.752L376.459,531.635a3.255,3.255,0,0,1-4.888-2.815l-.259-276.833A23.1,23.1,0,0,1,382.842,231.969Z" transform="translate(-363.731 -126.985)" fill="#353131"/>
        </g>
        <g id="Group_1417" data-name="Group 1417" transform="translate(0 141.365)">
          <path id="Path_5104" data-name="Path 5104" d="M371.418,162.516l.022,21.921c0,1.039-.726,1.457-1.633.935l-.451-.258a3.582,3.582,0,0,1-1.627-2.81l-.022-21.927c.006-1.028.737-1.452,1.639-.935l.445.259A3.588,3.588,0,0,1,371.418,162.516Z" transform="translate(-367.707 -136.543)" fill="#c5bfcd"/>
          <path id="Path_5105" data-name="Path 5105" d="M371.291,160.173a3.973,3.973,0,0,1,.632,1,3.124,3.124,0,0,1,.28,1.221l.022,21.927a1.135,1.135,0,0,1-.473,1.045l-1.177.687a1.145,1.145,0,0,0,.473-1.05l-.022-21.921a3.061,3.061,0,0,0-.286-1.226,3.868,3.868,0,0,0-.627-.99,2.921,2.921,0,0,0-.715-.6l-.445-.259a1.144,1.144,0,0,0-1.16-.1l1.177-.687a1.134,1.134,0,0,1,1.16.11l.445.258A2.9,2.9,0,0,1,371.291,160.173Z" transform="translate(-367.316 -137.103)" fill="#f6f4f7"/>
          <path id="Path_5106" data-name="Path 5106" d="M371.3,156.174a4.047,4.047,0,0,1,.632.99,3.146,3.146,0,0,1,.28,1.226l.011,10.392a1.145,1.145,0,0,1-.473,1.05l-1.177.682a1.129,1.129,0,0,0,.473-1.045l-.011-10.4a3.06,3.06,0,0,0-.286-1.221,3.864,3.864,0,0,0-.627-.99,2.8,2.8,0,0,0-.715-.6L368.96,156a1.16,1.16,0,0,0-1.16-.11l1.177-.687a1.16,1.16,0,0,1,1.16.11l.445.258A2.921,2.921,0,0,1,371.3,156.174Z" transform="translate(-367.289 -155.097)" fill="#f6f4f7"/>
          <path id="Path_5107" data-name="Path 5107" d="M371.424,158.511l.011,10.4c0,1.039-.731,1.452-1.633.929l-.451-.258a3.582,3.582,0,0,1-1.627-2.809l-.011-10.392c.005-1.034.737-1.452,1.638-.935l.445.258A3.578,3.578,0,0,1,371.424,158.511Z" transform="translate(-367.68 -154.536)" fill="#c5bfcd"/>
        </g>
        <path id="Path_5108" data-name="Path 5108" d="M446.1,147.366l-61.839,35.7-3.993-6.816L450.1,135.938Z" transform="translate(-311.194 -99.911)" fill="#353131"/>
        <g id="Group_1418" data-name="Group 1418" transform="translate(102.008 347.387)">
          <path id="Path_5109" data-name="Path 5109" d="M404.854,194.894V198.6a6.682,6.682,0,0,1-3.25,5.185l-11.464,6.636a3.641,3.641,0,0,1-1.776.539,2.085,2.085,0,0,1-2.084-2.3v-3.711a6.665,6.665,0,0,1,3.25-5.179l11.464-6.636a3.635,3.635,0,0,1,1.776-.544A2.09,2.09,0,0,1,404.854,194.894Z" transform="translate(-386.165 -192.491)" fill="#262424"/>
          <path id="Path_5110" data-name="Path 5110" d="M404.03,194.344l.005,3.739a6.758,6.758,0,0,1-3.277,5.223L389.207,210a3.7,3.7,0,0,1-1.792.539,1.992,1.992,0,0,1-.583-.11,2.479,2.479,0,0,1-.567-1.666l-.005-3.739a6.767,6.767,0,0,1,3.277-5.223l11.552-6.686a3.693,3.693,0,0,1,1.792-.544,2.238,2.238,0,0,1,.583.115A2.474,2.474,0,0,1,404.03,194.344Z" transform="translate(-386.26 -192.568)" fill="#353131"/>
        </g>
        <g id="Group_1421" data-name="Group 1421" transform="translate(103.58 57.306)">
          <g id="Group_1419" data-name="Group 1419">
            <path id="Path_5111" data-name="Path 5111" d="M388.4,140.065a4.087,4.087,0,0,0-1.858,3.211c.005,1.182.841,1.66,1.869,1.067a4.085,4.085,0,0,0,1.853-3.216C390.268,139.944,389.433,139.471,388.4,140.065Z" transform="translate(-386.546 -139.808)" fill="#191414"/>
          </g>
          <g id="Group_1420" data-name="Group 1420" transform="translate(0.494 0.622)">
            <path id="Path_5112" data-name="Path 5112" d="M386.636,142.431a3.021,3.021,0,0,1,1.429-2.342c.77-.412,1.375-.038,1.353.841a3.017,3.017,0,0,1-1.435,2.337C387.219,143.685,386.614,143.311,386.636,142.431Z" transform="translate(-386.636 -139.921)" fill="#c6c6c6" opacity="0.1"/>
            <path id="Path_5113" data-name="Path 5113" d="M386.756,141.446a1.64,1.64,0,0,1,.775-1.276c.418-.225.748-.022.737.456a1.637,1.637,0,0,1-.781,1.27C387.069,142.122,386.745,141.919,386.756,141.446Z" transform="translate(-386.096 -139.216)" fill="#c6c6c6" opacity="0.1"/>
            <path id="Path_5114" data-name="Path 5114" d="M386.842,140.694a.618.618,0,0,1,.291-.473c.154-.082.275-.006.27.17a.6.6,0,0,1-.286.467C386.963,140.941,386.842,140.87,386.842,140.694Z" transform="translate(-385.709 -138.723)" fill="#c6c6c6" opacity="0.2" style="mix-blend-mode: screen;isolation: isolate"/>
          </g>
        </g>
        <path id="Path_5115" data-name="Path 5115" d="M402.55,139.94,390.657,146.8c-.737.429-1.331.176-1.331-.561a2.752,2.752,0,0,1,1.331-2.095l11.892-6.867c.737-.423,1.331-.17,1.331.561A2.753,2.753,0,0,1,402.55,139.94Z" transform="translate(-270.457 -94.804)" fill="#191414"/>
        <path id="Path_5116" data-name="Path 5116" d="M394.738,144.45l-11.893,6.867c-.731.423-1.331.17-1.331-.566a2.767,2.767,0,0,1,1.331-2.095l11.893-6.867c.737-.423,1.33-.17,1.33.566A2.752,2.752,0,0,1,394.738,144.45Z" transform="translate(-305.596 -74.517)" fill="#191414"/>
      </g>
      <g id="Group_1423" data-name="Group 1423" transform="translate(559.994 146.201)">
        <path id="Path_5117" data-name="Path 5117" d="M562.849,412.9l-188.96,109.1,0-276.98,188.96-109.1Z" transform="translate(-373.889 -116.824)" fill="#cfe9ff" opacity="0.7"/>
        <path id="Path_5118" data-name="Path 5118" d="M562.849,152.568l-188.96,109.1V241.542l188.96-109.1Z" transform="translate(-373.888 -132.444)" fill="#788eff"/>
      </g>
      <g id="Group_1427" data-name="Group 1427" transform="translate(625.774 240.472)">
        <g id="Group_1425" data-name="Group 1425" transform="translate(0.811 1.404)">
          <path id="Path_5119" data-name="Path 5119" d="M448.34,220.528,386,256.52V185.837l62.339-35.992Z" transform="translate(-386 -149.845)" fill="#788eff"/>
          <g id="Group_1424" data-name="Group 1424" transform="translate(3.23 25.221)">
            <path id="Path_5120" data-name="Path 5120" d="M392.075,170.194a79.337,79.337,0,0,1,18.584-10.749,23.914,23.914,0,0,1,.841,8.4s-9.039,9.22-9.22,9.325-7.1.253-7.313.308a21.884,21.884,0,0,1-2.045-3.266c-.038-.088-3.442.3-3.442.3Z" transform="translate(-373.579 -131.885)" fill="#ffd0a6"/>
            <path id="Path_5121" data-name="Path 5121" d="M390.31,168.368v8.764c2.4,5.493,14.009-1.776,14.009-8.088V157.592Z" transform="translate(-369.846 -140.22)" fill="#fcb67c"/>
            <path id="Path_5122" data-name="Path 5122" d="M411.726,163.4c0,7.467-4.97,20.9-11.1,24.434s-11.1-4.151-11.1-11.618,4.97-16.39,11.1-19.931S411.726,155.93,411.726,163.4Z" transform="translate(-373.377 -152.616)" fill="#ffd0a6"/>
            <path id="Path_5123" data-name="Path 5123" d="M433.053,159.1l-9.386,2.7c-.61,9.5-14.51,18.941-18.622,10.754l-8.858,7.714a18.384,18.384,0,0,0-4.833,6.631c-2.073,4.822-4.767,13.647-4.767,26.98l7.131-4.1,41.269-23.824,7.186-4.146c0-13.185-2.535-18.914-4.591-21.393A4.318,4.318,0,0,0,433.053,159.1Z" transform="translate(-386.588 -134.24)" fill="#1c417f"/>
            <path id="Path_5124" data-name="Path 5124" d="M403.78,155.359c5.79-2.6,7.923.869,8.291,3.079a32.54,32.54,0,0,1-1.413,14.79c.3-2.507.621-7.851-.137-9.308a1.39,1.39,0,0,0-1.677-.621,57.986,57.986,0,0,0-10.859,4.25c-2.612,1.32-5.531,2.771-6.675,6.939a23.645,23.645,0,0,0-.005,10.793s-3.5-4.184-.8-15.879a12.788,12.788,0,0,1,1.479-3.574,10.861,10.861,0,0,1,1.193-1.644,16.08,16.08,0,0,0,1.451-1.347C396.017,159.73,399.624,157.229,403.78,155.359Z" transform="translate(-373.579 -154.432)" fill="#05264f"/>
          </g>
        </g>
        <g id="Group_1426" data-name="Group 1426">
          <path id="Path_5125" data-name="Path 5125" d="M385.853,259.07V186.521l.412-.236,63.548-36.695v72.554l-.407.236Zm1.622-71.614v68.81l60.716-35.056V152.394Z" transform="translate(-385.853 -149.59)" fill="#788eff"/>
        </g>
      </g>
      <g id="Group_1429" data-name="Group 1429" transform="translate(608.933 325.741)">
        <g id="Group_1428" data-name="Group 1428">
          <path id="Path_5126" data-name="Path 5126" d="M475.043,182.046l-84.325,48.686c-4.344,2.507-7.862,1.017-7.862-3.326s3.519-9.891,7.862-12.4l84.325-48.686c4.344-2.507,7.862-1.017,7.862,3.326S479.386,179.539,475.043,182.046Z" transform="translate(-382.498 -165.099)" fill="#fff"/>
          <path id="Path_5127" data-name="Path 5127" d="M475.043,187.037l-84.325,48.686c-4.344,2.507-7.862,1.017-7.862-3.326s3.519-9.9,7.862-12.4l84.325-48.686c4.344-2.507,7.862-1.017,7.862,3.326S479.386,184.53,475.043,187.037Z" transform="translate(-382.498 -142.648)" fill="#fff"/>
          <path id="Path_5128" data-name="Path 5128" d="M414.58,198.448l-23.922,13.817c-4.344,2.507-7.868,1.017-7.868-3.326s3.524-9.9,7.868-12.4l23.922-13.811c4.344-2.507,7.868-1.017,7.868,3.321S418.924,195.941,414.58,198.448Z" transform="translate(-382.79 -91.297)" fill="#788eff"/>
        </g>
      </g>
      <g id="Group_1431" data-name="Group 1431" transform="translate(492.858 131.499)">
        <g id="Group_1430" data-name="Group 1430">
          <path id="Path_5129" data-name="Path 5129" d="M478.421,286.846l-116.743,67.4,0-153.6,116.742-67.4Z" transform="translate(-361.678 -114.15)" fill="#788eff" opacity="0.6"/>
          <path id="Path_5130" data-name="Path 5130" d="M478.421,149.894,361.679,217.3V197.173l116.743-67.4Z" transform="translate(-361.677 -129.77)" fill="#5c90dd"/>
        </g>
        <path id="Path_5131" data-name="Path 5131" d="M459.4,141.823a.7.7,0,0,0-.517-.385l-6.306-1.3a3,3,0,0,0-2.045.473l-41.313,23.807a4.6,4.6,0,0,1-3.975.638l-.572-.242a2.784,2.784,0,0,0-2.4.39l-4.426,2.551c-3.31-3.233-9.078-3.321-15.648.467-10.293,5.927-18.65,19.09-18.661,29.388s8.324,13.844,18.617,7.912c7.027-4.047,13.146-11.469,16.33-19.046l5.234-3.013a2.409,2.409,0,0,0,.742-.715l3.029-4.531a4.257,4.257,0,0,1,1.424-1.353l.984-.539c.753-.412,1.677-.918,2.634-1.446s1.952-1.083,2.843-1.578c1.342-.753,2.458-1.4,2.9-1.682.544-.352,2.623-2.375,3.832-3.48a4,4,0,0,1,1.748-1c1.122-.253,3.063-.693,4.234-.94a1.475,1.475,0,0,0,.489-.2,2.393,2.393,0,0,0,.484-.39c.5-.506,1.21-1.237,1.649-1.71a5.113,5.113,0,0,1,1.759-.863c.792-.275,1.693-.544,2.392-.8a4.211,4.211,0,0,0,1.039-.489c.4-.319,1.435-1.237,2.546-2.243.28-.253.566-.511.847-.77.841-.764,1.655-1.512,2.216-2.029a2.673,2.673,0,0,1,1.452-.753l1.226-.11,1.479-.132c1-.088,1.979-.176,2.524-.22a2.3,2.3,0,0,0,.929-.313,4.174,4.174,0,0,0,.929-.759l8.456-9.066C459.673,143.962,459.958,142.5,459.4,141.823ZM373.12,197.7c-3.1,1.787-5.608.72-5.6-2.381s2.518-7.06,5.619-8.847,5.6-.72,5.6,2.381S376.221,195.909,373.12,197.7Z" transform="translate(-353.319 -83.317)" fill="#fff" style="mix-blend-mode: screen;isolation: isolate"/>
        <path id="Path_5132" data-name="Path 5132" d="M406.078,186.852l10-5.773v2.386l-10,5.779Zm-12.849,26.364-15.582,9V224.6L396.1,213.947l6.395-3.689v-2.386l-9.264,5.344Zm13.806-15.054v-2.386l-7.813,4.509-5.141,2.969v2.386l5.141-2.969Zm-16.616,7.208-12.811,7.4v2.386l12.811-7.4Zm6.614-10.908,5.377-3.1v-2.392l-9.259,5.35-15.461,8.924v2.392l19.343-11.172Zm-15.169-.709,12.607-7.28v-2.386l-12.607,7.274-4.085,2.359v2.386l4.085-2.359Zm25.171-14.537,4.052-2.337v-2.386l-5.355,3.09-7.6,4.388v2.386l8.9-5.141Zm9.127,20.761-10.007,5.779v2.386l10.007-5.779Zm-19.524,45.508-18.98,10.958v2.386l18.98-10.958Zm-18.82,20.338v2.392l3.81-2.2,15.945-9.2v-2.386l-13.553,7.824Zm38.344-50.556-13.751,7.939-9.182,5.3v2.386l9.182-5.3,13.751-7.939Zm-1.974,29.558-3.447,1.99-9.506,5.487v2.386l7.6-4.388,5.355-3.09Zm-25.171-4.41-11.348,6.548v2.386l11.348-6.548,12.607-7.28v-2.386l-12.607,7.274Zm16.269-9.4v2.386l6.658-3.843v-2.386Zm-4.981,14.735,11.986-6.922v-2.386l-11.986,6.922Zm-22.658-5.867,11.92-6.878v-2.386l-11.92,6.878ZM445.8,182.861l-9.325,5.388v2.386l9.325-5.383Zm-.132-28.337-5.608,3.238v2.386l5.608-3.238Zm-9.27,5.35-4.827,2.793v2.386l4.827-2.788Zm9.363,4.069-9.21,5.317v2.386l9.21-5.317Zm-13.806,17.446-3.937,2.271v2.386l3.937-2.271Zm3.667.269,10.221-5.9v-2.392l-10.221,5.9Zm10.012,45.013-8.676,5v2.392l8.676-5.009Zm.154-9.561-16.39,9.462v2.386l16.39-9.462ZM433.3,233.8l-4.833,2.782v2.386l4.833-2.782Zm-.39-16.341,12.871-7.428v-2.386l-12.871,7.428Zm3.568-11.53,9.325-5.383v-2.392l-9.325,5.388ZM460.285,174.5l-4,2.3V179.2l4-2.309Zm-.137-28.338-5.6,3.233v2.386l5.6-3.233Zm.093,9.418-3.871,2.232v2.392l3.871-2.238Zm-4.805,12.245v2.386l4.888-2.821v-2.386Zm4.679,50.479-3.337,1.93v2.386l3.337-1.924Zm.154-9.561-4.992,2.887v2.386l4.992-2.887Zm-2.21-5.806,2.2-1.27v-2.386l-2.2,1.265Zm-1.77-8.451,4-2.309v-2.386l-4,2.3Zm-92.5,38.113,4.151-2.4v-2.386l-4.151,2.4Zm-.132-28.338,2.535-1.468v-2.386l-2.535,1.463Zm.094,9.418,4.267-2.469v-2.386l-4.267,2.463Zm.077,7.038v2.386l3.26-1.88v-2.386Zm-.209,55.685,4.805-2.771v-2.386l-4.805,2.771Zm.159-9.561,3.145-1.814v-2.386l-3.145,1.814Zm5.933-15.285-5.944,3.431v2.386l5.944-3.431Zm-1.77-8.451-4.151,2.4v2.386l4.151-2.4Z" transform="translate(-352.963 -56.018)" fill="#fff"/>
      </g>
      <path id="Path_5133" data-name="Path 5133" d="M387.343,205.46a3.7,3.7,0,0,1-1.765,2.826c-.979.566-1.77.214-1.77-.786a3.693,3.693,0,0,1,1.77-2.832C386.551,204.1,387.343,204.459,387.343,205.46Zm5.531-5a3.693,3.693,0,0,0-1.77,2.832c0,1,.792,1.353,1.77.786a3.7,3.7,0,0,0,1.765-2.831C394.639,200.247,393.847,199.89,392.874,200.456Zm7.291-4.212a3.7,3.7,0,0,0-1.765,2.832c0,1,.792,1.353,1.765.786a3.692,3.692,0,0,0,1.771-2.826C401.935,196.036,401.144,195.678,400.165,196.245Zm7.3-4.212a3.7,3.7,0,0,0-1.765,2.826c0,1,.792,1.358,1.765.792a3.693,3.693,0,0,0,1.771-2.832C409.231,191.819,408.44,191.467,407.461,192.033Zm7.3-4.212a3.685,3.685,0,0,0-1.765,2.826c0,1,.786,1.358,1.765.792a3.7,3.7,0,0,0,1.765-2.832C416.522,187.612,415.73,187.255,414.757,187.821Zm7.3-4.212a3.693,3.693,0,0,0-1.771,2.832c0,1,.792,1.353,1.771.786a3.7,3.7,0,0,0,1.765-2.832C423.818,183.4,423.026,183.044,422.053,183.61Zm7.3-4.212a3.693,3.693,0,0,0-1.77,2.826c0,1,.792,1.358,1.77.792a3.7,3.7,0,0,0,1.765-2.831C431.114,179.184,430.322,178.832,429.349,179.4Zm7.291-4.217a3.719,3.719,0,0,0-1.765,2.831c0,1,.792,1.358,1.765.792a3.693,3.693,0,0,0,1.771-2.832C438.41,174.972,437.618,174.62,436.64,175.181Z" transform="translate(230.722 204.796)" fill="#cfcad4"/>
      <g id="Group_1432" data-name="Group 1432" transform="translate(615.8 369.822)">
        <path id="Path_5134" data-name="Path 5134" d="M384.831,177.085v4.239c0,.94.511,1.072,1.314.61A4.14,4.14,0,0,0,387.833,180v-4.646l.8-.467v4.464l.066,1.721-.665.385-.126-.8a4.884,4.884,0,0,1-2.029,2.166c-1.215.7-1.842.236-1.842-.929v-4.355Z" transform="translate(-384.039 -165.154)" fill="#cfcad4"/>
        <path id="Path_5135" data-name="Path 5135" d="M389.006,178.64c0-.847-.484-.77-1.666-.192-1.638.808-2.106.489-2.106-.44a3.925,3.925,0,0,1,2.254-3.145c1.666-.957,2.271-.44,2.271.781a7.059,7.059,0,0,1-.792.506c0-.9-.341-1.248-1.479-.594a2.453,2.453,0,0,0-1.452,1.919c0,.649.3.83,1.616.176,1.523-.753,2.177-.682,2.177.456a4.08,4.08,0,0,1-2.342,3.238c-1.715.99-2.337.313-2.337-.638a8.068,8.068,0,0,1,.8-.506c0,.676.335,1.144,1.534.451A2.568,2.568,0,0,0,389.006,178.64Z" transform="translate(-379.032 -167.49)" fill="#cfcad4"/>
        <path id="Path_5136" data-name="Path 5136" d="M387.059,178.745c.033,1.342.594,1.864,1.809,1.16a3.115,3.115,0,0,0,1.716-2.425l.77-.44a4.608,4.608,0,0,1-2.485,3.557c-1.831,1.056-2.623.132-2.623-1.595a5.363,5.363,0,0,1,2.568-4.855c1.77-1.023,2.54-.083,2.54,1.644v.467Zm0-.682,3.48-2.012c-.044-1.325-.583-1.869-1.737-1.2A3.619,3.619,0,0,0,387.059,178.063Z" transform="translate(-374.116 -170.377)" fill="#cfcad4"/>
        <path id="Path_5137" data-name="Path 5137" d="M390.067,173.116v.786a4.111,4.111,0,0,0-1.776,1.963v4.618l-.8.462v-4.464l-.066-1.721.665-.379.11.753a4.3,4.3,0,0,1,1.7-1.93A1.289,1.289,0,0,1,390.067,173.116Z" transform="translate(-368.817 -173.116)" fill="#cfcad4"/>
      </g>
      <g id="Group_1437" data-name="Group 1437" transform="translate(584.757 416.464)">
        <g id="Group_1433" data-name="Group 1433" transform="translate(72.367 21.223)">
          <path id="Path_5140" data-name="Path 5140" d="M417.1,192.837c0,7.06-5.718,16.082-12.778,20.156s-12.772,1.655-12.772-5.4,5.718-16.082,12.772-20.156S417.1,185.783,417.1,192.837Z" transform="translate(-391.555 -185.459)" fill="#788eff"/>
          <path id="Path_5141" data-name="Path 5141" d="M403.111,190.28l-1.913,1.105-.171,1.017c-.423-.412-1.111-.484-2.166.126a5.964,5.964,0,0,0-2.881,5.262v.528c0,2.084.951,3.046,2.881,1.935a5.32,5.32,0,0,0,2.166-2.37l.171.819,1.633-.946a7.783,7.783,0,0,0,4.25-7.247v-.467c0-4.388-3.283-4.25-7.054-2.078-4.344,2.507-7.533,7.01-7.533,11.871v.621c0,4.855,3.189,5.674,7.615,3.123a19.066,19.066,0,0,0,6.1-5.575l-.918-.72a17.436,17.436,0,0,1-5.135,4.662c-3.579,2.067-6.026,1.534-6.026-2.436v-.621a10.979,10.979,0,0,1,5.856-9.292c2.722-1.572,5.432-2.221,5.432,1.408v.467c0,2.4-.654,3.491-2.447,4.618v-3.6Zm-2.271,6.2a3.494,3.494,0,0,1-1.309,1.49c-.907.522-1.308.1-1.308-.94V196.5a2.666,2.666,0,0,1,1.308-2.458c.671-.385,1.122-.209,1.309-.022Z" transform="translate(-387.331 -180.824)" fill="#fff"/>
        </g>
        <g id="Group_1434" data-name="Group 1434" transform="translate(109.144)">
          <path id="Path_5142" data-name="Path 5142" d="M423.8,188.977c0,7.06-5.724,16.082-12.778,20.156s-12.778,1.655-12.778-5.4,5.718-16.082,12.778-20.156S423.8,181.923,423.8,188.977Z" transform="translate(-398.244 -181.599)" fill="#788eff"/>
          <path id="Path_5143" data-name="Path 5143" d="M416.335,183.979l-4.341-.553-4.341-.553-3.561,4.566v-1.8l-1.843,1.064V189.8l-3.278,4.2,1.609-.929v7.58l14.146-8.167v-7.58Z" transform="translate(-394.976 -175.871)" fill="#fff"/>
        </g>
        <g id="Group_1435" data-name="Group 1435" transform="translate(0 62.998)">
          <path id="Path_5144" data-name="Path 5144" d="M403.948,200.435c0,7.06-5.724,16.082-12.778,20.156s-12.778,1.655-12.778-5.4,5.718-16.082,12.778-20.156S403.948,193.381,403.948,200.435Z" transform="translate(-378.393 -193.057)" fill="#788eff"/>
          <path id="Path_5145" data-name="Path 5145" d="M391.282,193.847l-1.05.275a1.31,1.31,0,0,0-.792.869l-1.3,4.877c-.1.39.077.638.407.55l1.05-.275a1.019,1.019,0,0,0,.511-.363,1.993,1.993,0,0,1-.176,2.073l-3.194,5.784a3.463,3.463,0,0,1-1.886,1.671.54.54,0,0,0-.044-.489l-.539-.649c-.17-.2-.555-.088-.858.258l-3.766,4.305c-.3.346-.407.792-.236,1l.539.643c.269.313.715-.138,1.265-.39a4,4,0,0,1,1.446-.385c1.66-.1,3.513-1.842,4.795-4.157l4.794-8.687c1.276-2.315,1.545-4.426.363-5.185a1.97,1.97,0,0,1-.742-.9C391.695,194.253,391.794,193.715,391.282,193.847Z" transform="translate(-374.178 -189.597)" fill="#fff"/>
        </g>
        <g id="Group_1436" data-name="Group 1436" transform="translate(36.057 42.182)">
          <path id="Path_5146" data-name="Path 5146" d="M410.5,196.649c0,7.06-5.718,16.082-12.778,20.156s-12.772,1.655-12.772-5.4,5.718-16.082,12.772-20.156S410.5,189.595,410.5,196.649Z" transform="translate(-384.951 -189.271)" fill="#788eff"/>
          <path id="Path_5147" data-name="Path 5147" d="M386.044,211.453a.369.369,0,0,1-.319.049.246.246,0,0,1-.137-.242V201.078c.22-.533.335-.649.456-.72l17.721-10.227c.253-.149.456-.06.456.192V200.5a.94.94,0,0,1-.456.72Zm16.588-10.49-3.986-1.666-3.48,5.487a1.015,1.015,0,0,1-.324.324.394.394,0,0,1-.319.049l-3.574-1.556L387.1,209.93Zm.676-1V191.94l-4.019,6.339ZM386.5,209.578l3.81-6.257-3.81-1.66ZM394.847,204l7.813-12.321-15.527,8.962Z" transform="translate(-382.086 -185.728)" fill="#fff"/>
        </g>
      </g>
    </g>
  </g>
</svg>
