<svg xmlns="http://www.w3.org/2000/svg" width="25.821" height="25.821" viewBox="0 0 25.821 25.821">
  <path id="twitter" d="M12.91,0a12.91,12.91,0,1,0,12.91,12.91A12.912,12.912,0,0,0,12.91,0Zm5.895,10.066q.009.191.008.383a8.374,8.374,0,0,1-8.431,8.431h0A8.388,8.388,0,0,1,5.84,17.549a6.027,6.027,0,0,0,.707.041,5.946,5.946,0,0,0,3.68-1.268,2.967,2.967,0,0,1-2.768-2.058A2.953,2.953,0,0,0,8.8,14.213a2.964,2.964,0,0,1-2.377-2.9c0-.013,0-.025,0-.038a2.943,2.943,0,0,0,1.342.371,2.966,2.966,0,0,1-.917-3.956,8.413,8.413,0,0,0,6.108,3.1A2.965,2.965,0,0,1,18,8.078a5.944,5.944,0,0,0,1.882-.719A2.975,2.975,0,0,1,18.582,9a5.91,5.91,0,0,0,1.7-.467,6.022,6.022,0,0,1-1.478,1.535Zm0,0" fill="#e6e7ea"/>
</svg>
