<svg xmlns="http://www.w3.org/2000/svg" xmlns:xlink="http://www.w3.org/1999/xlink" width="513.019" height="312.038" viewBox="0 0 513.019 312.038">
  <defs>
    <linearGradient id="linear-gradient" x1="0.381" y1="0.715" x2="0.6" y2="0.268" gradientUnits="objectBoundingBox">
      <stop offset="0" stop-color="#676767"/>
      <stop offset="0.042" stop-color="#787878"/>
      <stop offset="0.105" stop-color="#898989"/>
      <stop offset="0.18" stop-color="#969696"/>
      <stop offset="0.28" stop-color="#9d9d9d"/>
      <stop offset="0.504" stop-color="#a0a0a0"/>
      <stop offset="0.754" stop-color="#9e9e9e"/>
      <stop offset="0.844" stop-color="#979797"/>
      <stop offset="0.908" stop-color="#8b8b8b"/>
      <stop offset="0.959" stop-color="#7a7a7a"/>
      <stop offset="1" stop-color="#676767"/>
    </linearGradient>
    <linearGradient id="linear-gradient-2" x1="0.405" y1="0.713" x2="0.578" y2="0.267" xlink:href="#linear-gradient"/>
    <linearGradient id="linear-gradient-3" x1="0.395" y1="0.655" x2="0.591" y2="0.28" xlink:href="#linear-gradient"/>
    <linearGradient id="linear-gradient-4" x1="0.486" y1="0.579" x2="0.567" y2="0.381" xlink:href="#linear-gradient"/>
    <linearGradient id="linear-gradient-5" x1="0.414" y1="0.726" x2="0.58" y2="0.29" xlink:href="#linear-gradient"/>
    <linearGradient id="linear-gradient-6" x1="0.391" y1="0.692" x2="0.559" y2="0.227" xlink:href="#linear-gradient"/>
    <linearGradient id="linear-gradient-7" x1="0" y1="0.5" x2="1" y2="0.5" xlink:href="#linear-gradient"/>
    <linearGradient id="linear-gradient-8" x1="0.477" y1="0.579" x2="0.57" y2="0.354" xlink:href="#linear-gradient"/>
    <linearGradient id="linear-gradient-9" x1="0.394" y1="0.676" x2="0.596" y2="0.306" xlink:href="#linear-gradient"/>
    <linearGradient id="linear-gradient-10" y1="0.5" x2="1" y2="0.5" gradientUnits="objectBoundingBox">
      <stop offset="0" stop-color="#292c36"/>
      <stop offset="0.023" stop-color="#2a2d37"/>
      <stop offset="0.266" stop-color="#333843"/>
      <stop offset="0.504" stop-color="#373c48"/>
      <stop offset="0.739" stop-color="#333743"/>
      <stop offset="1" stop-color="#292c36"/>
    </linearGradient>
    <linearGradient id="linear-gradient-11" y1="0.5" x2="1" y2="0.5" gradientUnits="objectBoundingBox">
      <stop offset="0" stop-color="#4e5463"/>
      <stop offset="0.504" stop-color="#6a7489"/>
      <stop offset="0.659" stop-color="#667084"/>
      <stop offset="0.835" stop-color="#5c6476"/>
      <stop offset="1" stop-color="#4e5463"/>
    </linearGradient>
    <linearGradient id="linear-gradient-12" y1="0.5" x2="1" y2="0.5" gradientUnits="objectBoundingBox">
      <stop offset="0" stop-color="#6f9cd1"/>
      <stop offset="0.324" stop-color="#a1bee1"/>
      <stop offset="0.784" stop-color="#e4ecf6"/>
      <stop offset="1" stop-color="#fff"/>
    </linearGradient>
    <linearGradient id="linear-gradient-13" x1="0.379" y1="0.714" x2="0.597" y2="0.263" xlink:href="#linear-gradient"/>
  </defs>
  <g id="Group_1833" data-name="Group 1833" transform="translate(-1083 -544.721)">
    <path id="Path_4089" data-name="Path 4089" d="M-14309.506,661.964c-192.179-158.137,104.551-245.2,369.3-175.905S-14117.328,820.1-14309.506,661.964Z" transform="translate(15453.911 145.232)" fill="#a9d6ff" opacity="0.52"/>
    <g id="Group_1777" data-name="Group 1777" transform="translate(1212.833 544.721)">
      <path id="Path_4284" data-name="Path 4284" d="M434.187,188.358v-7.264l-42.774-22.806-2.043,4.566Z" transform="translate(-169.634 -76.249)" fill="#676767"/>
      <path id="Path_4285" data-name="Path 4285" d="M429.953,210.4l3.9-4.566-53.7-31.036-7.929,4.486Z" transform="translate(-189.002 -57.602)" fill="#676767"/>
      <path id="Path_4286" data-name="Path 4286" d="M421.549,171.691a2.054,2.054,0,0,0-.226-.085,2.409,2.409,0,0,0-.754-.064,4.276,4.276,0,0,0-1.829.6,9.861,9.861,0,0,0-4.08,5.4,98.2,98.2,0,0,1-12.522,25.685c-1.946,2.838-2.321,6.3-.824,7.678.882.83,2.214.762,3.564-.019a8.705,8.705,0,0,0,2.7-2.6,119.766,119.766,0,0,0,15.264-31.253C423.678,174.376,423.086,172.234,421.549,171.691Z" transform="translate(-157.182 -61.29)" fill="#ccc"/>
      <path id="Path_4287" data-name="Path 4287" d="M384.368,150.011a2.364,2.364,0,0,0-1.346-.292,4.283,4.283,0,0,0-1.831.6,9.865,9.865,0,0,0-4.078,5.4,98.2,98.2,0,0,1-12.522,25.685c-1.948,2.838-2.321,6.3-.826,7.678a2.275,2.275,0,0,0,.4.3l79.953,46.464a2.422,2.422,0,0,1-.4-.3c-1.5-1.382-1.122-4.84.824-7.678a98.2,98.2,0,0,0,12.522-25.685,9.861,9.861,0,0,1,4.08-5.4,4.275,4.275,0,0,1,1.829-.6,2.409,2.409,0,0,1,.754.064,2.039,2.039,0,0,1,.226.085,1.671,1.671,0,0,1,.368.143Z" transform="translate(-199.584 -85.932)" fill="url(#linear-gradient)"/>
      <path id="Path_4288" data-name="Path 4288" d="M382.862,201.227a3.339,3.339,0,0,0-.515.113A3.339,3.339,0,0,1,382.862,201.227Z" transform="translate(-177.565 -27.762)" fill="#a0a0a0"/>
      <path id="Path_4289" data-name="Path 4289" d="M383.424,201.334a1.8,1.8,0,0,0-.324-.121A1.8,1.8,0,0,1,383.424,201.334Z" transform="translate(-176.715 -27.778)" fill="#a0a0a0"/>
      <path id="Path_4290" data-name="Path 4290" d="M382.741,201.2a2.478,2.478,0,0,1,.456.021A2.46,2.46,0,0,0,382.741,201.2Z" transform="translate(-177.12 -27.801)" fill="#a0a0a0"/>
      <path id="Path_4291" data-name="Path 4291" d="M377.758,169.078a3.191,3.191,0,0,0-3.192.313,7.55,7.55,0,0,0-1.6,1.267,57.981,57.981,0,0,1-12.3,9.743l-8.572,4.946a9.833,9.833,0,0,0-4.452,7.736,5.492,5.492,0,0,0,.072.784l76.088,44.22h0l.006,0h0a2.78,2.78,0,0,1,1.235,2.08l3.854,2.238a2.036,2.036,0,0,1-.311-.255,1.685,1.685,0,0,1-.224-.187,2.8,2.8,0,0,1-.241-.368,1.768,1.768,0,0,1-.17-.266,3.767,3.767,0,0,1-.172-.517c-.025-.1-.072-.183-.092-.294a4.946,4.946,0,0,1-.092-.973,9.84,9.84,0,0,1,4.448-7.736l8.572-4.95a57.863,57.863,0,0,0,12.3-9.739,7.61,7.61,0,0,1,1.6-1.271,4.879,4.879,0,0,1,1.163-.473c.1-.021.192-.045.283-.06a2.871,2.871,0,0,1,1.056-.034h0a2.228,2.228,0,0,1,.681.253Z" transform="translate(-216.757 -64.404)" fill="url(#linear-gradient-2)"/>
      <path id="Path_4292" data-name="Path 4292" d="M414.625,190.638h0a2.968,2.968,0,0,0-1.056.034c-.092.015-.183.038-.283.06a4.876,4.876,0,0,0-1.163.473,7.608,7.608,0,0,0-1.6,1.271,57.863,57.863,0,0,1-12.3,9.739l-8.572,4.95a9.841,9.841,0,0,0-4.448,7.736,4.954,4.954,0,0,0,.092.973c.019.111.066.192.092.294a3.768,3.768,0,0,0,.172.517,1.774,1.774,0,0,0,.17.266,2.8,2.8,0,0,0,.241.368,1.678,1.678,0,0,0,.224.187c.818.711,2.07.769,3.49-.053l8.57-4.946a73.4,73.4,0,0,0,15.524-12.3c2.31-2.37,3.428-5.981,2.534-8.132A2.254,2.254,0,0,0,414.625,190.638Z" transform="translate(-174.354 -39.757)" fill="#ccc"/>
      <path id="Path_4293" data-name="Path 4293" d="M407.244,154.094a25.128,25.128,0,0,0-1.461-2.074A25.128,25.128,0,0,1,407.244,154.094Z" transform="translate(-151.1 -83.328)" fill="#a0a0a0"/>
      <path id="Path_4294" data-name="Path 4294" d="M404.532,150.594c-.407-.3-.833-.581-1.263-.852C403.7,150.012,404.125,150.289,404.532,150.594Z" transform="translate(-153.939 -85.901)" fill="#a0a0a0"/>
      <path id="Path_4295" data-name="Path 4295" d="M405.324,151.39c-.368-.347-.75-.681-1.133-.992C404.574,150.709,404.955,151.043,405.324,151.39Z" transform="translate(-152.898 -85.16)" fill="#a0a0a0"/>
      <path id="Path_4296" data-name="Path 4296" d="M452.017,211.626a2.205,2.205,0,0,1-.153-.226,2.967,2.967,0,0,1-.277-.551,1.885,1.885,0,0,1-.1-.315,4.016,4.016,0,0,1-.13-.709c-.011-.117-.03-.219-.038-.341a6.845,6.845,0,0,1,.066-1.226,70.621,70.621,0,0,0,.837-10.806,51.135,51.135,0,0,0-1.508-12.586c-.628-2.363.807-6.026,3.181-8.085a6.879,6.879,0,0,1,1.126-.818,4.575,4.575,0,0,1,1.3-.5c.081-.019.16-.038.236-.049a2.74,2.74,0,0,1,1.107.036c.06.019.113.047.179.07a2.474,2.474,0,0,1,.362.136L453.98,173.2a10.319,10.319,0,0,1-.982,1.405,7.75,7.75,0,0,1-2.063,1.78,3.155,3.155,0,0,1-3.211.294l.023.021-75.739-44.009a8.03,8.03,0,0,0-1.252,5.715,50.882,50.882,0,0,1,1.512,12.582,70.687,70.687,0,0,1-.837,10.81c-.281,1.906.219,3.317,1.229,3.9l79.953,46.464c-.015-.006-.021-.021-.034-.03A2.128,2.128,0,0,1,452.017,211.626Z" transform="translate(-190.816 -105.155)" fill="url(#linear-gradient-3)"/>
      <path id="Path_4297" data-name="Path 4297" d="M399.126,147.237c0,.053-.008.113,0,.162l.023.013C399.136,147.354,399.13,147.3,399.126,147.237Z" transform="translate(-158.624 -88.729)" fill="#a0a0a0"/>
      <path id="Path_4298" data-name="Path 4298" d="M405.024,151.157c.383.388.749.807,1.109,1.237C405.773,151.964,405.407,151.545,405.024,151.157Z" transform="translate(-151.957 -84.303)" fill="#a0a0a0"/>
      <path id="Path_4299" data-name="Path 4299" d="M399.159,146.661c.015-.087.038-.179.053-.266C399.2,146.487,399.174,146.574,399.159,146.661Z" transform="translate(-158.58 -89.68)" fill="#a0a0a0"/>
      <path id="Path_4300" data-name="Path 4300" d="M416.954,154.692a2.419,2.419,0,0,0-1.514-1.81c-.066-.023-.119-.051-.179-.07a2.742,2.742,0,0,0-1.107-.036c-.077.011-.155.03-.236.049a4.527,4.527,0,0,0-1.3.5,6.873,6.873,0,0,0-1.126.818c-2.374,2.059-3.809,5.721-3.181,8.085a51.132,51.132,0,0,1,1.508,12.586,70.632,70.632,0,0,1-.837,10.806,6.844,6.844,0,0,0-.066,1.226c.008.121.028.224.038.341a4.021,4.021,0,0,0,.13.709,1.885,1.885,0,0,0,.1.315,2.971,2.971,0,0,0,.277.551,2.212,2.212,0,0,0,.153.226,2.128,2.128,0,0,0,.562.509,2.708,2.708,0,0,0,2.359.115,5.065,5.065,0,0,0,.841-.392,9.988,9.988,0,0,0,4.38-6.7,82.064,82.064,0,0,0,.99-12.869A59.912,59.912,0,0,0,416.954,154.692Z" transform="translate(-148.414 -82.519)" fill="#ccc"/>
      <path id="Path_4301" data-name="Path 4301" d="M449.639,178.394a2.239,2.239,0,0,1-.764-.758l-79.957-46.464a2.29,2.29,0,0,0,.794.779l4.212,2.455,75.739,44.009Z" transform="translate(-192.731 -106.871)" fill="#a0a0a0"/>
      <path id="Path_4302" data-name="Path 4302" d="M399.121,147.313c0,.038.028.062.032.1,0-.032,0-.066-.009-.092Z" transform="translate(-158.623 -88.644)" fill="#a0a0a0"/>
      <path id="Path_4303" data-name="Path 4303" d="M399.385,148.067a1.115,1.115,0,0,1-.083-.13A1.115,1.115,0,0,0,399.385,148.067Z" transform="translate(-158.419 -87.939)" fill="#a0a0a0"/>
      <path id="Path_4304" data-name="Path 4304" d="M455.726,186.684c-.164-.209-.339-.4-.507-.6-.36-.43-.726-.85-1.109-1.237-.211-.221-.424-.417-.641-.624-.368-.347-.75-.681-1.133-.992-.228-.187-.464-.371-.7-.545-.407-.3-.833-.581-1.263-.852a18.842,18.842,0,0,0-6.816-2.6,2.184,2.184,0,0,1-.783-.3,2.359,2.359,0,0,1-.764-.813,1.124,1.124,0,0,1-.083-.13,3.647,3.647,0,0,1-.353-1.224c0-.043-.028-.066-.032-.1s.009-.109,0-.162a6,6,0,0,1,.077-1.527c.015-.087.038-.175.053-.266a9.044,9.044,0,0,1,.556-1.814,9.552,9.552,0,0,1,3.733-4.495,3.712,3.712,0,0,1,2.438-.575,24.253,24.253,0,0,1,3.66.96c.236.079.477.16.707.247a22.632,22.632,0,0,1,3.266,1.518c.064.038.14.06.209.1l-79.951-46.464a23.5,23.5,0,0,0-7.842-2.823,3.742,3.742,0,0,0-2.442.575,9.577,9.577,0,0,0-3.733,4.495c-1.165,2.742-.875,5.234.579,6.079l12.592,7.316a23.691,23.691,0,0,1,1.782,2.47l79.957,46.464A25.128,25.128,0,0,0,455.726,186.684Z" transform="translate(-201.043 -117.992)" fill="url(#linear-gradient-4)"/>
      <path id="Path_4305" data-name="Path 4305" d="M409.649,144.141a24.256,24.256,0,0,0-3.66-.96,3.712,3.712,0,0,0-2.438.575,9.552,9.552,0,0,0-3.732,4.495,9.04,9.04,0,0,0-.556,1.814c-.015.087-.038.179-.053.266a6,6,0,0,0-.077,1.527c0,.06.011.117.019.175,0,.025,0,.06.009.092a3.645,3.645,0,0,0,.353,1.224,1.111,1.111,0,0,0,.083.13,2.359,2.359,0,0,0,.764.813,2.185,2.185,0,0,0,.783.3,18.842,18.842,0,0,1,6.816,2.6c.43.27.856.547,1.263.852.236.175.473.358.7.545.383.311.764.645,1.133.992.217.207.43.4.641.624.383.388.749.807,1.109,1.237.168.2.343.392.507.6a25.108,25.108,0,0,1,1.461,2.074,2.24,2.24,0,0,0,.764.758,3.155,3.155,0,0,0,3.211-.294,7.749,7.749,0,0,0,2.063-1.78,10.328,10.328,0,0,0,.982-1.405c1.416-2.37,1.827-5.089.871-6.63a25.692,25.692,0,0,0-9.043-8.858,22.627,22.627,0,0,0-3.266-1.518C410.126,144.3,409.885,144.22,409.649,144.141Z" transform="translate(-158.631 -93.35)" fill="#ccc"/>
      <path id="Path_4306" data-name="Path 4306" d="M383.417,201.333l-.008,0,0,0Z" transform="translate(-176.366 -27.647)" fill="#a0a0a0"/>
      <path id="Path_4307" data-name="Path 4307" d="M366.662,210.479a2.668,2.668,0,0,1,.326.019A2.668,2.668,0,0,0,366.662,210.479Z" transform="translate(-195.277 -17.316)" fill="#a0a0a0"/>
      <path id="Path_4308" data-name="Path 4308" d="M364.121,181.909l-3.858-2.24a3.138,3.138,0,0,0-3.17.311l-14.849,8.572a10.6,10.6,0,0,1-1.639,3.215c-.869,1.152-1.672,2.393-2.493,3.607a93.7,93.7,0,0,0-5,8.172L405.993,245.9l-.008,0a2.771,2.771,0,0,1,1.246,2.084l3.831,2.225a1.987,1.987,0,0,1-.307-.256,1.8,1.8,0,0,1-.226-.181,2.83,2.83,0,0,1-.243-.375,1.685,1.685,0,0,1-.168-.258,2.944,2.944,0,0,1-.17-.517,2.393,2.393,0,0,1-.092-.29,4.781,4.781,0,0,1-.1-.973,9.869,9.869,0,0,1,4.471-7.746l22.813-13.169a4.868,4.868,0,0,1,.9-.419,3.346,3.346,0,0,1,.515-.113,3.255,3.255,0,0,1,.324-.068,2.451,2.451,0,0,1,.456.021,3.021,3.021,0,0,1,.309.017,1.8,1.8,0,0,1,.324.121,1.858,1.858,0,0,1,.334.126Z" transform="translate(-233.166 -52.446)" fill="url(#linear-gradient-5)"/>
      <path id="Path_4309" data-name="Path 4309" d="M367.315,210.6a2.069,2.069,0,0,0-.292-.1A2.069,2.069,0,0,1,367.315,210.6Z" transform="translate(-194.869 -17.294)" fill="#a0a0a0"/>
      <path id="Path_4310" data-name="Path 4310" d="M366.561,210.533c-.094.028-.189.032-.3.068C366.371,210.565,366.467,210.561,366.561,210.533Z" transform="translate(-195.725 -17.253)" fill="#a0a0a0"/>
      <path id="Path_4311" data-name="Path 4311" d="M399.563,201.487l0,0h0a1.86,1.86,0,0,0-.334-.126,1.8,1.8,0,0,0-.324-.121,3.019,3.019,0,0,0-.309-.017,2.478,2.478,0,0,0-.456-.021,3.261,3.261,0,0,0-.324.068,3.343,3.343,0,0,0-.515.113,4.87,4.87,0,0,0-.9.419l-22.813,13.169a9.869,9.869,0,0,0-4.471,7.746,4.783,4.783,0,0,0,.1.973,2.391,2.391,0,0,0,.092.29,2.939,2.939,0,0,0,.17.517,1.673,1.673,0,0,0,.168.258,2.829,2.829,0,0,0,.243.375,1.8,1.8,0,0,0,.226.181c.828.715,2.085.769,3.507-.049l22.813-13.176a9.81,9.81,0,0,0,4.452-7.712,4.716,4.716,0,0,0-.077-.8A2.78,2.78,0,0,0,399.563,201.487Z" transform="translate(-192.515 -27.801)" fill="#ccc"/>
      <path id="Path_4312" data-name="Path 4312" d="M326.352,198.049c.013-.106.028-.217.047-.319C326.38,197.832,326.365,197.943,326.352,198.049Z" transform="translate(-240.797 -31.711)" fill="#a0a0a0"/>
      <path id="Path_4313" data-name="Path 4313" d="M326.4,198.741a1.86,1.86,0,0,1-.045-.209A1.86,1.86,0,0,0,326.4,198.741Z" transform="translate(-240.792 -30.805)" fill="#a0a0a0"/>
      <path id="Path_4314" data-name="Path 4314" d="M326.6,199.249c-.023-.04-.038-.092-.06-.136C326.563,199.158,326.578,199.209,326.6,199.249Z" transform="translate(-240.582 -30.149)" fill="#a0a0a0"/>
      <path id="Path_4315" data-name="Path 4315" d="M327.526,201.145a1.452,1.452,0,0,1,.266.038A1.452,1.452,0,0,0,327.526,201.145Z" transform="translate(-239.471 -27.854)" fill="#a0a0a0"/>
      <path id="Path_4316" data-name="Path 4316" d="M351.223,219.879a2.085,2.085,0,0,0-.277-.1A2.085,2.085,0,0,1,351.223,219.879Z" transform="translate(-213.024 -6.814)" fill="#a0a0a0"/>
      <path id="Path_4317" data-name="Path 4317" d="M350.588,219.761a2.5,2.5,0,0,1,.338.015A2.5,2.5,0,0,0,350.588,219.761Z" transform="translate(-213.428 -6.836)" fill="#a0a0a0"/>
      <path id="Path_4318" data-name="Path 4318" d="M350.719,190.723c-.3.549-.554,1.122-.839,1.678a99.891,99.891,0,0,0-5.161,11.768,9.732,9.732,0,0,1-3.954,5.048,3.937,3.937,0,0,1-2.074.609,2.162,2.162,0,0,1-1.175-.379c.03.021.045.064.081.079l-18.086-10.5-1.863,1.071c-.051.028-.087.07-.134.1L339.886,213.2a1.216,1.216,0,0,0-.147-.049c1.167.573,1.742,2.142,1.331,4.271q-.661,3.392-1.016,6.762l49.3,28.653h0l0,0h0a2.762,2.762,0,0,1,1.239,2.078l3.854,2.244a2.247,2.247,0,0,1-.292-.245,2.352,2.352,0,0,1-.247-.2,2.947,2.947,0,0,1-.228-.353,2.288,2.288,0,0,1-.179-.283,3.09,3.09,0,0,1-.16-.479c-.032-.115-.081-.2-.1-.33a5.136,5.136,0,0,1-.094-.975,9.836,9.836,0,0,1,4.45-7.735l22.819-13.167a4.9,4.9,0,0,1,.9-.419c.106-.036.2-.04.3-.068a5,5,0,0,1,.549-.117,2.664,2.664,0,0,1,.326.019,2.345,2.345,0,0,1,.443.021,2.076,2.076,0,0,1,.292.1,2.184,2.184,0,0,1,.373.145l0,0Z" transform="translate(-250.777 -39.623)" fill="url(#linear-gradient-6)"/>
      <path id="Path_4319" data-name="Path 4319" d="M350.361,219.827a1.2,1.2,0,0,0-.168.038A1.2,1.2,0,0,1,350.361,219.827Z" transform="translate(-213.874 -6.758)" fill="#a0a0a0"/>
      <path id="Path_4320" data-name="Path 4320" d="M383.483,210.769a2.182,2.182,0,0,0-.373-.145,2.072,2.072,0,0,0-.292-.1,2.343,2.343,0,0,0-.443-.021,2.666,2.666,0,0,0-.326-.019,4.993,4.993,0,0,0-.549.117c-.094.028-.19.032-.3.068a4.9,4.9,0,0,0-.9.419l-22.819,13.167a9.836,9.836,0,0,0-4.45,7.735,5.135,5.135,0,0,0,.094.975c.023.126.072.215.1.33a3.09,3.09,0,0,0,.16.479,2.283,2.283,0,0,0,.179.283,2.94,2.94,0,0,0,.228.353,2.348,2.348,0,0,0,.247.2c.822.7,2.059.747,3.471-.064l22.817-13.176a9.866,9.866,0,0,0,4.469-7.721,5.1,5.1,0,0,0-.074-.794A2.771,2.771,0,0,0,383.483,210.769Z" transform="translate(-210.665 -17.316)" fill="#ccc"/>
      <path id="Path_4321" data-name="Path 4321" d="M351.259,219.9l0,0v0Z" transform="translate(-212.675 -6.683)" fill="#a0a0a0"/>
      <path id="Path_4322" data-name="Path 4322" d="M328.58,218.5a3.133,3.133,0,0,1,.86-.049A3.142,3.142,0,0,0,328.58,218.5Z" transform="translate(-238.281 -8.328)" fill="#a0a0a0"/>
      <path id="Path_4323" data-name="Path 4323" d="M335.218,224.1c-.449-.209-.89-.417-1.316-.658C334.328,223.679,334.769,223.887,335.218,224.1Z" transform="translate(-232.271 -2.68)" fill="#a0a0a0"/>
      <path id="Path_4324" data-name="Path 4324" d="M336.887,224.624a18.849,18.849,0,0,1-2.065-.73A18.849,18.849,0,0,0,336.887,224.624Z" transform="translate(-231.232 -2.165)" fill="#a0a0a0"/>
      <path id="Path_4325" data-name="Path 4325" d="M329.034,218.5a4.445,4.445,0,0,0-1.111.46A4.381,4.381,0,0,1,329.034,218.5Z" transform="translate(-239.023 -8.261)" fill="#a0a0a0"/>
      <path id="Path_4326" data-name="Path 4326" d="M367.226,220.05v0h0a2.411,2.411,0,0,0-.381-.145,2.082,2.082,0,0,0-.277-.1,3.057,3.057,0,0,0-.424-.023,2.5,2.5,0,0,0-.339-.015,3.64,3.64,0,0,0-.673.145,1.2,1.2,0,0,0-.168.038,5.12,5.12,0,0,0-.9.417l-8.709,5.027a33.653,33.653,0,0,1-12.2,4.448,4.582,4.582,0,0,0-1.6.581,9.959,9.959,0,0,0-4.167,5.715,8.02,8.02,0,0,0-.251,1.469c-.011.117-.015.236-.019.349a5.219,5.219,0,0,0,.077,1.135c.006.034.006.079.015.113a3.354,3.354,0,0,0,.383.975c.047.068.1.134.145.2a2.166,2.166,0,0,0,.579.554,2.366,2.366,0,0,0,1.667.351,42.555,42.555,0,0,0,15.4-5.6l8.713-5.031a9.815,9.815,0,0,0,4.452-7.708,4.858,4.858,0,0,0-.077-.809A2.762,2.762,0,0,0,367.226,220.05Z" transform="translate(-228.646 -6.836)" fill="#ccc"/>
      <path id="Path_4327" data-name="Path 4327" d="M328.761,206.436c-.072.688-.121,1.369-.172,2.055-.136,1.772-.228,3.537-.224,5.289.009,1.669.1,3.264.228,4.8.16,1.793.381,3.509.69,5.134a8.668,8.668,0,0,1-1.767,6.194l4.056,2.355a2.173,2.173,0,0,0-.752-.258,2.219,2.219,0,0,1,1.654,1.235,24.07,24.07,0,0,0,4.627,6.352l.2.19a19.431,19.431,0,0,0,3.813,2.853c.426.241.867.449,1.316.658.213.1.424.217.643.313a18.847,18.847,0,0,0,2.065.73c1.976.575,2.368,3.564.888,6.69a10.558,10.558,0,0,1-1.488,2.3l4.691,2.728c-.034-.019-.049-.057-.079-.081a2.164,2.164,0,0,1-.579-.554c-.049-.068-.1-.134-.145-.2a3.354,3.354,0,0,1-.383-.975c-.009-.034-.009-.079-.015-.113a5.215,5.215,0,0,1-.077-1.135c0-.117.008-.232.019-.349a8.021,8.021,0,0,1,.251-1.469,9.959,9.959,0,0,1,4.167-5.715,4.581,4.581,0,0,1,1.6-.581,33.654,33.654,0,0,0,12.2-4.448L374.9,235.4a5.125,5.125,0,0,1,.9-.417,1.209,1.209,0,0,1,.168-.038,3.633,3.633,0,0,1,.673-.145,2.485,2.485,0,0,1,.338.015,3.053,3.053,0,0,1,.424.023,2.09,2.09,0,0,1,.277.1,2.419,2.419,0,0,1,.381.145Z" transform="translate(-239.483 -21.88)" fill="url(#linear-gradient-7)"/>
      <path id="Path_4328" data-name="Path 4328" d="M375.625,260.586a24.817,24.817,0,0,1-2.4-2.274c-.117-.13-.228-.279-.347-.415a29.6,29.6,0,0,1-1.842-2.327c-.179-.26-.364-.52-.539-.786a31.718,31.718,0,0,1-1.855-3.134c-1.035-2-.036-5.632,2.212-8.089a7.676,7.676,0,0,1,1.833-1.518,4.446,4.446,0,0,1,1.112-.46,2.512,2.512,0,0,1,.287-.066,3.141,3.141,0,0,1,.86-.049c.057.009.119,0,.177.009a2.172,2.172,0,0,1,.752.258l-4.056-2.355a9.243,9.243,0,0,1-1.737,1.876,6.555,6.555,0,0,1-.875.6c-1.441.835-2.751.743-3.581-.089a2.168,2.168,0,0,0,.411.394l-75.905-44.107c-1.693,2.37-2.346,5.378-1.446,7.133a26.75,26.75,0,0,0,10.227,11.24l79.951,46.464c-.141-.085-.27-.2-.411-.287a22.086,22.086,0,0,1-2.172-1.505C376.059,260.929,375.838,260.765,375.625,260.586Z" transform="translate(-283.788 -31.347)" fill="url(#linear-gradient-8)"/>
      <path id="Path_4329" data-name="Path 4329" d="M324.76,219.128a3.256,3.256,0,0,1-.532-1.263A3.256,3.256,0,0,0,324.76,219.128Z" transform="translate(-243.195 -8.974)" fill="#a0a0a0"/>
      <path id="Path_4330" data-name="Path 4330" d="M347.04,230.787a18.853,18.853,0,0,1-2.065-.73c-.219-.1-.43-.213-.643-.313-.449-.209-.89-.417-1.316-.658a19.427,19.427,0,0,1-3.813-2.853l-.2-.189a24.069,24.069,0,0,1-4.627-6.352,2.219,2.219,0,0,0-1.654-1.235c-.057-.013-.119,0-.177-.009a3.133,3.133,0,0,0-.86.049,2.538,2.538,0,0,0-.287.066,4.382,4.382,0,0,0-1.111.46,7.675,7.675,0,0,0-1.833,1.518c-2.248,2.457-3.247,6.092-2.212,8.089a31.7,31.7,0,0,0,1.855,3.134c.175.266.36.526.539.786a29.6,29.6,0,0,0,1.842,2.327c.119.134.23.285.347.415a24.813,24.813,0,0,0,2.4,2.274c.213.179.434.343.656.511a22.063,22.063,0,0,0,2.172,1.505,22.746,22.746,0,0,0,5.623,2.5,3.5,3.5,0,0,0,2.7-.513,8.02,8.02,0,0,0,2.07-1.795,10.557,10.557,0,0,0,1.488-2.3C349.408,234.351,349.016,231.362,347.04,230.787Z" transform="translate(-241.385 -8.328)" fill="#ccc"/>
      <path id="Path_4331" data-name="Path 4331" d="M368.419,263.319a2.172,2.172,0,0,1-.411-.394,2.909,2.909,0,0,1-.272-.264,3.257,3.257,0,0,1-.532-1.263,63.712,63.712,0,0,1-1.082-11.836,87.948,87.948,0,0,1,1.667-16.8,9.959,9.959,0,0,1,4.322-6.381,4.886,4.886,0,0,1,1.1-.477,3.145,3.145,0,0,1,1.016-.109,1.453,1.453,0,0,1,.266.038,2.293,2.293,0,0,1,.641.194,1.205,1.205,0,0,1,.147.049l-22.372-13.005-57.581-33.459a2.646,2.646,0,0,0-2.07-.172,4.937,4.937,0,0,0-1.1.477,9.979,9.979,0,0,0-4.327,6.383,87.946,87.946,0,0,0-1.663,16.8,63.358,63.358,0,0,0,1.082,11.832,2.688,2.688,0,0,0,1.218,1.925l4.043,2.353Z" transform="translate(-286.171 -52.507)" fill="url(#linear-gradient-9)"/>
      <path id="Path_4332" data-name="Path 4332" d="M331.824,201.147a3.146,3.146,0,0,0-1.016.109,4.888,4.888,0,0,0-1.1.477,9.959,9.959,0,0,0-4.322,6.381,87.953,87.953,0,0,0-1.667,16.8,63.719,63.719,0,0,0,1.082,11.836,3.257,3.257,0,0,0,.532,1.263,2.9,2.9,0,0,0,.273.264c.83.833,2.14.924,3.581.089a6.552,6.552,0,0,0,.875-.6,9.239,9.239,0,0,0,1.738-1.876,8.668,8.668,0,0,0,1.767-6.194c-.309-1.625-.53-3.341-.69-5.134-.132-1.539-.219-3.134-.228-4.8,0-1.752.087-3.517.224-5.289.051-.686.1-1.367.172-2.055q.354-3.37,1.016-6.762c.411-2.129-.164-3.7-1.331-4.271a2.293,2.293,0,0,0-.641-.194A1.455,1.455,0,0,0,331.824,201.147Z" transform="translate(-243.769 -27.857)" fill="#ccc"/>
      <g id="Group_596" data-name="Group 596" transform="translate(23.115)">
        <path id="Path_4333" data-name="Path 4333" d="M486.853,149.44c-.019.4-.023.8-.053,1.2-.038.43-.1.862-.155,1.29-.047.4-.085.8-.149,1.205-.072.434-.17.86-.262,1.295-.081.4-.153.79-.247,1.186-.106.434-.241.86-.371,1.29-.113.392-.213.792-.345,1.184-.141.43-.317.86-.477,1.286-.147.387-.277.775-.441,1.16-.179.43-.392.86-.59,1.282-.179.383-.343.773-.537,1.148-.213.424-.456.835-.688,1.252-.211.385-.411.769-.641,1.15-.249.419-.532.833-.8,1.243-.243.377-.471.754-.73,1.126-.288.415-.611.83-.924,1.241-.275.364-.528.73-.813,1.088-.328.407-.686.807-1.031,1.214-.309.362-.6.72-.918,1.077-.362.4-.762.794-1.139,1.194-.339.349-.658.7-1.011,1.046-.407.4-.847.8-1.273,1.19-.362.336-.709.675-1.082,1-.46.409-.952.8-1.431,1.2-.381.313-.737.632-1.126.941-.522.407-1.069.8-1.61,1.205-.388.29-.756.586-1.163.871-.666.477-1.373.941-2.074,1.407-.3.2-.583.4-.892.6-1.022.658-2.084,1.307-3.179,1.944-35.1,20.394-92.213,20.383-127.541-.011q-1.654-.965-3.215-1.957c-.388-.251-.749-.509-1.126-.76-.635-.419-1.278-.837-1.887-1.265-.4-.285-.773-.577-1.16-.867-.556-.407-1.116-.811-1.644-1.224-.388-.309-.745-.624-1.126-.933-.492-.4-1-.807-1.469-1.218-.372-.328-.72-.666-1.079-1-.439-.4-.89-.8-1.31-1.209-.358-.347-.681-.7-1.016-1.054-.392-.4-.8-.8-1.165-1.2-.324-.353-.613-.715-.918-1.069-.358-.411-.726-.826-1.06-1.241-.29-.36-.545-.726-.818-1.084-.319-.422-.652-.841-.947-1.263-.26-.37-.488-.743-.735-1.116-.277-.426-.566-.845-.83-1.271-.224-.373-.422-.752-.63-1.129-.241-.428-.5-.856-.72-1.284-.194-.388-.362-.775-.547-1.163-.2-.426-.411-.854-.6-1.282-.164-.394-.3-.786-.449-1.177-.166-.432-.343-.86-.483-1.292-.136-.392-.238-.792-.358-1.188-.128-.432-.266-.862-.377-1.3-.1-.4-.166-.8-.253-1.2-.092-.43-.194-.862-.266-1.3-.07-.407-.107-.807-.158-1.214-.053-.43-.121-.864-.16-1.295-.034-.407-.038-.813-.055-1.224-.019-.43-.051-.86-.051-1.29,0-.04,0-.083,0-.13l-.051,19.233c-.038,13.455,8.836,26.926,26.618,37.189,35.328,20.394,92.437,20.409,127.537.015,17.436-10.137,26.164-23.4,26.2-36.689l.051-19.233C486.9,148.665,486.868,149.053,486.853,149.44Z" transform="translate(-286.34 -88.141)" fill="url(#linear-gradient-10)"/>
        <path id="Path_4334" data-name="Path 4334" d="M400.7,141.958a31.235,31.235,0,0,1,1.316,10.25c.015-.392.047-.779.047-1.169l-.051,19.233c-.034,11.715-6.833,23.415-20.4,32.965,11.319-7.616,18.224-16.668,20.735-26.051,1.846-6.9,7.218-13.325,15.707-18.256l6-3.488Z" transform="translate(-201.504 -94.691)" fill="#292c36"/>
        <path id="Path_4335" data-name="Path 4335" d="M412.075,153.481v-9.786l-13.149,5.038-6.7,9.523,1.183,6.8Z" transform="translate(-189.521 -92.729)" fill="#292c36"/>
        <path id="Path_4336" data-name="Path 4336" d="M402.8,144.4s-22.457-12.473-22.994-13.229c-.8-1.122,8.713,25.911,8.717,25.519l15.588,16.023c-.034,11.717-6.833,23.417-20.4,32.967,11.319-7.616,18.224-16.668,20.735-26.051,1.846-6.905,7.218-13.325,15.707-18.258l6-3.486Z" transform="translate(-203.603 -106.915)" fill="#4e5463"/>
        <path id="Path_4337" data-name="Path 4337" d="M455.282,170.774l-88.359-51.015-12.955,9.334,50.657,25.131,50.657,16.5Z" transform="translate(-232.727 -119.759)" fill="#4e5463"/>
        <path id="Path_4338" data-name="Path 4338" d="M334.469,204.956c32.326,18.667,84.62,18.682,116.725.015,32.12-18.658,31.949-48.964-.377-67.623s-84.612-18.65-116.723.013S302.145,186.3,334.469,204.956Z" transform="translate(-282.249 -115.695)" fill="#4e5463"/>
        <path id="Path_4339" data-name="Path 4339" d="M306.568,176.744c.017.411.021.818.055,1.224.038.43.107.864.16,1.295.051.4.087.807.158,1.214.072.434.175.867.266,1.3.087.4.155.807.253,1.2.111.434.249.864.377,1.3.119.4.222.8.358,1.188.141.432.317.86.483,1.292.149.392.285.784.449,1.177.187.428.4.856.6,1.282.185.387.349.775.547,1.163.221.428.479.856.72,1.284.209.377.407.756.63,1.129.264.426.554.845.83,1.271.247.373.475.745.735,1.116.3.422.628.841.948,1.263.273.358.528.724.818,1.084.334.415.7.83,1.06,1.241.3.353.594.715.918,1.069.366.4.773.8,1.165,1.2.334.349.658.707,1.016,1.054.42.407.871.809,1.31,1.209.36.33.707.669,1.079,1,.473.411.977.813,1.469,1.218.381.309.739.624,1.126.933.528.413,1.088.818,1.644,1.224.388.29.76.581,1.16.867.609.428,1.252.845,1.887,1.265.377.251.739.509,1.126.76q1.559.993,3.215,1.957c35.328,20.394,92.441,20.4,127.542.011,1.094-.637,2.157-1.286,3.179-1.944.309-.2.592-.4.892-.6.7-.466,1.407-.93,2.074-1.407.407-.285.775-.581,1.163-.871.541-.4,1.088-.8,1.61-1.205.39-.309.745-.628,1.126-.941.479-.4.971-.79,1.431-1.2.373-.326.72-.664,1.082-1,.426-.394.867-.786,1.273-1.19.353-.345.673-.7,1.011-1.046.377-.4.777-.792,1.139-1.194.319-.358.609-.715.918-1.077.345-.407.7-.807,1.031-1.214.285-.358.539-.724.813-1.088.313-.411.637-.826.924-1.241.26-.373.488-.75.73-1.126.27-.411.554-.824.8-1.243.23-.381.43-.764.641-1.15.232-.417.475-.828.688-1.252.194-.375.358-.764.537-1.148.2-.426.411-.852.59-1.282.164-.385.294-.773.441-1.16.16-.426.337-.856.477-1.286.132-.392.232-.792.345-1.184.13-.43.264-.856.37-1.29.094-.4.166-.79.247-1.186.092-.434.19-.86.262-1.295.064-.4.1-.8.149-1.205.053-.428.117-.86.155-1.29.03-.4.034-.8.053-1.2.566-13.846-8.279-27.806-26.569-38.367-35.328-20.4-92.441-20.383-127.537.015-17.494,10.167-26.215,23.479-26.2,36.8C306.517,175.883,306.549,176.313,306.568,176.744Zm31.587-39.372c32.111-18.663,84.4-18.676,116.723-.013s32.5,48.964.377,67.623-84.4,18.652-116.725-.015S306.034,156.035,338.155,137.372Z" transform="translate(-286.31 -115.706)" fill="url(#linear-gradient-11)"/>
        <g id="Group_595" data-name="Group 595" transform="translate(33.066 10.747)">
          <path id="Path_4340" data-name="Path 4340" d="M444.741,201.269c-30.1,17.492-79.061,17.492-109.358,0s-30.455-45.851-.353-63.343,79.059-17.494,109.358,0S474.844,183.775,444.741,201.269Z" transform="translate(-312.557 -124.806)" fill="#4e5463"/>
          <path id="Path_4341" data-name="Path 4341" d="M444.387,137.926c-30.3-17.494-79.259-17.494-109.358,0s-29.944,45.849.353,63.343,79.257,17.492,109.358,0S474.68,155.418,444.387,137.926Zm-3.75,60.973c-27.855,16.184-73.139,16.184-101.173,0s-28.182-42.421-.33-58.605,73.135-16.186,101.173,0S468.49,182.711,440.638,198.9Z" transform="translate(-312.557 -124.806)" fill="#373c48"/>
          <path id="Path_4342" data-name="Path 4342" d="M437.24,138.518c-28.038-16.187-73.323-16.182-101.173,0s-27.708,42.417.33,58.605,73.318,16.184,101.173,0S465.274,154.7,437.24,138.518Zm14.775,18.461.611,1.32-17.909,2.785-.635-1.305ZM433.8,139.54l1.678.971-13.088,7.606-1.678-.967Zm-30.765-9.869,2.28.351-4.776,10.4-2.257-.364Zm-32.873,0,4.9,10.395-2.278.353-4.872-10.386Zm-30.65,9.873,13.176,7.606-1.671.967-13.176-7.606ZM321.52,156.993l17.945,2.785-.6,1.32L320.9,158.3Zm.126,21.654-.635-1.305,17.932-2.8.611,1.318ZM339.834,196.1l-1.682-.969,13.093-7.61,1.678.973Zm27.508-14.447a4.771,4.771,0,0,1-4.344.013c-1.214-.7-1.195-1.818.01-2.519a4.731,4.731,0,0,1,4.318,0A1.322,1.322,0,0,1,367.341,181.652Zm3.254,24.316-2.255-.364,4.75-10.38,2.285.347Zm32.873,0L398.6,195.585l2.253-.362,4.893,10.395Zm30.657-9.869-11.21-6.475a4.094,4.094,0,0,1-2.617-.381l-26.852-15.5c-4.7,1.769-11.044,1.461-15.2-.939-4.782-2.76-4.81-7.2-.057-9.965,4.109-2.389,10.414-2.708,15.132-.958l19.853-11.54a4.131,4.131,0,0,1,3.72,0,1.142,1.142,0,0,1,.013,2.157l-19.855,11.536c2.551,2.291,2.585,5.227.1,7.527l26.877,15.518c.745.43.947,1.063.6,1.61l11.155,6.443Zm.049-20.241.62-1.305,17.937,2.789-.6,1.316Z" transform="translate(-309.489 -123.029)" fill="#15161b"/>
          <path id="Path_4343" data-name="Path 4343" d="M379.561,133.531l-1.678-.971-13.089,7.61,1.678.966Z" transform="translate(-253.568 -116.049)" fill="#5ca6ff"/>
          <path id="Path_4344" data-name="Path 4344" d="M355.659,151.56l19.855-11.536a1.142,1.142,0,0,0-.013-2.157,4.131,4.131,0,0,0-3.72,0l-19.853,11.54a13.525,13.525,0,0,1,2.07.958A9.543,9.543,0,0,1,355.659,151.56Z" transform="translate(-268.096 -110.557)" fill="#fff"/>
          <path id="Path_4345" data-name="Path 4345" d="M361.292,128.275l-2.279-.35-4.752,10.384,2.256.365Z" transform="translate(-265.463 -121.284)" fill="#5ca6ff"/>
          <path id="Path_4346" data-name="Path 4346" d="M347.145,138.32l-4.9-10.395-2.252.362,4.87,10.387Z" transform="translate(-281.572 -121.284)" fill="#5ca6ff"/>
          <path id="Path_4347" data-name="Path 4347" d="M340.72,140.168l-13.176-7.606-1.67.967,13.176,7.606Z" transform="translate(-297.519 -116.047)" fill="#5ca6ff"/>
          <path id="Path_4348" data-name="Path 4348" d="M336.478,143.542l-17.944-2.785-.616,1.305,17.962,2.8Z" transform="translate(-306.502 -106.793)" fill="#5ca6ff"/>
          <path id="Path_4349" data-name="Path 4349" d="M335.9,149l-17.932,2.8.635,1.305,17.909-2.789Z" transform="translate(-306.446 -97.487)" fill="#5ca6ff"/>
          <path id="Path_4350" data-name="Path 4350" d="M326.018,162.7l1.682.97,13.089-7.606-1.678-.974Z" transform="translate(-297.355 -90.604)" fill="#5ca6ff"/>
          <path id="Path_4351" data-name="Path 4351" d="M340.2,169.092l2.256.365,4.779-10.4-2.283-.346Z" transform="translate(-281.345 -86.518)" fill="#5ca6ff"/>
          <path id="Path_4352" data-name="Path 4352" d="M354.407,159.074l4.87,10.383,2.275-.35-4.893-10.395Z" transform="translate(-265.297 -86.518)" fill="#5ca6ff"/>
          <path id="Path_4353" data-name="Path 4353" d="M366.93,156.2a3.209,3.209,0,0,1-1.1.381l11.211,6.475,1.665-.969-11.155-6.443A1.809,1.809,0,0,1,366.93,156.2Z" transform="translate(-252.401 -89.985)" fill="#5ca6ff"/>
          <path id="Path_4354" data-name="Path 4354" d="M371.735,149l-.62,1.3,17.959,2.8.6-1.316Z" transform="translate(-246.43 -97.481)" fill="#5ca6ff"/>
          <path id="Path_4355" data-name="Path 4355" d="M371.707,144.855l17.909-2.785L389,140.75l-17.932,2.8Z" transform="translate(-246.479 -106.801)" fill="#5ca6ff"/>
          <path id="Path_4356" data-name="Path 4356" d="M383.176,164.726c.343-.547.14-1.18-.6-1.61L355.694,147.6a9.69,9.69,0,0,1-1.705,1.243,13.084,13.084,0,0,1-2,.939l26.852,15.5a4.094,4.094,0,0,0,2.617.381,3.21,3.21,0,0,0,1.1-.381A1.808,1.808,0,0,0,383.176,164.726Z" transform="translate(-268.03 -99.068)" fill="#fff"/>
          <path id="Path_4357" data-name="Path 4357" d="M365.666,153.32c2.485-2.3,2.451-5.236-.1-7.527a9.536,9.536,0,0,0-1.661-1.195,13.525,13.525,0,0,0-2.07-.958c-4.718-1.75-11.023-1.431-15.132.958-4.753,2.762-4.725,7.205.058,9.965,4.154,2.4,10.5,2.708,15.2.939a13.088,13.088,0,0,0,2-.939A9.7,9.7,0,0,0,365.666,153.32Z" transform="translate(-278.002 -104.791)" fill="#5ca6ff"/>
          <path id="Path_4358" data-name="Path 4358" d="M342.494,151.438a4.731,4.731,0,0,0-4.318,0c-1.205.7-1.224,1.818-.011,2.519a4.771,4.771,0,0,0,4.344-.013A1.322,1.322,0,0,0,342.494,151.438Z" transform="translate(-284.657 -95.321)" fill="#fff"/>
        </g>
        <path id="Path_4359" data-name="Path 4359" d="M444.387,137.926c-30.3-17.494-79.259-17.494-109.358,0s-29.944,45.849.353,63.343,79.257,17.492,109.358,0S474.68,155.418,444.387,137.926Z" transform="translate(-279.49 -114.059)" fill="url(#linear-gradient-12)" style="mix-blend-mode: soft-light;isolation: isolate"/>
        <path id="Path_4360" data-name="Path 4360" d="M343.8,195.14c-17.781-10.261-26.656-23.739-26.618-37.187l.015-5.1c-2.576,5.372-7.335,10.308-14.193,14.287l-5.973,3.475,88.355,51.019,5.973-3.479a71.036,71.036,0,0,1,22.3-7.872C388.625,211.239,363,206.223,343.8,195.14Z" transform="translate(-297.027 -82.392)" fill="#292c36"/>
        <path id="Path_4361" data-name="Path 4361" d="M366.8,185.82V174.8l-21.2,2.618-7.077,8.724v11.019l5.772-5.563,10.57-4.726Z" transform="translate(-250.168 -57.602)" fill="#292c36"/>
        <path id="Path_4362" data-name="Path 4362" d="M343.8,190.117c-17.781-10.263-26.656-23.735-26.618-37.185l.015-5.1c-2.576,5.368-7.335,10.3-14.193,14.287l-5.973,3.473,88.355,51.01,5.973-3.469a70.825,70.825,0,0,1,22.3-7.872C388.625,206.218,363,201.2,343.8,190.117Z" transform="translate(-297.027 -88.06)" fill="#4e5463"/>
        <path id="Path_4363" data-name="Path 4363" d="M385.382,207.182V218.2L297.027,167.19V156.171Z" transform="translate(-297.027 -78.641)" fill="#373c48"/>
      </g>
      <g id="Group_597" data-name="Group 597" transform="translate(5.551 84.216)">
        <path id="Path_4364" data-name="Path 4364" d="M369.966,244.919a2.268,2.268,0,0,1-.72-.724c-.023-.04-.038-.092-.06-.136a3.386,3.386,0,0,1-.351-1.028,1.833,1.833,0,0,1-.045-.209,5.583,5.583,0,0,1-.009-1.388c.013-.106.028-.217.047-.319a8.41,8.41,0,0,1,.4-1.654,118.418,118.418,0,0,1,16.5-30.806,8.413,8.413,0,0,1,2.455-2.263,5.124,5.124,0,0,1,.988-.432c.1-.032.2-.047.3-.07a3.3,3.3,0,0,1,.649-.087,2.579,2.579,0,0,1,.313.008,2.385,2.385,0,0,1,.571.13,2.245,2.245,0,0,1,.251.094c.03.017.072.019.1.038l-79.951-46.464a3.176,3.176,0,0,0-3.172.319,8.525,8.525,0,0,0-2.457,2.261A118.337,118.337,0,0,0,289.279,193c-.922,2.57-.526,4.763.813,5.538l61.869,35.961L370.047,245C370.011,244.983,370,244.941,369.966,244.919Z" transform="translate(-288.778 -159.311)" fill="url(#linear-gradient-13)"/>
        <path id="Path_4365" data-name="Path 4365" d="M348.023,181.154a2.58,2.58,0,0,0-.313-.008,3.3,3.3,0,0,0-.649.087c-.1.023-.194.038-.3.07a5.131,5.131,0,0,0-.988.432A8.414,8.414,0,0,0,343.319,184a118.415,118.415,0,0,0-16.5,30.806,8.413,8.413,0,0,0-.4,1.654c-.019.1-.034.213-.047.319a5.589,5.589,0,0,0,.008,1.388,1.854,1.854,0,0,0,.045.209,3.386,3.386,0,0,0,.351,1.028c.021.045.036.1.06.136a2.268,2.268,0,0,0,.72.724,2.163,2.163,0,0,0,1.175.379,3.937,3.937,0,0,0,2.074-.609,9.731,9.731,0,0,0,3.954-5.048,99.9,99.9,0,0,1,5.161-11.768c.285-.556.541-1.128.839-1.678a93.689,93.689,0,0,1,5-8.172c.822-1.214,1.625-2.455,2.493-3.607a10.6,10.6,0,0,0,1.639-3.215c.571-1.872.483-3.645-.377-4.646a2.046,2.046,0,0,0-.673-.522,2.238,2.238,0,0,0-.251-.094A2.384,2.384,0,0,0,348.023,181.154Z" transform="translate(-246.368 -134.656)" fill="#ccc"/>
      </g>
      <path id="Path_4366" data-name="Path 4366" d="M290.794,178.447l-.323,2.146,78.173,45.429v-2.328Z" transform="translate(-281.315 -53.486)" fill="#676767"/>
    </g>
  </g>
</svg>
