<svg xmlns="http://www.w3.org/2000/svg" width="210.501" height="436.304" viewBox="0 0 210.501 436.304">
  <g id="Group_1834" data-name="Group 1834" transform="translate(0)">
    <path id="Path_5079" data-name="Path 5079" d="M7753.122,1722.636s6.449,3.686,7.833,6.45,2.072,13.014,2.762,18.427c.654,5.109.807,4.031-.921,5.068-2.4,1.442-6.449-13.36-6.449-13.36s.922,5.989-1.382,8.292-4.146-6.449-4.146-6.449a19.253,19.253,0,0,1-8.293-11.517C7740.225,1721.254,7753.122,1722.636,7753.122,1722.636Z" transform="translate(-7553.672 -1503.722)" fill="#ffd0a6"/>
    <path id="Path_5080" data-name="Path 5080" d="M7606.152,1368.092s12.439,38.237,18.888,67.721c5.529,16.585,24.88,43.3,25.8,47.912,0,3.685-5.529,11.978-13.822,9.214s-28.562-40.541-35.933-53.44-21.191-38.7-15.663-56.2S7606.152,1368.092,7606.152,1368.092Z" transform="translate(-7448.167 -1267.115)" fill="#1c417f"/>
    <path id="Path_5082" data-name="Path 5082" d="M7422.478,2241.114s-.511,7.666,6.646,15.332,11.754,16.355,8.177,23-19.422,4.6-25.555-.511-5.111-10.222-10.733-17.378-6.645-11.244-4.6-18.911S7413.277,2237.025,7422.478,2241.114Z" transform="translate(-7322.233 -1847.346)" fill="#6d6d6d"/>
    <path id="Path_5083" data-name="Path 5083" d="M7590.241,2194.446a21.593,21.593,0,0,0,8.688,13.289c7.667,5.622,11.756,11.244,10.734,19.933s-15.335,7.666-22.489,4.088-5.621-7.155-10.732-12.777-8.688-6.134-9.713-12.266.512-12.777,3.578-13.8S7580.018,2187.291,7590.241,2194.446Z" transform="translate(-7436.333 -1816.012)" fill="#6d6d6d"/>
    <path id="Path_5084" data-name="Path 5084" d="M7579.241,1706.273s-1.7,142.085-3.746,167.3c-.683,6.134-15.674,12.266-21.809,3.407-6.132-11.585-2.385-130.5-9.881-152.307C7545.849,1709,7571.746,1703.547,7579.241,1706.273Z" transform="translate(-7421.243 -1492.412)" fill="#c7c8c8"/>
    <path id="Path_5085" data-name="Path 5085" d="M7477.059,1696.968c-.646,2.371-8.858,23.17-30.665,35.437-18.4,9.54-21.125,25.9-22.487,40.206s-1.362,99.494-2.726,102.22-12.948,13.629-27.258,0c-1.364-39.524-2.046-167.64.68-184S7479.1,1689.473,7477.059,1696.968Z" transform="translate(-7320.423 -1477.656)" fill="#c7c8c8"/>
    <path id="Path_5086" data-name="Path 5086" d="M7405.984,1314.9s-32.711,21.807-36.118,29.3-4.771,28.621,1.361,42.932,2.046,66.1,4.09,76.323,29.3,14.311,46.34,11.585,40.131-5.558,40.131-25.32-.606-65.315.756-74.174.725-28.96-3.044-44.036C7457.8,1324.7,7437.537,1313.673,7405.984,1314.9Z" transform="translate(-7303.234 -1231.624)" fill="#1c417f"/>
    <path id="Path_5087" data-name="Path 5087" d="M7258.1,1344.707s-21.487,20.355-32.331,26.43-15.281-41.446-19.94-46.008c-4.963-1.522-11.245-.106-13.276,9.923s6.056,51.777,16.082,64.041,46-9.706,57.355-20.846S7269.242,1345.826,7258.1,1344.707Z" transform="translate(-7186.627 -1238.165)" fill="#1c417f"/>
    <path id="Path_5088" data-name="Path 5088" d="M7191.049,1267.28s3.225-1.383,3.225-5.99,1.843-14.281.462-15.663-5.068,4.607-5.989,8.753c-.461-2.3-.922-17.506-4.146-18.888s-6.449,5.529-8.754,12.439S7179.992,1279.257,7191.049,1267.28Z" transform="translate(-7175.381 -1178.574)" fill="#ffd0a6"/>
    <path id="Path_5089" data-name="Path 5089" d="M7508.24,1273.992a3.212,3.212,0,0,0-.021,1.031c.275,2.353,1.248,8.385,1.385,10.894.132,2.406-2.726,6.474-9.2,6.134s-17.376-3.407-20.783-11.245c.34-1.363.34-15.674-.341-22.829Z" transform="translate(-7378.183 -1193.698)" fill="#e4b496"/>
    <path id="Path_5090" data-name="Path 5090" d="M7481.754,1315.983l-6.033,11.453-23.4-15.715,5.885-10.126Z" transform="translate(-7360.188 -1222.805)" fill="#dedede"/>
    <path id="Path_5091" data-name="Path 5091" d="M7535.274,1350.635l-4.491.562,3.333-6.351Z" transform="translate(-7412.552 -1251.668)" fill="#bfbfbf"/>
    <path id="Path_5092" data-name="Path 5092" d="M7567.395,1344.93c-.259-.086-5.019.073-5.019.073l.866-6.837Z" transform="translate(-7433.636 -1247.211)" fill="#bfbfbf"/>
    <path id="Path_5093" data-name="Path 5093" d="M7564.478,1327.341l-11.5,63.921,1.451,92.533s30.021-1.16,33.066-19.29v-19.289l.871-77.16-4.351-29.587S7573.02,1327.955,7564.478,1327.341Z" transform="translate(-7427.366 -1239.986)" fill="#03162e"/>
    <path id="Path_5094" data-name="Path 5094" d="M7565.274,1317.483l7.951,13.048,1.834-17.635-7.646-5.708Z" transform="translate(-7435.57 -1226.538)" fill="#dedede"/>
    <path id="Path_5095" data-name="Path 5095" d="M7442.793,1139.308c5.007,15.2,18.91,20.444,26.577,23s16.866,1.533,21.978-3.578,9.711-28.11,6.644-48.043-18.4-31.688-36.288-28.111S7428.994,1097.4,7442.793,1139.308Z" transform="translate(-7350.216 -1076.221)" fill="#ffd0a6"/>
    <path id="Path_5096" data-name="Path 5096" d="M7501.423,1068.511s-.081.3-.258.838c-1.838,5.615-13.979,37.259-51.792,27.879,0,0,.326,23.5-17.948,31.492,0,0-25.779-34.918-1.142-54.335,0,0,17.3-18.764,43.891-3.916C7474.174,1070.47,7489.349,1075.528,7501.423,1068.511Z" transform="translate(-7338.371 -1064.753)" fill="#05264f"/>
    <path id="Path_5097" data-name="Path 5097" d="M7440.4,1393.705l-25.039-59.535-6.91-3.167s-16.029,11.222-21.532,17.617c0,0,19.228,25.576,9.148,56.387,0,0-6.6,10.8-11.787,11.667l1.421,57.442s8.059,23.093,56.149,12.122Z" transform="translate(-7314.79 -1242.43)" fill="#03162e"/>
    <path id="Path_5098" data-name="Path 5098" d="M7466.387,1195.488v21.745s-7.65-2.818-7.65-12.282S7466.387,1195.488,7466.387,1195.488Z" transform="translate(-7364.473 -1151.997)" fill="#f1ceb9"/>
  </g>
</svg>
