<svg id="settings" xmlns="http://www.w3.org/2000/svg" width="29" height="29" viewBox="0 0 29 29">
  <g id="Group_1717" data-name="Group 1717">
    <path id="Path_5050" data-name="Path 5050" d="M28.354,12.042l-3.393-.833a10.943,10.943,0,0,0-.714-1.733l1.733-2.889a.845.845,0,0,0-.119-1.037L23.449,3.138a.845.845,0,0,0-1.037-.119L19.524,4.752a10.943,10.943,0,0,0-1.733-.714L16.975.646A.872.872,0,0,0,16.143,0h-3.4a.872.872,0,0,0-.833.646L11.1,4.038a10.943,10.943,0,0,0-1.733.714L6.474,3.019a.845.845,0,0,0-1.037.119L3.025,5.551a.845.845,0,0,0-.119,1.037L4.639,9.476a10.943,10.943,0,0,0-.714,1.733l-3.279.833A.837.837,0,0,0,0,12.857v3.4a.837.837,0,0,0,.646.816l3.279.833a10.943,10.943,0,0,0,.714,1.733L2.906,22.526a.845.845,0,0,0,.119,1.037l2.413,2.413a.845.845,0,0,0,1.037.119l2.889-1.733a10.943,10.943,0,0,0,1.733.714l.816,3.279a.872.872,0,0,0,.833.646h3.4a.872.872,0,0,0,.833-.646l.816-3.279a10.943,10.943,0,0,0,1.733-.714l2.889,1.733a.845.845,0,0,0,1.037-.119l2.413-2.413a.845.845,0,0,0,.119-1.037l-1.733-2.889a10.943,10.943,0,0,0,.714-1.733l3.393-.833A.837.837,0,0,0,29,16.256v-3.4A.837.837,0,0,0,28.354,12.042ZM14.443,18.8a4.248,4.248,0,1,1,4.248-4.248A4.25,4.25,0,0,1,14.443,18.8Z" fill="#606060"/>
  </g>
</svg>
