<svg id="paypal" xmlns="http://www.w3.org/2000/svg" width="98.091" height="98.091" viewBox="0 0 98.091 98.091">
  <circle id="Ellipse_92" data-name="Ellipse 92" cx="49.045" cy="49.045" r="49.045" transform="translate(0 0)" fill="#f3f2f2"/>
  <g id="Group_1827" data-name="Group 1827" transform="translate(49.652 37.454)">
    <path id="Path_5135" data-name="Path 5135" d="M318.05,197.135a21.74,21.74,0,0,0-4.889.788l-.379,3.1a13.323,13.323,0,0,1,4.177-.887c1.615-.049,2.563.3,2.231,1.675-4.794,0-8.022.984-8.687,4.086-.95,5.318,4.889,5.171,7.215,2.856l-.284,1.279h4.272l1.851-8.47C324.315,197.971,321.041,197.086,318.05,197.135Zm.285,8.666a2.139,2.139,0,0,1-2.23,1.675c-.949.049-1.8-.79-1.186-1.774.475-.836,1.8-1.033,2.61-1.033h1.045C318.477,205.062,318.429,205.406,318.335,205.8Z" transform="translate(-295.808 -193.786)" fill="#1a80ad"/>
    <path id="Path_5136" data-name="Path 5136" d="M378.085,180.963l-3.535,16.249h4.339l3.579-16.249Z" transform="translate(-346.681 -180.963)" fill="#1a80ad"/>
    <path id="Path_5137" data-name="Path 5137" d="M251.364,181.2H243.42L239.9,197.4h4.614l1.19-5.367h3.282a6.514,6.514,0,0,0,6.613-5.318C256.407,182.925,253.648,181.2,251.364,181.2Zm-.141,5.515a2.967,2.967,0,0,1-2.714,2.215h-2.14l.952-4.431H249.6A1.669,1.669,0,0,1,251.224,186.717Z" transform="translate(-239.899 -181.153)" fill="#1a80ad"/>
  </g>
  <g id="Group_1828" data-name="Group 1828" transform="translate(8.179 37.381)">
    <path id="Path_5138" data-name="Path 5138" d="M117.562,197.135a20.338,20.338,0,0,0-4.785.788l-.373,3.1a12.372,12.372,0,0,1,4.08-.887c1.594-.049,2.532.3,2.25,1.675-4.735,0-7.923.983-8.58,4.086-.939,5.318,4.829,5.171,7.08,2.856l-.28,1.279h4.267l1.828-8.47C123.8,197.971,120.515,197.086,117.562,197.135Zm.328,8.666a2.172,2.172,0,0,1-2.251,1.675,1.14,1.14,0,0,1-1.125-1.774c.468-.836,1.781-1.033,2.532-1.033h1.08A9.168,9.168,0,0,0,117.891,205.8Z" transform="translate(-95.454 -193.713)" fill="#1a5b80"/>
    <path id="Path_5139" data-name="Path 5139" d="M176.557,198.272h4.267l.689,7.544,4.174-7.544h4.4l-10.138,18.054h-4.77l3.118-5.307Z" transform="translate(-147.104 -194.617)" fill="#1a5b80"/>
    <path id="Path_5140" data-name="Path 5140" d="M51.016,181.2H43.05l-3.53,16.2h4.674l1.145-5.367h3.339a6.513,6.513,0,0,0,6.583-5.318C56.071,182.925,53.353,181.2,51.016,181.2Zm-.143,5.515a2.914,2.914,0,0,1-2.671,2.215H46.008l1-4.431H49.3A1.643,1.643,0,0,1,50.872,186.717Z" transform="translate(-39.52 -181.08)" fill="#1a5b80"/>
    <path id="Path_5141" data-name="Path 5141" d="M414.594,182.785v-1.917h-.715v-.257H415.6v.257h-.719v1.917Z" transform="translate(-336.398 -180.611)" fill="#1a5b80"/>
    <path id="Path_5142" data-name="Path 5142" d="M423.575,182.785v-2.174h.431l.515,1.538c.048.143.081.249.1.32.025-.078.064-.194.115-.347l.523-1.511h.386v2.174h-.277v-1.82l-.634,1.82h-.258l-.63-1.85v1.85Z" transform="translate(-344.088 -180.611)" fill="#1a5b80"/>
  </g>
</svg>
