<svg xmlns="http://www.w3.org/2000/svg" width="25.588" height="34.164" viewBox="0 0 25.588 34.164">
  <g id="invoice" transform="translate(-64.268)">
    <g id="Group_1718" data-name="Group 1718" transform="translate(64.268)">
      <path id="Path_5051" data-name="Path 5051" d="M88.855,0H65.269a1,1,0,0,0-1,1V30.215a1,1,0,0,0,.293.708l2.948,2.948a1,1,0,0,0,1.416,0l2.24-2.24,2.24,2.24a1,1,0,0,0,1.415,0l2.24-2.24,2.24,2.24a1,1,0,0,0,1.415,0l2.24-2.24,2.24,2.24a1,1,0,0,0,1.415,0l2.948-2.948a1,1,0,0,0,.293-.708V1A1,1,0,0,0,88.855,0ZM76.061,7.518V6.361a1,1,0,1,1,2,0V7.5h1.143a1,1,0,1,1,0,2H76.347a1.143,1.143,0,0,0,0,2.287h1.429a3.145,3.145,0,0,1,.286,6.277v1.157a1,1,0,1,1-2,0V18.083H74.917a1,1,0,1,1,0-2h2.859a1.143,1.143,0,1,0,0-2.286H76.347a3.145,3.145,0,0,1-.286-6.277Zm6.361,18.069H71.7a1,1,0,1,1,0-2H82.422a1,1,0,1,1,0,2Z" transform="translate(-64.268)" fill="#606060"/>
    </g>
  </g>
</svg>
