<svg xmlns="http://www.w3.org/2000/svg" width="127.267" height="127.975" viewBox="0 0 127.267 127.975">
  <g id="Group_1834" data-name="Group 1834" transform="translate(0)">
    <g id="Group_1372" data-name="Group 1372" transform="translate(-0.001)">
      <path id="Path_5033" data-name="Path 5033" d="M-87.732,781.293c-19.743,18.861-52.5,9.275-58.962-17.253l-13.877-56.97c-6.463-26.528,18.217-50.1,44.422-42.436L-59.874,681.1c26.206,7.669,34.284,40.829,14.54,59.69Z" transform="translate(161.613 -663.165)" fill="#004dcf"/>
      <g id="Group_1370" data-name="Group 1370" transform="translate(35.013 35.366)">
        <path id="Path_5034" data-name="Path 5034" d="M-92.4,745.579a1.123,1.123,0,0,1-1.123-1.122V726.58c0-4.872-.353-8.6-4.805-8.6-4.112,0-5.714,2.326-5.714,8.292v18.182a1.122,1.122,0,0,1-1.122,1.122h-11.389a1.122,1.122,0,0,1-1.122-1.122V707.737a1.122,1.122,0,0,1,1.122-1.122h10.937a1.122,1.122,0,0,1,1.123,1.122v1.87a13.663,13.663,0,0,1,9.825-3.912c13.025,0,14.782,9.4,14.782,18.59v20.17a1.123,1.123,0,0,1-.916,1.1,1.176,1.176,0,0,1-.221.021Z" transform="translate(137.131 -688.337)" fill="#0044c1"/>
        <path id="Path_5035" data-name="Path 5035" d="M-81.243,744.24v0h.014v-20.17c0-9.867-2.124-17.469-13.659-17.469a11.976,11.976,0,0,0-10.787,5.928h-.16V707.52h-10.938v36.717h11.389V726.056c0-4.787.907-9.416,6.836-9.416,5.84,0,5.928,5.463,5.928,9.723V744.24Zm0,0" transform="translate(137.348 -688.12)" fill="#0044c1"/>
        <path id="Path_5036" data-name="Path 5036" d="M-125.643,707.209a7.767,7.767,0,0,1-7.727-7.789,7.736,7.736,0,0,1,7.727-7.727,7.738,7.738,0,0,1,7.726,7.727A7.766,7.766,0,0,1-125.643,707.209Z" transform="translate(133.37 -691.693)" fill="#0044c1"/>
        <path id="Path_5037" data-name="Path 5037" d="M-125.86,692.6a6.607,6.607,0,0,0-6.605,6.6,6.66,6.66,0,0,0,6.605,6.666,6.659,6.659,0,0,0,6.6-6.666,6.609,6.609,0,0,0-6.6-6.6Zm0,0" transform="translate(133.587 -691.476)" fill="#0044c1"/>
      </g>
    </g>
    <path id="Path_3866" data-name="Path 3866" d="M123.732,234.35a1.227,1.227,0,0,0-.834-.91,4.3,4.3,0,0,0-2.26.161s-50.317,18.084-53.19,20.087c-.619.432-.825.682-.928.975-.5,1.427,1.051,2.055,1.051,2.055l12.969,4.225a1.422,1.422,0,0,0,.655-.038c2.95-1.865,29.682-18.745,31.224-19.312.244-.073.423.01.375.178-.618,2.166-23.835,22.8-23.835,22.8a1.129,1.129,0,0,0-.144.24l-.03-.018-1.21,12.863s-.507,3.941,3.434,0c2.78-2.78,5.47-5.107,6.816-6.239,4.459,3.079,9.259,6.484,11.33,8.267a3.6,3.6,0,0,0,2.626,1.013c1.966-.074,2.515-2.234,2.515-2.234s9.169-36.9,9.476-41.846c.03-.485.071-.793.074-1.126A4.1,4.1,0,0,0,123.732,234.35Z" transform="translate(-39.429 -192.63)" fill="#fbfbfb"/>
  </g>
</svg>
