<svg xmlns="http://www.w3.org/2000/svg" xmlns:xlink="http://www.w3.org/1999/xlink" width="127.267" height="127.975" viewBox="0 0 127.267 127.975">
  <defs>
    <linearGradient id="linear-gradient" x1="-19.896" y1="2.249" x2="-18.954" y2="1.933" gradientUnits="objectBoundingBox">
      <stop offset="0.012" stop-color="#ff556a"/>
      <stop offset="1" stop-color="#a00a15"/>
    </linearGradient>
  </defs>
  <g id="Group_1836" data-name="Group 1836" transform="translate(-11.745 -2.462)">
    <g id="Group_1377" data-name="Group 1377" transform="translate(0)">
      <path id="Path_5042" data-name="Path 5042" d="M-96.882,961.821c-19.743,18.861-52.5,9.275-58.962-17.253l-13.877-56.97c-6.462-26.528,18.216-50.1,44.422-42.436l56.276,16.466c26.206,7.669,34.284,40.829,14.54,59.69Z" transform="translate(182.508 -841.231)" fill="url(#linear-gradient)"/>
    </g>
    <g id="Group_449" data-name="Group 449" transform="translate(43.386 37.131)">
      <path id="Path_3867" data-name="Path 3867" d="M399.585,253.238l-19.054-18.758a.218.218,0,0,0-.368.17v36.625a.216.216,0,0,0,.358.175l19.047-17.428A.547.547,0,0,0,399.585,253.238Z" transform="translate(-380.163 -231.781)" fill="#fbfbfb"/>
      <path id="Path_3868" data-name="Path 3868" d="M402.055,251.708l1.193,1.175,4.529,4.457a3.108,3.108,0,0,0,.531.424l.2.108a3.558,3.558,0,0,0,.387.194l.258.074a3.551,3.551,0,0,0,.374.1l.281.026a3.3,3.3,0,0,0,.373.027l.065,0,.066,0a3.343,3.343,0,0,0,.373-.027l.28-.026a3.484,3.484,0,0,0,.374-.1l.258-.074a3.565,3.565,0,0,0,.387-.194l.205-.108a3.115,3.115,0,0,0,.53-.424l4.53-4.457,1.192-1.175,19.879-19.568a.127.127,0,0,0-.081-.217H382.257a.126.126,0,0,0-.08.217Z" transform="translate(-380.05 -231.923)" fill="#fbfbfb"/>
      <path id="Path_3869" data-name="Path 3869" d="M437.991,234.479l-19.055,18.758a.547.547,0,0,0,.017.784L438,271.45a.216.216,0,0,0,.358-.175V234.65A.217.217,0,0,0,437.991,234.479Z" transform="translate(-377.958 -231.781)" fill="#fbfbfb"/>
      <path id="Path_3870" data-name="Path 3870" d="M418.425,254.6l-.128.127-4.53,4.459a4.927,4.927,0,0,1-2.831,1.376v-.027a4.155,4.155,0,0,1-1.494,0v.027a4.927,4.927,0,0,1-2.831-1.376l-4.529-4.459-.129-.127-18.725,17.134a.126.126,0,0,0,.076.219h53.769a.126.126,0,0,0,.076-.219Z" transform="translate(-379.99 -230.628)" fill="#fbfbfb"/>
    </g>
  </g>
</svg>
