<svg xmlns="http://www.w3.org/2000/svg" width="41.897" height="86.836" viewBox="0 0 41.897 86.836">
  <g id="Group_1834" data-name="Group 1834" transform="translate(0.001)">
    <path id="Path_5079" data-name="Path 5079" d="M7744.451,1722.566a5.259,5.259,0,0,0-1.56,1.284,21.3,21.3,0,0,0-.55,3.667c-.13,1.017-.16.8.184,1.009.479.287,1.284-2.659,1.284-2.659s-.184,1.192.274,1.65.825-1.284.825-1.284a3.833,3.833,0,0,0,1.65-2.292C7747.018,1722.291,7744.451,1722.566,7744.451,1722.566Z" transform="translate(-7742.251 -1678.997)" fill="#ffd0a6"/>
    <path id="Path_5080" data-name="Path 5080" d="M7593.042,1368.012s-2.476,7.61-3.759,13.478c-1.1,3.3-4.952,8.619-5.135,9.536a2.181,2.181,0,0,0,2.75,1.834c1.65-.55,5.685-8.069,7.152-10.636s4.218-7.7,3.117-11.186A3.854,3.854,0,0,0,7593.042,1368.012Z" transform="translate(-7582.591 -1347.915)" fill="#1c417f"/>
    <path id="Path_5082" data-name="Path 5082" d="M7398.636,2238.195a4.426,4.426,0,0,1-1.322,3.052c-1.424,1.526-2.34,3.255-1.627,4.578s3.865.916,5.086-.1,1.017-2.034,2.136-3.458,1.323-2.238.916-3.764S7400.467,2237.381,7398.636,2238.195Z" transform="translate(-7376.692 -2159.825)" fill="#6d6d6d"/>
    <path id="Path_5083" data-name="Path 5083" d="M7570.31,2191.3a4.3,4.3,0,0,1-1.729,2.645c-1.526,1.119-2.34,2.238-2.137,3.967s3.052,1.526,4.477.813,1.118-1.424,2.136-2.543,1.729-1.221,1.933-2.441-.1-2.543-.712-2.747A3.524,3.524,0,0,0,7570.31,2191.3Z" transform="translate(-7559.046 -2115.979)" fill="#6d6d6d"/>
    <path id="Path_5084" data-name="Path 5084" d="M7543.8,1705.734s.339,28.279.746,33.3c.136,1.221,3.119,2.441,4.34.678,1.221-2.306.475-25.973,1.967-30.313C7550.45,1706.277,7545.3,1705.192,7543.8,1705.734Z" transform="translate(-7533.355 -1663.17)" fill="#c7c8c8"/>
    <path id="Path_5085" data-name="Path 5085" d="M7392.735,1686.172a13.968,13.968,0,0,0,6.1,7.053c3.661,1.9,4.2,5.154,4.475,8s.271,19.8.543,20.344,2.576,2.713,5.425,0c.271-7.866.407-33.365-.136-36.62S7392.329,1684.68,7392.735,1686.172Z" transform="translate(-7382.015 -1642.522)" fill="#c7c8c8"/>
    <path id="Path_5086" data-name="Path 5086" d="M7378.357,1314.828s6.51,4.34,7.188,5.832a13.293,13.293,0,0,1-.271,8.545c-1.221,2.848-.407,13.156-.813,15.19s-5.832,2.848-9.224,2.306-7.986-1.106-7.986-5.039.12-13-.15-14.763a27.388,27.388,0,0,1,.605-8.764C7368.045,1316.779,7372.077,1314.583,7378.357,1314.828Z" transform="translate(-7356.912 -1298.253)" fill="#1c417f"/>
    <path id="Path_5087" data-name="Path 5087" d="M7194.895,1328.611s4.277,4.051,6.435,5.26,3.042-8.249,3.969-9.157c.987-.3,2.238-.021,2.642,1.975s-1.205,10.3-3.2,12.746-9.156-1.932-11.415-4.149S7192.677,1328.834,7194.895,1328.611Z" transform="translate(-7167.224 -1307.406)" fill="#1c417f"/>
    <path id="Path_5088" data-name="Path 5088" d="M7176.217,1241.676a1.243,1.243,0,0,1-.642-1.192c0-.917-.367-2.842-.092-3.117s1.009.917,1.192,1.742c.092-.458.184-3.484.825-3.759s1.284,1.1,1.742,2.476S7178.418,1244.06,7176.217,1241.676Z" transform="translate(-7137.44 -1224.021)" fill="#ffd0a6"/>
    <path id="Path_5089" data-name="Path 5089" d="M7479.549,1261.164a.624.624,0,0,1,0,.205c-.055.468-.249,1.669-.275,2.168-.026.479.542,1.288,1.831,1.221s3.458-.678,4.137-2.238a35.625,35.625,0,0,1,.068-4.544Z" transform="translate(-7463.539 -1245.184)" fill="#e4b496"/>
    <path id="Path_5090" data-name="Path 5090" d="M7452.316,1304.458l1.2,2.279,4.658-3.128-1.171-2.015Z" transform="translate(-7434.616 -1285.914)" fill="#dedede"/>
    <path id="Path_5091" data-name="Path 5091" d="M7530.783,1346l.894.112-.664-1.264Z" transform="translate(-7513.313 -1326.301)" fill="#bfbfbf"/>
    <path id="Path_5092" data-name="Path 5092" d="M7562.376,1339.512c.051-.017,1,.014,1,.014l-.172-1.361Z" transform="translate(-7547.102 -1320.063)" fill="#bfbfbf"/>
    <path id="Path_5093" data-name="Path 5093" d="M7557.736,1327.341l2.288,12.722-.289,18.417s-5.975-.231-6.581-3.839V1350.8l-.173-15.357.866-5.889S7556.036,1327.463,7557.736,1327.341Z" transform="translate(-7543.129 -1309.955)" fill="#03162e"/>
    <path id="Path_5094" data-name="Path 5094" d="M7567.222,1309.237l-1.582,2.6-.365-3.51,1.521-1.136Z" transform="translate(-7551.141 -1291.136)" fill="#dedede"/>
    <path id="Path_5095" data-name="Path 5095" d="M7448.553,1093.356c-1,3.026-3.764,4.069-5.29,4.578a4.412,4.412,0,0,1-4.373-.712c-1.018-1.017-1.934-5.595-1.323-9.562s3.662-6.307,7.223-5.595S7451.3,1085.014,7448.553,1093.356Z" transform="translate(-7425.083 -1080.799)" fill="#ffd0a6"/>
    <path id="Path_5096" data-name="Path 5096" d="M7419.621,1065.5s.016.06.051.167c.366,1.118,2.782,7.416,10.308,5.549,0,0-.065,4.676,3.572,6.268,0,0,5.131-6.95.227-10.814,0,0-3.442-3.734-8.735-.779A7.4,7.4,0,0,1,7419.621,1065.5Z" transform="translate(-7410.177 -1064.753)" fill="#05264f"/>
    <path id="Path_5097" data-name="Path 5097" d="M7384.572,1343.482l4.983-11.849,1.375-.63a33.358,33.358,0,0,1,4.286,3.506s-3.827,5.09-1.82,11.223c0,0,1.314,2.15,2.346,2.322l-.283,11.433s-1.6,4.6-11.175,2.413Z" transform="translate(-7367.678 -1313.375)" fill="#03162e"/>
    <path id="Path_5098" data-name="Path 5098" d="M7458.736,1195.488v4.328a2.553,2.553,0,0,0,1.522-2.445C7460.259,1195.488,7458.736,1195.488,7458.736,1195.488Z" transform="translate(-7437.125 -1186.832)" fill="#f1ceb9"/>
  </g>
</svg>
