<svg xmlns="http://www.w3.org/2000/svg" xmlns:xlink="http://www.w3.org/1999/xlink" width="1939.029" height="299.878" viewBox="0 0 1939.029 299.878">
  <defs>
    <linearGradient id="linear-gradient" y1="0.5" x2="1" y2="0.5" gradientUnits="objectBoundingBox">
      <stop offset="0" stop-color="#0187fc"/>
      <stop offset="1" stop-color="#0049c8"/>
    </linearGradient>
    <linearGradient id="linear-gradient-2" y1="0.5" x2="1" y2="0.5" gradientUnits="objectBoundingBox">
      <stop offset="0" stop-color="#0049c9"/>
      <stop offset="1" stop-color="#0166fc"/>
    </linearGradient>
    <linearGradient id="linear-gradient-3" y1="0.5" x2="1" y2="0.5" gradientUnits="objectBoundingBox">
      <stop offset="0" stop-color="#0166fc"/>
      <stop offset="1" stop-color="#004acb"/>
    </linearGradient>
  </defs>
  <g id="Group_1833" data-name="Group 1833" transform="translate(19.029 -791.191)">
    <g id="Live-Background-1" transform="translate(-19.029 791.191)" opacity="0.5">
      <g id="Layer_3" transform="translate(3.475 0)">
        <path id="Path_5102" data-name="Path 5102" d="M-422.2,42.719s125-80.191,316.545,0C5.512,89.263,93.526,86.64,198.046,33.408,277.017-6.813,373.979-32.415,463.654-32.809c75.323-.331,148.376,14.923,212.972,52.617,223.8,130.6,350.819,0,350.819,0s223.8-181,485.9,13.747V232.887H-421.476Z" transform="translate(422.204 56.715)" opacity="0.4" fill="url(#linear-gradient)"/>
      </g>
      <g id="Layer_2" transform="translate(4.675 47.387)">
        <path id="Path_5103" data-name="Path 5103" d="M-420.541,28.491s124.781-66.527,315.987,0C-31.54,53.9,45.812,63.8,122.081,46.069,175.014,33.763,223.893,9.934,275.94-5.174,405.061-42.654,553.258-50.2,676.323,9.483c223.4,108.345,350.192,0,350.192,0s223.4-150.162,485.035,11.4V186.256H-419.815Z" transform="translate(420.541 54.001)" opacity="0.5" fill="url(#linear-gradient-2)"/>
      </g>
      <g id="Layer_1" transform="translate(0 59.62)">
        <path id="Path_5104" data-name="Path 5104" d="M-427.022,11.532s125.228-66.527,317.112,0C32.038,60.747,136.43,15.315,271.522-22.224,402.117-58.513,549.3-67.63,673.774-7.476c224.2,108.345,351.447,0,351.447,0s224.2-150.162,486.774,11.4V169.3H-426.293Z" transform="translate(427.022 70.96)" opacity="0.5" fill="url(#linear-gradient-3)"/>
      </g>
    </g>
  </g>
</svg>
