<svg xmlns="http://www.w3.org/2000/svg" width="192.266" height="179.92" viewBox="0 0 192.266 179.92">
  <g id="Group_1822" data-name="Group 1822" transform="translate(0 0)">
    <path id="Path_5110" data-name="Path 5110" d="M491.933,314.3c-53.148,0-96.133,20.777-96.133,46.373s43.061,46.373,96.133,46.373,96.133-20.777,96.133-46.373S545.006,314.3,491.933,314.3Z" transform="translate(-395.8 -227.125)" fill="#e6e6e6" fill-rule="evenodd"/>
    <path id="Path_5111" data-name="Path 5111" d="M500.505,250.3,432,289.446v95.907l68.505-39.071Z" transform="translate(-335.49 -211.305)" fill="#999" fill-rule="evenodd"/>
    <path id="Path_5112" data-name="Path 5112" d="M497.472,261.9v84.239L438,379.488V295.249Z" transform="translate(-336.973 -214.172)" fill="gray" fill-rule="evenodd"/>
    <path id="Path_5113" data-name="Path 5113" d="M495.708,266.6v79.5L440,377.187V297.616Z" transform="translate(-336.715 -215.334)" fill="#b3b3b3" fill-rule="evenodd"/>
    <path id="Path_5114" data-name="Path 5114" d="M523,250.3l84.314,39.146v95.907L523,346.283Z" transform="translate(-510.804 -211.305)" fill="#4d4d4d" fill-rule="evenodd"/>
    <path id="Path_5115" data-name="Path 5115" d="M431,237.5l83.486,39.146L584.121,237.5l-83.411-39Z" transform="translate(-418.353 -198.5)" fill="#ccc" fill-rule="evenodd"/>
    <path id="Path_5116" data-name="Path 5116" d="M495.632,266.6v79.5l-2.258-1.129V269.461L441.28,298.67,440,297.616Z" transform="translate(-336.64 -215.334)" fill="#e6e6e6" fill-rule="evenodd"/>
    <path id="Path_5117" data-name="Path 5117" d="M440.5,387.371l55.331-31.091-1.656-1.129-52.019,29.284-.151-75.582L440.5,307.8Z" transform="translate(-337.215 -225.518)" fill="#666" fill-rule="evenodd"/>
    <path id="Path_5118" data-name="Path 5118" d="M465.654,317.007c-7.6,2.785-13.249,11.819-12.572,20.1.376,4.667,2.71,8.055,5.947,9.636,2.785,2.409,6.851,3.086,11.142,1.506,7.6-2.861,13.249-11.819,12.572-20.1-.376-4.667-2.71-8.055-5.947-9.711-2.785-2.334-6.851-3.086-11.141-1.43Z" transform="translate(-333.612 -227.574)" fill="#666" fill-rule="evenodd"/>
    <path id="Path_5119" data-name="Path 5119" d="M465.566,318.724c-7.679,2.785-13.325,11.819-12.572,20.1.678,8.281,7.453,12.722,15.131,9.862,7.6-2.861,13.249-11.819,12.572-20.1s-7.453-12.647-15.131-9.862Z" transform="translate(-331.491 -228.011)" fill="#e6e6e6" fill-rule="evenodd"/>
    <path id="Path_5120" data-name="Path 5120" d="M465.726,319.53c-7.3,2.71-12.722,11.367-12.045,19.272.678,7.98,7.152,12.2,14.529,9.485,7.3-2.71,12.722-11.367,12.045-19.347-.677-7.9-7.227-12.12-14.529-9.41Z" transform="translate(-331.576 -228.215)" fill="#b3b3b3" fill-rule="evenodd"/>
    <path id="Path_5121" data-name="Path 5121" d="M466.663,322.652l-.9,2.334,2.183-.828Zm-5.42,3.689.151,2.258,1.731-1.882Zm-3.764,5.947,1.2,1.581.9-2.409Zm-.979,6.625,1.882.527-.151-2.334Zm2.033,5.5,2.108-.753-1.2-1.581Zm4.442,2.936,1.731-1.807-1.957-.452Zm5.721-.452.9-2.334-2.183.828Zm5.5-3.689-.151-2.258-1.732,1.882Zm3.689-5.947-1.2-1.581-.9,2.409Zm1.054-6.625-1.882-.527.151,2.334Zm-2.033-5.5-2.108.753,1.2,1.581Zm-4.517-2.936-1.731,1.731,1.957.452Z" transform="translate(-332.362 -229.078)" fill="#333" fill-rule="evenodd"/>
    <path id="Path_5122" data-name="Path 5122" d="M462.245,326.526c-4.667,1.731-8.13,7.227-7.754,12.346a7.013,7.013,0,0,0,3.538,5.872c1.807.979,2.635,1.581,4.065,2.409a6.883,6.883,0,0,0,5.872.226c4.667-1.731,8.13-7.227,7.754-12.346a7.225,7.225,0,0,0-2.785-5.42c-.075,0-4.893-2.936-5.044-3.011a7.3,7.3,0,0,0-5.646-.075Z" transform="translate(-327.643 -230.017)" fill="#666" fill-rule="evenodd"/>
    <path id="Path_5123" data-name="Path 5123" d="M462.281,329.828a12.633,12.633,0,0,0-7.679,12.346c.452,5.044,4.592,7.754,9.259,6.022s8.13-7.227,7.754-12.346c-.452-5.044-4.592-7.754-9.335-6.022Z" transform="translate(-323.614 -230.834)" fill="#e6e6e6" fill-rule="evenodd"/>
    <path id="Path_5124" data-name="Path 5124" d="M462.617,330.544c-4.366,1.581-7.6,6.775-7.227,11.518.452,4.743,4.291,7.3,8.657,5.721a11.987,11.987,0,0,0,7.227-11.593c-.376-4.743-4.216-7.227-8.657-5.646Z" transform="translate(-323.875 -231.023)" fill="#b3b3b3" fill-rule="evenodd"/>
  </g>
</svg>
