<svg id="Group_1727" data-name="Group 1727" xmlns="http://www.w3.org/2000/svg" width="24.667" height="29.6" viewBox="0 0 24.667 29.6">
  <path id="Path_3871" data-name="Path 3871" d="M249,388.306a8.26,8.26,0,0,1-2.934-6.321v-3.439a8.641,8.641,0,0,0-7.4-8.535v-1.332a1.233,1.233,0,1,0-2.467,0v1.332a8.64,8.64,0,0,0-7.4,8.535v3.439a8.27,8.27,0,0,1-2.946,6.331,2.158,2.158,0,0,0,1.4,3.8h20.351A2.158,2.158,0,0,0,249,388.306Z" transform="translate(-225.103 -367.446)" fill="#cecece"/>
  <path id="Path_3872" data-name="Path 3872" d="M242.4,413.52a4.632,4.632,0,0,0,4.531-3.7h-9.062A4.632,4.632,0,0,0,242.4,413.52Z" transform="translate(-230.066 -383.919)" fill="#cecece"/>
</svg>
