<svg id="Group_1728" data-name="Group 1728" xmlns="http://www.w3.org/2000/svg" width="28.274" height="19.346" viewBox="0 0 28.274 19.346">
  <path id="Path_3867" data-name="Path 3867" d="M389.255,243.227l-8.92-8.781a.1.1,0,0,0-.172.08v17.145a.1.1,0,0,0,.168.082l8.916-8.159A.256.256,0,0,0,389.255,243.227Z" transform="translate(-380.163 -233.183)" fill="#cecece"/>
  <path id="Path_3868" data-name="Path 3868" d="M391.462,241.185l.559.55,2.12,2.086a1.453,1.453,0,0,0,.248.2l.1.05a1.668,1.668,0,0,0,.181.091l.121.035a1.657,1.657,0,0,0,.175.048l.132.012a1.555,1.555,0,0,0,.175.013h.061a1.575,1.575,0,0,0,.175-.013l.131-.012a1.624,1.624,0,0,0,.175-.048l.121-.035a1.669,1.669,0,0,0,.181-.091l.1-.05a1.457,1.457,0,0,0,.248-.2l2.12-2.086.558-.55,9.306-9.16a.059.059,0,0,0-.038-.1H382.194a.059.059,0,0,0-.038.1Z" transform="translate(-381.161 -231.923)" fill="#cecece"/>
  <path id="Path_3869" data-name="Path 3869" d="M427.772,234.446l-8.92,8.781a.256.256,0,0,0,.008.367l8.916,8.159a.1.1,0,0,0,.168-.082V234.526A.1.1,0,0,0,427.772,234.446Z" transform="translate(-399.67 -233.183)" fill="#cecece"/>
  <path id="Path_3870" data-name="Path 3870" d="M399.683,254.6l-.06.059-2.12,2.087a2.306,2.306,0,0,1-1.325.644v-.012a1.947,1.947,0,0,1-.7,0v.012a2.306,2.306,0,0,1-1.325-.644l-2.12-2.087-.06-.059-8.766,8.021a.059.059,0,0,0,.036.1h25.17a.059.059,0,0,0,.036-.1Z" transform="translate(-381.691 -243.38)" fill="#cecece"/>
</svg>
