<svg xmlns="http://www.w3.org/2000/svg" width="26.882" height="22.176" viewBox="0 0 26.882 22.176">
  <path id="Path_5057" data-name="Path 5057" d="M93.249,233.808a.575.575,0,0,0-.391-.426,2.014,2.014,0,0,0-1.058.075s-23.554,8.466-24.9,9.4c-.29.2-.386.319-.435.457-.233.668.492.962.492.962l6.071,1.978a.666.666,0,0,0,.307-.018c1.381-.873,13.895-8.775,14.617-9.04.114-.034.2,0,.175.083-.289,1.014-11.158,10.675-11.158,10.675a.528.528,0,0,0-.067.112l-.014-.009-.567,6.021s-.237,1.845,1.608,0c1.3-1.3,2.56-2.391,3.191-2.921,2.087,1.441,4.334,3.035,5.3,3.87a1.687,1.687,0,0,0,1.229.474c.921-.035,1.177-1.046,1.177-1.046s4.292-17.274,4.436-19.589c.014-.227.033-.371.035-.527A1.919,1.919,0,0,0,93.249,233.808Z" transform="translate(-66.421 -233.331)" fill="#cecece"/>
</svg>
