<svg xmlns="http://www.w3.org/2000/svg" width="27.636" height="27.769" viewBox="0 0 27.636 27.769">
  <path id="Path_5058" data-name="Path 5058" d="M-307.93,694.891a13.672,13.672,0,0,0-9.734-4.036,13.779,13.779,0,0,0-13.76,13.759,13.736,13.736,0,0,0,1.837,6.88l-1.952,7.13,7.295-1.913a13.743,13.743,0,0,0,6.576,1.675h.005a13.78,13.78,0,0,0,13.76-13.76,13.677,13.677,0,0,0-4.026-9.734Zm-9.734,21.171h0a11.423,11.423,0,0,1-5.821-1.594l-.417-.248-4.329,1.135,1.155-4.22-.272-.433a11.411,11.411,0,0,1-1.748-6.086,11.453,11.453,0,0,1,11.442-11.436,11.361,11.361,0,0,1,8.086,3.354,11.37,11.37,0,0,1,3.347,8.092,11.453,11.453,0,0,1-11.437,11.437Zm6.273-8.566c-.344-.172-2.034-1-2.349-1.119s-.544-.172-.774.172-.888,1.119-1.089,1.348-.4.258-.745.086a9.386,9.386,0,0,1-2.765-1.707,10.388,10.388,0,0,1-1.913-2.381c-.2-.345,0-.513.151-.7a9.726,9.726,0,0,0,.859-1.176.633.633,0,0,0-.029-.6c-.085-.172-.773-1.865-1.06-2.553-.279-.67-.562-.58-.774-.59s-.43-.012-.659-.012a1.262,1.262,0,0,0-.917.431,3.858,3.858,0,0,0-1.2,2.868,6.691,6.691,0,0,0,1.4,3.557,15.328,15.328,0,0,0,5.873,5.191,19.606,19.606,0,0,0,1.96.724,4.706,4.706,0,0,0,2.165.136,3.541,3.541,0,0,0,2.321-1.635,2.866,2.866,0,0,0,.2-1.635c-.085-.144-.315-.229-.659-.4Zm0,0" transform="translate(331.539 -690.855)" fill="#cecece" fill-rule="evenodd"/>
</svg>
