<svg xmlns="http://www.w3.org/2000/svg" width="28.208" height="28.208" viewBox="0 0 28.208 28.208">
  <g id="equalizer" transform="translate(0 0)">
    <g id="Group_1720" data-name="Group 1720" transform="translate(0 10.074)">
      <g id="Group_1719" data-name="Group 1719">
        <path id="Path_5052" data-name="Path 5052" d="M27.2,173.689H10.939a4.011,4.011,0,0,0-7.773,0H1.007a1.007,1.007,0,1,0,0,2.015H3.165a4.011,4.011,0,0,0,7.773,0H27.2a1.007,1.007,0,1,0,0-2.015Z" transform="translate(0 -170.667)" fill="#606060"/>
      </g>
    </g>
    <g id="Group_1722" data-name="Group 1722" transform="translate(0 0)">
      <g id="Group_1721" data-name="Group 1721">
        <path id="Path_5053" data-name="Path 5053" d="M27.2,3.022H24.035a4.011,4.011,0,0,0-7.773,0H1.007a1.007,1.007,0,0,0,0,2.015H16.262a4.011,4.011,0,0,0,7.773,0H27.2a1.007,1.007,0,0,0,0-2.015Z" transform="translate(0 0)" fill="#606060"/>
      </g>
    </g>
    <g id="Group_1724" data-name="Group 1724" transform="translate(0 20.148)">
      <g id="Group_1723" data-name="Group 1723">
        <path id="Path_5054" data-name="Path 5054" d="M27.2,344.356H22.02a4.011,4.011,0,0,0-7.773,0H1.007a1.007,1.007,0,1,0,0,2.015h13.24a4.011,4.011,0,0,0,7.773,0H27.2a1.007,1.007,0,1,0,0-2.015Z" transform="translate(0 -341.334)" fill="#606060"/>
      </g>
    </g>
  </g>
</svg>
