<svg xmlns="http://www.w3.org/2000/svg" xmlns:xlink="http://www.w3.org/1999/xlink" width="127.267" height="127.975" viewBox="0 0 127.267 127.975">
  <defs>
    <linearGradient id="linear-gradient" x1="-20.316" y1="5.164" x2="-19.374" y2="4.848" gradientUnits="objectBoundingBox">
      <stop offset="0.046" stop-color="#89d3aa"/>
      <stop offset="1" stop-color="#02b456"/>
    </linearGradient>
  </defs>
  <g id="Group_1835" data-name="Group 1835" transform="translate(-13.343 -12.778)">
    <g id="Group_1369" data-name="Group 1369" transform="translate(0)">
      <path id="Path_5030" data-name="Path 5030" d="M-285.177,781.293c-19.743,18.861-52.5,9.275-58.962-17.253l-13.877-56.97c-6.463-26.528,18.216-50.1,44.422-42.436l56.276,16.466c26.206,7.669,34.284,40.829,14.54,59.69Z" transform="translate(372.401 -650.387)" fill="url(#linear-gradient)"/>
      <g id="Group_1367" data-name="Group 1367">
        <path id="Path_5031" data-name="Path 5031" d="M-280.366,699.051a30.007,30.007,0,0,0-21.37-8.86A30.252,30.252,0,0,0-331.947,720.4a30.154,30.154,0,0,0,4.033,15.1l-4.287,15.655,16.016-4.2a30.177,30.177,0,0,0,14.438,3.677h.012a30.255,30.255,0,0,0,30.211-30.21,30.024,30.024,0,0,0-8.841-21.372Zm-21.37,46.481h-.01a25.078,25.078,0,0,1-12.781-3.5l-.916-.545-9.5,2.494,2.536-9.267-.6-.95a25.055,25.055,0,0,1-3.839-13.364,25.148,25.148,0,0,1,25.121-25.109,24.939,24.939,0,0,1,17.752,7.365,24.957,24.957,0,0,1,7.348,17.764,25.146,25.146,0,0,1-25.11,25.111Zm13.773-18.806c-.755-.378-4.465-2.2-5.158-2.457s-1.2-.377-1.7.378-1.95,2.457-2.39,2.96-.881.567-1.636.189a20.606,20.606,0,0,1-6.071-3.746,22.77,22.77,0,0,1-4.2-5.229c-.44-.756,0-1.126.331-1.541A21.225,21.225,0,0,0-306.9,714.7a1.385,1.385,0,0,0-.063-1.322c-.188-.378-1.7-4.094-2.327-5.606-.612-1.472-1.235-1.272-1.7-1.3-.44-.022-.943-.026-1.447-.026a2.77,2.77,0,0,0-2.013.945,8.465,8.465,0,0,0-2.642,6.3c0,3.715,2.7,7.3,3.082,7.809s5.323,8.128,12.9,11.4a42.933,42.933,0,0,0,4.3,1.589,10.337,10.337,0,0,0,4.754.3c1.451-.217,4.465-1.826,5.1-3.589a6.3,6.3,0,0,0,.44-3.59c-.189-.315-.692-.5-1.447-.881Zm0,0" transform="translate(378.838 -643.909)" fill="#009e47" fill-rule="evenodd"/>
      </g>
      <g id="Group_1368" data-name="Group 1368" transform="translate(47.458 47.105)">
        <path id="Path_5032" data-name="Path 5032" d="M-281.1,699.476a29.206,29.206,0,0,0-20.793-8.621,29.436,29.436,0,0,0-29.395,29.392,29.343,29.343,0,0,0,3.924,14.7l-4.17,15.231,15.583-4.087a29.359,29.359,0,0,0,14.047,3.578h.011A29.437,29.437,0,0,0-272.5,720.271a29.217,29.217,0,0,0-8.6-20.795ZM-301.9,744.7h-.01a24.4,24.4,0,0,1-12.435-3.406l-.891-.529-9.247,2.425,2.468-9.015-.581-.925a24.375,24.375,0,0,1-3.735-13,24.467,24.467,0,0,1,24.442-24.429,24.268,24.268,0,0,1,17.273,7.164,24.287,24.287,0,0,1,7.149,17.285A24.467,24.467,0,0,1-301.9,744.7Zm13.4-18.3c-.734-.368-4.345-2.145-5.018-2.39s-1.163-.367-1.653.368-1.9,2.39-2.326,2.88-.857.552-1.592.184a20.042,20.042,0,0,1-5.906-3.646,22.194,22.194,0,0,1-4.086-5.087c-.428-.736,0-1.1.322-1.5a20.739,20.739,0,0,0,1.836-2.512,1.351,1.351,0,0,0-.062-1.287c-.182-.368-1.651-3.983-2.264-5.453-.6-1.432-1.2-1.239-1.652-1.261-.428-.022-.919-.026-1.408-.026a2.7,2.7,0,0,0-1.959.92,8.242,8.242,0,0,0-2.57,6.127c0,3.615,2.632,7.107,3,7.6s5.179,7.908,12.547,11.089a41.908,41.908,0,0,0,4.188,1.547,10.054,10.054,0,0,0,4.625.291c1.411-.211,4.345-1.776,4.958-3.492a6.121,6.121,0,0,0,.428-3.492c-.182-.307-.673-.489-1.407-.858Zm0,0" transform="translate(331.539 -690.855)" fill="#eefff6" fill-rule="evenodd"/>
      </g>
    </g>
  </g>
</svg>
