<svg id="XMLID_197_" xmlns="http://www.w3.org/2000/svg" width="44.968" height="53.848" viewBox="0 0 44.968 53.848">
  <path id="XMLID_221_" d="M93.863,135.442a3.452,3.452,0,0,0,3.371-3.371V124.2h2.251a2.126,2.126,0,0,0,2.251-2.251V99.466H74.749v22.483A2.126,2.126,0,0,0,77,124.2H79.25v7.872a3.37,3.37,0,1,0,6.741,0V124.2h4.5v7.872A3.452,3.452,0,0,0,93.863,135.442Z" transform="translate(-65.758 -81.593)" fill="#405161"/>
  <path id="XMLID_222_" d="M240.827,121.949a3.451,3.451,0,0,0,3.37-3.371V102.835a3.37,3.37,0,0,0-6.741,0v15.743A3.452,3.452,0,0,0,240.827,121.949Z" transform="translate(-199.228 -81.593)" fill="#405161"/>
  <path id="XMLID_223_" d="M28.08,121.949a3.452,3.452,0,0,0,3.371-3.371V102.835a3.37,3.37,0,0,0-6.741,0v15.743A3.452,3.452,0,0,0,28.08,121.949Z" transform="translate(-24.71 -81.593)" fill="#405161"/>
  <path id="XMLID_224_" d="M99.034.34a1.077,1.077,0,0,0-1.57,0L94.445,3.348l-.139.139a13.33,13.33,0,0,0-6.031-1.348h-.066a13.328,13.328,0,0,0-6.031,1.348l-.14-.139L79.02.34a1.077,1.077,0,0,0-1.57,0,1.079,1.079,0,0,0,0,1.568l2.92,2.92A12.167,12.167,0,0,0,77.834,7.1a13.215,13.215,0,0,0-3.065,7.814c0,.031,0,.061-.006.092q-.014.3-.014.609h26.985q0-.306-.014-.609c0-.031,0-.061-.006-.092A13.211,13.211,0,0,0,98.649,7.1a12.159,12.159,0,0,0-2.536-2.276l2.92-2.92A1.08,1.08,0,0,0,99.034.34ZM82.617,11.691A1.686,1.686,0,1,1,84.3,10,1.686,1.686,0,0,1,82.617,11.691Zm11.25,0A1.686,1.686,0,1,1,95.553,10,1.686,1.686,0,0,1,93.867,11.691Z" transform="translate(-65.758)" fill="#405161"/>
</svg>
