<svg id="apple" xmlns="http://www.w3.org/2000/svg" width="40.912" height="47.897" viewBox="0 0 40.912 47.897">
  <g id="Group_381" data-name="Group 381" transform="translate(19.663)">
    <g id="Group_380" data-name="Group 380" transform="translate(0)">
      <path id="Path_3778" data-name="Path 3778" d="M257.294,0a11.239,11.239,0,0,0-7.277,3.94c-1.587,1.931-2.892,4.8-2.383,7.586a9.486,9.486,0,0,0,7.343-3.751A10.539,10.539,0,0,0,257.294,0Z" transform="translate(-247.522)" fill="#405161"/>
    </g>
  </g>
  <g id="Group_383" data-name="Group 383" transform="translate(0 11.211)">
    <g id="Group_382" data-name="Group 382" transform="translate(0)">
      <path id="Path_3779" data-name="Path 3779" d="M76.862,124.7a12.125,12.125,0,0,0-9.151-4.859c-4.3,0-6.113,2.057-9.1,2.057-3.077,0-5.415-2.051-9.13-2.051-3.649,0-7.535,2.23-10,6.044-3.464,5.37-2.871,15.468,2.742,24.068,2.009,3.077,4.691,6.538,8.2,6.568,3.122.03,4-2,8.232-2.024s5.032,2.051,8.148,2.018c3.511-.027,6.34-3.862,8.349-6.939a34.51,34.51,0,0,0,3.092-5.807C70.126,140.681,68.824,129.132,76.862,124.7Z" transform="translate(-37.336 -119.84)" fill="#405161"/>
    </g>
  </g>
</svg>
