<svg xmlns="http://www.w3.org/2000/svg" width="341.5" height="64.216" viewBox="0 0 341.5 64.216">
  <g id="_1" data-name="1" transform="translate(-11.7 -15.5)">
    <g id="Group_357" data-name="Group 357" transform="translate(86.515 38.568)">
      <g id="Path_3751" data-name="Path 3751" transform="translate(-59.7 -30.244)" fill="#0164f8">
        <path d="M 68.95831298828125 51.03643035888672 C 67.40882873535156 51.03643035888672 65.88777923583984 50.65250778198242 64.30821990966797 49.86272811889648 L 64.29104614257813 49.85414886474609 L 64.27457427978516 49.84426879882813 C 62.65088653564453 48.87005996704102 61.49237823486328 47.7115478515625 60.51816558837891 46.0878791809082 L 60.50828552246094 46.0714111328125 L 60.49970626831055 46.05424118041992 C 59.62513732910156 44.30509948730469 59.20000457763672 42.49850082397461 59.20000457763672 40.53120803833008 C 59.20000457763672 38.61045455932617 59.67537689208984 36.6514778137207 60.50458908081055 35.15431213378906 C 61.33538055419922 33.49787902832031 62.65042877197266 32.18445587158203 64.30821990966797 31.35556983947754 C 66.29431915283203 30.36252021789551 67.99976348876953 29.89999961853027 69.67535400390625 29.89999961853027 C 71.80530548095703 29.89999961853027 73.78067016601563 30.40970993041992 75.38787841796875 31.3740291595459 C 77.04297637939453 32.36709976196289 78.35105895996094 33.84513854980469 79.17070770263672 35.64836883544922 L 79.49203491210938 36.35527038574219 L 78.71552276611328 36.35527038574219 L 77.62446594238281 36.35527038574219 L 77.33026885986328 36.35527038574219 L 77.18738555908203 36.09809112548828 C 76.45775604248047 34.78472137451172 75.42186737060547 33.74882888793945 74.10848999023438 33.01918792724609 C 72.6943359375 32.23353958129883 71.20282745361328 31.83518981933594 69.67536926269531 31.83518981933594 C 68.14791870117188 31.83518981933594 66.65639495849609 32.23353958129883 65.24223327636719 33.01918792724609 C 63.92887496948242 33.74882888793945 62.89298629760742 34.78472137451172 62.16333770751953 36.09809112548828 C 61.47150802612305 37.34336853027344 61.13520812988281 38.79346084594727 61.13520812988281 40.53120803833008 C 61.13520812988281 42.26897811889648 61.47150802612305 43.71907043457031 62.16333770751953 44.96434020996094 C 62.89298629760742 46.2777099609375 63.92887496948242 47.3135986328125 65.24223327636719 48.04323959350586 C 66.65637969970703 48.82888793945313 68.14789581298828 49.22723770141602 69.67536926269531 49.22723770141602 C 71.67253875732422 49.22723770141602 73.25459289550781 48.75185775756836 74.51194000244141 47.77391815185547 C 75.95594024658203 46.65081024169922 76.94891357421875 45.42276763916016 77.63689422607422 43.90921020507813 L 77.77011871337891 43.61610794067383 L 78.09207916259766 43.61610794067383 L 79.18312835693359 43.61610794067383 L 79.860107421875 43.61610794067383 L 79.66101837158203 44.26314926147461 C 79.01863098144531 46.35091781616211 77.74654388427734 48.01364517211914 75.87979888916016 49.20550918579102 C 74.16633605957031 50.44759368896484 72.25749206542969 51.00356292724609 69.69597625732422 51.00654602050781 C 69.45118713378906 51.0263786315918 69.20311737060547 51.03643035888672 68.95831298828125 51.03643035888672 Z" stroke="none"/>
        <path d="M 68.95831298828125 50.53642654418945 C 69.19467163085938 50.53642654418945 69.43379974365234 50.52669143676758 69.67535400390625 50.50656127929688 C 72.01332855224609 50.50656127929688 73.88371276855469 50.03897094726563 75.59822845458984 48.79204940795898 C 77.31275939941406 47.70100021362305 78.55966949462891 46.14236068725586 79.18312835693359 44.11610794067383 L 78.09207916259766 44.11610794067383 C 77.31275939941406 45.83061981201172 76.22169494628906 47.07754135131836 74.81890869140625 48.16859817504883 C 73.41613006591797 49.25965118408203 71.70161437988281 49.72723770141602 69.67536926269531 49.72723770141602 C 67.96085357666016 49.72723770141602 66.40218353271484 49.25965118408203 64.99942016601563 48.48031997680664 C 63.59663772583008 47.70100021362305 62.50558471679688 46.60995101928711 61.72625732421875 45.20716094970703 C 60.94692611694336 43.80437850952148 60.63520812988281 42.24573135375977 60.63520812988281 40.53120803833008 C 60.63520812988281 38.81669998168945 60.94692611694336 37.25806045532227 61.72625732421875 35.85527038574219 C 62.50558471679688 34.45248031616211 63.59663772583008 33.36143112182617 64.99942016601563 32.58211135864258 C 66.40220642089844 31.80278015136719 67.96085357666016 31.33518981933594 69.67536926269531 31.33518981933594 C 71.38987731933594 31.33518981933594 72.94852447509766 31.80278015136719 74.35130310058594 32.58211135864258 C 75.75410461425781 33.36143112182617 76.84515380859375 34.45248031616211 77.62446594238281 35.85527038574219 L 78.71552276611328 35.85527038574219 C 77.93619537353516 34.1407585144043 76.68927764892578 32.73797988891602 75.13062286376953 31.80278015136719 C 73.57198333740234 30.86759948730469 71.70159912109375 30.39999961853027 69.67535400390625 30.39999961853027 C 67.80497741699219 30.39999961853027 66.09046936035156 31.02346038818359 64.53182983398438 31.80278015136719 C 62.97316741943359 32.58211135864258 61.72624588012695 33.82902908325195 60.94691467285156 35.38766860961914 C 60.16759490966797 36.79045104980469 59.70000457763672 38.66083908081055 59.70000457763672 40.53120803833008 C 59.70000457763672 42.55746841430664 60.16759490966797 44.27198028564453 60.94691467285156 45.83063125610352 C 61.88210678100586 47.38927841186523 62.97316741943359 48.48032760620117 64.53182983398438 49.41551971435547 C 65.88916778564453 50.09418869018555 67.36455535888672 50.53642654418945 68.95831298828125 50.53642654418945 M 68.95831298828125 51.53643035888672 C 67.35203552246094 51.53643035888672 65.71228790283203 51.123779296875 64.08461761474609 50.3099479675293 L 64.05027008056641 50.29277038574219 L 64.017333984375 50.27301025390625 C 62.31951522827148 49.25432968139648 61.10810470581055 48.04291915893555 60.08942794799805 46.34513092041016 L 60.06966781616211 46.31219100952148 L 60.05248641967773 46.27783966064453 C 59.14240646362305 44.45766830444336 58.70000457763672 42.57793045043945 58.70000457763672 40.53120803833008 C 58.70000457763672 38.53220367431641 59.19636917114258 36.48882675170898 60.0622673034668 34.92096710205078 C 60.94208908081055 33.17168045043945 62.33260345458984 31.78435516357422 64.08461761474609 30.90834999084473 C 66.14273834228516 29.8792896270752 67.91923522949219 29.39999961853027 69.67535400390625 29.39999961853027 C 71.89590454101563 29.39999961853027 73.96022796630859 29.93434906005859 75.64511871337891 30.94528961181641 C 77.38756561279297 31.99075889587402 78.76408386230469 33.54550933837891 79.62590026855469 35.44145965576172 L 80.26853942871094 36.85527038574219 L 77.03605651855469 36.85527038574219 L 76.75030517578125 36.34090042114258 C 76.05708312988281 35.09307861328125 75.11351013183594 34.14949798583984 73.86566925048828 33.45626831054688 C 72.52666473388672 32.71236801147461 71.11684417724609 32.33518981933594 69.67536926269531 32.33518981933594 C 68.23388671875 32.33518981933594 66.82406616210938 32.71236801147461 65.48505401611328 33.45626831054688 C 64.23723602294922 34.14949798583984 63.29365539550781 35.09307861328125 62.60041809082031 36.34090805053711 C 61.950927734375 37.50997924804688 61.63520812988281 38.88063812255859 61.63520812988281 40.53120803833008 C 61.63520812988281 42.18178939819336 61.950927734375 43.55244827270508 62.60041809082031 44.72150802612305 C 63.29365539550781 45.9693489074707 64.23723602294922 46.91292953491211 65.48505401611328 47.60615921020508 C 66.82404327392578 48.35005950927734 68.23386383056641 48.72723770141602 69.67536926269531 48.72723770141602 C 71.55709838867188 48.72723770141602 73.03874969482422 48.28630828857422 74.20496368408203 47.37924957275391 C 75.60149383544922 46.29306030273438 76.51955413818359 45.15904998779297 77.18170928955078 43.70230865478516 L 77.44816589355469 43.11610794067383 L 80.53708648681641 43.11610794067383 L 80.13890838623047 44.41019821166992 C 79.46212768554688 46.60972595214844 78.12387847900391 48.36209869384766 76.16134643554688 49.61894989013672 C 74.36477661132813 50.91763305664063 72.37434387207031 51.5006103515625 69.7164306640625 51.50651168823242 C 69.46469116210938 51.52637100219727 69.20987701416016 51.53643035888672 68.95831298828125 51.53643035888672 Z" stroke="none" fill="#0164f8"/>
      </g>
      <g id="Path_3752" data-name="Path 3752" transform="translate(-50.762 -30.244)" fill="#0164f8">
        <path d="M 91.16304016113281 50.69483947753906 L 90.66304016113281 50.69483947753906 L 89.72785186767578 50.69483947753906 L 89.22785186767578 50.69483947753906 L 89.22785186767578 50.19483947753906 L 89.22785186767578 41.34294891357422 L 77.13518524169922 41.34294891357422 L 77.13518524169922 50.19483947753906 L 77.13518524169922 50.69483947753906 L 76.63518524169922 50.69483947753906 L 75.69999694824219 50.69483947753906 L 75.19999694824219 50.69483947753906 L 75.19999694824219 50.19483947753906 L 75.19999694824219 30.55586051940918 L 75.19999694824219 30.05586051940918 L 75.69999694824219 30.05586051940918 L 76.63518524169922 30.05586051940918 L 77.13518524169922 30.05586051940918 L 77.13518524169922 30.55586051940918 L 77.13518524169922 39.56362152099609 L 89.22785186767578 39.56362152099609 L 89.22785186767578 30.39999961853027 L 89.22785186767578 29.89999961853027 L 89.72785186767578 29.89999961853027 L 90.66304016113281 29.89999961853027 L 91.16304016113281 29.89999961853027 L 91.16304016113281 30.39999961853027 L 91.16304016113281 50.19483947753906 L 91.16304016113281 50.69483947753906 Z" stroke="none"/>
        <path d="M 89.72785186767578 30.40000152587891 L 89.72785186767578 40.06362152099609 L 76.63518524169922 40.06362152099609 L 76.63518524169922 30.55585861206055 L 75.69999694824219 30.55585861206055 L 75.69999694824219 50.19483947753906 L 76.63518524169922 50.19483947753906 L 76.63518524169922 40.84294891357422 L 89.72785186767578 40.84294891357422 L 89.72785186767578 50.19483947753906 L 90.66304016113281 50.19483947753906 L 90.66304016113281 30.40000152587891 L 89.72785186767578 30.40000152587891 M 88.72785186767578 29.40000152587891 L 91.66304016113281 29.40000152587891 L 91.66304016113281 51.19483947753906 L 88.72785186767578 51.19483947753906 L 88.72785186767578 41.84294891357422 L 77.63518524169922 41.84294891357422 L 77.63518524169922 51.19483947753906 L 74.69999694824219 51.19483947753906 L 74.69999694824219 29.55585861206055 L 77.63518524169922 29.55585861206055 L 77.63518524169922 39.06362152099609 L 88.72785186767578 39.06362152099609 L 88.72785186767578 29.40000152587891 Z" stroke="none" fill="#0164f8"/>
      </g>
      <g id="Path_3753" data-name="Path 3753" transform="translate(-43.22 -30.188)" fill="#0164f8">
        <path d="M 105.0715408325195 50.79484176635742 L 104.1630249023438 50.79484176635742 L 102.9161071777344 50.79484176635742 L 102.6485214233398 50.79484176635742 L 102.5000762939453 50.57219314575195 L 96.41390991210938 41.44295120239258 L 90.63518524169922 41.44295120239258 L 90.63518524169922 50.29484176635742 L 90.63518524169922 50.79484176635742 L 90.13518524169922 50.79484176635742 L 89.20001220703125 50.79484176635742 L 88.70001220703125 50.79484176635742 L 88.70001220703125 50.29484176635742 L 88.70001220703125 30.50000190734863 L 88.70001220703125 30.00000190734863 L 89.20001220703125 30.00000190734863 L 97.14911651611328 30.00000190734863 C 99.20072174072266 30.00000190734863 101.0170593261719 30.45746231079102 102.4017868041992 31.32292366027832 C 103.7791366577148 32.18377304077148 104.5071716308594 33.73171234130859 104.5071716308594 35.79941177368164 C 104.5071716308594 37.74053192138672 103.928840637207 39.09723281860352 102.7391204833984 39.9470329284668 C 101.7564849853516 40.64891815185547 100.5301208496094 41.11697769165039 99.085205078125 41.34273529052734 L 104.5854415893555 50.02731323242188 L 105.0715408325195 50.79484176635742 Z M 90.63518524169922 39.50776290893555 L 96.99325561523438 39.50776290893555 C 100.6422882080078 39.50776290893555 102.4161148071289 38.29475402832031 102.4161148071289 35.79941177368164 C 102.4161148071289 34.47012329101563 101.9240417480469 33.51493453979492 100.9535369873047 32.96036148071289 C 99.944091796875 32.3835334777832 98.61165618896484 32.0910530090332 96.99325561523438 32.0910530090332 L 90.63518524169922 32.0910530090332 L 90.63518524169922 39.50776290893555 Z" stroke="none"/>
        <path d="M 104.1630249023438 50.29484176635742 L 98.24016571044922 40.94295120239258 C 99.95468139648438 40.78708267211914 101.3574600219727 40.31948089599609 102.4485015869141 39.5401611328125 C 103.5395584106445 38.76083374023438 104.0071716308594 37.51391220092773 104.0071716308594 35.79941177368164 C 104.0071716308594 33.92903137207031 103.3836975097656 32.52624130249023 102.1367874145508 31.74692344665527 C 100.8898696899414 30.96759223937988 99.17536163330078 30.50000190734863 97.14911651611328 30.50000190734863 L 89.20001220703125 30.50000190734863 L 89.20001220703125 50.29484176635742 L 90.13518524169922 50.29484176635742 L 90.13518524169922 40.94295120239258 L 96.68151092529297 40.94295120239258 L 102.9161071777344 50.29484176635742 L 104.1630249023438 50.29484176635742 M 90.13518524169922 31.5910530090332 L 90.13518524169922 31.4351921081543 L 90.13518524169922 31.5910530090332 L 96.99325561523438 31.5910530090332 C 98.70777893066406 31.5910530090332 100.1105575561523 31.90278244018555 101.2016067504883 32.52624130249023 C 102.2926712036133 33.14970397949219 102.9161148071289 34.24075317382813 102.9161148071289 35.79941177368164 C 102.9161148071289 38.60497283935547 100.8898696899414 40.00776290893555 96.99325561523438 40.00776290893555 L 90.13518524169922 40.00776290893555 L 90.13518524169922 31.5910530090332 M 105.9800491333008 51.29484176635742 L 102.3809280395508 51.29484176635742 L 96.14632415771484 41.94295120239258 L 91.13518524169922 41.94295120239258 L 91.13518524169922 51.29484176635742 L 88.20001220703125 51.29484176635742 L 88.20001220703125 29.50000190734863 L 97.14911651611328 29.50000190734863 C 99.29452514648438 29.50000190734863 101.202507019043 29.98374366760254 102.6667861938477 30.89892196655273 C 103.7344589233398 31.56622314453125 105.0071716308594 32.95808410644531 105.0071716308594 35.79941177368164 C 105.0071716308594 37.91367340087891 104.3603515625 39.40346145629883 103.0297393798828 40.3538932800293 C 102.1566925048828 40.97750854492188 101.108757019043 41.42694091796875 99.90139770507813 41.69696807861328 L 105.9800491333008 51.29484176635742 Z M 91.13518524169922 39.00776290893555 L 96.99325561523438 39.00776290893555 C 101.9161148071289 39.00776290893555 101.9161148071289 36.6768913269043 101.9161148071289 35.79941177368164 C 101.9161148071289 34.64665222167969 101.5201110839844 33.85999298095703 100.7054672241211 33.39448165893555 C 99.77252197265625 32.86136245727539 98.52355194091797 32.5910530090332 96.99325561523438 32.5910530090332 L 91.13518524169922 32.5910530090332 L 91.13518524169922 39.00776290893555 Z" stroke="none" fill="#0164f8"/>
      </g>
      <g id="Path_3754" data-name="Path 3754" transform="translate(-36.348 -30.244)" fill="#0164f8">
        <path d="M 111.3195037841797 51.16244125366211 C 109.6108016967773 51.16244125366211 107.8087615966797 50.71300888061523 106.1082077026367 49.86272811889648 L 106.0910339355469 49.85414886474609 L 106.0745620727539 49.84426879882813 C 104.4509048461914 48.87006759643555 103.2923965454102 47.7115592956543 102.3181762695313 46.0878791809082 L 102.3082809448242 46.0714111328125 L 102.2997055053711 46.05424118041992 C 101.4251327514648 44.30509948730469 101.0000076293945 42.49850082397461 101.0000076293945 40.53120803833008 C 101.0000076293945 38.61045455932617 101.4753723144531 36.6514778137207 102.3045883178711 35.15431213378906 C 103.1353759765625 33.49789047241211 104.4504165649414 32.18446731567383 106.1082077026367 31.35556983947754 C 108.0943222045898 30.36252021789551 109.7997741699219 29.89999961853027 111.4753646850586 29.89999961853027 C 113.311897277832 29.89999961853027 115.1176681518555 30.3372802734375 116.8425216674805 31.19970893859863 C 118.3289337158203 31.94290924072266 119.5332412719727 33.14239883422852 120.6325531005859 34.97455978393555 L 120.642448425293 34.99102783203125 L 120.6510238647461 35.00819778442383 C 121.5255966186523 36.75733947753906 121.9507217407227 38.56393051147461 121.9507217407227 40.53121948242188 C 121.9507217407227 42.45598983764648 121.4733047485352 44.41923904418945 120.6408920288086 45.91757965087891 C 119.716911315918 47.58074951171875 118.3324661254883 48.96189117431641 116.8425216674805 49.70687103271484 C 115.4871368408203 50.38455963134766 113.6344909667969 51.16244125366211 111.3195037841797 51.16244125366211 Z M 111.4753646850586 31.67932891845703 C 109.9479217529297 31.67932891845703 108.4564056396484 32.07769012451172 107.042236328125 32.86333084106445 C 105.7288665771484 33.59299087524414 104.6929779052734 34.62887954711914 103.9633483886719 35.94223022460938 C 103.2715148925781 37.18751907348633 102.9352035522461 38.63761138916016 102.9352035522461 40.37535858154297 C 102.9352035522461 42.11310958862305 103.2715148925781 43.56319808959961 103.9633483886719 44.80849075317383 C 104.692985534668 46.12184906005859 105.728874206543 47.15773773193359 107.042236328125 47.88739013671875 C 108.4564056396484 48.67303085327148 109.9479217529297 49.07138824462891 111.4753646850586 49.07138824462891 L 111.498046875 49.07138824462891 L 111.520637512207 49.07344055175781 C 111.7849273681641 49.09746932983398 112.04638671875 49.10964965820313 112.297737121582 49.10966110229492 C 113.6489868164063 49.10969924926758 114.8187866210938 48.76776123046875 115.8739776611328 48.06430053710938 L 115.8908157348633 48.05307769775391 L 115.9085083007813 48.04325103759766 C 117.2218475341797 47.31361770629883 118.2577362060547 46.27772903442383 118.9873962402344 44.96434783935547 C 119.688835144043 43.7017707824707 120.0155258178711 42.24359130859375 120.0155258178711 40.37535858154297 C 120.0155258178711 38.63759994506836 119.6792221069336 37.18750762939453 118.9873962402344 35.94223022460938 C 118.2577438354492 34.62886810302734 117.2218551635742 33.59297943115234 115.9085083007813 32.86333084106445 C 114.4943237304688 32.07769012451172 113.0027923583984 31.67932891845703 111.4753646850586 31.67932891845703 Z" stroke="none"/>
        <path d="M 111.3195037841797 50.66244125366211 C 113.3457565307617 50.66244125366211 115.0602645874023 50.03897857666016 116.6189117431641 49.25965881347656 C 118.1775512695313 48.48032760620117 119.4244918823242 47.07754135131836 120.2038116455078 45.67475891113281 C 120.9831314086914 44.27198791503906 121.4507217407227 42.4015998840332 121.4507217407227 40.53121948242188 C 121.4507217407227 38.50497055053711 120.9831314086914 36.79045867919922 120.2038116455078 35.23180770874023 C 119.2686157226563 33.67316818237305 118.1775512695313 32.42623901367188 116.6189117431641 31.64691925048828 C 115.0602645874023 30.86759948730469 113.3457412719727 30.39999961853027 111.4753646850586 30.39999961853027 C 109.6049880981445 30.39999961853027 107.8904647827148 31.02346038818359 106.3318176269531 31.80278015136719 C 104.7731781005859 32.58211135864258 103.5262451171875 33.82902908325195 102.7469177246094 35.38766860961914 C 101.9675979614258 36.79045104980469 101.5000076293945 38.66083908081055 101.5000076293945 40.53120803833008 C 101.5000076293945 42.55746841430664 101.9675979614258 44.27198028564453 102.7469177246094 45.83063125610352 C 103.6821212768555 47.38927841186523 104.7731781005859 48.48032760620117 106.3318176269531 49.41551971435547 C 107.8904647827148 50.19483947753906 109.6049880981445 50.66244125366211 111.3195037841797 50.66244125366211 M 111.4753646850586 31.17932891845703 C 113.1898880004883 31.17932891845703 114.7485275268555 31.64692878723145 116.1513214111328 32.42625045776367 C 117.5541076660156 33.2055778503418 118.6451416015625 34.2966194152832 119.4244766235352 35.69940948486328 C 120.2038040161133 37.10219955444336 120.5155258178711 38.66083908081055 120.5155258178711 40.37535858154297 C 120.5155258178711 42.2457389831543 120.2038040161133 43.80437850952148 119.4244766235352 45.20716857910156 C 118.6451416015625 46.60995101928711 117.5541076660156 47.70100784301758 116.1513214111328 48.48032760620117 C 114.7485275268555 49.41551971435547 113.1899032592773 49.72724914550781 111.4753646850586 49.57138824462891 C 109.7608413696289 49.57138824462891 108.2022018432617 49.10379028320313 106.7994155883789 48.32447052001953 C 105.3966369628906 47.54513931274414 104.3055877685547 46.4540901184082 103.5262680053711 45.05130767822266 C 102.7469329833984 43.64851760864258 102.4352035522461 42.08987045288086 102.4352035522461 40.37535858154297 C 102.4352035522461 38.66083908081055 102.7469329833984 37.10219955444336 103.5262680053711 35.69940948486328 C 104.3055877685547 34.2966194152832 105.3966369628906 33.2055778503418 106.7994155883789 32.42625045776367 C 108.2022018432617 31.64692878723145 109.7608413696289 31.17932891845703 111.4753646850586 31.17932891845703 M 111.3195037841797 51.66244125366211 C 109.5335845947266 51.66244125366211 107.6542358398438 51.19475936889648 105.8846054077148 50.3099479675293 L 105.8502578735352 50.29277038574219 L 105.8173141479492 50.27301025390625 C 104.1195373535156 49.25434112548828 102.9081268310547 48.04293060302734 101.8894271850586 46.34513092041016 L 101.8696670532227 46.31219863891602 L 101.8524856567383 46.27783966064453 C 100.9424057006836 44.45766830444336 100.5000076293945 42.57793045043945 100.5000076293945 40.53120803833008 C 100.5000076293945 38.53220367431641 100.9963684082031 36.48883056640625 101.8622665405273 34.92097091674805 C 102.7420806884766 33.17169189453125 104.1325912475586 31.78436660766602 105.8845977783203 30.90835952758789 C 107.942741394043 29.8792896270752 109.7192459106445 29.39999961853027 111.4753646850586 29.39999961853027 C 113.3902130126953 29.39999961853027 115.2712173461914 29.85503959655762 117.0661239624023 30.75248908996582 C 118.6413879394531 31.54011917114258 119.9108810424805 32.79996871948242 121.0613021850586 34.71730804443359 L 121.0810623168945 34.75024032592773 L 121.0982437133789 34.78459930419922 C 122.0083236694336 36.60477066040039 122.4507217407227 38.4845085144043 122.4507217407227 40.53121948242188 C 122.4507217407227 42.5383186340332 121.9503784179688 44.59008026123047 121.0779724121094 46.160400390625 C 120.1062545776367 47.90950012207031 118.6439971923828 49.36513900756836 117.0661315917969 50.15407943725586 C 115.6615982055664 50.85634994506836 113.7391128540039 51.66244125366211 111.3195037841797 51.66244125366211 Z M 111.4753646850586 32.17932891845703 C 110.0339050292969 32.17932891845703 108.6240768432617 32.5565185546875 107.2850570678711 33.30041122436523 C 106.037223815918 33.99365997314453 105.0936431884766 34.93722915649414 104.4004211425781 36.18505096435547 C 103.7509384155273 37.35414123535156 103.4352035522461 38.72480010986328 103.4352035522461 40.37535858154297 C 103.4352035522461 42.02592086791992 103.7509384155273 43.39657974243164 104.4004211425781 44.56567001342773 C 105.0936584472656 45.8134880065918 106.037223815918 46.7570686340332 107.2850646972656 47.45030975341797 C 108.6240768432617 48.19419860839844 110.0339050292969 48.57138824462891 111.4753646850586 48.57138824462891 L 111.5207366943359 48.57138824462891 L 111.56591796875 48.57550048828125 C 111.8151321411133 48.59815979003906 112.0613555908203 48.60964965820313 112.2977523803711 48.60966110229492 C 112.2978286743164 48.60966110229492 112.2979202270508 48.60966110229492 112.2979965209961 48.60966110229492 C 113.5472640991211 48.60966110229492 114.6262512207031 48.29518127441406 115.5966262817383 47.64828109741211 L 115.6303024291992 47.62582778930664 L 115.6656875610352 47.60617065429688 C 116.9134979248047 46.91294860839844 117.857063293457 45.96936798095703 118.5503158569336 44.72151947021484 C 119.2088241577148 43.53622055053711 119.5155258178711 42.15518951416016 119.5155258178711 40.37535858154297 C 119.5155258178711 38.72478103637695 119.1998062133789 37.35411834716797 118.5503158569336 36.18505096435547 C 117.8570709228516 34.93722915649414 116.9135055541992 33.99364852905273 115.6656723022461 33.30041122436523 C 114.3266525268555 32.5565185546875 112.9168243408203 32.17932891845703 111.4753646850586 32.17932891845703 Z" stroke="none" fill="#0164f8"/>
      </g>
      <g id="Path_3755" data-name="Path 3755" transform="translate(-27.242 -30.188)" fill="#0164f8">
        <path d="M 133.2630310058594 50.79484176635742 L 132.7630310058594 50.79484176635742 L 131.6719818115234 50.79484176635742 L 131.4136505126953 50.79484176635742 L 131.2641754150391 50.58414459228516 L 119.2351837158203 33.62763595581055 L 119.2351837158203 50.29484176635742 L 119.2351837158203 50.79484176635742 L 118.7351837158203 50.79484176635742 L 117.8000106811523 50.79484176635742 L 117.3000106811523 50.79484176635742 L 117.3000106811523 50.29484176635742 L 117.3000106811523 30.50000190734863 L 117.3000106811523 30.00000190734863 L 117.8000106811523 30.00000190734863 L 118.8910598754883 30.00000190734863 L 119.1493835449219 30.00000190734863 L 119.2988662719727 30.21070289611816 L 131.3278503417969 47.16721725463867 L 131.3278503417969 30.50000190734863 L 131.3278503417969 30.00000190734863 L 131.8278503417969 30.00000190734863 L 132.7630310058594 30.00000190734863 L 133.2630310058594 30.00000190734863 L 133.2630310058594 30.50000190734863 L 133.2630310058594 50.29484176635742 L 133.2630310058594 50.79484176635742 Z" stroke="none"/>
        <path d="M 117.8000030517578 30.50000381469727 L 117.8000030517578 50.29484558105469 L 118.7351837158203 50.29484558105469 L 118.7351837158203 32.05865097045898 L 131.6719665527344 50.29484558105469 L 132.7630310058594 50.29484558105469 L 132.7630310058594 30.50000381469727 L 131.8278503417969 30.50000381469727 L 131.8278503417969 48.73620223999023 L 118.8910522460938 30.50000381469727 L 117.8000030517578 30.50000381469727 M 116.8000030517578 29.50000381469727 L 119.40771484375 29.50000381469727 L 130.8278503417969 45.59825134277344 L 130.8278503417969 29.50000381469727 L 133.7630310058594 29.50000381469727 L 133.7630310058594 51.29484558105469 L 131.1553039550781 51.29484558105469 L 119.7351837158203 35.19660568237305 L 119.7351837158203 51.29484558105469 L 116.8000030517578 51.29484558105469 L 116.8000030517578 29.50000381469727 Z" stroke="none" fill="#0164f8"/>
      </g>
      <g id="Path_3756" data-name="Path 3756" transform="translate(-19.701 -30.244)" fill="#0164f8">
        <path d="M 141.1195068359375 51.31830215454102 L 141.0987091064453 51.31830215454102 L 141.0779876708984 51.31657409667969 C 139.1124267578125 51.15277481079102 137.3180999755859 50.64654541015625 135.8889923095703 49.85260391235352 L 135.8816986083984 49.84855270385742 L 135.8745574951172 49.84427261352539 C 134.2509002685547 48.87006378173828 133.0923919677734 47.71155548095703 132.1181793212891 46.08787536621094 L 132.1083068847656 46.07141494750977 L 132.0997161865234 46.05423355102539 C 131.2251281738281 44.30512237548828 130.7999725341797 42.4985237121582 130.7999725341797 40.53121185302734 C 130.7999725341797 38.61055374145508 131.275390625 36.65152740478516 132.1045532226563 35.15439987182617 C 132.9353332519531 33.49796676635742 134.2504119873047 32.18446350097656 135.9081878662109 31.3555736541748 C 137.8943176269531 30.36252403259277 139.5997772216797 29.90000343322754 141.2753601074219 29.90000343322754 C 143.1119232177734 29.90000343322754 144.9176940917969 30.33728408813477 146.6425018310547 31.19971466064453 C 148.12890625 31.94290351867676 149.3332214355469 33.14238357543945 150.4325408935547 34.97456359863281 L 150.4424133300781 34.99103546142578 L 150.4509887695313 35.00820541381836 C 151.3255767822266 36.75734329223633 151.7507171630859 38.56394195556641 151.7507171630859 40.53122329711914 C 151.7507171630859 42.45597457885742 151.2733001708984 44.41923522949219 150.4408721923828 45.91758346557617 C 149.5445556640625 47.53090286254883 148.2075500488281 48.92542266845703 146.6761474609375 49.84427261352539 C 145.0230255126953 50.83614349365234 143.2054290771484 51.31830215454102 141.1195068359375 51.31830215454102 Z M 141.2753601074219 31.67933464050293 C 139.7478942871094 31.67933464050293 138.2563781738281 32.07768249511719 136.8422393798828 32.86332321166992 C 135.5288391113281 33.59299468994141 134.4929504394531 34.6288948059082 133.7633209228516 35.94223403930664 C 133.0714721679688 37.18756484985352 132.7351684570313 38.63764190673828 132.7351684570313 40.3753547668457 C 132.7351684570313 42.11307525634766 133.0714721679688 43.56315231323242 133.7633209228516 44.8084831237793 C 134.4929656982422 46.12185287475586 135.5288696289063 47.15775299072266 136.8422393798828 47.88739395141602 C 138.2564086914063 48.67303466796875 139.7479248046875 49.07138442993164 141.2753601074219 49.07138442993164 L 141.2980499267578 49.07138442993164 L 141.3206329345703 49.07343292236328 C 141.5849304199219 49.09746551513672 141.8463897705078 49.10965347290039 142.0977630615234 49.10966491699219 C 143.4490051269531 49.10970306396484 144.6187896728516 48.76776504516602 145.6739501953125 48.06431198120117 L 145.6907806396484 48.05308532714844 L 145.7084808349609 48.04325485229492 C 147.0218505859375 47.31361389160156 148.0577392578125 46.27771377563477 148.7873687744141 44.9643440246582 C 149.4888305664063 43.70175552368164 149.8155212402344 42.24356460571289 149.8155212402344 40.3753547668457 C 149.8155212402344 38.63761520385742 149.4792175292969 37.18753433227539 148.7873687744141 35.94223403930664 C 148.0577545166016 34.62888336181641 147.0218658447266 33.59298324584961 145.7084808349609 32.86332321166992 C 144.2943420410156 32.07768249511719 142.8028259277344 31.67933464050293 141.2753601074219 31.67933464050293 Z" stroke="none"/>
        <path d="M 141.1195068359375 50.81830215454102 C 143.1457214355469 50.81830215454102 144.8602600097656 50.35070419311523 146.4188995361328 49.41552352905273 C 147.9775543212891 48.4803352355957 149.2244567871094 47.07753372192383 150.0037841796875 45.67476272583008 C 150.7831115722656 44.2719841003418 151.2507171630859 42.40160369873047 151.2507171630859 40.53122329711914 C 151.2507171630859 38.50496292114258 150.7831115722656 36.79046249389648 150.0037841796875 35.23181533813477 C 149.0685882568359 33.67316436767578 147.9775543212891 32.42624282836914 146.4188995361328 31.64692306518555 C 144.8602600097656 30.86759376525879 143.1457214355469 30.40000343322754 141.2753601074219 30.40000343322754 C 139.4049835205078 30.40000343322754 137.6904602050781 31.02346420288086 136.1318054199219 31.80278396606445 C 134.5731658935547 32.58210372924805 133.3262481689453 33.82902526855469 132.5469207763672 35.38767242431641 C 131.767578125 36.79045486450195 131.2999725341797 38.66083526611328 131.2999725341797 40.53121185302734 C 131.2999725341797 42.55746459960938 131.767578125 44.2719841003418 132.5469207763672 45.83062362670898 C 133.4821166992188 47.38927459716797 134.5731658935547 48.4803352355957 136.1318054199219 49.41552352905273 C 137.5346069335938 50.19484329223633 139.2490997314453 50.66243362426758 141.1195068359375 50.81830215454102 M 141.2753601074219 31.17933464050293 C 142.9898834228516 31.17933464050293 144.5485382080078 31.64692306518555 145.9512939453125 32.42624282836914 C 147.3540954589844 33.20558547973633 148.4451446533203 34.29662322998047 149.2244567871094 35.69941329956055 C 150.0037841796875 37.10219192504883 150.3155212402344 38.66084289550781 150.3155212402344 40.3753547668457 C 150.3155212402344 42.24573516845703 150.0037841796875 43.80438232421875 149.2244567871094 45.2071647644043 C 148.4451446533203 46.60994338989258 147.3540802001953 47.70101547241211 145.9512939453125 48.4803352355957 C 144.5485382080078 49.41551971435547 142.9899139404297 49.72726440429688 141.2753601074219 49.57138442993164 C 139.5608367919922 49.57138442993164 138.0022125244141 49.10379409790039 136.5994110107422 48.3244743347168 C 135.1966094970703 47.54514312744141 134.1055603027344 46.45409393310547 133.3262481689453 45.05130386352539 C 132.5469207763672 43.64852523803711 132.2351684570313 42.08986282348633 132.2351684570313 40.3753547668457 C 132.2351684570313 38.66084289550781 132.5469207763672 37.10219192504883 133.3262481689453 35.69941329956055 C 134.1055603027344 34.29662322998047 135.1966247558594 33.20558547973633 136.5994110107422 32.42624282836914 C 138.0021820068359 31.64692306518555 139.5608367919922 31.17933464050293 141.2753601074219 31.17933464050293 M 141.1195068359375 51.81830215454102 L 141.0779113769531 51.81830215454102 L 141.0364532470703 51.81485366821289 C 138.9716796875 51.64278411865234 137.1581115722656 51.12964248657227 135.6461639404297 50.2896842956543 L 135.6173095703125 50.27301406860352 C 133.9195098876953 49.25433349609375 132.7081146240234 48.04292297363281 131.6894378662109 46.34512329101563 L 131.669677734375 46.31219482421875 L 131.6525115966797 46.27785491943359 C 130.7424011230469 44.45769500732422 130.2999725341797 42.57795333862305 130.2999725341797 40.53121185302734 C 130.2999725341797 38.53218841552734 130.7963104248047 36.48890686035156 131.6622314453125 34.92104721069336 C 132.5420379638672 33.17160034179688 133.9324798583984 31.78441429138184 135.6846008300781 30.90835380554199 C 137.7427520751953 29.87929344177246 139.5192565917969 29.40000343322754 141.2753601074219 29.40000343322754 C 143.1902465820313 29.40000343322754 145.0712432861328 29.85505294799805 146.8661193847656 30.75250434875488 C 148.4413604736328 31.54011344909668 149.7108612060547 32.79996490478516 150.8612823486328 34.71731185913086 L 150.8810272216797 34.750244140625 L 150.8982086181641 34.78459548950195 C 151.8083038330078 36.60477447509766 152.2507171630859 38.48451232910156 152.2507171630859 40.53122329711914 C 152.2507171630859 42.53831481933594 151.7503509521484 44.59007263183594 150.8779449462891 46.16041564941406 C 149.939697265625 47.84920501708984 148.5388336181641 49.30975341796875 146.9333801269531 50.27301406860352 C 145.2003631591797 51.31283187866211 143.2986297607422 51.81830215454102 141.1195068359375 51.81830215454102 Z M 141.2753601074219 32.1793327331543 C 139.8338623046875 32.1793327331543 138.4240417480469 32.55651473999023 137.0850524902344 33.3004035949707 C 135.8372039794922 33.9936637878418 134.8936309814453 34.9372444152832 134.2004089355469 36.18505477905273 C 133.5508880615234 37.35417556762695 133.2351684570313 38.72482299804688 133.2351684570313 40.3753547668457 C 133.2351684570313 42.02588272094727 133.5508880615234 43.39654541015625 134.2004089355469 44.5656623840332 C 134.8936462402344 45.81350326538086 135.8372192382813 46.75708389282227 137.0850524902344 47.45031356811523 C 138.424072265625 48.1942024230957 139.8338928222656 48.57138442993164 141.2753601074219 48.57138442993164 L 141.3207397460938 48.57138442993164 L 141.3659210205078 48.57549285888672 C 141.6152038574219 48.59815216064453 141.8614501953125 48.60965347290039 142.0977935791016 48.60966491699219 C 142.0978698730469 48.60966491699219 142.0979614257813 48.60966491699219 142.0980377197266 48.60966491699219 C 143.3472747802734 48.60966491699219 144.4262390136719 48.29519271850586 145.3965911865234 47.64828491210938 L 145.4302673339844 47.62583541870117 L 145.4656524658203 47.60617446899414 C 146.7134857177734 46.91294479370117 147.6570587158203 45.96936416625977 148.3502960205078 44.72152328491211 C 149.0088195800781 43.53619384765625 149.3155212402344 42.15517425537109 149.3155212402344 40.3753547668457 C 149.3155212402344 38.72480392456055 148.9998016357422 37.35414505004883 148.3502960205078 36.18506240844727 C 147.6570739746094 34.93723297119141 146.7135009765625 33.99365234375 145.4656524658203 33.3004035949707 C 144.1266784667969 32.55651473999023 142.7168579101563 32.1793327331543 141.2753601074219 32.1793327331543 Z" stroke="none" fill="#0164f8"/>
      </g>
      <path id="Path_3757" data-name="Path 3757" d="M154.6,45.307l-2.65,4.988H147.9L158.343,30.5l10.443,19.795h-3.9l-2.65-4.988Zm6.079-3.117-2.338-4.364-2.182,4.364Z" transform="translate(-10.427 -30.188)" fill="#0164f8"/>
      <path id="Path_3758" data-name="Path 3758" d="M180.486,46.866v3.429H164.9V30.5h3.585V46.866Z" transform="translate(-0.93 -30.188)" fill="#0164f8"/>
      <path id="Path_3759" data-name="Path 3759" d="M194.286,46.866v3.429H178.7V30.5h15.586v3.429h-12v4.832h9.2V42.19h-9.2v4.676Z" transform="translate(6.779 -30.188)" fill="#0164f8"/>
      <path id="Path_3760" data-name="Path 3760" d="M192.5,50.295V30.5h8.1a9.242,9.242,0,0,1,5.3,1.4c1.4.935,2.026,2.338,2.026,4.52a5.631,5.631,0,0,1-1.091,3.741,4.722,4.722,0,0,1-3.117,1.715l5.611,8.417h-4.208l-5.611-8.1h-3.585v8.1Zm3.429-11.69H200.6c2.494,0,3.9-.779,3.9-2.338a2.222,2.222,0,0,0-.935-1.87,4.686,4.686,0,0,0-2.806-.623h-4.676V38.6Z" transform="translate(14.489 -30.188)" fill="#0164f8"/>
      <path id="Path_3761" data-name="Path 3761" d="M215.72,33.929V50.295H212.29V33.929H205.9V30.5h16.366v3.429Z" transform="translate(21.975 -30.188)" fill="#0164f8"/>
      <path id="Path_3762" data-name="Path 3762" d="M222.573,48.692a8.547,8.547,0,0,1-3.273-5.611h3.741a3.85,3.85,0,0,0,1.87,2.961,6.379,6.379,0,0,0,3.9,1.091,8.14,8.14,0,0,0,3.273-.623,1.823,1.823,0,0,0,1.559-1.87,1.447,1.447,0,0,0-1.091-1.4,20.245,20.245,0,0,0-3.9-.935,23.006,23.006,0,0,1-4.988-1.247,5.792,5.792,0,0,1-2.65-1.87,4.444,4.444,0,0,1-.779-2.961,5.132,5.132,0,0,1,.935-2.961,5.732,5.732,0,0,1,2.806-2.182,9.512,9.512,0,0,1,4.364-.779c4.364,0,7.482,2.338,8.884,7.014h-3.741c-.779-2.338-2.494-3.429-5.3-3.429a12.113,12.113,0,0,0-2.494.312,3.079,3.079,0,0,0-1.715.935,1.61,1.61,0,0,0-.623,1.247,1.415,1.415,0,0,0,.468,1.091,3.518,3.518,0,0,0,1.715.779,31.143,31.143,0,0,0,3.273.623,22.012,22.012,0,0,1,4.676,1.247,6.2,6.2,0,0,1,2.494,1.87,5.382,5.382,0,0,1,.779,2.806h0a4.114,4.114,0,0,1-1.091,2.961,6.721,6.721,0,0,1-2.961,2.026,11.9,11.9,0,0,1-4.208.779A9.592,9.592,0,0,1,222.573,48.692Z" transform="translate(29.46 -30.3)" fill="#0164f8"/>
    </g>
    <g id="Group_360" data-name="Group 360" transform="translate(11.7 15.5)">
      <g id="Group_359" data-name="Group 359" transform="translate(15.34 16.989)">
        <path id="Path_3763" data-name="Path 3763" d="M40.227,26.4l-1.4,6.39L20.9,56.95,36.175,28.894Z" transform="translate(-20.9 -26.4)" fill="#0164f8"/>
        <g id="Group_358" data-name="Group 358" transform="translate(12.781)">
          <path id="Path_3764" data-name="Path 3764" d="M29.1,26.4l1.4,6.39L48.583,56.95,33.308,28.894Z" transform="translate(-29.1 -26.4)" fill="#0164f8"/>
        </g>
      </g>
      <path id="Path_3765" data-name="Path 3765" d="M69.214,60.077l-.156.468c-3.9,9.819-13.716,16.21-25.094,16.21-16.366,0-28.835-12.469-28.835-28.991S27.6,18.773,43.964,18.773c11.222,0,21.2,6.546,25.094,16.21l.156.468h3.429l-.468-1.091C67.967,23.137,56.589,15.5,43.808,15.5,25.416,15.5,11.7,29.372,11.7,47.608,11.7,66,25.572,79.716,43.808,79.716c12.781,0,24.159-7.482,28.367-18.86l.468-1.091H69.214Z" transform="translate(-11.7 -15.5)" fill="#0164f8"/>
    </g>
  </g>
</svg>
