<svg xmlns="http://www.w3.org/2000/svg" width="154.321" height="277.461" viewBox="0 0 154.321 277.461">
  <g id="Group_1472" data-name="Group 1472" transform="translate(-633.146 -382.823)" opacity="0.2">
    <g id="Group_1461" data-name="Group 1461" transform="translate(633.146 382.823)" opacity="0.32">
      <g id="Group_1460" data-name="Group 1460" transform="translate(0)">
        <path id="Path_5226" data-name="Path 5226" d="M953.052,781.806c-6.79-14.2-8.655-35.4-1.255-52.216,12.476-28.38,46.8-39.962,44.277-72.125-.636-8.1-4.241-14.618-9.55-18.81-13.972-11.033-36.453-5.194-52.5,2.511a100.56,100.56,0,0,0-28.55,20.946L901.011,605.3c19.261-13.667,42.566-20.813,65.827-22.641,47.666-3.745,84.474,14.132,88.22,61.811,3.417,43.484-25.969,62.748-45.682,84.486-10.942,12.066-13.414,21.361-12.568,32.127.438,5.566,2.525,12.439,5.88,16.819Zm34.225,77.682c-46.332,3.641-51.7-58.6-4.894-62.282C1028.485,793.584,1033.431,855.862,987.277,859.489Z" transform="translate(-901.011 -582.182)" fill="#0052d9"/>
      </g>
    </g>
  </g>
</svg>
