<?xml version="1.0" encoding="utf-8"?>
<!-- Generator: Adobe Illustrator 25.0.1, SVG Export Plug-In . SVG Version: 6.00 Build 0)  -->
<svg version="1.1" id="Layer_1" xmlns="http://www.w3.org/2000/svg" xmlns:xlink="http://www.w3.org/1999/xlink" x="0px" y="0px"
	 viewBox="0 0 272.3 73.9" style="enable-background:new 0 0 272.3 73.9;" xml:space="preserve">
<style type="text/css">
	.st0{fill:#FFFFFF;stroke:#FFFFFF;stroke-width:0.5;stroke-miterlimit:10;}
	.st1{fill:#FFFFFF;}
</style>
<g>
	<g>
		<path class="st0" d="M77.4,42.9c-1-0.6-1.7-1.3-2.3-2.3c-0.5-1-0.8-2.1-0.8-3.4c0-1.2,0.3-2.4,0.8-3.3c0.5-1,1.3-1.8,2.3-2.3
			s2.1-0.9,3.3-0.9c1.3,0,2.5,0.3,3.5,0.9c1,0.6,1.8,1.5,2.3,2.6l-0.7,0c-0.5-0.9-1.2-1.6-2.1-2.1c-0.9-0.5-1.9-0.8-3-0.8
			c-1.1,0-2.1,0.3-3,0.8c-0.9,0.5-1.6,1.2-2.1,2.1C75.2,35,75,36,75,37.2c0,1.1,0.2,2.1,0.7,3c0.5,0.9,1.2,1.6,2.1,2.1
			s1.9,0.8,3,0.8c1.3,0,2.4-0.3,3.3-1s1.6-1.5,2.1-2.6l0.7,0c-0.4,1.3-1.2,2.3-2.3,3c-1.1,0.8-2.3,1.1-3.8,1.1
			C79.5,43.7,78.4,43.4,77.4,42.9z"/>
		<path class="st0" d="M99.3,36.8v-6.1h0.6v12.7h-0.6v-6h-8.4v6h-0.6V30.8h0.6v6.1H99.3z"/>
		<path class="st0" d="M113.4,43.5h-0.8l-4-6h-4.2v6h-0.6V30.8h5.1c1.3,0,2.4,0.3,3.2,0.8s1.2,1.4,1.2,2.6c0,1.1-0.3,1.9-1,2.4
			s-1.6,0.8-2.7,0.9L113.4,43.5z M104.4,31.4v5.5h4.4c2.5,0,3.8-0.9,3.8-2.7c0-1-0.4-1.7-1.1-2.1c-0.7-0.4-1.6-0.6-2.7-0.6H104.4z"
			/>
		<path class="st0" d="M119.2,42.9c-1-0.6-1.7-1.3-2.3-2.3c-0.5-1-0.8-2.1-0.8-3.4c0-1.2,0.3-2.4,0.8-3.3c0.5-1,1.3-1.8,2.3-2.3
			s2.1-0.9,3.3-0.9c1.2,0,2.3,0.3,3.3,0.8s1.7,1.3,2.3,2.3c0.5,1,0.8,2.1,0.8,3.4c0,1.2-0.3,2.4-0.8,3.3s-1.3,1.8-2.3,2.3
			s-2.1,0.9-3.4,0.9C121.3,43.7,120.2,43.4,119.2,42.9z M125.5,42.3c0.9-0.5,1.6-1.2,2.1-2.1c0.5-0.9,0.7-1.9,0.7-3.1
			c0-1.1-0.2-2.1-0.7-3c-0.5-0.9-1.2-1.6-2.1-2.1c-0.9-0.5-1.9-0.8-3-0.8c-1.1,0-2.1,0.3-3,0.8c-0.9,0.5-1.6,1.2-2.1,2.1
			c-0.5,0.9-0.7,1.9-0.7,3c0,1.1,0.2,2.1,0.7,3c0.5,0.9,1.2,1.6,2.1,2.1s1.9,0.8,3,0.8C123.6,43.1,124.6,42.8,125.5,42.3z"/>
		<path class="st0" d="M141.4,30.8h0.6v12.7h-0.7L133,31.8l0,11.7h-0.6V30.8h0.7l8.3,11.7L141.4,30.8z"/>
		<path class="st0" d="M148.9,42.9c-1-0.6-1.7-1.3-2.3-2.3c-0.5-1-0.8-2.1-0.8-3.4c0-1.2,0.3-2.4,0.8-3.3c0.5-1,1.3-1.8,2.3-2.3
			s2.1-0.9,3.3-0.9c1.2,0,2.3,0.3,3.3,0.8s1.7,1.3,2.3,2.3c0.5,1,0.8,2.1,0.8,3.4c0,1.2-0.3,2.4-0.8,3.3s-1.3,1.8-2.3,2.3
			s-2.1,0.9-3.4,0.9C151,43.7,149.9,43.4,148.9,42.9z M155.3,42.3c0.9-0.5,1.6-1.2,2.1-2.1c0.5-0.9,0.7-1.9,0.7-3.1
			c0-1.1-0.2-2.1-0.7-3c-0.5-0.9-1.2-1.6-2.1-2.1c-0.9-0.5-1.9-0.8-3-0.8c-1.1,0-2.1,0.3-3,0.8c-0.9,0.5-1.6,1.2-2.1,2.1
			c-0.5,0.9-0.7,1.9-0.7,3c0,1.1,0.2,2.1,0.7,3c0.5,0.9,1.2,1.6,2.1,2.1s1.9,0.8,3,0.8C153.4,43.1,154.4,42.8,155.3,42.3z"/>
		<path class="st1" d="M166.7,40.3l-1.7,3.2h-2.6l6.7-12.7l6.7,12.7h-2.5l-1.7-3.2H166.7z M170.7,38.3l-1.5-2.8l-1.4,2.8H170.7z"/>
		<path class="st1" d="M189.4,41.3v2.2h-10V30.8h2.3v10.5H189.4z"/>
		<path class="st1" d="M203.2,41.3v2.2h-10V30.8h10V33h-7.7V36h5.9v2.2h-5.9v3H203.2z"/>
		<path class="st1" d="M207,43.5V30.8h5.2c1.4,0,2.5,0.3,3.4,0.9s1.3,1.5,1.3,2.9c0,1-0.2,1.8-0.7,2.4c-0.4,0.6-1.1,0.9-2,1.1
			l3.6,5.4h-2.7l-3.5-5.2h-2.3v5.2H207z M209.3,36h3c1.6,0,2.5-0.5,2.5-1.5c0-0.5-0.2-0.9-0.6-1.2c-0.4-0.3-1-0.4-1.8-0.4h-3V36z"/>
		<path class="st1" d="M226.8,33v10.5h-2.2V33h-4.1v-2.2h10.5V33H226.8z"/>
		<path class="st1" d="M235.9,42.4c-1.1-0.8-1.8-2-2.1-3.6h2.4c0.1,0.8,0.5,1.5,1.2,1.9c0.7,0.5,1.5,0.7,2.5,0.7
			c0.7,0,1.4-0.1,2.1-0.4c0.7-0.2,1-0.6,1-1.2c0-0.4-0.2-0.7-0.7-0.9s-1.3-0.4-2.5-0.6c-1.4-0.2-2.4-0.5-3.2-0.8s-1.3-0.7-1.7-1.2
			s-0.5-1.1-0.5-1.9c0-0.7,0.2-1.3,0.6-1.9c0.4-0.6,1-1.1,1.8-1.4c0.8-0.4,1.7-0.5,2.8-0.5c2.8,0,4.8,1.5,5.7,4.5H243
			c-0.5-1.5-1.6-2.2-3.4-2.2c-0.6,0-1.1,0.1-1.6,0.2c-0.5,0.1-0.8,0.3-1.1,0.6c-0.3,0.3-0.4,0.5-0.4,0.8c0,0.3,0.1,0.5,0.3,0.7
			c0.2,0.2,0.6,0.4,1.1,0.5c0.5,0.1,1.2,0.3,2.1,0.4c1.3,0.2,2.2,0.5,3,0.8c0.7,0.3,1.2,0.7,1.6,1.2c0.3,0.5,0.5,1.1,0.5,1.8v0
			c0,0.7-0.2,1.4-0.7,1.9c-0.5,0.6-1.1,1-1.9,1.3s-1.7,0.5-2.7,0.5C238.3,43.6,237,43.2,235.9,42.4z"/>
	</g>
	<g>
		<g>
			<polygon class="st1" points="47.9,26.6 47,30.8 35.5,46.3 45.2,28.3 			"/>
			<g>
				<polygon class="st1" points="43.7,26.6 44.6,30.8 56.2,46.3 46.4,28.3 				"/>
			</g>
		</g>
		<path class="st1" d="M63.2,44.4l-0.1,0.3C60.6,51,54.3,55.1,47,55.1c-10.5,0-18.5-8-18.5-18.6s8-18.6,18.5-18.6
			c7.2,0,13.6,4.2,16.1,10.4l0.1,0.3h2.2l-0.3-0.7c-2.7-7.2-10-12.1-18.2-12.1c-11.8,0-20.6,8.9-20.6,20.6
			c0,11.8,8.9,20.6,20.6,20.6c8.2,0,15.5-4.8,18.2-12.1l0.3-0.7H63.2z"/>
	</g>
</g>
</svg>
