<svg xmlns="http://www.w3.org/2000/svg" width="799.807" height="704.027" viewBox="0 0 799.807 704.027">
  <g id="Group_1495" data-name="Group 1495" transform="translate(-1083 -1079.176)">
    <path id="Path_5195" data-name="Path 5195" d="M-931.437-913.333c-109.871-147.457,34.1-427.625,117.449-471.862s359.924-125.338,511.471,103.22S-821.565-765.877-931.437-913.333Z" transform="matrix(0.974, 0.225, -0.225, 0.974, 1832.913, 2696.895)" fill="#d6d8e5" opacity="0.43"/>
    <g id="Слой_2" data-name="Слой 2" transform="translate(1177.353 1109.004)">
      <g id="Слой_1-2" data-name="Слой 1-2">
        <g id="monitor">
          <path id="Path_5148" data-name="Path 5148" d="M311.4,382.18l-58-33.49c-4.19-2.42-3.66-6.64,1.17-9.43l37.58-21.69L365.3,359.8l-37.58,21.7C322.88,384.29,315.58,384.59,311.4,382.18Z" fill="#d6d8e5" opacity="0.4" style="isolation: isolate"/>
          <path id="Path_5149" data-name="Path 5149" d="M315.63,379.69l-58-33.5c-4.18-2.41-3.66-6.63,1.17-9.42l37.59-21.69,73.15,42.23L332,379C327.12,381.8,319.81,382.1,315.63,379.69Z" fill="#b1b4c4"/>
          <path id="Path_5150" data-name="Path 5150" d="M369.53,357.31V355.1l-3.38,1.95Z" fill="#b1b4c4"/>
          <path id="Path_5151" data-name="Path 5151" d="M254.8,342.2v-2.25l3.47,1.44Z" fill="#b1b4c4"/>
          <path id="Path_5152" data-name="Path 5152" d="M315.63,377.47l-58-33.49c-4.18-2.42-3.66-6.63,1.17-9.42l37.59-21.7,73.15,42.24L332,376.79C327.12,379.58,319.81,379.89,315.63,377.47Z" fill="#d6d8e5"/>
          <path id="Path_5153" data-name="Path 5153" d="M296.57,312.96l-9.05-30.04,73.95,42.42,8.06,29.76Z" fill="#9ea1af"/>
          <path id="Path_5154" data-name="Path 5154" d="M367.39,356.33l2.14-1.23-3.19-2.55Z" fill="#9ea1af"/>
          <path id="Path_5155" data-name="Path 5155" d="M294.24,314.09l-9.05-30.04,73.95,42.42,8.24,29.86Z" fill="#b1b4c4"/>
          <path id="Path_5156" data-name="Path 5156" d="M482,407,195.71,241.69c-4-2.32-7.27-8.54-7.27-13.89V6.37c0-5.36,3.26-7.82,7.27-5.5L482,166.14c4,2.32,7.27,8.54,7.27,13.89V401.46C489.24,406.81,486,409.27,482,407Z" fill="#c4c7d6"/>
          <path id="Path_5157" data-name="Path 5157" d="M483.44,409.24l3.17-1.83-1.37-9.4Z" fill="#c4c7d6"/>
          <path id="Path_5158" data-name="Path 5158" d="M187.93,2.24,191.05.43,195.54,3s-4.78.73-4.9.7S187.93,2.24,187.93,2.24Z" fill="#b1b4c4"/>
          <path id="Path_5159" data-name="Path 5159" d="M479.34,408.47,193.09,243.2c-4-2.32-7.27-8.53-7.27-13.89V7.88c0-5.35,3.25-7.81,7.27-5.49L479.34,167.66c4,2.32,7.27,8.54,7.27,13.89V403C486.61,408.33,483.36,410.79,479.34,408.47Z" fill="#e4e7f2"/>
          <path id="Path_5160" data-name="Path 5160" d="M478.84,408.76,192.58,243.49c-4-2.32-7.27-8.54-7.27-13.89V8.17c0-5.35,3.26-7.81,7.27-5.49L478.84,168c4,2.31,7.27,8.53,7.27,13.89V403.26C486.11,408.62,482.85,411.08,478.84,408.76Z" fill="#d6d8e5"/>
          <path id="Path_5161" data-name="Path 5161" d="M482.17,395.29,189,226l.1-216.94c0-2.22,1.56-3.12,3.48-2L478.84,172.32a7.7,7.7,0,0,1,3.48,6Z" fill="#fff"/>
          <path id="Path_5162" data-name="Path 5162" d="M304.72,102.08,210.8,47.86a3.42,3.42,0,0,1-1.42-2.73V38.58c0-1,.63-1.53,1.42-1.08l93.92,54.22a3.453,3.453,0,0,1,1.42,2.73V101C306.14,102.05,305.5,102.54,304.72,102.08Z" fill="#e9eaf2"/>
          <path id="Path_5163" data-name="Path 5163" d="M280.6,103.65,211.23,63.6a3.4,3.4,0,0,1-1.43-2.72V57.62c0-1,.64-1.54,1.43-1.08L280.6,96.59a3.41,3.41,0,0,1,1.4,2.72v3.26C282,103.62,281.38,104.11,280.6,103.65Z" fill="#e9eaf2"/>
          <path id="Path_5164" data-name="Path 5164" d="M280.6,116,211.23,76a3.4,3.4,0,0,1-1.43-2.72V70c0-1,.64-1.54,1.43-1.08L280.6,109a3.41,3.41,0,0,1,1.42,2.72v3.26C282,116,281.38,116.47,280.6,116Z" fill="#e9eaf2"/>
          <path id="Path_5165" data-name="Path 5165" d="M267.51,120.82l-56.28-32.5a3.4,3.4,0,0,1-1.43-2.72V82.34c0-1,.64-1.54,1.43-1.08l56.28,32.49a3.43,3.43,0,0,1,1.43,2.73v3.26C268.94,120.79,268.3,121.27,267.51,120.82Z" fill="#0056e0"/>
          <path id="Path_5166" data-name="Path 5166" d="M304.72,231.84,210.8,177.62a3.42,3.42,0,0,1-1.42-2.73v-6.55c0-1.05.63-1.53,1.42-1.08l93.92,54.22a3.453,3.453,0,0,1,1.42,2.73v6.55C306.14,231.81,305.5,232.29,304.72,231.84Z" fill="#e9eaf2"/>
          <path id="Path_5167" data-name="Path 5167" d="M280.6,233.41l-69.37-40a3.43,3.43,0,0,1-1.43-2.73v-3.26c0-1.05.64-1.53,1.43-1.07l69.37,40a3.453,3.453,0,0,1,1.42,2.73v3.26C282,233.38,281.38,233.86,280.6,233.41Z" fill="#e9eaf2"/>
          <path id="Path_5168" data-name="Path 5168" d="M280.6,245.77l-69.37-40.05A3.421,3.421,0,0,1,209.8,203v-3.26c0-1,.64-1.53,1.43-1.07l69.37,40a3.453,3.453,0,0,1,1.42,2.73v3.26C282,245.74,281.38,246.22,280.6,245.77Z" fill="#e9eaf2"/>
          <path id="Path_5169" data-name="Path 5169" d="M267.51,250.57l-56.28-32.49a3.418,3.418,0,0,1-1.43-2.73v-3.26c0-1.05.64-1.53,1.43-1.07l56.28,32.49a3.43,3.43,0,0,1,1.43,2.73v3.26C268.94,250.55,268.3,251,267.51,250.57Z" fill="#0056e0"/>
          <path id="Path_5170" data-name="Path 5170" d="M329.85,247.94s10.36,8.7,25.32-3.18C365.85,236,375.4,241,380.72,244s13,4.84,27.63,31.26c0,0,4.76,8.28,12.62,12.82s11.64,2.32,17.82-7,10.23-19.64,21.59-12.9v93.69L328.83,286V247.33Z" fill="#f5f6ff"/>
          <path id="Path_5171" data-name="Path 5171" d="M301.26,208.22l-90-52a3.43,3.43,0,0,1-1.43-2.73V101.56c0-1,.64-1.53,1.43-1.08l90,52a3.43,3.43,0,0,1,1.43,2.73v51.95C302.69,208.19,302.05,208.67,301.26,208.22Z" fill="#e9eaf2"/>
          <path id="Path_5172" data-name="Path 5172" d="M328.83,245.76v40.22l131.55,75.94V268.23" fill="none" stroke="#e9eaf2" stroke-miterlimit="10" stroke-width="0.31"/>
          <line id="Line_1" data-name="Line 1" y2="71.26" transform="translate(380.53 244.47)" fill="none" stroke="#e9eaf2" stroke-miterlimit="10" stroke-width="0.31"/>
          <line id="Line_2" data-name="Line 2" y2="49.42" transform="translate(420.78 289.54)" fill="none" stroke="#e9eaf2" stroke-miterlimit="10" stroke-width="0.31"/>
          <path id="Path_5173" data-name="Path 5173" d="M328.83,247.33c23.34,14.47,26.64-18.24,52.07-3.56s21.92,33.81,40.69,44.65,19.21-31.5,38.79-20.19" fill="none" stroke="#e9eaf2" stroke-miterlimit="10" stroke-width="1.53"/>
          <ellipse id="Ellipse_289" data-name="Ellipse 289" cx="2.53" cy="4.39" rx="2.53" ry="4.39" transform="translate(376.138 241.945) rotate(-30)" fill="#0056e0"/>
          <ellipse id="Ellipse_290" data-name="Ellipse 290" cx="2.539" cy="4.405" rx="2.539" ry="4.405" transform="translate(457.82 266.756) rotate(-29.887)" fill="#0056e0"/>
          <ellipse id="Ellipse_291" data-name="Ellipse 291" cx="2.539" cy="4.405" rx="2.539" ry="4.405" transform="translate(418.052 287.27) rotate(-29.887)" fill="#0056e0"/>
          <ellipse id="Ellipse_292" data-name="Ellipse 292" cx="2.53" cy="4.39" rx="2.53" ry="4.39" transform="translate(324.444 244.802) rotate(-30)" fill="#0056e0"/>
          <path id="Path_5174" data-name="Path 5174" d="M332.54,178.23l-5.39-3.11a3.43,3.43,0,0,1-1.43-2.73v-26c0-1.05.64-1.53,1.43-1.08l5.39,3.12A3.4,3.4,0,0,1,334,151.1v26.05C334,178.2,333.33,178.68,332.54,178.23Z" fill="#e9eaf2"/>
          <path id="Path_5175" data-name="Path 5175" d="M345,185.4l-5.39-3.12a3.4,3.4,0,0,1-1.43-2.72v-53c0-1,.64-1.54,1.43-1.08L345,128.6a3.43,3.43,0,0,1,1.43,2.73v53C346.39,185.37,345.75,185.85,345,185.4Z" fill="#0056e0"/>
          <path id="Path_5176" data-name="Path 5176" d="M369.79,199.73l-5.39-3.11a3.4,3.4,0,0,1-1.43-2.73V146.05c0-1.05.64-1.53,1.43-1.08l5.39,3.11a3.43,3.43,0,0,1,1.43,2.73v47.85C371.22,199.71,370.58,200.19,369.79,199.73Z" fill="#e9eaf2"/>
          <path id="Path_5177" data-name="Path 5177" d="M382.21,206.9l-5.39-3.11a3.429,3.429,0,0,1-1.43-2.73V161.42c0-1,.64-1.53,1.43-1.08l5.39,3.12a3.4,3.4,0,0,1,1.43,2.72v39.64C383.64,206.88,383,207.36,382.21,206.9Z" fill="#0056e0"/>
          <path id="Path_5178" data-name="Path 5178" d="M406.94,221.18l-5.4-3.11a3.42,3.42,0,0,1-1.42-2.73V195.75c0-1.06.63-1.54,1.42-1.08l5.4,3.11a3.453,3.453,0,0,1,1.42,2.73V220.1C408.36,221.15,407.72,221.63,406.94,221.18Z" fill="#e9eaf2"/>
          <path id="Path_5179" data-name="Path 5179" d="M419.35,228.35,414,225.23a3.4,3.4,0,0,1-1.43-2.72V155.88c0-1.06.64-1.54,1.43-1.08l5.39,3.11a3.42,3.42,0,0,1,1.43,2.73v66.63C420.78,228.32,420.14,228.8,419.35,228.35Z" fill="#0056e0"/>
          <path id="Path_5180" data-name="Path 5180" d="M449.64,245.84l-5.39-3.12a3.4,3.4,0,0,1-1.43-2.72V220.4c0-1.05.64-1.53,1.43-1.08l5.39,3.12a3.4,3.4,0,0,1,1.43,2.73v19.59C451.07,245.81,450.43,246.29,449.64,245.84Z" fill="#e9eaf2"/>
          <path id="Path_5181" data-name="Path 5181" d="M462.06,253l-5.39-3.12a3.4,3.4,0,0,1-1.43-2.73v-26c0-1.05.64-1.53,1.43-1.08l5.39,3.11a3.43,3.43,0,0,1,1.43,2.73v26.05C463.49,253,462.85,253.46,462.06,253Z" fill="#0056e0"/>
        </g>
        <path id="Path_5182" data-name="Path 5182" d="M124.454,467.575l-44.64-25.74c-5.06-2.93-4.43-8,1.42-11.4l22.66-13.09c5.84-3.37,14.65-3.77,19.74-.77l44.64,25.78c5.06,2.92,4.43,8-1.42,11.39l-22.66,13.09C138.354,470.155,129.544,470.575,124.454,467.575Z" fill="#d6d8e5" opacity="0.4" style="isolation: isolate"/>
        <path id="Path_5183" data-name="Path 5183" d="M191.544,435.445v-62.31L96.224,362.4v62.7h0c-.06,1.92,1,3.75,3.4,5.11l44.64,25.78c5.06,2.92,13.9,2.55,19.74-.82l22.66-13.09c3.29-1.9,4.93-4.35,4.83-6.64Z" fill="#d6d8e5"/>
        <path id="Path_5184" data-name="Path 5184" d="M191.484,379.935v-6.8h-7.33l-40.71-23.51c-5.06-2.93-13.9-2.56-19.74.81l-22.66,13.14a12.892,12.892,0,0,0-1.17.75l-3.65-1.87v7.43h0c-.06,1.9,1,3.73,3.4,5.09l44.64,25.77c5.06,2.92,13.9,2.55,19.74-.82l22.66-13.08c3.39-2,5-4.5,4.81-6.86Z" fill="#edf0f9"/>
        <path id="Path_5185" data-name="Path 5185" d="M144.264,393.285l-44.64-25.77c-5.06-2.92-4.43-8,1.42-11.4l22.66-13.08c5.84-3.38,14.68-3.74,19.74-.82l44.64,25.77c5.06,2.92,4.43,8-1.42,11.4L164,392.465C158.164,395.845,149.324,396.2,144.264,393.285Z" fill="#e2e5f2"/>
        <path id="Path_5186" data-name="Path 5186" d="M134.2,358.105v-2.48h-1.52l-.47-.3a10.656,10.656,0,0,0-9.65,0,5.705,5.705,0,0,0-.81.57l-1.19-.27v2.48a3.4,3.4,0,0,0,2,2.79,10.662,10.662,0,0,0,9.65,0A3.37,3.37,0,0,0,134.2,358.105Z" fill="#6e48e5"/>
        <ellipse id="Ellipse_293" data-name="Ellipse 293" cx="6.82" cy="3.94" rx="6.82" ry="3.94" transform="translate(120.564 351.685)" fill="#0056e0"/>
        <path id="Path_5187" data-name="Path 5187" d="M151.124,368.575a4,4,0,0,1-1.83,1.93,10.7,10.7,0,0,1-9.64,0,4,4,0,0,1-1.83-1.93c-.5-1.28.12-2.65,1.83-3.65a10.7,10.7,0,0,1,9.64,0C151.014,365.875,151.624,367.245,151.124,368.575Z" fill="#5e42d3"/>
        <path id="Path_5188" data-name="Path 5188" d="M151.124,368.575a4,4,0,0,1-1.83,1.93,10.7,10.7,0,0,1-9.64,0,1.94,1.94,0,0,1,0-3.87,10.7,10.7,0,0,1,9.64,0A4,4,0,0,1,151.124,368.575Z" fill="#0056e0"/>
        <path id="Path_5189" data-name="Path 5189" d="M167.154,377.445v-2.48h-1.52l-.47-.3a10.656,10.656,0,0,0-9.65,0,6.629,6.629,0,0,0-.81.56l-1.19-.26v2.48a3.4,3.4,0,0,0,2,2.79,10.662,10.662,0,0,0,9.65,0A3.37,3.37,0,0,0,167.154,377.445Z" fill="#6e48e5"/>
        <ellipse id="Ellipse_294" data-name="Ellipse 294" cx="6.82" cy="3.94" rx="6.82" ry="3.94" transform="translate(153.514 371.025)" fill="#0056e0"/>
        <g id="Men_2" data-name="Men 2">
          <path id="_Контур_" data-name=" Контур " d="M84.844,348.085c-.27,2.33-3,12.39-2.46,15.84s10.1,9.21,10.1,9.21l1.32-5.9-5.26-5.16,1.42-9.77Z" fill="#ffd0a6"/>
          <path id="_Контур_2" data-name=" Контур 2" d="M92.194,338.175a4.15,4.15,0,0,0-5.29,1.59c-1.4,2.32-2.85,10.26-3,11.62,0,0,2,2.71,4.91,2.26Z" fill="#ededed"/>
          <path id="Path_5190" data-name="Path 5190" d="M103.044,450.335a8.151,8.151,0,0,0,6.15-.75c1.48.05,9.53-3.4,10.62-.51,1,2.54-2.53,4.88-4.39,5.33-4.06,1-7.06,3-8.7,3.36-1.21.25-2.79.42-3.75-.54C101.8,456.085,101.9,451.845,103.044,450.335Z" fill="#38226d"/>
          <path id="Path_5191" data-name="Path 5191" d="M106.724,457.055c1.64-.34,4.64-2.37,8.7-3.35,1.56-.38,4.25-2.08,4.52-4.12.36,2.33-2.78,4.4-4.52,4.82-4.06,1-7.06,3-8.7,3.36-1.21.25-2.79.42-3.75-.54a2.244,2.244,0,0,1-.54-1A4.841,4.841,0,0,0,106.724,457.055Z" fill="#9c73ff"/>
          <path id="Path_5192" data-name="Path 5192" d="M90,444.475a8.154,8.154,0,0,0,6.15-.74c1.48,0,9.52-3.4,10.62-.51,1,2.53-2.53,4.87-4.39,5.33-4.06,1-7.07,3-8.7,3.35-1.22.25-2.79.42-3.76-.53C88.764,450.225,88.864,445.985,90,444.475Z" fill="#38226d"/>
          <path id="Path_5193" data-name="Path 5193" d="M93.684,451.2c1.63-.35,4.64-2.37,8.7-3.36,1.56-.37,4.25-2.08,4.52-4.11.36,2.33-2.78,4.39-4.52,4.82-4.06,1-7.07,3-8.7,3.35-1.22.25-2.79.42-3.76-.53a2.4,2.4,0,0,1-.53-1A4.889,4.889,0,0,0,93.684,451.2Z" fill="#9c73ff"/>
          <path id="_Контур_3" data-name=" Контур 3" d="M89.844,422.625a49.153,49.153,0,0,1,1.85-8.81s-.55-7.6-.83-14.81c-.31-8.18-3.15-15.38-.91-21.9l25.23,5.61s-1.52,32.61-1.86,36.55a73.093,73.093,0,0,1-1.13,9.16c-1.15,6.33-3,21.39-3,21.39-2.66,1.55-6.17.69-6.17.69s.2-19,.37-23.6c.21-5.57.38-5.15.38-5.15l-.84-13.87-.54-6.9s-.7,5.06-1.16,9.59c-.39,3.94-1.34,7.51-2.41,14.85-.92,6.37-2.42,19.17-2.42,19.17-2.67,1.55-6.29.26-6.29.26S89.124,428.145,89.844,422.625Z" fill="#c7c8c8"/>
          <path id="_Контур_4" data-name=" Контур 4" d="M93.544,338.3c1.93.1,3.36.59,3.6,0a26.615,26.615,0,0,0,.43-3c-.22-.56-.41-1.16-.41-1.16-2.41-1.48-3.17-4.09-3.49-7.13-.54-5.19,2.26-9.73,7.45-10.27,4.88-.51,8.48,2.92,9.43,7.63.52,2.32,1.55,6.72.16,10.54-.78,2.14-1.78,3.84-2.78,4.17a25.406,25.406,0,0,1-2.89-.26h0s-.26,1.44-.44,2.36-.11,1.42,1.73,2.55-2.79,3.5-5.79,3.27-6.42-2.05-7.36-4C92.114,340.815,92.2,338.245,93.544,338.3Z" fill="#ffd0a6"/>
          <path id="_Контур_5" data-name=" Контур 5" d="M96.3,338.575c-.53,1.33.82,3,4.43,4.08s3.94-.32,3.94-.32a71.075,71.075,0,0,1,7,3.61c2.17,1.52,3.13,5.9,3.42,13.3.34,8.56.37,21.26.08,23.45,0,0-4,4-9.23,3.61s-13.89-5-16-8.55c.06-7.51.94-8.73-.28-13.05-2.78-9.9-4.24-14-2.89-20.53,1.11-5.43,2.67-6.1,4.82-6.05A42.737,42.737,0,0,1,96.3,338.575Z" fill="#1c417f"/>
          <path id="_Контур_6" data-name=" Контур 6" d="M123.254,366.345c-4.26,1.07-5.25-1.61-5.81-3.83-1.36-5.38-2.08-10.23-3.09-13.28-1.19-3.6-2.44-4.17-4.18-4.87-2-.83-3.82.91-3.14,5.49a91.722,91.722,0,0,0,3.9,15.63c.53,1.67,1.71,4.64,3.49,6.08,2.19,1.77,5.5,1.7,10.5.46,2.13-.54,4.47-1.81,8.5-3.69,1.08-.5,1.92-.84,4-1.81a14.076,14.076,0,0,0,5.33-4.16c1.09-1.58,1.23-2.32,1-2.68s-.77-.35-1.35.32a11.684,11.684,0,0,1-3.06,2.83s1.34-1.39,2.07-2.29a11.554,11.554,0,0,0,1.61-2.63c.38-.92-.41-2.17-1-1.51s-.89,1.32-2,2.64a11.419,11.419,0,0,1-2,1.88,20.946,20.946,0,0,0,1.81-2.92,4.853,4.853,0,0,0,.67-2.64c0-.48-.71-1.05-1.35-.14a17.5,17.5,0,0,1-2.28,3.49c-1,1-1.8,1.58-1.82,1.3s.58-.83.93-2,0-2.42-.65-2.55-.52-.1-1,1a31.643,31.643,0,0,0-1.93,3.51,7.347,7.347,0,0,1-1.75,3C129.6,364.1,127.294,365.325,123.254,366.345Z" fill="#ffd0a6"/>
          <path id="_Контур_7" data-name=" Контур 7" d="M108.594,343.625c2.84-.42,4.85.86,6.1,5.16s2.13,7.79,2.13,7.79a7.723,7.723,0,0,1-4.75,3.16c-3.4.83-4.62-.8-4.62-.8s-.94-4.5-1.53-7.57S105.084,344.145,108.594,343.625Z" fill="#ededed"/>
          <path id="Path_5194" data-name="Path 5194" d="M110.374,323.7s4.48-6.82-5.24-8.21c-7-1-11.51,3.5-12,8.39-.5,4.67,2.38,9.52,4.45,11.44a8.461,8.461,0,0,0,6.06-.73,33.83,33.83,0,0,0,.14-3.82S100.334,323.575,110.374,323.7Z" fill="#05264f"/>
        </g>
      </g>
    </g>
  </g>
</svg>
