<svg xmlns="http://www.w3.org/2000/svg" xmlns:xlink="http://www.w3.org/1999/xlink" width="205.28" height="141.62" viewBox="0 0 205.28 141.62">
  <defs>
    <linearGradient id="linear-gradient" x1="-26.335" y1="0.5" x2="-25.335" y2="0.5" gradientUnits="objectBoundingBox">
      <stop offset="0" stop-color="#c0bff6"/>
      <stop offset="0.294" stop-color="#c4c3f6"/>
      <stop offset="0.64" stop-color="#d2d2f9"/>
      <stop offset="1" stop-color="#e9e9fd"/>
    </linearGradient>
    <linearGradient id="linear-gradient-2" x1="-158.197" y1="0.5" x2="-157.197" y2="0.5" gradientUnits="objectBoundingBox">
      <stop offset="0" stop-color="#5761d7"/>
      <stop offset="0.178" stop-color="#5b65d8"/>
      <stop offset="0.388" stop-color="#6a72de"/>
      <stop offset="0.613" stop-color="#8188e8"/>
      <stop offset="0.849" stop-color="#a2a6f5"/>
      <stop offset="1" stop-color="#bcbeff"/>
    </linearGradient>
    <linearGradient id="linear-gradient-3" x1="-18.165" y1="0.5" x2="-17.165" y2="0.5" xlink:href="#linear-gradient-2"/>
    <linearGradient id="linear-gradient-4" x1="-17.819" y1="0.5" x2="-16.819" y2="0.5" xlink:href="#linear-gradient"/>
    <linearGradient id="linear-gradient-5" x1="-69.884" y1="0.5" x2="-68.884" y2="0.5" xlink:href="#linear-gradient"/>
    <clipPath id="clip-path">
      <path id="SVGID" d="M292.105,116l73.054,42.178L356.1,211.584l-73-42.149Z" fill="none"/>
    </clipPath>
    <linearGradient id="linear-gradient-6" x1="-18.583" y1="0.5" x2="-17.583" y2="0.5" xlink:href="#linear-gradient"/>
    <linearGradient id="linear-gradient-7" x1="-74.706" y1="0.5" x2="-73.706" y2="0.5" xlink:href="#linear-gradient"/>
    <linearGradient id="linear-gradient-8" x1="-11.618" y1="5.551" x2="-10.591" y2="5.154" xlink:href="#linear-gradient"/>
    <linearGradient id="linear-gradient-9" x1="37.078" y1="133.191" x2="37.607" y2="131.625" xlink:href="#linear-gradient"/>
    <linearGradient id="linear-gradient-10" x1="-12.746" y1="17.478" x2="-12.893" y2="19.19" xlink:href="#linear-gradient"/>
  </defs>
  <g id="Group_1516" data-name="Group 1516" transform="translate(-617.36 -205.5)">
    <path id="Path_5690" data-name="Path 5690" d="M3286.693-920.065C3381.712-943,3392.44-945,3441.482-904s-94.253,62-122.605,33S3191.674-897.13,3286.693-920.065Z" transform="translate(-2628.981 1204.657)" fill="#015ae7" opacity="0.12"/>
    <g id="Group_1510" data-name="Group 1510" transform="translate(427.408 93.965)">
      <g id="Group_1508" data-name="Group 1508">
        <g id="Group_1507" data-name="Group 1507">
          <g id="Group_1506" data-name="Group 1506">
            <g id="Group_1500" data-name="Group 1500">
              <g id="Group_1497" data-name="Group 1497">
                <path id="Path_5653" data-name="Path 5653" d="M281.556,168.869l9.483-56.261-.762-.321,1.145-.657v.006a.824.824,0,0,1,.883.061l75.788,43.757a2.14,2.14,0,0,1,.984,1.925l-9.559,56.708a.71.71,0,0,1-.4.577h0l-1.121.647-.192-1.046.064.019-75.33-43.491A2.142,2.142,0,0,1,281.556,168.869Z" fill="url(#linear-gradient)"/>
                <path id="Path_5654" data-name="Path 5654" d="M367.67,156.992l1.245-.551a1.713,1.713,0,0,1,.161.938l-9.559,56.708a.71.71,0,0,1-.4.577h0l-1.121.647-.192-1.046.064.019-3.812-2.2Z" fill="url(#linear-gradient-2)"/>
                <path id="Path_5655" data-name="Path 5655" d="M281.351,171.476l75.789,43.756c.585.338,1.086.143,1.188-.463l9.559-56.708a2.14,2.14,0,0,0-.984-1.925l-75.788-43.757c-.586-.338-1.087-.142-1.189.463l-9.559,56.709A2.141,2.141,0,0,0,281.351,171.476Z" fill="#24126a"/>
                <g id="Group_1496" data-name="Group 1496" opacity="0.51">
                  <path id="Path_5656" data-name="Path 5656" d="M292.105,116l73.054,42.178L356.1,211.584l-73-42.149Z" fill="#453c9e"/>
                </g>
              </g>
              <g id="Group_1499" data-name="Group 1499">
                <path id="Path_5657" data-name="Path 5657" d="M310.934,253.155a3.4,3.4,0,0,1-1.667-.422l-75.017-43.31a1.337,1.337,0,0,1-.779-1.08,1.017,1.017,0,0,1,.58-.868l44.766-25.846a3.258,3.258,0,0,1,2.974.115l75.018,43.311a1.337,1.337,0,0,1,.779,1.08,1.017,1.017,0,0,1-.581.868l-44.765,25.846A2.662,2.662,0,0,1,310.934,253.155Zm-30.813-71.433a2.249,2.249,0,0,0-1.1.254l-44.766,25.845a.652.652,0,0,0-.38.522c0,.254.211.521.58.733l75.017,43.312a2.917,2.917,0,0,0,2.574.115l44.765-25.846a.651.651,0,0,0,.381-.522c0-.254-.211-.521-.579-.733L281.591,182.09A3.022,3.022,0,0,0,280.121,181.722Z" fill="#6b5e9a" opacity="0.7"/>
                <path id="Path_5658" data-name="Path 5658" d="M233.711,198.324l4.136,2.16,41.473-23.945a3.012,3.012,0,0,1,2.707.112l71.529,41.3c.685-.383,3.806-1.884,3.806-1.884l-1.514,3.945-.006,0a.9.9,0,0,1-.423.47l-43.68,25.218a3.006,3.006,0,0,1-2.707-.112l-73.2-42.26a1.307,1.307,0,0,1-.614-.653l-.006,0Z" fill="url(#linear-gradient-3)"/>
                <path id="Path_5659" data-name="Path 5659" d="M234.35,199l75.018,43.311a3.082,3.082,0,0,0,2.774.115l44.766-25.845c.711-.411.622-1.128-.2-1.6l-75.018-43.311a3.079,3.079,0,0,0-2.774-.115L234.151,197.4C233.44,197.813,233.529,198.53,234.35,199Z" fill="url(#linear-gradient-4)"/>
                <path id="Path_5660" data-name="Path 5660" d="M234.35,198.668l75.018,43.311a3.082,3.082,0,0,0,2.774.115l44.766-25.845a.905.905,0,0,0,.451-.525.768.768,0,0,1-.451.861L312.142,242.43a3.082,3.082,0,0,1-2.774-.115L234.35,199c-.532-.307-.751-.716-.65-1.078A1.273,1.273,0,0,0,234.35,198.668Z" fill="#fff"/>
                <path id="Path_5661" data-name="Path 5661" d="M331.995,232.946v-.823c0-.077-.047-.113-.106-.08l-2.9,1.676a.25.25,0,0,0-.106.2v.823c0,.078.047.114.106.08l2.9-1.675A.254.254,0,0,0,331.995,232.946Z" fill="#2842a2"/>
                <path id="Path_5662" data-name="Path 5662" d="M327.656,235.451v-.822c0-.078-.047-.114-.106-.08l-2.9,1.675a.254.254,0,0,0-.105.2v.823c0,.078.047.114.105.08l2.9-1.675A.254.254,0,0,0,327.656,235.451Z" fill="#2842a2"/>
                <path id="Path_5663" data-name="Path 5663" d="M345.237,214.164,282.9,178.172a1.34,1.34,0,0,0-1.343,0l-22.2,12.843a.479.479,0,0,0,0,.829l62.31,35.975a1.341,1.341,0,0,0,1.342,0l22.229-12.827A.479.479,0,0,0,345.237,214.164Z" fill="#adb1f2"/>
                <path id="Path_5664" data-name="Path 5664" d="M345.237,214.993l-.223.129L282.9,179.259a1.34,1.34,0,0,0-1.343,0l-21.975,12.714-.223-.129a.479.479,0,0,1,0-.829l22.2-12.843a1.34,1.34,0,0,1,1.343,0l62.34,35.992A.479.479,0,0,1,345.237,214.993Z" fill="#9198db"/>
                <g id="Group_1498" data-name="Group 1498">
                  <path id="Path_5665" data-name="Path 5665" d="M279.879,181.426l54.151,31.264,2.408-1.39-54.151-31.264Z" fill="#24126a"/>
                  <path id="Path_5666" data-name="Path 5666" d="M273.976,184.834l50.791,29.324,2.408-1.39-50.791-29.324Z" fill="#24126a"/>
                  <path id="Path_5667" data-name="Path 5667" d="M270.132,187.053l59.8,34.526,2.408-1.39-59.8-34.526Z" fill="#24126a"/>
                  <path id="Path_5668" data-name="Path 5668" d="M266.287,189.273l59.8,34.526,2.408-1.39-59.8-34.526Z" fill="#24126a"/>
                  <path id="Path_5669" data-name="Path 5669" d="M262.442,191.493l59.8,34.526,2.408-1.39L264.85,190.1Z" fill="#24126a"/>
                  <path id="Path_5670" data-name="Path 5670" d="M337.3,214.579l2.408,1.39,2.408-1.39-2.408-1.39Z" fill="#24126a"/>
                  <path id="Path_5671" data-name="Path 5671" d="M328.809,216.491l5,2.885,2.408-1.39-5-2.885Z" fill="#24126a"/>
                </g>
                <path id="Path_5672" data-name="Path 5672" d="M280.5,222.874l-16.809-9.7a.725.725,0,0,1,0-1.373l11.494-6.637a2.633,2.633,0,0,1,2.38,0l16.809,9.705a.725.725,0,0,1,0,1.373l-11.495,6.637A2.631,2.631,0,0,1,280.5,222.874Z" fill="url(#linear-gradient-5)"/>
                <path id="Path_5673" data-name="Path 5673" d="M294.371,215.426l-16.809-9.705a2.633,2.633,0,0,0-2.38,0l-11.494,6.637a1.03,1.03,0,0,0-.413.4c-.174-.331-.041-.705.413-.967l11.494-6.637a2.633,2.633,0,0,1,2.38,0l16.809,9.705c.454.262.586.636.413.968A1.039,1.039,0,0,0,294.371,215.426Z" fill="#9198db"/>
              </g>
            </g>
            <g id="Group_1505" data-name="Group 1505" opacity="0.11">
              <g id="Group_1504" data-name="Group 1504" clip-path="url(#clip-path)">
                <g id="Group_1503" data-name="Group 1503">
                  <path id="Path_5674" data-name="Path 5674" d="M281.617,171.582l75.018,43.312a3.085,3.085,0,0,0,2.774.115l44.766-25.846c.711-.41.622-1.128-.2-1.6L328.958,144.25a3.085,3.085,0,0,0-2.774-.115l-44.766,25.846C280.707,170.391,280.8,171.108,281.617,171.582Z" fill="url(#linear-gradient-6)"/>
                  <path id="Path_5675" data-name="Path 5675" d="M356.858,179.347l-16.809-9.7a.725.725,0,0,1,0-1.374l11.494-6.636a2.633,2.633,0,0,1,2.38,0l16.809,9.705a.725.725,0,0,1,0,1.373l-11.495,6.636A2.625,2.625,0,0,1,356.858,179.347Z" fill="url(#linear-gradient-7)"/>
                  <path id="Path_5676" data-name="Path 5676" d="M370.732,171.9l-16.809-9.7a2.633,2.633,0,0,0-2.38,0l-11.494,6.636a1.032,1.032,0,0,0-.413.406c-.174-.332-.041-.706.413-.968l11.494-6.636a2.633,2.633,0,0,1,2.38,0l16.809,9.705c.454.262.586.636.413.967A1.037,1.037,0,0,0,370.732,171.9Z" fill="#9198db"/>
                  <g id="Group_1502" data-name="Group 1502">
                    <path id="Path_5677" data-name="Path 5677" d="M378.121,194.514l-62.34-35.992a1.34,1.34,0,0,0-1.343,0l-22.2,12.843a.479.479,0,0,0,0,.829L354.55,208.17a1.343,1.343,0,0,0,1.342,0l22.229-12.827A.479.479,0,0,0,378.121,194.514Z" fill="#adb1f2"/>
                    <path id="Path_5678" data-name="Path 5678" d="M378.121,195.343l-.224.128-62.116-35.862a1.343,1.343,0,0,0-1.343,0l-21.976,12.715-.223-.129a.479.479,0,0,1,0-.829l22.2-12.843a1.34,1.34,0,0,1,1.343,0l62.34,35.992A.479.479,0,0,1,378.121,195.343Z" fill="#9198db"/>
                    <g id="Group_1501" data-name="Group 1501">
                      <path id="Path_5679" data-name="Path 5679" d="M298.049,170.49l54.309,31.355-2.151,1.242L295.9,171.732Z" fill="#24126a"/>
                      <path id="Path_5680" data-name="Path 5680" d="M303.771,167.186l51.619,29.8-2.151,1.242-51.619-29.8Z" fill="#24126a"/>
                      <path id="Path_5681" data-name="Path 5681" d="M359.245,199.214,364.066,202l-2.151,1.242-4.821-2.783Z" fill="#24126a"/>
                      <path id="Path_5682" data-name="Path 5682" d="M354.987,203.363l3.357,1.938-2.151,1.242-3.357-1.938Z" fill="#24126a"/>
                      <path id="Path_5683" data-name="Path 5683" d="M307.356,165.116l60.3,34.811L365.5,201.17l-60.3-34.811Z" fill="#24126a"/>
                      <path id="Path_5684" data-name="Path 5684" d="M310.942,163.046l60.295,34.811-2.151,1.242-60.3-34.811Z" fill="#24126a"/>
                      <path id="Path_5685" data-name="Path 5685" d="M314.527,160.976l60.295,34.811-2.151,1.242-60.295-34.811Z" fill="#24126a"/>
                    </g>
                  </g>
                </g>
              </g>
            </g>
          </g>
        </g>
      </g>
      <path id="Path_5686" data-name="Path 5686" d="M307,133.539l-5.5,32.3,43.9,25.345,5.5-32.3Z" fill="#24126a" opacity="0.7"/>
      <g id="Group_1509" data-name="Group 1509">
        <path id="Path_5687" data-name="Path 5687" d="M339.883,194.7l-43.9-25.345,5.5-32.3,43.9,25.345Z" fill="url(#linear-gradient-8)"/>
        <path id="Path_5688" data-name="Path 5688" d="M339.883,194.7l-18.6-32.3-25.293,6.953Z" fill="url(#linear-gradient-9)"/>
        <path id="Path_5689" data-name="Path 5689" d="M301.49,137.052l18.6,32.3,25.293-6.953Z" fill="url(#linear-gradient-10)"/>
      </g>
    </g>
  </g>
</svg>
