<svg xmlns="http://www.w3.org/2000/svg" width="381.069" height="287.909" viewBox="0 0 381.069 287.909">
  <g id="Group_414" data-name="Group 414" transform="translate(0 0)">
    <path id="a9afa624-d143-4da3-9790-afb66062e65a" d="M271.978,369.263c0,9.937-7.716,17.992-17.235,17.992s-17.235-8.055-17.235-17.992c0-.225,0-.449.013-.672.174-9.935,8.034-17.837,17.551-17.652s17.087,8.39,16.909,18.324Z" transform="translate(-114.906 -169.783)" fill="#2c3e50"/>
    <path id="e3bc7ff1-d70c-4de9-8a31-9e1cd8f5d93e" d="M254.486,387.735l-4.964-6.619,1.176-.882,4.044,5.392L270.664,372.6l.931,1.138Z" transform="translate(-120.719 -180.264)" fill="#fff"/>
    <rect id="a7b62467-cb6d-4a33-bede-3daf66fae9b8" width="381.069" height="1.032" transform="translate(0 286.877)" fill="#e6e6e6"/>
    <g id="a0df80b4-37f6-4e81-b192-ad058c9b46d3" transform="translate(240.417 0)">
      <path id="ab0ed44f-d533-4992-a1b3-ca9ac72248ac" d="M476.23,175.329a7.3,7.3,0,0,1,1.026.572l32.6-13.914,1.163-8.588,13.026-.08-.77,19.7L480.247,184.4a7.712,7.712,0,0,1-.326.878,7.439,7.439,0,1,1-3.691-9.945Z" transform="translate(-465.745 -74.176)" fill="#ffb6b6"/>
      <path id="e96706e1-851e-4da2-ad9b-ad313a8c64fc" d="M575.539,509.5h-8.911l-4.239-34.371H575.54Z" transform="translate(-512.501 -229.87)" fill="#ffb6b6"/>
      <path id="b540b71d-0f03-4ed3-b276-b3415efc1443" d="M548.13,536.783h17.185V547.6H537.309a10.821,10.821,0,0,1,10.821-10.821h0Z" transform="translate(-500.368 -259.694)" fill="#2c3e50"/>
      <path id="b87c34d6-a0a3-40d8-a436-08cd71fc342e" d="M639.577,504.784l-8.867.872-7.588-33.789,13.088-1.286Z" transform="translate(-541.884 -227.667)" fill="#ffb6b6"/>
      <path id="bb56473f-8578-4371-8d17-16b3f8ffc95c" d="M615.911,533.257l17.1-1.684,1.06,10.766-27.865,2.745a10.819,10.819,0,0,1,9.7-11.827Z" transform="translate(-533.674 -257.175)" fill="#2c3e50"/>
      <circle id="b06ede21-2df7-4399-95f3-667c473f6547" cx="17.852" cy="17.852" r="17.852" transform="translate(47.667 7.064)" fill="#feb8b8"/>
      <path id="e3edd339-fa60-4375-a5a7-b8711a5f77a0" d="M544.933,410.506a3.252,3.252,0,0,1-3.209-2.689c-4.609-25.6-19.688-109.317-20.049-111.638a.982.982,0,0,1-.012-.161v-6.243a1.082,1.082,0,0,1,.2-.634l1.992-2.787a1.075,1.075,0,0,1,.832-.454c11.356-.532,48.541-2.093,50.338.152h0c1.8,2.253,1.163,9.091,1.017,10.438l.007.14,16.707,106.844a3.279,3.279,0,0,1-2.7,3.732l-10.435,1.719a3.286,3.286,0,0,1-3.653-2.248c-3.227-10.313-14.049-45-17.8-58.429a.361.361,0,0,0-.713.1c.187,12.8.64,45.444.8,56.721l.016,1.215a3.284,3.284,0,0,1-2.975,3.3l-10.062.912C545.136,410.5,545.035,410.507,544.933,410.506Z" transform="translate(-492.798 -137.823)" fill="#2c3e50"/>
      <path id="fafafea0-d187-42ce-9adc-60692d5c21c2" d="M547.547,94.894c-3.115,1.852-4.98,5.255-6.049,8.724a82.615,82.615,0,0,0-3.55,19.74l-1.131,20.06-14,53.183c12.131,10.264,19.127,7.93,35.456-.465s18.194,2.8,18.194,2.8l3.265-45.252,4.665-49.448a21.921,21.921,0,0,0-3.534-3.4A36.1,36.1,0,0,0,550.018,94.3Z" transform="translate(-493.358 -45.107)" fill="#bdc3c7"/>
      <path id="bcb42d09-5dc7-4cce-9178-bbabc9608de0" d="M552.286,193.066a7.58,7.58,0,0,1,1.09.509l32.235-16.136.535-8.741,13.3-.917.712,19.925-43.077,14.247a7.634,7.634,0,1,1-4.792-8.891Z" transform="translate(-502.643 -81.173)" fill="#ffb6b6"/>
      <path id="a6b68414-708f-47b2-ba8b-69f9e74523ce" d="M625.686,114.074c7.93,2.8,9.328,33.125,9.328,33.125-9.33-5.132-20.527,3.265-20.527,3.265s-2.332-7.931-5.132-18.194a17.829,17.829,0,0,1,3.732-16.795S617.755,111.274,625.686,114.074Z" transform="translate(-534.876 -54.724)" fill="#bdc3c7"/>
      <path id="bcacc9ce-a4f2-4033-9198-64d9603f2d9b" d="M591.945,29.636c-2.224-1.779-5.258,1.454-5.258,1.454l-1.779-16.01s-11.12,1.332-18.239-.445-8.23,6.452-8.23,6.452a57.129,57.129,0,0,1-.222-10.01c.445-4,6.227-8.007,16.459-10.677s15.57,8.9,15.57,8.9C597.365,12.853,594.172,31.417,591.945,29.636Z" transform="translate(-510.423 0)" fill="#2f2e41"/>
    </g>
    <path id="Path_3813" data-name="Path 3813" d="M159.626,45.552a1.6,1.6,0,1,0,0,3.208h117.1a1.6,1.6,0,0,0,0-3.208h-117.1Z" transform="translate(-76.451 -22.038)" fill="#ccc"/>
    <path id="Path_3814" data-name="Path 3814" d="M159.623,64.195a1.6,1.6,0,0,0-.007,3.208h74.035a1.6,1.6,0,0,0,0-3.208H159.623Z" transform="translate(-76.448 -31.057)" fill="#ccc"/>
    <path id="baa6ea24-e79a-410b-95a0-90b7a92ae1c1" d="M372.5,15.076a6.752,6.752,0,1,1-13.492,0c0-.088,0-.176.005-.263a6.751,6.751,0,1,1,13.488.263Z" transform="translate(-173.688 -3.823)" fill="#2c3e50"/>
    <path id="a0820f47-ad40-463a-872c-13bb80005143" d="M365.654,22.306l-1.943-2.591.46-.345,1.583,2.111,6.232-5.1.364.445Z" transform="translate(-175.963 -7.925)" fill="#fff"/>
    <path id="Path_3815" data-name="Path 3815" d="M159.626,159.552a1.6,1.6,0,1,0,0,3.208h117.1a1.6,1.6,0,0,0,0-3.208h-117.1Z" transform="translate(-76.451 -77.191)" fill="#ccc"/>
    <path id="Path_3816" data-name="Path 3816" d="M159.625,178.2a1.6,1.6,0,0,0-.007,3.208h74.035a1.6,1.6,0,1,0,0-3.208H159.625Z" transform="translate(-76.45 -86.211)" fill="#ccc"/>
    <path id="b63fc892-67cf-40d0-9003-f173040a559c" d="M371.5,129.076a6.752,6.752,0,1,1-13.492,0c0-.088,0-.175.005-.263a6.751,6.751,0,1,1,13.488.263Z" transform="translate(-173.204 -58.976)" fill="#2c3e50"/>
    <path id="b8e61bbe-38fc-40ac-ac8c-5bb63bac7af2" d="M364.654,136.306l-1.943-2.591.46-.345,1.583,2.111,6.232-5.1.364.445Z" transform="translate(-175.48 -63.079)" fill="#fff"/>
    <path id="Path_3817" data-name="Path 3817" d="M159.626,273.552a1.6,1.6,0,1,0,0,3.208h117.1a1.6,1.6,0,1,0,0-3.208h-117.1Z" transform="translate(-76.451 -132.344)" fill="#ccc"/>
    <path id="Path_3818" data-name="Path 3818" d="M159.625,292.2a1.6,1.6,0,0,0-.007,3.208h74.035a1.6,1.6,0,1,0,0-3.208H159.625Z" transform="translate(-76.45 -141.364)" fill="#ccc"/>
    <path id="f67391c6-f0f4-4d09-a78c-675b0edf0c3b" d="M371.5,243.076a6.752,6.752,0,1,1-13.492,0c0-.088,0-.175.005-.263a6.751,6.751,0,1,1,13.488.263Z" transform="translate(-173.204 -114.13)" fill="#2c3e50"/>
    <path id="e94ecbaf-2ca7-4fd5-871d-ab097a8f2c0d" d="M364.654,250.306l-1.943-2.591.46-.345,1.583,2.111,6.232-5.1.364.445Z" transform="translate(-175.48 -118.232)" fill="#fff"/>
  </g>
</svg>
