<svg id="shield" xmlns="http://www.w3.org/2000/svg" width="69.519" height="91.266" viewBox="0 0 69.519 91.266">
  <path id="Path_3769" data-name="Path 3769" d="M109.217,151a18.717,18.717,0,1,0,18.717,18.717A18.739,18.739,0,0,0,109.217,151ZM121.8,166.26l-13.369,13.369a2.673,2.673,0,0,1-3.781,0l-8.021-8.021a2.674,2.674,0,0,1,3.781-3.781l6.131,6.131,11.479-11.479a2.674,2.674,0,1,1,3.781,3.781Zm0,0" transform="translate(-74.457 -124.084)" fill="#0046c4"/>
  <path id="Path_3770" data-name="Path 3770" d="M67.345,10.874H61.082A33.8,33.8,0,0,1,37.15.783a2.673,2.673,0,0,0-3.781,0A33.8,33.8,0,0,1,9.438,10.874H3.174A2.672,2.672,0,0,0,.5,13.547V45.633c0,24.027,17.484,35.2,29.054,42.481,1.058.664,4.58,3.152,5.706,3.152s4.552-2.425,5.606-3.087C52.475,80.9,70.019,69.71,70.019,45.633V13.547a2.672,2.672,0,0,0-2.674-2.674ZM35.26,69.7A24.064,24.064,0,1,1,59.324,45.633,24.091,24.091,0,0,1,35.26,69.7Zm0,0" transform="translate(-0.5 0)" fill="#0046c4"/>
</svg>
