<svg id="watch" xmlns="http://www.w3.org/2000/svg" width="81.313" height="103.489" viewBox="0 0 81.313 103.489">
  <g id="Group_364" data-name="Group 364" transform="translate(0)">
    <g id="Group_363" data-name="Group 363">
      <path id="Path_3771" data-name="Path 3771" d="M121.734,48.049h0a36.937,36.937,0,0,0-16.829-27.4L99.745,0H70.176L65.011,20.662a36.9,36.9,0,0,0,0,62.166l5.165,20.662H99.745l5.161-20.645a36.939,36.939,0,0,0,16.828-27.4h7.579V48.049ZM84.96,81.313a29.568,29.568,0,1,1,29.568-29.568A29.6,29.6,0,0,1,84.96,81.313Z" transform="translate(-48)" fill="#0045c1"/>
    </g>
  </g>
  <g id="Group_366" data-name="Group 366" transform="translate(33.264 33.264)">
    <g id="Group_365" data-name="Group 365">
      <path id="Path_3772" data-name="Path 3772" d="M199.392,162.765V144H192v21.042l9.329,13.461,6.043-4.18Z" transform="translate(-192 -144)" fill="#0045c1"/>
    </g>
  </g>
</svg>
