<svg xmlns="http://www.w3.org/2000/svg" width="637.73" height="546.791" viewBox="0 0 637.73 546.791">
  <g id="Group_1451" data-name="Group 1451" transform="translate(-41.748 -375)">
    <g id="Group_1441" data-name="Group 1441" transform="translate(41.748 375)">
      <g id="Group_359" data-name="Group 359" transform="translate(108.974 120.693)">
        <path id="Path_3763" data-name="Path 3763" d="M158.2,26.4l-9.965,45.4L20.9,243.426,129.413,44.116Z" transform="translate(-20.9 -26.4)" fill="#f0f0f0"/>
        <g id="Group_358" data-name="Group 358" transform="translate(90.797)">
          <path id="Path_3764" data-name="Path 3764" d="M29.1,26.4l9.965,45.4L167.51,243.426,59,44.116Z" transform="translate(-29.1 -26.4)" fill="#f0f0f0"/>
        </g>
      </g>
      <path id="Path_3765" data-name="Path 3765" d="M420.285,332.181l-1.107,3.322C391.5,405.262,321.738,450.66,240.906,450.66c-116.264,0-204.846-88.582-204.846-205.954S124.642,38.753,240.906,38.753c79.724,0,150.59,46.506,178.272,115.157l1.107,3.322h24.36l-3.322-7.751C411.427,69.757,330.6,15.5,239.8,15.5,109.14,15.5,11.7,114.048,11.7,243.6c0,130.659,98.548,228.1,228.1,228.1,90.8,0,171.628-53.149,201.525-133.981l3.322-7.751h-24.36Z" transform="translate(-11.7 -15.5)" fill="#f0f0f0"/>
    </g>
    <g id="Group_1440" data-name="Group 1440" transform="translate(383.237 425.698)">
      <path id="Path_5196" data-name="Path 5196" d="M313.429,492.277c-.281.317-.561.643-.833.969a106.711,106.711,0,0,0-10.248,14.069c-.244.38-.48.77-.7,1.15a112.852,112.852,0,0,0-14.386,38.965q-.788,4.671-1.186,9.4-.285,3.639-.344,7.288c-.145,10.212.76,21.574-5.821,29.378a20.533,20.533,0,0,1-6.319,4.961,26.377,26.377,0,0,1-5.722,2.164H247.349c-1.032-.154-2.064-.317-3.1-.48-.027,0-.054-.009-.081-.009l-.208.072-1.24.416-.054.018v-.018a.4.4,0,0,0-.009-.109,1.335,1.335,0,0,0-.009-.2V600.3c-.009-.181-.018-.353-.018-.534l-.027-.48s-.009-.009,0-.009c-.009-.272-.027-.543-.036-.824-.951-23.629,1.367-48.046,12.521-68.85a76.923,76.923,0,0,1,14.594-19.2,1.252,1.252,0,0,1,.109-.1c11.6-11.063,26.59-18.3,42.415-18.052Q312.818,492.249,313.429,492.277Z" transform="translate(-95.371 -104.542)" fill="#f0f0f0"/>
      <path id="Path_5197" data-name="Path 5197" d="M313.494,492.734a95.849,95.849,0,0,0-41.639,41.758,41.29,41.29,0,0,0-4.211,12.227,23.669,23.669,0,0,0,1.543,12.363c1.428,3.675,3.313,7.269,3.821,11.227a14.5,14.5,0,0,1-3.6,11.3c-3.294,3.883-7.787,6.352-12.264,8.612-4.971,2.51-10.175,5.039-13.627,9.577-.418.55-1.247-.131-.829-.68,6.005-7.9,16.582-9.618,23.785-16.038,3.361-3,5.839-7.023,5.56-11.661-.244-4.056-2.185-7.763-3.662-11.472a25.26,25.26,0,0,1-1.96-12.032,38.17,38.17,0,0,1,3.725-12.344,93,93,0,0,1,16.5-23.923,97.538,97.538,0,0,1,26.478-19.916c.613-.314.982.693.373,1.006Z" transform="translate(-95.39 -104.488)" fill="#fff"/>
      <path id="Path_5198" data-name="Path 5198" d="M277.148,530.482a14.382,14.382,0,0,1-4.795-17.993c.3-.622,1.28-.187.981.435a13.314,13.314,0,0,0,4.493,16.728C278.4,530.043,277.714,530.869,277.148,530.482Z" transform="translate(-98.076 -106.43)" fill="#fff"/>
      <path id="Path_5199" data-name="Path 5199" d="M270.852,563.066a27.717,27.717,0,0,0,17.291-10.441c.42-.549,1.249.132.829.68a28.829,28.829,0,0,1-18.015,10.829c-.682.115-.783-.953-.105-1.067Z" transform="translate(-98.023 -110.24)" fill="#fff"/>
      <path id="Path_5200" data-name="Path 5200" d="M300.205,506.215a8.138,8.138,0,0,0,7.339,2.41c.68-.124.781.944.105,1.067a9.121,9.121,0,0,1-8.124-2.647.555.555,0,0,1-.075-.755.54.54,0,0,1,.755-.075Z" transform="translate(-100.763 -105.854)" fill="#fff"/>
      <path id="Path_5201" data-name="Path 5201" d="M363.419,563.346c-.416.091-.833.181-1.258.281h-.009a107.8,107.8,0,0,0-16.64,5.052c-.416.163-.833.326-1.249.5h-.009a112.964,112.964,0,0,0-34.8,22.344c-.036.036-.072.063-.109.1a.547.547,0,0,1-.072.072l-.045.045a110.142,110.142,0,0,0-11.145,12.276c0,.009-.009.018-.018.027-.543.706-1.1,1.412-1.639,2.137h-53.7l-.054.018v-.018h-.226c0-.009.009-.018.018-.027s.009-.009.009-.018c.063-.091.127-.181.181-.263v-.009a.268.268,0,0,1,.054-.072c.054-.091.118-.163.163-.244.362-.507.715-1.023,1.077-1.53.588-.842,1.186-1.684,1.793-2.517a.009.009,0,0,1,.009-.009h0v-.009c.009-.009.009-.018.018-.027l.018-.018a161.231,161.231,0,0,1,25.494-28.373c.29-.253.579-.507.887-.742a103.949,103.949,0,0,1,13.915-9.931q4.02-2.377,8.284-4.364a77.073,77.073,0,0,1,23.167-6.536h.018c.018,0,.036-.009.063-.009s.045-.009.063-.009c15.943-1.847,32.284,1.4,44.787,11.126C362.794,562.848,363.1,563.093,363.419,563.346Z" transform="translate(-95.377 -110.103)" fill="#f0f0f0"/>
      <path id="Path_5202" data-name="Path 5202" d="M242.444,611.857h.226v.018l.054-.018h14.368c-4.282-.733-8.555-1.3-12.838-.48-.1.018-.19.036-.29.063-.435.081-.869.19-1.3.308l-.091.027a.315.315,0,0,0-.109.054.142.142,0,0,0-.063.027Z" transform="translate(-95.373 -115.783)" fill="#fff"/>
      <path id="Path_5203" data-name="Path 5203" d="M366.788,564.873c-.335-.054-.661-.118-1-.163h-.009a95.413,95.413,0,0,0-21.139-1.068c-.353.018-.715.045-1.077.063a95.363,95.363,0,0,0-28.581,6.509c-.009,0-.009,0-.009.009-.1.036-.2.072-.29.109-2.128.86-4.228,1.8-6.283,2.816a41.385,41.385,0,0,0-10.728,7.224,23.078,23.078,0,0,0-5.622,8.954c-.118.344-.235.679-.344,1.023-.081.272-.163.552-.244.824-1.068,3.793-1.729,7.795-3.7,11.262a13.264,13.264,0,0,1-1.992,2.662,13.676,13.676,0,0,1-2.68,2.164h-2.281a13.14,13.14,0,0,0,3.431-2.164,11.339,11.339,0,0,0,2.073-2.363c2.245-3.386,2.933-7.514,3.983-11.362.172-.625.353-1.231.552-1.838a24.136,24.136,0,0,1,5.133-8.954,38.2,38.2,0,0,1,10.4-7.614q3.667-1.928,7.532-3.495c.335-.145.67-.272,1-.4a97.848,97.848,0,0,1,51.178-5.4c.335.045.661.109,1,.163C367.775,563.958,367.467,564.99,366.788,564.873Z" transform="translate(-99.009 -111.185)" fill="#fff"/>
      <path id="Path_5204" data-name="Path 5204" d="M317.469,568.936a14.379,14.379,0,0,1,7.005-17.252c.613-.318,1.134.62.521.938a13.316,13.316,0,0,0-6.484,16.061c.22.655-.824.9-1.042.253Z" transform="translate(-102.411 -110.164)" fill="#fff"/>
      <path id="Path_5205" data-name="Path 5205" d="M292.817,591.967a27.719,27.719,0,0,0,20.093,2.074c.665-.185.917.858.253,1.043a28.83,28.83,0,0,1-20.9-2.2c-.614-.319-.052-1.233.559-.916Z" transform="translate(-100.068 -113.977)" fill="#fff"/>
      <path id="Path_5206" data-name="Path 5206" d="M351.155,563.36a8.139,8.139,0,0,0,4.408,6.342c.617.31.055,1.225-.559.916a9.126,9.126,0,0,1-4.892-7.005.556.556,0,0,1,.4-.648.54.54,0,0,1,.647.4Z" transform="translate(-105.569 -111.236)" fill="#fff"/>
      <path id="Path_5208" data-name="Path 5208" d="M375.091,73.959A9.964,9.964,0,0,0,365.132,64H98.06A9.979,9.979,0,0,0,88.1,73.913C79.085,159.892,77.591,244.35,83.629,325.64q1.1,15.087,2.571,30.021.788,8,1.675,15.952c.072.688.145,1.376.226,2.064a9.977,9.977,0,0,0,9.959,9.9H365.132a9.964,9.964,0,0,0,9.959-9.959v-.1c-10.8-95.757-10.8-196.511,0-299.474Z" transform="translate(-78.849 -60.143)" fill="#fff"/>
      <path id="Path_5209" data-name="Path 5209" d="M375.091,73.959A9.964,9.964,0,0,0,365.132,64H98.06A9.979,9.979,0,0,0,88.1,73.913C79.085,159.892,77.591,244.35,83.629,325.64q1.1,15.087,2.571,30.021.788,8,1.675,15.952c.072.688.145,1.376.226,2.064a9.977,9.977,0,0,0,9.959,9.9H365.132a9.964,9.964,0,0,0,9.959-9.959v-.1c-10.8-95.757-10.8-196.511,0-299.474ZM373.28,373.677a8.155,8.155,0,0,1-8.148,8.094H98.06a8.16,8.16,0,0,1-8.148-8.148v-.1c-.063-.579-.127-1.168-.19-1.747q-.937-8.311-1.747-16.667-1.426-14.653-2.526-29.468C79.41,244.4,80.9,159.992,89.912,74.049v-.091a8.161,8.161,0,0,1,8.148-8.148H365.132a8.151,8.151,0,0,1,8.148,8.1C362.48,176.958,362.48,277.82,373.28,373.677Z" transform="translate(-79.998 -64)" fill="#e4e4e4"/>
      <path id="a974c3de-8d03-408b-a459-3ce6ba461bdb" d="M120.013,166.29a2.6,2.6,0,0,0,0,5.19H337.049a2.6,2.6,0,0,0,0-5.19Z" transform="translate(-83.541 -73.684)" fill="#e6e6e6"/>
      <path id="e9133026-9528-4ac3-aa69-83f109aff1e3" d="M120.012,183.49a2.6,2.6,0,0,0,0,5.19H267.35a2.6,2.6,0,0,0,0-5.19Z" transform="translate(-83.541 -75.312)" fill="#e6e6e6"/>
      <path id="a406ca83-8296-4426-a4ed-8cd27cbcb96b" d="M120.012,200.3a2.595,2.595,0,0,0,0,5.189H337.048a2.595,2.595,0,0,0,0-5.189Z" transform="translate(-83.541 -76.904)" fill="#e6e6e6"/>
      <path id="be321b5a-3e39-41eb-b9b2-711d73db0143" d="M120.013,217.5a2.6,2.6,0,0,0,0,5.19H267.35a2.6,2.6,0,0,0,0-5.19Z" transform="translate(-83.541 -78.532)" fill="#e6e6e6"/>
      <path id="a5a7e885-834f-470d-9162-1a1fa51c1163" d="M120.013,263.29a2.6,2.6,0,0,0,0,5.19H337.049a2.6,2.6,0,0,0,0-5.19Z" transform="translate(-83.541 -82.867)" fill="#e6e6e6"/>
      <path id="a5fcdb43-4805-483f-9462-6a7e4850dca6" d="M120.012,280.49a2.6,2.6,0,0,0,0,5.19H267.35a2.6,2.6,0,0,0,0-5.19Z" transform="translate(-83.541 -84.495)" fill="#e6e6e6"/>
      <path id="b765b6a8-7afa-43c2-95d1-39dcbde99f83" d="M120.012,297.3a2.595,2.595,0,0,0,0,5.189H337.048a2.595,2.595,0,0,0,0-5.189Z" transform="translate(-83.541 -86.087)" fill="#e6e6e6"/>
      <path id="e421dd9d-74a5-4920-9c7d-c121b8cd01e8" d="M120.013,314.5a2.6,2.6,0,0,0,0,5.19H267.35a2.6,2.6,0,0,0,0-5.19Z" transform="translate(-83.541 -87.715)" fill="#e6e6e6"/>
      <path id="Path_5210" data-name="Path 5210" d="M282.667,583.585l-8.9,2.933-15.552-32.945,13.141-4.329Z" transform="translate(-96.87 -109.939)" fill="#ffd0a6"/>
      <path id="Path_5211" data-name="Path 5211" d="M288.723,594.4l-.607-1.838-1.593-4.844-1.086-3.3-2.969.978-.616-.045-8.157-.552-1.086-.072L271,584.619l-1.666-.118-4.653,6.763h-.009a13.815,13.815,0,0,0-8.076,6.953c-.1.2-.19.4-.281.6a11.706,11.706,0,0,0-.57,1.5,13.784,13.784,0,0,0-.38,6.862,15.94,15.94,0,0,0,.444,1.675l.027.091.109.335.652-.217,5.722-1.883,20.044-6.6,3.974-1.313,1.222-.407h.009l2.372-.779Z" transform="translate(-96.575 -113.269)" fill="#2f2e41"/>
      <path id="Path_5212" data-name="Path 5212" d="M190.557,591.95h-9.374l-4.46-36.157h13.835Z" transform="translate(-89.155 -110.559)" fill="#ffd0a6"/>
      <path id="Path_5213" data-name="Path 5213" d="M174.647,419.491l-4.155,7.188s-4.566,1.247-3.074,16.131c1.054,10.511,1.4,57.57,4.049,88.142,1.1,12.724,2.609,22.592,4.732,25.781L177.5,557.9l13.641,1.3.344-.12L196.5,523.71a59.44,59.44,0,0,0-.4-19.112h0l-.905-9.959,12.56-50.424s12.79,32.318,20.938,63.1c1.962,7.41,9.412,12.122,12.236,18.48.946,2.13,1.877,4.194,2.784,6.175,5.974,13.042,8.968,22.537,11.234,23.327h1.811l10.864-3.621,2.137-5.373-16.623-48.947-12.447-79.03C216.97,405.572,194.722,404.153,174.647,419.491Z" transform="translate(-88.246 -96.602)" fill="#c7c8c8"/>
      <path id="Path_5214" data-name="Path 5214" d="M242.727,300.249a36.9,36.9,0,0,0-2.879-5.188,26.667,26.667,0,0,0-10.113-9.243l-3.567-.788-6.392-1.412-3.368-3.775-5.522-6.183H191.875l-2.544,6.183-2.137,5.188-.914,2.209L170,295.379c-.009,0-.009,0-.018.009q.326,2.444.643,4.862.693,5.255,1.3,10.384.312,2.607.6,5.188.91,8.094,1.566,15.907.584,6.98.932,13.761a302.34,302.34,0,0,1,.127,30.826c-.127,2.417,2.272,5.169,2.082,7.532-.317,3.857-3.3,7.279-3.82,10.964-.326,2.263-.181,4.672-.751,6.808a7.6,7.6,0,0,1-.706,1.793c0,.009-.009.009-.009.018-6.518,11.643-1.4,6.084-2.01,8.7l.29.072c.136.036.552.145,1.222.3,3.83.914,19.618-13.906,30.22-13.906,6.364,0,23.213,10.466,28.853,11.226,4.463.6,8.447,1.141,10.819-.951a5.541,5.541,0,0,0,1.53-2.245l.027-.081-.009-.081-.226-3.033-.136-1.811-1.937-25.983a9.212,9.212,0,0,1-1.177-9.678l.4-.842-1.467-19.628-.272-3.667-.1-1.24v-.009l-.706-9.479,1.7-5.178v-.009l3.314-10.085,1.7-5.188,1.068-3.259.072-.217A37.016,37.016,0,0,0,242.727,300.249Z" transform="translate(-88.386 -83.849)" fill="#1c417f"/>
      <path id="Path_5215" data-name="Path 5215" d="M265.928,398.765,247.677,351.6,239.2,334.371l16.3-9.005,13.128,23.13,8.8,48.327a8.411,8.411,0,1,1-11.688,2.2c.061-.089.123-.177.187-.263Z" transform="translate(-95.07 -88.744)" fill="#ffd0a6"/>
      <path id="Path_5216" data-name="Path 5216" d="M265.346,331.26l-4.672-3.024-5.369-10.04-2.77-5.188-1.747-3.259-.742-1.394-8.392-5.731-5.667-3.875-4.617,3.875-2.2,1.847,2.155,8.537,1.3,5.188,2.843,11.253,8.338,14.748,2.073,3.667,1.186,2.109.009.018.163.281,21.067-.878.661-.027.036-1.5.018-.543c.009-.272.009-.543.009-.815A33.454,33.454,0,0,0,265.346,331.26Z" transform="translate(-94.12 -86.224)" fill="#1c417f"/>
      <path id="Path_5217" data-name="Path 5217" d="M91.893,380.672l37.337-34.117,12.976-14.148,14.3,11.924-16.793,20.624-41.844,25.73a8.411,8.411,0,1,1-6.294-10.093c.105.024.21.051.314.079Z" transform="translate(-80.118 -89.41)" fill="#ffd0a6"/>
      <path id="Path_5218" data-name="Path 5218" d="M173.9,318.048l-.072-5.188-.136-10.384-.054-4.029-.154-.109a6.8,6.8,0,0,0-2.8-1.05,8.1,8.1,0,0,0-2.653,0,9.445,9.445,0,0,0-1.367.317c-.009,0-.009,0-.018.009a15.667,15.667,0,0,0-6.853,4.853l-.009.009A67.635,67.635,0,0,0,152.6,312.86c-1.023,1.738-2,3.495-2.915,5.188-3.458,6.437-5.948,12.014-5.993,12.113l-10.339,13.426.145.244,2.272,3.884,8.329,14.241,1.322,2.263,3.377-1.8a19.629,19.629,0,0,0,8.8-9.578l1.2-4.6.444-.525,11.516-13.761,3.3-3.947Z" transform="translate(-85.049 -86.075)" fill="#1c417f"/>
      <circle id="Ellipse_295" data-name="Ellipse 295" cx="17.428" cy="17.428" r="17.428" transform="translate(93.678 151.874)" fill="#ffd0a6"/>
      <path id="Path_5219" data-name="Path 5219" d="M183.929,236.854c-.775-2.711-2.324-5.035-1.549-5.035s1.162-1.936,1.162-1.936.775-.387,1.162,0,.774-2.711.774-2.711.387-1.162.775-.387.387.387.774-.775,2.324-1.937,2.324-1.937,7.358.387,8.521-1.162,14.33-.387,17.041,1.549,13.392,5.4,7.054,16.262c3.621,6.337-1.784,17.64-3.181,18.981-2.209,2.121-3.738,2.885-14.191,4.966-2.045.407-7.072-16.7-7.072-16.7S184.7,239.564,183.929,236.854Z" transform="translate(-89.671 -78.976)" fill="#05264f"/>
      <path id="Path_5220" data-name="Path 5220" d="M189.213,593.651l-.561-.226-10.085-4.11-1.548-.625-6.536,4.961h-.009a13.941,13.941,0,0,0-13.924,13.933v.453h35.788V593.651Z" transform="translate(-87.245 -113.673)" fill="#2f2e41"/>
      <path id="Path_5221" data-name="Path 5221" d="M289.347,610.637a1.082,1.082,0,0,1-1.077,1.086H104.216a1.082,1.082,0,1,1,0-2.164H288.269A1.08,1.08,0,0,1,289.347,610.637Z" transform="translate(-82.188 -115.649)" fill="#ccc"/>
      <text id="ChronoAlerts" transform="translate(87.198 62.616)" fill="#a0a0a0" font-size="15" font-family="Roboto-Regular, Roboto"><tspan x="0" y="0">ChronoAlerts</tspan></text>
      <g id="Group_1442" data-name="Group 1442" transform="translate(50.718 46.172)">
        <g id="Group_359-2" data-name="Group 359" transform="translate(6.272 6.946)">
          <path id="Path_3763-2" data-name="Path 3763" d="M28.8,26.4l-.574,2.613L20.9,38.89l6.245-11.47Z" transform="translate(-20.9 -26.4)" fill="#0156df"/>
          <g id="Group_358-2" data-name="Group 358" transform="translate(5.225)">
            <path id="Path_3764-2" data-name="Path 3764" d="M29.1,26.4l.574,2.613,7.392,9.877L30.821,27.42Z" transform="translate(-29.1 -26.4)" fill="#0156df"/>
          </g>
        </g>
        <path id="Path_3765-2" data-name="Path 3765" d="M35.214,33.725l-.064.191a10.821,10.821,0,0,1-10.26,6.627A11.581,11.581,0,0,1,13.1,28.691,11.581,11.581,0,0,1,24.891,16.838a10.981,10.981,0,0,1,10.26,6.627l.064.191h1.4l-.191-.446a12.3,12.3,0,0,0-11.6-7.711A12.835,12.835,0,0,0,11.7,28.627,12.835,12.835,0,0,0,24.827,41.755a12.207,12.207,0,0,0,11.6-7.711l.191-.446h-1.4Z" transform="translate(-11.7 -15.5)" fill="#0156df"/>
      </g>
    </g>
  </g>
</svg>
