<svg id="world" xmlns="http://www.w3.org/2000/svg" width="88.55" height="88.564" viewBox="0 0 88.55 88.564">
  <g id="Group_362" data-name="Group 362" transform="translate(0)">
    <path id="Path_3766" data-name="Path 3766" d="M55.365,13.881l-1.325.42-7.056.629L44.99,18.112l-1.446-.46-5.616-5.063-.815-2.633L36.023,7.149,32.493,3.983,28.33,3.168l-.1,1.906,4.079,3.981,2,2.351-2.244,1.173-1.827-.538L27.5,10.9l.093-2.207L24,7.213,22.81,12.4l-3.62.82.358,2.9,4.716.908.815-4.626,3.893.575,1.81,1.06h2.9l1.987,3.981,5.269,5.345-.386,2.078L36.308,24.9,28.967,28.6l-5.286,6.34-.688,2.808H21.1l-3.535-1.629-3.434,1.629.854,3.623,1.494-1.722,2.627-.082-.183,3.253,2.176.637L23.269,45.9l3.549-1,4.054.64L35.58,46.81l2.351.276,3.986,4.525,7.693,4.525-4.976,9.506-5.252,2.441L37.39,73.515l-7.6,5.074-.809,2.926A44.224,44.224,0,0,0,55.365,13.881Z" transform="translate(25.687 5.763)" fill="#0046c2"/>
    <path id="Path_3767" data-name="Path 3767" d="M49.369,53.723l-3.225-5.979,2.96-6.168-2.96-.885L42.82,37.352,35.457,35.7l-2.444-5.114v3.036H31.936l-6.346-8.6V17.951l-4.651-7.564L13.553,11.7H8.577l-2.5-1.641L9.268,7.532l-3.186.736a44.221,44.221,0,0,0,38.2,66.6,46.357,46.357,0,0,0,5.556-.386l-.462-5.365S51.4,61.145,51.4,60.875,49.369,53.723,49.369,53.723Z" transform="translate(-0.004 13.701)" fill="#0046c2"/>
    <path id="Path_3768" data-name="Path 3768" d="M9.922,14.279l7.865-1.1,3.625-1.987,4.079,1.176,6.518-.361L34.242,8.5l3.256.536,7.908-.741,2.179-2.4L50.658,3.84,55,4.494l1.584-.24A44.136,44.136,0,0,0,3.6,16.1h.023ZM39.613,4.4l4.522-2.489,2.9,1.677-4.2,3.2-4.014.4L37.013,6.022Zm-13.393.364,2,.832,2.613-.832,1.424,2.467L26.219,8.818l-2.9-1.7S26.154,5.294,26.219,4.767Z" transform="translate(6.53 0)" fill="#0046c2"/>
  </g>
</svg>
